<svg width="1170" height="134" xmlns="http://www.w3.org/2000/svg" xmlns:xlink="http://www.w3.org/1999/xlink" xml:space="preserve" overflow="hidden"><defs><filter id="fx0" x="-10%" y="-10%" width="120%" height="120%" filterUnits="userSpaceOnUse" primitiveUnits="userSpaceOnUse"><feComponentTransfer color-interpolation-filters="sRGB"><feFuncR type="discrete" tableValues="1 1"/><feFuncG type="discrete" tableValues="1 1"/><feFuncB type="discrete" tableValues="1 1"/><feFuncA type="linear" slope="0.4" intercept="0"/></feComponentTransfer><feGaussianBlur stdDeviation="0 0"/></filter><filter id="fx1" x="-10%" y="-10%" width="120%" height="120%" filterUnits="userSpaceOnUse" primitiveUnits="userSpaceOnUse"><feComponentTransfer color-interpolation-filters="sRGB"><feFuncR type="discrete" tableValues="1 1"/><feFuncG type="discrete" tableValues="1 1"/><feFuncB type="discrete" tableValues="1 1"/><feFuncA type="linear" slope="0.4" intercept="0"/></feComponentTransfer><feGaussianBlur stdDeviation="0 0"/></filter><filter id="fx2" x="-10%" y="-10%" width="120%" height="120%" filterUnits="userSpaceOnUse" primitiveUnits="userSpaceOnUse"><feComponentTransfer color-interpolation-filters="sRGB"><feFuncR type="discrete" tableValues="1 1"/><feFuncG type="discrete" tableValues="1 1"/><feFuncB type="discrete" tableValues="1 1"/><feFuncA type="linear" slope="0.4" intercept="0"/></feComponentTransfer><feGaussianBlur stdDeviation="0 0"/></filter><filter id="fx3" x="-10%" y="-10%" width="120%" height="120%" filterUnits="userSpaceOnUse" primitiveUnits="userSpaceOnUse"><feComponentTransfer color-interpolation-filters="sRGB"><feFuncR type="discrete" tableValues="1 1"/><feFuncG type="discrete" tableValues="1 1"/><feFuncB type="discrete" tableValues="1 1"/><feFuncA type="linear" slope="0.4" intercept="0"/></feComponentTransfer><feGaussianBlur stdDeviation="0 0"/></filter><filter id="fx4" x="-10%" y="-10%" width="120%" height="120%" filterUnits="userSpaceOnUse" primitiveUnits="userSpaceOnUse"><feComponentTransfer color-interpolation-filters="sRGB"><feFuncR type="discrete" tableValues="1 1"/><feFuncG type="discrete" tableValues="1 1"/><feFuncB type="discrete" tableValues="1 1"/><feFuncA type="linear" slope="0.4" intercept="0"/></feComponentTransfer><feGaussianBlur stdDeviation="0 0"/></filter><filter id="fx5" x="-10%" y="-10%" width="120%" height="120%" filterUnits="userSpaceOnUse" primitiveUnits="userSpaceOnUse"><feComponentTransfer color-interpolation-filters="sRGB"><feFuncR type="discrete" tableValues="1 1"/><feFuncG type="discrete" tableValues="1 1"/><feFuncB type="discrete" tableValues="1 1"/><feFuncA type="linear" slope="0.4" intercept="0"/></feComponentTransfer><feGaussianBlur stdDeviation="0 0"/></filter><filter id="fx6" x="-10%" y="-10%" width="120%" height="120%" filterUnits="userSpaceOnUse" primitiveUnits="userSpaceOnUse"><feComponentTransfer color-interpolation-filters="sRGB"><feFuncR type="discrete" tableValues="1 1"/><feFuncG type="discrete" tableValues="1 1"/><feFuncB type="discrete" tableValues="1 1"/><feFuncA type="linear" slope="0.4" intercept="0"/></feComponentTransfer><feGaussianBlur stdDeviation="0 0"/></filter><filter id="fx7" x="-10%" y="-10%" width="120%" height="120%" filterUnits="userSpaceOnUse" primitiveUnits="userSpaceOnUse"><feComponentTransfer color-interpolation-filters="sRGB"><feFuncR type="discrete" tableValues="1 1"/><feFuncG type="discrete" tableValues="1 1"/><feFuncB type="discrete" tableValues="1 1"/><feFuncA type="linear" slope="0.4" intercept="0"/></feComponentTransfer><feGaussianBlur stdDeviation="0 0"/></filter><filter id="fx8" x="-10%" y="-10%" width="120%" height="120%" filterUnits="userSpaceOnUse" primitiveUnits="userSpaceOnUse"><feComponentTransfer color-interpolation-filters="sRGB"><feFuncR type="discrete" tableValues="1 1"/><feFuncG type="discrete" tableValues="1 1"/><feFuncB type="discrete" tableValues="1 1"/><feFuncA type="linear" slope="0.4" intercept="0"/></feComponentTransfer><feGaussianBlur stdDeviation="0 0"/></filter><filter id="fx9" x="-10%" y="-10%" width="120%" height="120%" filterUnits="userSpaceOnUse" primitiveUnits="userSpaceOnUse"><feComponentTransfer color-interpolation-filters="sRGB"><feFuncR type="discrete" tableValues="1 1"/><feFuncG type="discrete" tableValues="1 1"/><feFuncB type="discrete" tableValues="1 1"/><feFuncA type="linear" slope="0.4" intercept="0"/></feComponentTransfer><feGaussianBlur stdDeviation="0 0"/></filter><filter id="fx10" x="-10%" y="-10%" width="120%" height="120%" filterUnits="userSpaceOnUse" primitiveUnits="userSpaceOnUse"><feComponentTransfer color-interpolation-filters="sRGB"><feFuncR type="discrete" tableValues="1 1"/><feFuncG type="discrete" tableValues="1 1"/><feFuncB type="discrete" tableValues="1 1"/><feFuncA type="linear" slope="0.4" intercept="0"/></feComponentTransfer><feGaussianBlur stdDeviation="0 0"/></filter><filter id="fx11" x="-10%" y="-10%" width="120%" height="120%" filterUnits="userSpaceOnUse" primitiveUnits="userSpaceOnUse"><feComponentTransfer color-interpolation-filters="sRGB"><feFuncR type="discrete" tableValues="1 1"/><feFuncG type="discrete" tableValues="1 1"/><feFuncB type="discrete" tableValues="1 1"/><feFuncA type="linear" slope="0.4" intercept="0"/></feComponentTransfer><feGaussianBlur stdDeviation="0 0"/></filter><filter id="fx12" x="-10%" y="-10%" width="120%" height="120%" filterUnits="userSpaceOnUse" primitiveUnits="userSpaceOnUse"><feComponentTransfer color-interpolation-filters="sRGB"><feFuncR type="discrete" tableValues="1 1"/><feFuncG type="discrete" tableValues="1 1"/><feFuncB type="discrete" tableValues="1 1"/><feFuncA type="linear" slope="0.4" intercept="0"/></feComponentTransfer><feGaussianBlur stdDeviation="0 0"/></filter><filter id="fx13" x="-10%" y="-10%" width="120%" height="120%" filterUnits="userSpaceOnUse" primitiveUnits="userSpaceOnUse"><feComponentTransfer color-interpolation-filters="sRGB"><feFuncR type="discrete" tableValues="1 1"/><feFuncG type="discrete" tableValues="1 1"/><feFuncB type="discrete" tableValues="1 1"/><feFuncA type="linear" slope="0.4" intercept="0"/></feComponentTransfer><feGaussianBlur stdDeviation="0 0"/></filter><filter id="fx14" x="-10%" y="-10%" width="120%" height="120%" filterUnits="userSpaceOnUse" primitiveUnits="userSpaceOnUse"><feComponentTransfer color-interpolation-filters="sRGB"><feFuncR type="discrete" tableValues="1 1"/><feFuncG type="discrete" tableValues="1 1"/><feFuncB type="discrete" tableValues="1 1"/><feFuncA type="linear" slope="0.4" intercept="0"/></feComponentTransfer><feGaussianBlur stdDeviation="0 0"/></filter><filter id="fx15" x="-10%" y="-10%" width="120%" height="120%" filterUnits="userSpaceOnUse" primitiveUnits="userSpaceOnUse"><feComponentTransfer color-interpolation-filters="sRGB"><feFuncR type="discrete" tableValues="1 1"/><feFuncG type="discrete" tableValues="1 1"/><feFuncB type="discrete" tableValues="1 1"/><feFuncA type="linear" slope="0.4" intercept="0"/></feComponentTransfer><feGaussianBlur stdDeviation="0 0"/></filter><filter id="fx16" x="-10%" y="-10%" width="120%" height="120%" filterUnits="userSpaceOnUse" primitiveUnits="userSpaceOnUse"><feComponentTransfer color-interpolation-filters="sRGB"><feFuncR type="discrete" tableValues="1 1"/><feFuncG type="discrete" tableValues="1 1"/><feFuncB type="discrete" tableValues="1 1"/><feFuncA type="linear" slope="0.4" intercept="0"/></feComponentTransfer><feGaussianBlur stdDeviation="0 0"/></filter><clipPath id="clip17"><rect x="677" y="1255" width="1170" height="134"/></clipPath><clipPath id="clip18"><rect x="0" y="1" width="46" height="57"/></clipPath><clipPath id="clip19"><rect x="0" y="0" width="46" height="59"/></clipPath><clipPath id="clip20"><rect x="0" y="1" width="51" height="23"/></clipPath><clipPath id="clip21"><rect x="0" y="0" width="52" height="25"/></clipPath><clipPath id="clip22"><rect x="0" y="0" width="146" height="41"/></clipPath><clipPath id="clip23"><rect x="0" y="0" width="147" height="42"/></clipPath><clipPath id="clip24"><rect x="0" y="1" width="751" height="77"/></clipPath><clipPath id="clip25"><rect x="0" y="0" width="752" height="79"/></clipPath><clipPath id="clip26"><rect x="1" y="1" width="42" height="59"/></clipPath><clipPath id="clip27"><rect x="0" y="0" width="44" height="61"/></clipPath><clipPath id="clip28"><rect x="1" y="1" width="26" height="40"/></clipPath><clipPath id="clip29"><rect x="0" y="0" width="27" height="42"/></clipPath><clipPath id="clip30"><rect x="1" y="0" width="51" height="7"/></clipPath><clipPath id="clip31"><rect x="0" y="0" width="52" height="7"/></clipPath><clipPath id="clip32"><rect x="1" y="1" width="42" height="59"/></clipPath><clipPath id="clip33"><rect x="0" y="0" width="44" height="61"/></clipPath><clipPath id="clip34"><rect x="1" y="1" width="27" height="40"/></clipPath><clipPath id="clip35"><rect x="0" y="0" width="28" height="41"/></clipPath><clipPath id="clip36"><rect x="1" y="0" width="51" height="7"/></clipPath><clipPath id="clip37"><rect x="0" y="0" width="52" height="7"/></clipPath><clipPath id="clip38"><rect x="0" y="1" width="43" height="59"/></clipPath><clipPath id="clip39"><rect x="0" y="0" width="44" height="61"/></clipPath><clipPath id="clip40"><rect x="0" y="0" width="27" height="40"/></clipPath><clipPath id="clip41"><rect x="0" y="0" width="27" height="40"/></clipPath><clipPath id="clip42"><rect x="1" y="0" width="51" height="7"/></clipPath><clipPath id="clip43"><rect x="0" y="0" width="52" height="7"/></clipPath><clipPath id="clip44"><rect x="0" y="1" width="43" height="59"/></clipPath><clipPath id="clip45"><rect x="0" y="0" width="44" height="61"/></clipPath><clipPath id="clip46"><rect x="0" y="1" width="28" height="40"/></clipPath><clipPath id="clip47"><rect x="0" y="0" width="28" height="42"/></clipPath><clipPath id="clip48"><rect x="0" y="0" width="13" height="22"/></clipPath><clipPath id="clip49"><rect x="0" y="0" width="14" height="22"/></clipPath><clipPath id="clip50"><rect x="0" y="1" width="37" height="57"/></clipPath><clipPath id="clip51"><rect x="0" y="0" width="37" height="59"/></clipPath></defs><g clip-path="url(#clip17)" transform="translate(-677 -1255)"><g clip-path="url(#clip18)" filter="url(#fx0)" transform="translate(729 1293)"><g clip-path="url(#clip19)"><path d="M31.7322 1.17603C36.2173 1.17603 39.6081 2.0271 41.9046 3.72925 44.2011 5.4314 45.3494 7.90357 45.3494 11.1458 45.3494 13.2262 44.6807 15.1377 43.3433 16.8804 42.0059 18.6231 40.216 20.0145 37.9734 21.0547 35.7309 22.0949 33.637 22.615 31.6917 22.615 29.9896 22.615 28.5238 22.3245 27.2945 21.7437 26.0652 21.1628 24.7615 20.1293 23.3836 18.6433L28.7332 15.6443C29.4897 16.7791 30.2733 17.6301 31.0838 18.1975 31.8943 18.7649 32.7995 19.0486 33.7991 19.0486 35.2041 19.0486 36.3051 18.5352 37.1021 17.5085 37.8991 16.4819 38.2977 15.1715 38.2977 13.5774 38.2977 11.0377 37.5547 9.09912 36.0687 7.76172 34.5827 6.42432 32.3537 5.75562 29.3816 5.75562 26.6258 5.75562 23.9713 6.57968 21.418 8.22779 18.8648 9.8759 16.5953 12.3008 14.6094 15.5024 12.6236 18.7041 11.0836 22.5272 9.98932 26.9717 8.89508 31.4162 8.34796 35.5297 8.34796 39.3123 8.34796 41.0955 8.51682 42.8111 8.85455 44.4592 9.19228 46.1073 9.75291 47.5596 10.5364 48.8159 11.32 50.0723 12.3534 51.0719 13.6368 51.8149 14.9201 52.5579 16.494 52.9294 18.3582 52.9294 21.5464 52.9294 24.6062 52.2405 27.5377 50.8625 30.4691 49.4846 33.556 47.2016 36.7982 44.0134L39.2703 46.5667 39.2703 48.3499C36.1902 50.9706 33.4614 52.9159 31.0838 54.1858 28.7062 55.4556 26.2948 56.3878 23.8497 56.9822 21.4045 57.5766 18.8716 57.8738 16.2508 57.8738 11.4145 57.8738 7.64549 56.2729 4.94367 53.0713 2.24184 49.8696 0.890931 45.3914 0.890931 39.6365 0.890931 35.8809 1.30296 32.3618 2.12701 29.0791 2.95107 25.7964 4.13312 22.615 5.67316 19.5349 7.2132 16.4548 9.07745 13.7125 11.2659 11.3079 13.4544 8.90324 15.7577 6.95793 18.1758 5.47193 20.594 3.98593 22.9513 2.89844 25.2479 2.20948 27.5444 1.52051 29.7059 1.17603 31.7322 1.17603Z" fill-rule="evenodd"/></g></g><path d="M759.269 1292.95C763.754 1292.95 767.145 1293.8 769.441 1295.5 771.738 1297.2 772.886 1299.68 772.886 1302.92 772.886 1305 772.217 1306.91 770.88 1308.65 769.542 1310.4 767.752 1311.79 765.51 1312.83 763.267 1313.87 761.174 1314.39 759.228 1314.39 757.526 1314.39 756.06 1314.1 754.831 1313.52 753.602 1312.93 752.298 1311.9 750.92 1310.42L756.27 1307.42C757.026 1308.55 757.81 1309.4 758.62 1309.97 759.431 1310.54 760.336 1310.82 761.336 1310.82 762.741 1310.82 763.842 1310.31 764.639 1309.28 765.436 1308.25 765.834 1306.94 765.834 1305.35 765.834 1302.81 765.091 1300.87 763.605 1299.53 762.119 1298.2 759.89 1297.53 756.918 1297.53 754.162 1297.53 751.508 1298.35 748.955 1300 746.401 1301.65 744.132 1304.07 742.146 1307.27 740.16 1310.48 738.62 1314.3 737.526 1318.74 736.432 1323.19 735.884 1327.3 735.884 1331.08 735.884 1332.87 736.053 1334.58 736.391 1336.23 736.729 1337.88 737.289 1339.33 738.073 1340.59 738.856 1341.84 739.89 1342.84 741.173 1343.59 742.457 1344.33 744.03 1344.7 745.895 1344.7 749.083 1344.7 752.143 1344.01 755.074 1342.63 758.006 1341.26 761.092 1338.97 764.335 1335.79L766.807 1338.34 766.807 1340.12C763.727 1342.74 760.998 1344.69 758.62 1345.96 756.243 1347.23 753.831 1348.16 751.386 1348.75 748.941 1349.35 746.408 1349.65 743.787 1349.65 738.951 1349.65 735.182 1348.04 732.48 1344.84 729.778 1341.64 728.427 1337.16 728.427 1331.41 728.427 1327.65 728.839 1324.13 729.664 1320.85 730.488 1317.57 731.67 1314.39 733.21 1311.31 734.75 1308.23 736.614 1305.48 738.802 1303.08 740.991 1300.68 743.294 1298.73 745.712 1297.24 748.13 1295.76 750.488 1294.67 752.784 1293.98 755.081 1293.29 757.242 1292.95 759.269 1292.95Z" fill-rule="evenodd"/><text fill="#000000" fill-opacity="0" font-family="Arial,Arial_MSFontService,sans-serif" font-size="56.6978" x="728.427" y="1342.56">𝒞</text><g clip-path="url(#clip20)" filter="url(#fx1)" transform="translate(807 1314)"><g clip-path="url(#clip21)"><path d="M0.654969 18.2312 50.5847 18.2312 50.5847 23.6213 0.654969 23.6213ZM0.654969 1.41236 50.5847 1.41236 50.5847 6.80249 0.654969 6.80249Z" fill-rule="evenodd"/></g></g><path d="M806.191 1331 856.121 1331 856.121 1336.39 806.191 1336.39ZM806.191 1314.18 856.121 1314.18 856.121 1319.57 806.191 1319.57Z" fill-rule="evenodd"/><text fill="#000000" fill-opacity="0" font-family="Arial,Arial_MSFontService,sans-serif" font-size="22.209" x="806.191" y="1333.62">=</text><g clip-path="url(#clip22)" filter="url(#fx2)" transform="translate(889 1310)"><g clip-path="url(#clip23)"><path d="M93.075 21.7449C87.5903 21.7989 83.4835 22.5284 80.7547 23.9334 78.0258 25.3383 76.6614 27.4592 76.6614 30.2961 76.6614 31.8362 76.9721 33.052 77.5936 33.9436 78.215 34.8352 78.9985 35.4499 79.9441 35.7876 80.8898 36.1253 82.011 36.2942 83.3079 36.2942 85.1451 36.2942 86.8135 35.8484 88.313 34.9568 89.8126 34.0652 90.9811 32.9304 91.8187 31.5525 92.6562 30.1746 93.075 28.8101 93.075 27.4592ZM108.11 1.4812 123.997 1.4812 123.997 3.46704C121.862 3.79126 120.795 4.62883 120.795 5.97974 120.795 6.60116 120.937 7.22258 121.221 7.844 121.504 8.46541 121.943 9.15438 122.538 9.91089L127.482 16.8411 132.751 10.1541C133.318 9.42456 133.777 8.71533 134.129 8.02637 134.48 7.33741 134.656 6.62818 134.656 5.89869 134.656 5.27727 134.426 4.76392 133.967 4.35865 133.507 3.95337 132.791 3.65617 131.819 3.46704L131.819 1.4812 145.071 1.4812 145.071 3.46704C144.044 3.76424 142.997 4.34514 141.93 5.20972 140.863 6.0743 139.559 7.46574 138.019 9.38404L129.63 19.678 138.87 32.1199C140.194 33.9031 141.383 35.2675 142.437 36.2131 143.491 37.1588 144.544 37.8342 145.598 38.2395L145.598 40.2253 129.306 40.2253 129.306 38.2395C131.548 37.9693 132.67 37.1318 132.67 35.7268 132.67 35.1594 132.575 34.6191 132.386 34.1057 132.197 33.5924 131.846 32.998 131.332 32.3225L125.456 24.136 119.215 32.2415C118.755 32.8359 118.397 33.383 118.141 33.8828 117.884 34.3826 117.756 34.9433 117.756 35.5647 117.756 36.2942 118.006 36.8953 118.505 37.3682 119.005 37.841 119.796 38.1314 120.876 38.2395L120.876 40.2253 107.34 40.2253 107.34 38.2395C108.232 37.9153 109.036 37.51 109.752 37.0237 110.467 36.5374 111.197 35.9092 111.94 35.1392 112.683 34.3691 113.662 33.2411 114.878 31.7551L123.308 21.2991 114.676 9.46509C113.487 7.844 112.541 6.6687 111.839 5.93921 111.136 5.20972 110.488 4.65585 109.893 4.27759 109.299 3.89934 108.705 3.62915 108.11 3.46704ZM25.2098 0.832767C27.9116 0.832767 30.1136 1.45419 31.8157 2.69703 33.5179 3.93987 34.6932 5.84465 35.3416 8.41138 37.368 6.35799 39.0093 4.84497 40.2657 3.87232 41.522 2.89966 42.8054 2.14991 44.1158 1.62305 45.4262 1.0962 46.8379 0.832767 48.3509 0.832767 50.1611 0.832767 51.7214 1.0962 53.0318 1.62305 54.3422 2.14991 55.4499 2.96045 56.355 4.05469 57.2602 5.14893 57.9221 6.5201 58.3409 8.16822 58.7597 9.81633 58.9691 12.0318 58.9691 14.8147L58.9691 30.0935C58.9691 32.1469 59.0366 33.5653 59.1717 34.3489 59.3068 35.1324 59.5027 35.7403 59.7593 36.1726 60.016 36.6049 60.401 36.9764 60.9144 37.2871 61.4277 37.5978 62.2923 37.9153 63.5081 38.2395L63.5081 40.2253 47.5809 40.2253 47.5809 38.2395C48.6346 37.9153 49.3911 37.6316 49.8504 37.3884 50.3097 37.1453 50.6947 36.8075 51.0054 36.3752 51.3161 35.943 51.5593 35.2743 51.7349 34.3691 51.9105 33.464 51.9984 32.0929 51.9984 30.2556L51.9984 19.6375C51.9984 17.3409 51.9376 15.4429 51.816 13.9434 51.6944 12.4438 51.5053 11.2483 51.2486 10.3567 50.9919 9.46509 50.6812 8.76262 50.3165 8.24927 49.9517 7.73592 49.5397 7.29012 49.0804 6.91187 48.6211 6.53362 48.0807 6.23641 47.4593 6.02027 46.8379 5.80412 46.0138 5.69605 44.9871 5.69605 43.9064 5.69605 42.9 5.91219 41.9678 6.34449 41.0357 6.77678 40.0225 7.50627 38.9283 8.53296 37.834 9.55965 37.0438 10.5931 36.5574 11.6333 36.0711 12.6735 35.8279 13.8961 35.8279 15.301L35.8279 30.0935C35.8279 32.1469 35.8955 33.5653 36.0306 34.3489 36.1657 35.1324 36.3615 35.7403 36.6182 36.1726 36.8749 36.6049 37.2599 36.9764 37.7733 37.2871 38.2866 37.5978 39.1512 37.9153 40.367 38.2395L40.367 40.2253 24.4398 40.2253 24.4398 38.2395C25.4935 37.9153 26.25 37.6316 26.7093 37.3884 27.1686 37.1453 27.5536 36.8075 27.8643 36.3752 28.175 35.943 28.4182 35.2743 28.5938 34.3691 28.7694 33.464 28.8572 32.0929 28.8572 30.2556L28.8572 19.6375C28.8572 17.2328 28.7897 15.274 28.6546 13.761 28.5195 12.248 28.3101 11.0321 28.0264 10.1135 27.7427 9.19491 27.378 8.45191 26.9322 7.88453 26.4864 7.31714 26.0338 6.88485 25.5745 6.58765 25.1152 6.29045 24.5748 6.06755 23.9534 5.91895 23.332 5.77035 22.6295 5.69605 21.846 5.69605 20.7383 5.69605 19.6981 5.94597 18.7254 6.4458 17.7527 6.94564 16.7598 7.66838 15.7466 8.61402 14.7335 9.55965 13.9702 10.5458 13.4568 11.5725 12.9435 12.5992 12.6868 13.707 12.6868 14.8958L12.6868 30.0935C12.6868 31.6335 12.7274 32.8088 12.8084 33.6194 12.8895 34.4299 13.0178 35.0649 13.1934 35.5242 13.369 35.9835 13.5919 36.355 13.8621 36.6387 14.1323 36.9224 14.5173 37.1925 15.0172 37.4492 15.517 37.7059 16.2667 37.9693 17.2664 38.2395L17.2664 40.2253 1.3797 40.2253 1.3797 38.2395C2.40639 37.9153 3.14264 37.6316 3.58844 37.3884 4.03424 37.1453 4.41925 36.8075 4.74347 36.3752 5.06769 35.943 5.31085 35.281 5.47296 34.3894 5.63507 33.4978 5.71613 32.1064 5.71613 30.2151L5.71613 12.5452C5.71613 10.816 5.68911 9.42456 5.63507 8.37085 5.58104 7.31714 5.39191 6.47282 5.06769 5.83789 4.74347 5.20296 4.25039 4.73015 3.58844 4.41944 2.9265 4.10873 1.98761 3.8453 0.771792 3.62915L0.771792 1.4812 10.2552 1.11646 12.7274 1.11646 12.2816 7.72242 12.8489 7.88453C14.47 6.26343 15.8007 5.04086 16.8409 4.2168 17.8811 3.39275 18.8875 2.7308 19.8602 2.23096 20.8328 1.73112 21.7447 1.37313 22.5958 1.15699 23.4468 0.940842 24.3182 0.832767 25.2098 0.832767ZM88.6981 0.79224C91.3729 0.79224 93.5208 1.21778 95.1419 2.06885 96.763 2.91993 97.9788 4.22356 98.7894 5.97974 99.5999 7.73592 100.005 10.3837 100.005 13.9231L100.005 28.0266C100.005 30.026 100.019 31.4377 100.046 32.2617 100.073 33.0858 100.154 33.849 100.289 34.5515 100.424 35.254 100.627 35.8146 100.897 36.2334 101.167 36.6522 101.565 37.0102 102.092 37.3074 102.619 37.6046 103.477 37.9153 104.666 38.2395L104.666 40.2253 93.5613 40.2253 93.764 34.4299 93.1561 34.2678C90.8055 36.6724 88.5967 38.3746 86.5298 39.3743 84.4629 40.3739 82.2677 40.8738 79.9441 40.8738 77.8908 40.8738 76.0805 40.4753 74.5135 39.6782 72.9464 38.8812 71.7441 37.7599 70.9065 36.3145 70.069 34.869 69.6502 33.2006 69.6502 31.3093 69.6502 27.3647 71.6023 24.3184 75.5064 22.1704 79.4105 20.0225 85.2667 18.7729 93.075 18.4216L93.075 15.7874C93.075 12.9775 92.8048 10.762 92.2645 9.14087 91.7241 7.51978 90.873 6.33098 89.7112 5.57447 88.5494 4.81796 86.9959 4.4397 85.0506 4.4397 82.9432 4.4397 81.2478 4.99358 79.9644 6.10132 78.681 7.20907 77.7151 8.87069 77.0667 11.0862L71.7576 11.0862 71.7576 5.81763C74.3514 4.46672 76.5128 3.4738 78.242 2.83887 79.9712 2.20394 81.7003 1.70411 83.4295 1.33936 85.1587 0.974613 86.9148 0.79224 88.6981 0.79224Z" fill-rule="evenodd"/></g></g><path d="M980.612 1330.52C975.127 1330.57 971.02 1331.3 968.291 1332.71 965.562 1334.11 964.198 1336.23 964.198 1339.07 964.198 1340.61 964.509 1341.82 965.13 1342.72 965.751 1343.61 966.535 1344.22 967.481 1344.56 968.426 1344.9 969.548 1345.07 970.844 1345.07 972.682 1345.07 974.35 1344.62 975.85 1343.73 977.349 1342.84 978.518 1341.7 979.355 1340.32 980.193 1338.95 980.612 1337.58 980.612 1336.23ZM995.647 1310.25 1011.53 1310.25 1011.53 1312.24C1009.4 1312.56 1008.33 1313.4 1008.33 1314.75 1008.33 1315.37 1008.47 1315.99 1008.76 1316.62 1009.04 1317.24 1009.48 1317.93 1010.07 1318.68L1015.02 1325.61 1020.29 1318.93C1020.85 1318.2 1021.31 1317.49 1021.67 1316.8 1022.02 1316.11 1022.19 1315.4 1022.19 1314.67 1022.19 1314.05 1021.96 1313.54 1021.5 1313.13 1021.04 1312.73 1020.33 1312.43 1019.36 1312.24L1019.36 1310.25 1032.61 1310.25 1032.61 1312.24C1031.58 1312.54 1030.53 1313.12 1029.47 1313.98 1028.4 1314.85 1027.1 1316.24 1025.56 1318.16L1017.17 1328.45 1026.41 1340.89C1027.73 1342.68 1028.92 1344.04 1029.97 1344.99 1031.03 1345.93 1032.08 1346.61 1033.13 1347.01L1033.13 1349 1016.84 1349 1016.84 1347.01C1019.08 1346.74 1020.21 1345.9 1020.21 1344.5 1020.21 1343.93 1020.11 1343.39 1019.92 1342.88 1019.73 1342.36 1019.38 1341.77 1018.87 1341.09L1012.99 1332.91 1006.75 1341.01C1006.29 1341.61 1005.93 1342.15 1005.68 1342.65 1005.42 1343.15 1005.29 1343.72 1005.29 1344.34 1005.29 1345.07 1005.54 1345.67 1006.04 1346.14 1006.54 1346.61 1007.33 1346.9 1008.41 1347.01L1008.41 1349 994.877 1349 994.877 1347.01C995.768 1346.69 996.572 1346.28 997.288 1345.8 998.004 1345.31 998.734 1344.68 999.477 1343.91 1000.22 1343.14 1001.2 1342.01 1002.41 1340.53L1010.84 1330.07 1002.21 1318.24C1001.02 1316.62 1000.08 1315.44 999.375 1314.71 998.673 1313.98 998.024 1313.43 997.43 1313.05 996.835 1312.67 996.241 1312.4 995.647 1312.24ZM912.746 1309.6C915.448 1309.6 917.65 1310.23 919.352 1311.47 921.054 1312.71 922.23 1314.62 922.878 1317.18 924.904 1315.13 926.546 1313.62 927.802 1312.64 929.059 1311.67 930.342 1310.92 931.652 1310.4 932.963 1309.87 934.374 1309.6 935.887 1309.6 937.698 1309.6 939.258 1309.87 940.568 1310.4 941.879 1310.92 942.986 1311.73 943.892 1312.83 944.797 1313.92 945.459 1315.29 945.877 1316.94 946.296 1318.59 946.506 1320.8 946.506 1323.59L946.506 1338.87C946.506 1340.92 946.573 1342.34 946.708 1343.12 946.843 1343.9 947.039 1344.51 947.296 1344.94 947.552 1345.38 947.938 1345.75 948.451 1346.06 948.964 1346.37 949.829 1346.69 951.045 1347.01L951.045 1349 935.117 1349 935.117 1347.01C936.171 1346.69 936.928 1346.4 937.387 1346.16 937.846 1345.92 938.231 1345.58 938.542 1345.15 938.853 1344.71 939.096 1344.05 939.271 1343.14 939.447 1342.24 939.535 1340.86 939.535 1339.03L939.535 1328.41C939.535 1326.11 939.474 1324.21 939.352 1322.72 939.231 1321.22 939.042 1320.02 938.785 1319.13 938.528 1318.24 938.218 1317.53 937.853 1317.02 937.488 1316.51 937.076 1316.06 936.617 1315.68 936.158 1315.31 935.617 1315.01 934.996 1314.79 934.374 1314.58 933.55 1314.47 932.524 1314.47 931.443 1314.47 930.436 1314.68 929.504 1315.12 928.572 1315.55 927.559 1316.28 926.465 1317.3 925.371 1318.33 924.58 1319.37 924.094 1320.41 923.608 1321.45 923.364 1322.67 923.364 1324.07L923.364 1338.87C923.364 1340.92 923.432 1342.34 923.567 1343.12 923.702 1343.9 923.898 1344.51 924.155 1344.94 924.411 1345.38 924.796 1345.75 925.31 1346.06 925.823 1346.37 926.688 1346.69 927.904 1347.01L927.904 1349 911.976 1349 911.976 1347.01C913.03 1346.69 913.786 1346.4 914.246 1346.16 914.705 1345.92 915.09 1345.58 915.401 1345.15 915.712 1344.71 915.955 1344.05 916.13 1343.14 916.306 1342.24 916.394 1340.86 916.394 1339.03L916.394 1328.41C916.394 1326 916.326 1324.05 916.191 1322.53 916.056 1321.02 915.847 1319.8 915.563 1318.89 915.279 1317.97 914.914 1317.22 914.469 1316.66 914.023 1316.09 913.57 1315.66 913.111 1315.36 912.652 1315.06 912.111 1314.84 911.49 1314.69 910.869 1314.54 910.166 1314.47 909.383 1314.47 908.275 1314.47 907.235 1314.72 906.262 1315.22 905.289 1315.72 904.296 1316.44 903.283 1317.39 902.27 1318.33 901.507 1319.32 900.993 1320.34 900.48 1321.37 900.223 1322.48 900.223 1323.67L900.223 1338.87C900.223 1340.41 900.264 1341.58 900.345 1342.39 900.426 1343.2 900.554 1343.84 900.73 1344.3 900.906 1344.76 901.128 1345.13 901.399 1345.41 901.669 1345.69 902.054 1345.96 902.554 1346.22 903.053 1346.48 903.803 1346.74 904.803 1347.01L904.803 1349 888.916 1349 888.916 1347.01C889.943 1346.69 890.679 1346.4 891.125 1346.16 891.571 1345.92 891.956 1345.58 892.28 1345.15 892.604 1344.71 892.847 1344.05 893.009 1343.16 893.172 1342.27 893.253 1340.88 893.253 1338.99L893.253 1321.32C893.253 1319.59 893.226 1318.2 893.172 1317.14 893.118 1316.09 892.928 1315.24 892.604 1314.61 892.28 1313.97 891.787 1313.5 891.125 1313.19 890.463 1312.88 889.524 1312.62 888.308 1312.4L888.308 1310.25 897.792 1309.89 900.264 1309.89 899.818 1316.49 900.385 1316.66C902.007 1315.04 903.337 1313.81 904.377 1312.99 905.418 1312.16 906.424 1311.5 907.397 1311 908.369 1310.5 909.281 1310.15 910.132 1309.93 910.983 1309.71 911.855 1309.6 912.746 1309.6ZM976.235 1309.56C978.909 1309.56 981.057 1309.99 982.678 1310.84 984.299 1311.69 985.515 1313 986.326 1314.75 987.136 1316.51 987.542 1319.16 987.542 1322.7L987.542 1336.8C987.542 1338.8 987.555 1340.21 987.582 1341.03 987.609 1341.86 987.69 1342.62 987.825 1343.32 987.96 1344.03 988.163 1344.59 988.433 1345.01 988.703 1345.42 989.102 1345.78 989.629 1346.08 990.156 1346.38 991.014 1346.69 992.202 1347.01L992.202 1349 981.098 1349 981.3 1343.2 980.693 1343.04C978.342 1345.44 976.133 1347.15 974.066 1348.15 971.999 1349.15 969.804 1349.65 967.481 1349.65 965.427 1349.65 963.617 1349.25 962.05 1348.45 960.483 1347.65 959.281 1346.53 958.443 1345.09 957.605 1343.64 957.187 1341.97 957.187 1340.08 957.187 1336.14 959.139 1333.09 963.043 1330.94 966.947 1328.79 972.803 1327.54 980.612 1327.19L980.612 1324.56C980.612 1321.75 980.341 1319.53 979.801 1317.91 979.261 1316.29 978.41 1315.1 977.248 1314.35 976.086 1313.59 974.532 1313.21 972.587 1313.21 970.48 1313.21 968.784 1313.77 967.501 1314.87 966.218 1315.98 965.252 1317.64 964.603 1319.86L959.294 1319.86 959.294 1314.59C961.888 1313.24 964.049 1312.25 965.779 1311.61 967.508 1310.98 969.237 1310.48 970.966 1310.11 972.695 1309.75 974.451 1309.56 976.235 1309.56Z" fill-rule="evenodd"/><text fill="#000000" fill-opacity="0" font-family="Arial,Arial_MSFontService,sans-serif" font-size="40.0815" x="888.308" y="1344.64">max</text><g clip-path="url(#clip24)" filter="url(#fx3)" transform="translate(1042 1287)"><g clip-path="url(#clip25)"><path d="M726.057 1.11125C733.946 3.19165 740.005 7.68343 744.233 14.5866 748.462 21.4897 750.576 29.8181 750.576 39.5717 750.576 49.3523 748.468 57.6807 744.254 64.5568 740.039 71.4329 733.973 75.9112 726.057 77.9916L725.084 74.871C731.325 72.7906 735.966 68.6838 739.005 62.5507 742.045 56.4176 743.565 48.6228 743.565 39.1664 743.565 30.0343 742.052 22.4489 739.026 16.4103 736 10.3717 731.312 6.31226 724.963 4.23185ZM25.1803 1.11125 26.2745 4.23185C19.9523 6.31226 15.2714 10.3717 12.2318 16.4103 9.19226 22.4489 7.67249 30.0343 7.67249 39.1664 7.67249 48.6228 9.19226 56.4176 12.2318 62.5507 15.2714 68.6838 19.9117 72.7906 26.153 74.871L25.1803 77.9916C17.264 75.9112 11.1984 71.4329 6.98352 64.5568 2.76868 57.6807 0.661285 49.3523 0.661285 39.5717 0.661285 29.8181 2.77545 21.4897 7.00378 14.5866 11.2321 7.68343 17.291 3.19165 25.1803 1.11125Z" fill-rule="evenodd"/></g></g><path d="M1766.59 1286.88C1774.48 1288.96 1780.54 1293.46 1784.77 1300.36 1789 1307.26 1791.11 1315.59 1791.11 1325.34 1791.11 1335.12 1789 1343.45 1784.79 1350.33 1780.58 1357.2 1774.51 1361.68 1766.59 1363.76L1765.62 1360.64C1771.86 1358.56 1776.5 1354.46 1779.54 1348.32 1782.58 1342.19 1784.1 1334.39 1784.1 1324.94 1784.1 1315.81 1782.59 1308.22 1779.56 1302.18 1776.54 1296.14 1771.85 1292.08 1765.5 1290ZM1065.72 1286.88 1066.81 1290C1060.49 1292.08 1055.81 1296.14 1052.77 1302.18 1049.73 1308.22 1048.21 1315.81 1048.21 1324.94 1048.21 1334.39 1049.73 1342.19 1052.77 1348.32 1055.81 1354.46 1060.45 1358.56 1066.69 1360.64L1065.72 1363.76C1057.8 1361.68 1051.73 1357.2 1047.52 1350.33 1043.31 1343.45 1041.2 1335.12 1041.2 1325.34 1041.2 1315.59 1043.31 1307.26 1047.54 1300.36 1051.77 1293.46 1057.83 1288.96 1065.72 1286.88Z" fill-rule="evenodd"/><g clip-path="url(#clip26)" filter="url(#fx4)" transform="translate(1069 1291)"><g clip-path="url(#clip27)"><path d="M24.9608 1.23072C27.0412 1.23072 28.6353 1.71704 29.743 2.6897 30.8508 3.66236 31.6343 5.19564 32.0936 7.28955 32.5529 9.38346 32.7826 12.4433 32.7826 16.469 32.7826 17.7929 32.7556 19.7112 32.7015 22.2239L32.5394 28.6272C32.3233 34.7063 32.2152 39.4885 32.2152 42.9739 32.2152 45.7838 32.276 47.979 32.3976 49.5596 32.5192 51.1401 32.715 52.3357 32.9852 53.1462 33.2554 53.9568 33.5931 54.5039 33.9984 54.7876 34.4037 55.0713 34.9035 55.2131 35.4979 55.2131 36.2004 55.2131 36.9501 54.9767 37.7472 54.5039 38.5442 54.0311 39.5236 53.1733 40.6854 51.9304L42.955 54.2C41.1988 55.9832 39.4628 57.3746 37.7472 58.3743 36.0315 59.3739 34.5118 59.8738 33.1879 59.8738 31.6478 59.8738 30.4725 59.5631 29.662 58.9417 28.8514 58.3202 28.2638 57.2935 27.899 55.8616 27.5343 54.4296 27.3519 52.3222 27.3519 49.5393 27.3519 45.7027 27.6356 39.421 28.203 30.6941L27.7977 30.6941C19.6923 42.5821 13.5726 52.0925 9.43884 59.2253L1.21179 59.2253 1.61707 57.2395C2.8599 55.7265 4.10274 54.1527 5.34558 52.5181 6.58842 50.8835 8.10144 48.8098 9.88464 46.2971L28.0409 20.5217C28.0139 17.7659 27.8923 15.4558 27.6761 13.5916 27.46 11.7273 27.1628 10.2481 26.7845 9.15381 26.4063 8.05957 25.9065 7.25578 25.285 6.74244 24.6636 6.22909 23.8125 5.97242 22.7318 5.97242 21.8402 5.97242 20.9351 6.22909 20.0165 6.74244 19.0979 7.25578 17.7605 8.30949 16.0043 9.90357L13.8969 7.55298C16.3825 5.09433 18.4427 3.42595 20.0773 2.54786 21.7119 1.66977 23.3397 1.23072 24.9608 1.23072Z" fill-rule="evenodd"/></g></g><path d="M1092.5 1291C1094.58 1291 1096.17 1291.49 1097.28 1292.46 1098.39 1293.43 1099.17 1294.97 1099.63 1297.06 1100.09 1299.16 1100.32 1302.22 1100.32 1306.24 1100.32 1307.56 1100.29 1309.48 1100.24 1312L1100.08 1318.4C1099.86 1324.48 1099.75 1329.26 1099.75 1332.75 1099.75 1335.56 1099.81 1337.75 1099.93 1339.33 1100.06 1340.91 1100.25 1342.11 1100.52 1342.92 1100.79 1343.73 1101.13 1344.28 1101.53 1344.56 1101.94 1344.84 1102.44 1344.99 1103.03 1344.99 1103.74 1344.99 1104.49 1344.75 1105.28 1344.28 1106.08 1343.8 1107.06 1342.95 1108.22 1341.7L1110.49 1343.97C1108.74 1345.76 1107 1347.15 1105.28 1348.15 1103.57 1349.15 1102.05 1349.65 1100.72 1349.65 1099.18 1349.65 1098.01 1349.34 1097.2 1348.71 1096.39 1348.09 1095.8 1347.07 1095.44 1345.63 1095.07 1344.2 1094.89 1342.09 1094.89 1339.31 1094.89 1335.47 1095.17 1329.19 1095.74 1320.47L1095.33 1320.47C1087.23 1332.35 1081.11 1341.86 1076.98 1349L1068.75 1349 1069.15 1347.01C1070.4 1345.5 1071.64 1343.92 1072.88 1342.29 1074.12 1340.66 1075.64 1338.58 1077.42 1336.07L1095.58 1310.29C1095.55 1307.54 1095.43 1305.23 1095.21 1303.36 1095 1301.5 1094.7 1300.02 1094.32 1298.93 1093.94 1297.83 1093.44 1297.03 1092.82 1296.51 1092.2 1296 1091.35 1295.74 1090.27 1295.74 1089.38 1295.74 1088.47 1296 1087.55 1296.51 1086.63 1297.03 1085.3 1298.08 1083.54 1299.68L1081.43 1297.32C1083.92 1294.87 1085.98 1293.2 1087.61 1292.32 1089.25 1291.44 1090.88 1291 1092.5 1291Z" fill-rule="evenodd"/><text fill="#000000" fill-opacity="0" font-family="Arial,Arial_MSFontService,sans-serif" font-size="58.6431" x="1068.75" y="1342.32">𝜆</text><g clip-path="url(#clip28)" filter="url(#fx5)" transform="translate(1116 1327)"><g clip-path="url(#clip29)"><path d="M14.2948 1.49732C15.8833 1.49732 17.3676 1.6661 18.7477 2.00367 20.1277 2.34123 21.3241 2.85254 22.3368 3.5376 23.3495 4.22266 24.1388 5.0765 24.7047 6.09912 25.2706 7.12175 25.5536 8.30819 25.5536 9.65845 25.5536 10.9293 25.3749 12.0512 25.0175 13.0242 24.66 13.9972 24.109 14.8808 23.3644 15.6751 22.6197 16.4693 21.7063 17.1891 20.6241 17.8345 19.542 18.4798 18.2959 19.1003 16.8861 19.696L16.8861 20.0535C18.2165 20.2917 19.4576 20.674 20.6093 21.2002 21.7609 21.7264 22.7687 22.3916 23.6324 23.1958 24.4962 24 25.1763 24.9283 25.6727 25.9807 26.1691 27.0331 26.4174 28.1947 26.4174 29.4656 26.4174 31.0541 26.1195 32.5285 25.5238 33.8887 24.9281 35.2489 24.0345 36.4254 22.8431 37.4182 21.6517 38.4111 20.1823 39.1855 18.4349 39.7415 16.6875 40.2974 14.6423 40.5754 12.2992 40.5754 10.4525 40.5754 8.57605 40.3918 6.6698 40.0244 4.76355 39.6571 2.95658 39.1755 1.2489 38.5798L1.2489 32.1462 5.09119 32.1462C5.40889 33.1391 5.78617 33.988 6.22302 34.6929 6.65987 35.3978 7.17118 35.9736 7.75696 36.4204 8.34273 36.8672 9.01786 37.1899 9.78235 37.3884 10.5468 37.587 11.4156 37.6863 12.3885 37.6863 14.9501 37.6863 16.8911 37.0757 18.2115 35.8545 19.532 34.6333 20.1923 32.7817 20.1923 30.2996 20.1923 27.6586 19.3235 25.658 17.5861 24.2979 15.8486 22.9377 13.2722 22.2576 9.85681 22.2576L7.23572 22.2576 7.23572 19.3982C9.32068 19.2989 11.1227 19.006 12.6417 18.5195 14.1608 18.033 15.4266 17.4026 16.4393 16.6282 17.452 15.8538 18.2066 14.9503 18.703 13.9177 19.1994 12.8852 19.4476 11.7831 19.4476 10.6116 19.4476 8.70532 18.8817 7.20118 17.7499 6.09912 16.618 4.99707 14.9799 4.44605 12.8353 4.44605 11.0284 4.44605 9.51428 4.94247 8.29309 5.93531 7.0719 6.92815 6.13367 8.40747 5.47839 10.3733L1.69568 10.3733 1.69568 4.50562C4.03878 3.51278 6.24784 2.76319 8.32288 2.25684 10.3979 1.75049 12.3885 1.49732 14.2948 1.49732Z" fill-rule="evenodd"/></g></g><path d="M1128.83 1327.27C1130.42 1327.27 1131.9 1327.44 1133.28 1327.78 1134.66 1328.11 1135.86 1328.62 1136.87 1329.31 1137.89 1329.99 1138.68 1330.85 1139.24 1331.87 1139.81 1332.89 1140.09 1334.08 1140.09 1335.43 1140.09 1336.7 1139.91 1337.82 1139.55 1338.8 1139.2 1339.77 1138.65 1340.65 1137.9 1341.45 1137.16 1342.24 1136.24 1342.96 1135.16 1343.61 1134.08 1344.25 1132.83 1344.87 1131.42 1345.47L1131.42 1345.83C1132.75 1346.06 1133.99 1346.45 1135.15 1346.97 1136.3 1347.5 1137.31 1348.16 1138.17 1348.97 1139.03 1349.77 1139.71 1350.7 1140.21 1351.75 1140.71 1352.81 1140.95 1353.97 1140.95 1355.24 1140.95 1356.83 1140.66 1358.3 1140.06 1359.66 1139.46 1361.02 1138.57 1362.2 1137.38 1363.19 1136.19 1364.18 1134.72 1364.96 1132.97 1365.51 1131.22 1366.07 1129.18 1366.35 1126.84 1366.35 1124.99 1366.35 1123.11 1366.16 1121.21 1365.8 1119.3 1365.43 1117.49 1364.95 1115.79 1364.35L1115.79 1357.92 1119.63 1357.92C1119.95 1358.91 1120.32 1359.76 1120.76 1360.46 1121.2 1361.17 1121.71 1361.75 1122.29 1362.19 1122.88 1362.64 1123.55 1362.96 1124.32 1363.16 1125.08 1363.36 1125.95 1363.46 1126.93 1363.46 1129.49 1363.46 1131.43 1362.85 1132.75 1361.63 1134.07 1360.41 1134.73 1358.55 1134.73 1356.07 1134.73 1353.43 1133.86 1351.43 1132.12 1350.07 1130.39 1348.71 1127.81 1348.03 1124.39 1348.03L1121.77 1348.03 1121.77 1345.17C1123.86 1345.07 1125.66 1344.78 1127.18 1344.29 1128.7 1343.81 1129.96 1343.17 1130.98 1342.4 1131.99 1341.63 1132.74 1340.72 1133.24 1339.69 1133.74 1338.66 1133.98 1337.56 1133.98 1336.38 1133.98 1334.48 1133.42 1332.97 1132.29 1331.87 1131.15 1330.77 1129.52 1330.22 1127.37 1330.22 1125.56 1330.22 1124.05 1330.71 1122.83 1331.71 1121.61 1332.7 1120.67 1334.18 1120.01 1336.15L1116.23 1336.15 1116.23 1330.28C1118.58 1329.28 1120.78 1328.54 1122.86 1328.03 1124.93 1327.52 1126.93 1327.27 1128.83 1327.27Z" fill-rule="evenodd"/><text fill="#000000" fill-opacity="0" font-family="Arial,Arial_MSFontService,sans-serif" font-size="39.0781" x="1115.79" y="1361.46">3</text><g clip-path="url(#clip30)" filter="url(#fx6)" transform="translate(1174 1323)"><g clip-path="url(#clip31)"><path d="M1.30701 0.801516 51.2367 0.801516 51.2367 6.19165 1.30701 6.19165Z" fill-rule="evenodd"/></g></g><path d="M1173.84 1322.57 1223.77 1322.57 1223.77 1327.96 1173.84 1327.96Z" fill-rule="evenodd"/><text fill="#000000" fill-opacity="0" font-family="Arial,Arial_MSFontService,sans-serif" font-size="5.39014" x="1173.84" y="1327.29">−</text><g clip-path="url(#clip32)" filter="url(#fx7)" transform="translate(1249 1291)"><g clip-path="url(#clip33)"><path d="M24.8337 1.23072C26.9141 1.23072 28.5082 1.71704 29.616 2.6897 30.7237 3.66236 31.5072 5.19564 31.9666 7.28955 32.4259 9.38346 32.6555 12.4433 32.6555 16.469 32.6555 17.7929 32.6285 19.7112 32.5745 22.2239L32.4124 28.6272C32.1962 34.7063 32.0881 39.4885 32.0881 42.9739 32.0881 45.7838 32.1489 47.979 32.2705 49.5596 32.3921 51.1401 32.588 52.3357 32.8582 53.1462 33.1283 53.9568 33.4661 54.5039 33.8713 54.7876 34.2766 55.0713 34.7764 55.2131 35.3708 55.2131 36.0733 55.2131 36.8231 54.9767 37.6201 54.5039 38.4172 54.0311 39.3966 53.1733 40.5583 51.9304L42.8279 54.2C41.0717 55.9832 39.3358 57.3746 37.6201 58.3743 35.9045 59.3739 34.3847 59.8738 33.0608 59.8738 31.5208 59.8738 30.3455 59.5631 29.5349 58.9417 28.7244 58.3202 28.1367 57.2935 27.772 55.8616 27.4072 54.4296 27.2249 52.3222 27.2249 49.5393 27.2249 45.7027 27.5085 39.421 28.0759 30.6941L27.6707 30.6941C19.5652 42.5821 13.4456 52.0925 9.31177 59.2253L1.08472 59.2253 1.48999 57.2395C2.73283 55.7265 3.97567 54.1527 5.21851 52.5181 6.46134 50.8835 7.97437 48.8098 9.75757 46.2971L27.9138 20.5217C27.8868 17.7659 27.7652 15.4558 27.5491 13.5916 27.3329 11.7273 27.0357 10.2481 26.6575 9.15381 26.2792 8.05957 25.7794 7.25578 25.158 6.74244 24.5365 6.22909 23.6855 5.97242 22.6047 5.97242 21.7131 5.97242 20.808 6.22909 19.8894 6.74244 18.9708 7.25578 17.6334 8.30949 15.8772 9.90357L13.7698 7.55298C16.2555 5.09433 18.3156 3.42595 19.9502 2.54786 21.5848 1.66977 23.2126 1.23072 24.8337 1.23072Z" fill-rule="evenodd"/></g></g><path d="M1272.37 1291C1274.45 1291 1276.04 1291.49 1277.15 1292.46 1278.26 1293.43 1279.04 1294.97 1279.5 1297.06 1279.96 1299.16 1280.19 1302.22 1280.19 1306.24 1280.19 1307.56 1280.17 1309.48 1280.11 1312L1279.95 1318.4C1279.73 1324.48 1279.62 1329.26 1279.62 1332.75 1279.62 1335.56 1279.69 1337.75 1279.81 1339.33 1279.93 1340.91 1280.12 1342.11 1280.39 1342.92 1280.66 1343.73 1281 1344.28 1281.41 1344.56 1281.81 1344.84 1282.31 1344.99 1282.91 1344.99 1283.61 1344.99 1284.36 1344.75 1285.16 1344.28 1285.95 1343.8 1286.93 1342.95 1288.09 1341.7L1290.36 1343.97C1288.61 1345.76 1286.87 1347.15 1285.16 1348.15 1283.44 1349.15 1281.92 1349.65 1280.6 1349.65 1279.06 1349.65 1277.88 1349.34 1277.07 1348.71 1276.26 1348.09 1275.67 1347.07 1275.31 1345.63 1274.94 1344.2 1274.76 1342.09 1274.76 1339.31 1274.76 1335.47 1275.05 1329.19 1275.61 1320.47L1275.21 1320.47C1267.1 1332.35 1260.98 1341.86 1256.85 1349L1248.62 1349 1249.03 1347.01C1250.27 1345.5 1251.51 1343.92 1252.76 1342.29 1254 1340.66 1255.51 1338.58 1257.29 1336.07L1275.45 1310.29C1275.42 1307.54 1275.3 1305.23 1275.09 1303.36 1274.87 1301.5 1274.57 1300.02 1274.19 1298.93 1273.82 1297.83 1273.32 1297.03 1272.69 1296.51 1272.07 1296 1271.22 1295.74 1270.14 1295.74 1269.25 1295.74 1268.34 1296 1267.43 1296.51 1266.51 1297.03 1265.17 1298.08 1263.41 1299.68L1261.31 1297.32C1263.79 1294.87 1265.85 1293.2 1267.49 1292.32 1269.12 1291.44 1270.75 1291 1272.37 1291Z" fill-rule="evenodd"/><text fill="#000000" fill-opacity="0" font-family="Arial,Arial_MSFontService,sans-serif" font-size="58.6431" x="1248.62" y="1342.32">𝜆</text><g clip-path="url(#clip34)" filter="url(#fx8)" transform="translate(1295 1327)"><g clip-path="url(#clip35)"><path d="M15.2273 1.49732C17.2924 1.49732 19.0547 1.73064 20.5142 2.19727 21.9736 2.6639 23.1601 3.29436 24.0735 4.08863 24.9869 4.8829 25.6471 5.83602 26.0542 6.948 26.4613 8.05998 26.6648 9.26131 26.6648 10.552 26.6648 11.3264 26.6102 12.0462 26.501 12.7114 26.3918 13.3766 26.2031 14.0319 25.9351 14.6772 25.667 15.3226 25.3145 15.9729 24.8777 16.6282 24.4408 17.2834 23.8948 17.9784 23.2395 18.7131 22.7431 19.3486 22.0977 20.0833 21.3035 20.9172 20.5092 21.7512 19.6405 22.6448 18.6973 23.5979 17.7541 24.551 16.7662 25.5439 15.7336 26.5764 14.7011 27.609 13.6983 28.6316 12.7253 29.6443 11.7524 30.657 10.8588 31.6399 10.0447 32.593 9.23055 33.5461 8.56535 34.4198 8.04907 35.2141L19.0696 35.2141C20.0028 35.2141 20.7475 35.1794 21.3035 35.1099 21.8595 35.0404 22.3211 34.8865 22.6885 34.6482 23.0558 34.4099 23.3686 34.0475 23.6267 33.561 23.8848 33.0745 24.1827 32.4044 24.5203 31.5505L27.2903 31.5505C27.191 32.9604 27.0967 34.3801 27.0073 35.8098 26.918 37.2395 26.8236 38.6593 26.7244 40.0691L1.49634 40.0691 1.49634 38.5203C1.9729 37.448 2.52889 36.3906 3.16431 35.3481 3.79972 34.3057 4.51457 33.2483 5.30884 32.176 6.10311 31.1038 7.00659 29.9967 8.01929 28.855 9.03198 27.7132 10.1539 26.5268 11.385 25.2957 13.2515 23.4291 14.7706 21.8356 15.9421 20.5151 17.1137 19.1947 18.037 18.0182 18.7122 16.9856 19.3873 15.953 19.849 14.9999 20.0972 14.1262 20.3454 13.2525 20.4695 12.3193 20.4695 11.3264 20.4695 10.3137 20.3255 9.38045 20.0376 8.52661 19.7497 7.67278 19.3376 6.948 18.8015 6.3523 18.2654 5.7566 17.5853 5.28996 16.7612 4.9524 15.9372 4.61483 14.989 4.44605 13.9167 4.44605 12.0701 4.44605 10.5212 4.94743 9.27026 5.9502 8.01929 6.95296 7.0463 8.40747 6.35132 10.3137L2.44946 10.3137 2.44946 4.50562C4.99113 3.45321 7.32926 2.68872 9.46387 2.21216 11.5985 1.7356 13.5196 1.49732 15.2273 1.49732Z" fill-rule="evenodd"/></g></g><path d="M1308.76 1327.27C1310.83 1327.27 1312.59 1327.5 1314.05 1327.97 1315.51 1328.44 1316.7 1329.07 1317.61 1329.86 1318.52 1330.65 1319.18 1331.61 1319.59 1332.72 1320 1333.83 1320.2 1335.03 1320.2 1336.32 1320.2 1337.1 1320.15 1337.82 1320.04 1338.48 1319.93 1339.15 1319.74 1339.8 1319.47 1340.45 1319.2 1341.09 1318.85 1341.74 1318.41 1342.4 1317.98 1343.06 1317.43 1343.75 1316.78 1344.49 1316.28 1345.12 1315.63 1345.86 1314.84 1346.69 1314.05 1347.52 1313.18 1348.42 1312.23 1349.37 1311.29 1350.32 1310.3 1351.32 1309.27 1352.35 1308.24 1353.38 1307.23 1354.4 1306.26 1355.42 1305.29 1356.43 1304.4 1357.41 1303.58 1358.36 1302.77 1359.32 1302.1 1360.19 1301.59 1360.99L1312.61 1360.99C1313.54 1360.99 1314.28 1360.95 1314.84 1360.88 1315.4 1360.81 1315.86 1360.66 1316.22 1360.42 1316.59 1360.18 1316.91 1359.82 1317.16 1359.33 1317.42 1358.85 1317.72 1358.18 1318.06 1357.32L1320.83 1357.32C1320.73 1358.73 1320.63 1360.15 1320.54 1361.58 1320.45 1363.01 1320.36 1364.43 1320.26 1365.84L1295.03 1365.84 1295.03 1364.29C1295.51 1363.22 1296.07 1362.16 1296.7 1361.12 1297.34 1360.08 1298.05 1359.02 1298.85 1357.95 1299.64 1356.88 1300.54 1355.77 1301.56 1354.63 1302.57 1353.49 1303.69 1352.3 1304.92 1351.07 1306.79 1349.2 1308.31 1347.61 1309.48 1346.29 1310.65 1344.97 1311.57 1343.79 1312.25 1342.76 1312.92 1341.72 1313.39 1340.77 1313.63 1339.9 1313.88 1339.02 1314.01 1338.09 1314.01 1337.1 1314.01 1336.09 1313.86 1335.15 1313.57 1334.3 1313.29 1333.44 1312.87 1332.72 1312.34 1332.12 1311.8 1331.53 1311.12 1331.06 1310.3 1330.72 1309.47 1330.39 1308.53 1330.22 1307.45 1330.22 1305.61 1330.22 1304.06 1330.72 1302.81 1331.72 1301.56 1332.72 1300.58 1334.18 1299.89 1336.09L1295.99 1336.09 1295.99 1330.28C1298.53 1329.23 1300.87 1328.46 1303 1327.98 1305.14 1327.51 1307.06 1327.27 1308.76 1327.27Z" fill-rule="evenodd"/><text fill="#000000" fill-opacity="0" font-family="Arial,Arial_MSFontService,sans-serif" font-size="38.5718" x="1295.03" y="1361.02">2</text><g clip-path="url(#clip36)" filter="url(#fx9)" transform="translate(1354 1323)"><g clip-path="url(#clip37)"><path d="M1.17993 0.801516 51.1096 0.801516 51.1096 6.19165 1.17993 6.19165Z" fill-rule="evenodd"/></g></g><path d="M1353.72 1322.57 1403.65 1322.57 1403.65 1327.96 1353.72 1327.96Z" fill-rule="evenodd"/><text fill="#000000" fill-opacity="0" font-family="Arial,Arial_MSFontService,sans-serif" font-size="5.39014" x="1353.72" y="1327.29">−</text><g clip-path="url(#clip38)" filter="url(#fx10)" transform="translate(1429 1291)"><g clip-path="url(#clip39)"><path d="M24.7067 1.23072C26.7871 1.23072 28.3811 1.71704 29.4889 2.6897 30.5966 3.66236 31.3802 5.19564 31.8395 7.28955 32.2988 9.38346 32.5284 12.4433 32.5284 16.469 32.5284 17.7929 32.5014 19.7112 32.4474 22.2239L32.2853 28.6272C32.0691 34.7063 31.9611 39.4885 31.9611 42.9739 31.9611 45.7838 32.0219 47.979 32.1434 49.5596 32.265 51.1401 32.4609 52.3357 32.7311 53.1462 33.0013 53.9568 33.339 54.5039 33.7443 54.7876 34.1495 55.0713 34.6494 55.2131 35.2438 55.2131 35.9462 55.2131 36.696 54.9767 37.493 54.5039 38.2901 54.0311 39.2695 53.1733 40.4313 51.9304L42.7008 54.2C40.9446 55.9832 39.2087 57.3746 37.493 58.3743 35.7774 59.3739 34.2576 59.8738 32.9337 59.8738 31.3937 59.8738 30.2184 59.5631 29.4078 58.9417 28.5973 58.3202 28.0096 57.2935 27.6449 55.8616 27.2801 54.4296 27.0978 52.3222 27.0978 49.5393 27.0978 45.7027 27.3815 39.421 27.9489 30.6941L27.5436 30.6941C19.4381 42.5821 13.3185 52.0925 9.18469 59.2253L0.957642 59.2253 1.36292 57.2395C2.60575 55.7265 3.84859 54.1527 5.09143 52.5181 6.33427 50.8835 7.84729 48.8098 9.63049 46.2971L27.7867 20.5217C27.7597 17.7659 27.6381 15.4558 27.422 13.5916 27.2059 11.7273 26.9086 10.2481 26.5304 9.15381 26.1521 8.05957 25.6523 7.25578 25.0309 6.74244 24.4095 6.22909 23.5584 5.97242 22.4777 5.97242 21.5861 5.97242 20.6809 6.22909 19.7623 6.74244 18.8437 7.25578 17.5063 8.30949 15.7501 9.90357L13.6427 7.55298C16.1284 5.09433 18.1885 3.42595 19.8231 2.54786 21.4577 1.66977 23.0856 1.23072 24.7067 1.23072Z" fill-rule="evenodd"/></g></g><path d="M1452.24 1291C1454.32 1291 1455.92 1291.49 1457.03 1292.46 1458.13 1293.43 1458.92 1294.97 1459.38 1297.06 1459.84 1299.16 1460.06 1302.22 1460.06 1306.24 1460.06 1307.56 1460.04 1309.48 1459.98 1312L1459.82 1318.4C1459.61 1324.48 1459.5 1329.26 1459.5 1332.75 1459.5 1335.56 1459.56 1337.75 1459.68 1339.33 1459.8 1340.91 1460 1342.11 1460.27 1342.92 1460.54 1343.73 1460.88 1344.28 1461.28 1344.56 1461.69 1344.84 1462.19 1344.99 1462.78 1344.99 1463.48 1344.99 1464.23 1344.75 1465.03 1344.28 1465.83 1343.8 1466.81 1342.95 1467.97 1341.7L1470.24 1343.97C1468.48 1345.76 1466.75 1347.15 1465.03 1348.15 1463.31 1349.15 1461.79 1349.65 1460.47 1349.65 1458.93 1349.65 1457.75 1349.34 1456.94 1348.71 1456.13 1348.09 1455.55 1347.07 1455.18 1345.63 1454.82 1344.2 1454.63 1342.09 1454.63 1339.31 1454.63 1335.47 1454.92 1329.19 1455.49 1320.47L1455.08 1320.47C1446.97 1332.35 1440.85 1341.86 1436.72 1349L1428.49 1349 1428.9 1347.01C1430.14 1345.5 1431.39 1343.92 1432.63 1342.29 1433.87 1340.66 1435.38 1338.58 1437.17 1336.07L1455.32 1310.29C1455.3 1307.54 1455.17 1305.23 1454.96 1303.36 1454.74 1301.5 1454.45 1300.02 1454.07 1298.93 1453.69 1297.83 1453.19 1297.03 1452.57 1296.51 1451.95 1296 1451.09 1295.74 1450.01 1295.74 1449.12 1295.74 1448.22 1296 1447.3 1296.51 1446.38 1297.03 1445.04 1298.08 1443.29 1299.68L1441.18 1297.32C1443.66 1294.87 1445.72 1293.2 1447.36 1292.32 1448.99 1291.44 1450.62 1291 1452.24 1291Z" fill-rule="evenodd"/><text fill="#000000" fill-opacity="0" font-family="Arial,Arial_MSFontService,sans-serif" font-size="58.6431" x="1428.49" y="1342.32">𝜆</text><g clip-path="url(#clip40)" filter="url(#fx11)" transform="translate(1475 1328)"><g clip-path="url(#clip41)"><path d="M15.5214 0.705814 17.3383 0.705814C17.2985 1.79794 17.2688 2.77588 17.2489 3.63965 17.229 4.50342 17.2141 5.34237 17.2042 6.1565 17.1943 6.97063 17.1893 7.77482 17.1893 8.56909L17.1893 31.2058C17.1893 31.8214 17.2092 32.3525 17.2489 32.7993 17.2886 33.2461 17.3531 33.6234 17.4425 33.9312 17.5319 34.2389 17.651 34.502 17.7999 34.7205 17.9489 34.9389 18.1226 35.1275 18.3212 35.2864 18.5594 35.5247 18.8772 35.7083 19.2743 35.8374 19.6714 35.9665 20.1778 36.0757 20.7933 36.165 21.4089 36.2544 22.1486 36.3239 23.0123 36.3735 23.8761 36.4232 24.9136 36.4579 26.1249 36.4778L26.1249 39.0691 2.50525 39.0691 2.50525 36.4778C3.6768 36.4381 4.66964 36.3934 5.48376 36.3438 6.29789 36.2941 6.99288 36.2246 7.56872 36.1353 8.14457 36.0459 8.60624 35.9466 8.95373 35.8374 9.30123 35.7282 9.60404 35.5942 9.86218 35.4353 10.1402 35.2566 10.3785 35.063 10.577 34.8545 10.7756 34.646 10.9344 34.3829 11.0536 34.0652 11.1727 33.7475 11.267 33.3603 11.3365 32.9036 11.406 32.4469 11.4408 31.8809 11.4408 31.2058L11.4408 9.84986C11.4408 9.07544 11.2919 8.52938 10.994 8.21167 10.6962 7.89396 10.2692 7.73511 9.71326 7.73511 9.0977 7.73511 8.18428 8.05282 6.97302 8.68823 5.76176 9.32365 4.19307 10.2668 2.26697 11.5178 2.00883 11.0611 1.77055 10.6044 1.55212 10.1477 1.3337 9.691 1.10535 9.22437 0.867065 8.7478 3.3293 7.39754 5.76672 6.05225 8.17932 4.71192 10.5919 3.37159 13.0393 2.03622 15.5214 0.705814Z" fill-rule="evenodd"/></g></g><path d="M1489.06 1327.48 1490.87 1327.48C1490.84 1328.57 1490.81 1329.55 1490.79 1330.41 1490.77 1331.28 1490.75 1332.11 1490.74 1332.93 1490.73 1333.74 1490.73 1334.55 1490.73 1335.34L1490.73 1357.98C1490.73 1358.59 1490.75 1359.12 1490.79 1359.57 1490.83 1360.02 1490.89 1360.4 1490.98 1360.7 1491.07 1361.01 1491.19 1361.27 1491.34 1361.49 1491.49 1361.71 1491.66 1361.9 1491.86 1362.06 1492.1 1362.3 1492.41 1362.48 1492.81 1362.61 1493.21 1362.74 1493.71 1362.85 1494.33 1362.94 1494.95 1363.03 1495.69 1363.1 1496.55 1363.15 1497.41 1363.2 1498.45 1363.23 1499.66 1363.25L1499.66 1365.84 1476.04 1365.84 1476.04 1363.25C1477.21 1363.21 1478.21 1363.17 1479.02 1363.12 1479.83 1363.07 1480.53 1363 1481.11 1362.91 1481.68 1362.82 1482.14 1362.72 1482.49 1362.61 1482.84 1362.5 1483.14 1362.37 1483.4 1362.21 1483.68 1362.03 1483.91 1361.83 1484.11 1361.63 1484.31 1361.42 1484.47 1361.15 1484.59 1360.84 1484.71 1360.52 1484.8 1360.13 1484.87 1359.68 1484.94 1359.22 1484.98 1358.65 1484.98 1357.98L1484.98 1336.62C1484.98 1335.85 1484.83 1335.3 1484.53 1334.98 1484.23 1334.67 1483.81 1334.51 1483.25 1334.51 1482.63 1334.51 1481.72 1334.82 1480.51 1335.46 1479.3 1336.1 1477.73 1337.04 1475.8 1338.29 1475.55 1337.83 1475.31 1337.38 1475.09 1336.92 1474.87 1336.46 1474.64 1336 1474.4 1335.52 1476.87 1334.17 1479.3 1332.82 1481.72 1331.48 1484.13 1330.14 1486.58 1328.81 1489.06 1327.48Z" fill-rule="evenodd"/><text fill="#000000" fill-opacity="0" font-family="Arial,Arial_MSFontService,sans-serif" font-size="38.3633" x="1474.4" y="1361.05">1</text><g clip-path="url(#clip42)" filter="url(#fx12)" transform="translate(1532 1323)"><g clip-path="url(#clip43)"><path d="M1.15076 0.801516 51.0804 0.801516 51.0804 6.19165 1.15076 6.19165Z" fill-rule="evenodd"/></g></g><path d="M1531.69 1322.57 1581.62 1322.57 1581.62 1327.96 1531.69 1327.96Z" fill-rule="evenodd"/><text fill="#000000" fill-opacity="0" font-family="Arial,Arial_MSFontService,sans-serif" font-size="5.39014" x="1531.69" y="1327.29">−</text><g clip-path="url(#clip44)" filter="url(#fx13)" transform="translate(1607 1291)"><g clip-path="url(#clip45)"><path d="M24.6775 1.23072C26.7579 1.23072 28.352 1.71704 29.4597 2.6897 30.5675 3.66236 31.351 5.19564 31.8103 7.28955 32.2696 9.38346 32.4993 12.4433 32.4993 16.469 32.4993 17.7929 32.4722 19.7112 32.4182 22.2239L32.2561 28.6272C32.04 34.7063 31.9319 39.4885 31.9319 42.9739 31.9319 45.7838 31.9927 47.979 32.1143 49.5596 32.2358 51.1401 32.4317 52.3357 32.7019 53.1462 32.9721 53.9568 33.3098 54.5039 33.7151 54.7876 34.1204 55.0713 34.6202 55.2131 35.2146 55.2131 35.9171 55.2131 36.6668 54.9767 37.4639 54.5039 38.2609 54.0311 39.2403 53.1733 40.4021 51.9304L42.6716 54.2C40.9154 55.9832 39.1795 57.3746 37.4639 58.3743 35.7482 59.3739 34.2284 59.8738 32.9045 59.8738 31.3645 59.8738 30.1892 59.5631 29.3787 58.9417 28.5681 58.3202 27.9805 57.2935 27.6157 55.8616 27.251 54.4296 27.0686 52.3222 27.0686 49.5393 27.0686 45.7027 27.3523 39.421 27.9197 30.6941L27.5144 30.6941C19.4089 42.5821 13.2893 52.0925 9.15552 59.2253L0.928468 59.2253 1.33374 57.2395C2.57658 55.7265 3.81942 54.1527 5.06226 52.5181 6.30509 50.8835 7.81812 48.8098 9.60132 46.2971L27.7576 20.5217C27.7305 17.7659 27.609 15.4558 27.3928 13.5916 27.1767 11.7273 26.8795 10.2481 26.5012 9.15381 26.123 8.05957 25.6231 7.25578 25.0017 6.74244 24.3803 6.22909 23.5292 5.97242 22.4485 5.97242 21.5569 5.97242 20.6518 6.22909 19.7332 6.74244 18.8145 7.25578 17.4771 8.30949 15.7209 9.90357L13.6135 7.55298C16.0992 5.09433 18.1593 3.42595 19.7939 2.54786 21.4285 1.66977 23.0564 1.23072 24.6775 1.23072Z" fill-rule="evenodd"/></g></g><path d="M1630.21 1291C1632.29 1291 1633.89 1291.49 1635 1292.46 1636.1 1293.43 1636.89 1294.97 1637.35 1297.06 1637.81 1299.16 1638.04 1302.22 1638.04 1306.24 1638.04 1307.56 1638.01 1309.48 1637.95 1312L1637.79 1318.4C1637.58 1324.48 1637.47 1329.26 1637.47 1332.75 1637.47 1335.56 1637.53 1337.75 1637.65 1339.33 1637.77 1340.91 1637.97 1342.11 1638.24 1342.92 1638.51 1343.73 1638.85 1344.28 1639.25 1344.56 1639.66 1344.84 1640.16 1344.99 1640.75 1344.99 1641.45 1344.99 1642.2 1344.75 1643 1344.28 1643.8 1343.8 1644.78 1342.95 1645.94 1341.7L1648.21 1343.97C1646.45 1345.76 1644.72 1347.15 1643 1348.15 1641.28 1349.15 1639.76 1349.65 1638.44 1349.65 1636.9 1349.65 1635.73 1349.34 1634.92 1348.71 1634.1 1348.09 1633.52 1347.07 1633.15 1345.63 1632.79 1344.2 1632.61 1342.09 1632.61 1339.31 1632.61 1335.47 1632.89 1329.19 1633.46 1320.47L1633.05 1320.47C1624.95 1332.35 1618.83 1341.86 1614.69 1349L1606.46 1349 1606.87 1347.01C1608.11 1345.5 1609.36 1343.92 1610.6 1342.29 1611.84 1340.66 1613.35 1338.58 1615.14 1336.07L1633.29 1310.29C1633.27 1307.54 1633.15 1305.23 1632.93 1303.36 1632.71 1301.5 1632.42 1300.02 1632.04 1298.93 1631.66 1297.83 1631.16 1297.03 1630.54 1296.51 1629.92 1296 1629.07 1295.74 1627.98 1295.74 1627.09 1295.74 1626.19 1296 1625.27 1296.51 1624.35 1297.03 1623.01 1298.08 1621.26 1299.68L1619.15 1297.32C1621.64 1294.87 1623.7 1293.2 1625.33 1292.32 1626.97 1291.44 1628.59 1291 1630.21 1291Z" fill-rule="evenodd"/><text fill="#000000" fill-opacity="0" font-family="Arial,Arial_MSFontService,sans-serif" font-size="58.6431" x="1606.46" y="1342.32">𝜆</text><g clip-path="url(#clip46)" filter="url(#fx14)" transform="translate(1654 1327)"><g clip-path="url(#clip47)"><path d="M13.9519 4.38648C12.5619 4.38648 11.4003 4.74886 10.467 5.47364 9.53377 6.19841 8.79411 7.26075 8.24805 8.66065 7.70198 10.0605 7.31478 11.7682 7.08642 13.7837 6.85807 15.7992 6.7439 18.0876 6.7439 20.6492 6.7439 23.6078 6.88786 26.1644 7.17578 28.3188 7.4637 30.4733 7.91048 32.2455 8.51611 33.6355 9.12174 35.0255 9.88127 36.0481 10.7947 36.7034 11.7081 37.3586 12.8002 37.6863 14.071 37.6863 15.2624 37.6863 16.3049 37.3785 17.1985 36.7629 18.092 36.1474 18.8317 35.1893 19.4175 33.8887 20.0033 32.5881 20.4451 30.9399 20.7429 28.9443 21.0408 26.9487 21.1897 24.5907 21.1897 21.8704 21.1897 18.8124 21.0259 16.1814 20.6982 13.9773 20.3706 11.7732 19.9089 9.96127 19.3132 8.54151 18.7175 7.12175 17.9679 6.0743 17.0645 5.39917 16.161 4.72404 15.1235 4.38648 13.9519 4.38648ZM14.071 1.49732C16.434 1.49732 18.4544 1.93913 20.1323 2.82276 21.8102 3.70638 23.1803 4.96729 24.2427 6.60547 25.305 8.24365 26.0844 10.2442 26.5808 12.6072 27.0772 14.9701 27.3254 17.6409 27.3254 20.6194 27.3254 27.2317 26.1539 32.2306 23.8108 35.6162 21.4677 39.0018 18.0722 40.6946 13.6243 40.6946 9.21606 40.6946 5.9397 39.0961 3.79517 35.8992 1.65063 32.7022 0.578369 27.8572 0.578369 21.364 0.578369 17.9685 0.91097 15.0297 1.57617 12.5476 2.24137 10.0655 3.17464 8.00537 4.37598 6.36719 5.57731 4.72901 7.00203 3.50782 8.65015 2.70362 10.2983 1.89942 12.1052 1.49732 14.071 1.49732Z" fill-rule="evenodd"/></g></g><path d="M1666.49 1330.16C1665.1 1330.16 1663.94 1330.52 1663 1331.25 1662.07 1331.97 1661.33 1333.03 1660.78 1334.43 1660.24 1335.83 1659.85 1337.54 1659.62 1339.56 1659.39 1341.57 1659.28 1343.86 1659.28 1346.42 1659.28 1349.38 1659.42 1351.94 1659.71 1354.09 1660 1356.25 1660.45 1358.02 1661.05 1359.41 1661.66 1360.8 1662.42 1361.82 1663.33 1362.48 1664.24 1363.13 1665.34 1363.46 1666.61 1363.46 1667.8 1363.46 1668.84 1363.15 1669.73 1362.53 1670.63 1361.92 1671.37 1360.96 1671.95 1359.66 1672.54 1358.36 1672.98 1356.71 1673.28 1354.72 1673.58 1352.72 1673.73 1350.36 1673.73 1347.64 1673.73 1344.58 1673.56 1341.95 1673.23 1339.75 1672.91 1337.55 1672.45 1335.73 1671.85 1334.31 1671.25 1332.89 1670.5 1331.85 1669.6 1331.17 1668.7 1330.5 1667.66 1330.16 1666.49 1330.16ZM1666.61 1327.27C1668.97 1327.27 1670.99 1327.71 1672.67 1328.59 1674.35 1329.48 1675.72 1330.74 1676.78 1332.38 1677.84 1334.02 1678.62 1336.02 1679.12 1338.38 1679.61 1340.74 1679.86 1343.41 1679.86 1346.39 1679.86 1353 1678.69 1358 1676.35 1361.39 1674 1364.77 1670.61 1366.47 1666.16 1366.47 1661.75 1366.47 1658.48 1364.87 1656.33 1361.67 1654.19 1358.47 1653.11 1353.63 1653.11 1347.14 1653.11 1343.74 1653.45 1340.8 1654.11 1338.32 1654.78 1335.84 1655.71 1333.78 1656.91 1332.14 1658.11 1330.5 1659.54 1329.28 1661.19 1328.48 1662.83 1327.67 1664.64 1327.27 1666.61 1327.27Z" fill-rule="evenodd"/><text fill="#000000" fill-opacity="0" font-family="Arial,Arial_MSFontService,sans-serif" font-size="39.1973" x="1653.11" y="1361.57">0</text><g clip-path="url(#clip48)" filter="url(#fx15)" transform="translate(1689 1340)"><g clip-path="url(#clip49)"><path d="M5.0824 0.822999 12.1747 0.822999C12.5529 2.71428 12.7421 4.57853 12.7421 6.41577 12.7421 8.30705 12.4178 10.0362 11.7694 11.6033 11.121 13.1703 10.0875 14.7306 8.66907 16.2842 7.25061 17.8377 5.29854 19.5466 2.81287 21.4109L0.62439 18.9387C2.00232 17.6418 3.00199 16.4733 3.62341 15.4331 4.24483 14.3929 4.69063 13.2109 4.96081 11.887 5.231 10.5631 5.36609 8.90145 5.36609 6.9021 5.36609 4.84871 5.27152 2.82235 5.0824 0.822999Z" fill-rule="evenodd"/></g></g><path d="M1692.62 1339.59 1699.71 1339.59C1700.09 1341.49 1700.28 1343.35 1700.28 1345.19 1700.28 1347.08 1699.95 1348.81 1699.31 1350.38 1698.66 1351.94 1697.62 1353.5 1696.21 1355.06 1694.79 1356.61 1692.84 1358.32 1690.35 1360.18L1688.16 1357.71C1689.54 1356.41 1690.54 1355.25 1691.16 1354.21 1691.78 1353.16 1692.23 1351.98 1692.5 1350.66 1692.77 1349.34 1692.9 1347.67 1692.9 1345.67 1692.9 1343.62 1692.81 1341.59 1692.62 1339.59Z" fill-rule="evenodd"/><text fill="#000000" fill-opacity="0" font-family="Arial,Arial_MSFontService,sans-serif" font-size="20.5879" x="1688.16" y="1357.61">,</text><g clip-path="url(#clip50)" filter="url(#fx16)" transform="translate(1724 1293)"><g clip-path="url(#clip51)"><path d="M18.5682 4.70191C16.704 4.70191 15.1437 5.25578 13.8873 6.36353 12.631 7.47128 11.6178 9.06535 10.8478 11.1458 10.0778 13.2262 9.53064 15.7591 9.20642 18.7446 8.8822 21.7301 8.72009 25.1007 8.72009 28.8562 8.72009 37.6641 9.53739 44.1283 11.172 48.2485 12.8066 52.3688 15.3396 54.429 18.7709 54.429 22.0401 54.429 24.465 52.4904 26.0455 48.6133 27.6261 44.7362 28.4164 38.7314 28.4164 30.5989 28.4164 24.3847 28.0111 19.3525 27.2006 15.5024 26.39 11.6523 25.262 8.88974 23.8165 7.2146 22.371 5.53947 20.6216 4.70191 18.5682 4.70191ZM18.7709 1.25708C24.6879 1.25708 29.0918 3.54013 31.9828 8.1062 34.8737 12.6723 36.3192 19.5754 36.3192 28.8157 36.3192 38.3801 34.7724 45.6143 31.6788 50.5181 28.5852 55.4219 24.0664 57.8738 18.1224 57.8738 12.2865 57.8738 7.94332 55.5772 5.0929 50.9841 2.24247 46.391 0.817261 39.4203 0.817261 30.072 0.817261 25.1007 1.25631 20.8048 2.1344 17.1843 3.01249 13.5639 4.24182 10.5716 5.82239 8.20752 7.40295 5.84343 9.30099 4.094 11.5165 2.95923 13.732 1.82447 16.1501 1.25708 18.7709 1.25708Z" fill-rule="evenodd"/></g></g><path d="M1741.1 1296.47C1739.24 1296.47 1737.68 1297.03 1736.42 1298.14 1735.17 1299.24 1734.15 1300.84 1733.38 1302.92 1732.61 1305 1732.07 1307.53 1731.74 1310.52 1731.42 1313.5 1731.26 1316.87 1731.26 1320.63 1731.26 1329.44 1732.07 1335.9 1733.71 1340.02 1735.34 1344.14 1737.88 1346.2 1741.31 1346.2 1744.58 1346.2 1747 1344.26 1748.58 1340.39 1750.16 1336.51 1750.95 1330.5 1750.95 1322.37 1750.95 1316.16 1750.55 1311.12 1749.74 1307.27 1748.93 1303.42 1747.8 1300.66 1746.35 1298.99 1744.91 1297.31 1743.16 1296.47 1741.1 1296.47ZM1741.31 1293.03C1747.22 1293.03 1751.63 1295.31 1754.52 1299.88 1757.41 1304.44 1758.86 1311.35 1758.86 1320.59 1758.86 1330.15 1757.31 1337.39 1754.22 1342.29 1751.12 1347.19 1746.6 1349.65 1740.66 1349.65 1734.82 1349.65 1730.48 1347.35 1727.63 1342.76 1724.78 1338.16 1723.35 1331.19 1723.35 1321.84 1723.35 1316.87 1723.79 1312.58 1724.67 1308.96 1725.55 1305.34 1726.78 1302.34 1728.36 1299.98 1729.94 1297.62 1731.84 1295.87 1734.05 1294.73 1736.27 1293.6 1738.69 1293.03 1741.31 1293.03Z" fill-rule="evenodd"/><text fill="#000000" fill-opacity="0" font-family="Arial,Arial_MSFontService,sans-serif" font-size="56.6167" x="1723.35" y="1342.57">0</text></g></svg>