<svg width="712" height="133" xmlns="http://www.w3.org/2000/svg" xmlns:xlink="http://www.w3.org/1999/xlink" xml:space="preserve" overflow="hidden"><defs><filter id="fx0" x="-10%" y="-10%" width="120%" height="120%" filterUnits="userSpaceOnUse" primitiveUnits="userSpaceOnUse"><feComponentTransfer color-interpolation-filters="sRGB"><feFuncR type="discrete" tableValues="1 1"/><feFuncG type="discrete" tableValues="1 1"/><feFuncB type="discrete" tableValues="1 1"/><feFuncA type="linear" slope="0.4" intercept="0"/></feComponentTransfer><feGaussianBlur stdDeviation="0 0"/></filter><filter id="fx1" x="-10%" y="-10%" width="120%" height="120%" filterUnits="userSpaceOnUse" primitiveUnits="userSpaceOnUse"><feComponentTransfer color-interpolation-filters="sRGB"><feFuncR type="discrete" tableValues="1 1"/><feFuncG type="discrete" tableValues="1 1"/><feFuncB type="discrete" tableValues="1 1"/><feFuncA type="linear" slope="0.4" intercept="0"/></feComponentTransfer><feGaussianBlur stdDeviation="0 0"/></filter><filter id="fx2" x="-10%" y="-10%" width="120%" height="120%" filterUnits="userSpaceOnUse" primitiveUnits="userSpaceOnUse"><feComponentTransfer color-interpolation-filters="sRGB"><feFuncR type="discrete" tableValues="1 1"/><feFuncG type="discrete" tableValues="1 1"/><feFuncB type="discrete" tableValues="1 1"/><feFuncA type="linear" slope="0.4" intercept="0"/></feComponentTransfer><feGaussianBlur stdDeviation="0 0"/></filter><filter id="fx3" x="-10%" y="-10%" width="120%" height="120%" filterUnits="userSpaceOnUse" primitiveUnits="userSpaceOnUse"><feComponentTransfer color-interpolation-filters="sRGB"><feFuncR type="discrete" tableValues="1 1"/><feFuncG type="discrete" tableValues="1 1"/><feFuncB type="discrete" tableValues="1 1"/><feFuncA type="linear" slope="0.4" intercept="0"/></feComponentTransfer><feGaussianBlur stdDeviation="0 0"/></filter><filter id="fx4" x="-10%" y="-10%" width="120%" height="120%" filterUnits="userSpaceOnUse" primitiveUnits="userSpaceOnUse"><feComponentTransfer color-interpolation-filters="sRGB"><feFuncR type="discrete" tableValues="1 1"/><feFuncG type="discrete" tableValues="1 1"/><feFuncB type="discrete" tableValues="1 1"/><feFuncA type="linear" slope="0.4" intercept="0"/></feComponentTransfer><feGaussianBlur stdDeviation="0 0"/></filter><filter id="fx5" x="-10%" y="-10%" width="120%" height="120%" filterUnits="userSpaceOnUse" primitiveUnits="userSpaceOnUse"><feComponentTransfer color-interpolation-filters="sRGB"><feFuncR type="discrete" tableValues="1 1"/><feFuncG type="discrete" tableValues="1 1"/><feFuncB type="discrete" tableValues="1 1"/><feFuncA type="linear" slope="0.4" intercept="0"/></feComponentTransfer><feGaussianBlur stdDeviation="0 0"/></filter><filter id="fx6" x="-10%" y="-10%" width="120%" height="120%" filterUnits="userSpaceOnUse" primitiveUnits="userSpaceOnUse"><feComponentTransfer color-interpolation-filters="sRGB"><feFuncR type="discrete" tableValues="1 1"/><feFuncG type="discrete" tableValues="1 1"/><feFuncB type="discrete" tableValues="1 1"/><feFuncA type="linear" slope="0.4" intercept="0"/></feComponentTransfer><feGaussianBlur stdDeviation="0 0"/></filter><filter id="fx7" x="-10%" y="-10%" width="120%" height="120%" filterUnits="userSpaceOnUse" primitiveUnits="userSpaceOnUse"><feComponentTransfer color-interpolation-filters="sRGB"><feFuncR type="discrete" tableValues="1 1"/><feFuncG type="discrete" tableValues="1 1"/><feFuncB type="discrete" tableValues="1 1"/><feFuncA type="linear" slope="0.4" intercept="0"/></feComponentTransfer><feGaussianBlur stdDeviation="0 0"/></filter><filter id="fx8" x="-10%" y="-10%" width="120%" height="120%" filterUnits="userSpaceOnUse" primitiveUnits="userSpaceOnUse"><feComponentTransfer color-interpolation-filters="sRGB"><feFuncR type="discrete" tableValues="1 1"/><feFuncG type="discrete" tableValues="1 1"/><feFuncB type="discrete" tableValues="1 1"/><feFuncA type="linear" slope="0.4" intercept="0"/></feComponentTransfer><feGaussianBlur stdDeviation="0 0"/></filter><filter id="fx9" x="-10%" y="-10%" width="120%" height="120%" filterUnits="userSpaceOnUse" primitiveUnits="userSpaceOnUse"><feComponentTransfer color-interpolation-filters="sRGB"><feFuncR type="discrete" tableValues="1 1"/><feFuncG type="discrete" tableValues="1 1"/><feFuncB type="discrete" tableValues="1 1"/><feFuncA type="linear" slope="0.4" intercept="0"/></feComponentTransfer><feGaussianBlur stdDeviation="0 0"/></filter><filter id="fx10" x="-10%" y="-10%" width="120%" height="120%" filterUnits="userSpaceOnUse" primitiveUnits="userSpaceOnUse"><feComponentTransfer color-interpolation-filters="sRGB"><feFuncR type="discrete" tableValues="1 1"/><feFuncG type="discrete" tableValues="1 1"/><feFuncB type="discrete" tableValues="1 1"/><feFuncA type="linear" slope="0.4" intercept="0"/></feComponentTransfer><feGaussianBlur stdDeviation="0 0"/></filter><clipPath id="clip11"><rect x="657" y="1138" width="712" height="133"/></clipPath><clipPath id="clip12"><rect x="1" y="1" width="36" height="57"/></clipPath><clipPath id="clip13"><rect x="0" y="0" width="37" height="58"/></clipPath><clipPath id="clip14"><rect x="0" y="1" width="16" height="43"/></clipPath><clipPath id="clip15"><rect x="0" y="0" width="16" height="45"/></clipPath><clipPath id="clip16"><rect x="0" y="1" width="212" height="78"/></clipPath><clipPath id="clip17"><rect x="0" y="0" width="213" height="79"/></clipPath><clipPath id="clip18"><rect x="1" y="0" width="28" height="51"/></clipPath><clipPath id="clip19"><rect x="0" y="0" width="29" height="51"/></clipPath><clipPath id="clip20"><rect x="1" y="0" width="119" height="32"/></clipPath><clipPath id="clip21"><rect x="0" y="0" width="120" height="33"/></clipPath><clipPath id="clip22"><rect x="0" y="0" width="51" height="23"/></clipPath><clipPath id="clip23"><rect x="0" y="0" width="52" height="24"/></clipPath><clipPath id="clip24"><rect x="0" y="1" width="33" height="57"/></clipPath><clipPath id="clip25"><rect x="0" y="0" width="34" height="58"/></clipPath><clipPath id="clip26"><rect x="0" y="0" width="51" height="7"/></clipPath><clipPath id="clip27"><rect x="0" y="0" width="52" height="7"/></clipPath><clipPath id="clip28"><rect x="0" y="0" width="42" height="58"/></clipPath><clipPath id="clip29"><rect x="0" y="0" width="43" height="59"/></clipPath><clipPath id="clip30"><rect x="0" y="0" width="16" height="44"/></clipPath><clipPath id="clip31"><rect x="0" y="0" width="17" height="44"/></clipPath><clipPath id="clip32"><rect x="1" y="1" width="27" height="32"/></clipPath><clipPath id="clip33"><rect x="0" y="0" width="28" height="33"/></clipPath></defs><g clip-path="url(#clip11)" transform="translate(-657 -1138)"><g clip-path="url(#clip12)" filter="url(#fx0)" transform="translate(703 1177)"><g clip-path="url(#clip13)"><path d="M30.4198 1.08204 35.0399 1.08204 36.1342 3.47315C35.6478 4.52686 35.229 5.7089 34.8778 7.01929 34.5266 8.32968 34.1753 9.7684 33.8241 11.3355L27.1371 42.2173C26.7048 44.2166 26.1712 45.9796 25.5363 47.5061 24.9013 49.0326 24.111 50.3835 23.1654 51.5588 22.2198 52.7341 20.9769 53.7811 19.4369 54.6997 17.8968 55.6183 16.4784 56.2397 15.1815 56.564 13.8846 56.8882 12.5202 57.0503 11.0883 57.0503 9.03487 57.0503 7.19763 56.4762 5.57654 55.3279 3.95544 54.1796 2.50997 52.4302 1.24011 50.0796L6.75183 46.9185C7.8866 49.161 8.98083 50.8158 10.0345 51.8831 11.0883 52.9503 12.25 53.4839 13.5199 53.4839 14.1683 53.4839 14.8168 53.3555 15.4652 53.0989 16.1136 52.8422 16.7013 52.3356 17.2281 51.5791 17.755 50.8226 18.2143 49.7554 18.6061 48.3774 18.9978 46.9995 19.5179 44.7705 20.1664 41.6904L25.516 15.8745C25.9213 13.9022 26.5022 12.0109 27.2587 10.2007 28.0152 8.39047 28.7447 7.08008 29.4471 6.26954L29.3661 5.86426C24.8811 5.86426 21.4835 6.0669 19.1735 6.47217 16.8634 6.87745 15.2018 7.56641 14.1886 8.53907 13.1754 9.51172 12.6688 10.9167 12.6688 12.7539 12.6688 14.1318 13.1416 15.807 14.0873 17.7793L7.84607 20.2109C7.25167 19.2383 6.82613 18.3264 6.56946 17.4753 6.31279 16.6243 6.18445 15.6854 6.18445 14.6587 6.18445 13.7131 6.43437 12.7201 6.9342 11.6799 7.43404 10.6397 8.29187 9.52523 9.50769 8.33643 10.9126 6.9585 12.6688 5.63461 14.7762 4.36475 16.4784 3.33805 18.0995 2.60181 19.6395 2.15601 21.1796 1.71021 22.8817 1.40625 24.746 1.24414 25.9888 1.13607 27.8801 1.08204 30.4198 1.08204Z" fill-rule="evenodd"/></g></g><path d="M731.952 1176.85 736.573 1176.85 737.667 1179.24C737.18 1180.3 736.762 1181.48 736.41 1182.79 736.059 1184.1 735.708 1185.54 735.357 1187.1L728.67 1217.99C728.237 1219.99 727.704 1221.75 727.069 1223.27 726.434 1224.8 725.644 1226.15 724.698 1227.33 723.752 1228.5 722.51 1229.55 720.97 1230.47 719.43 1231.39 718.011 1232.01 716.714 1232.33 715.417 1232.66 714.053 1232.82 712.621 1232.82 710.568 1232.82 708.73 1232.24 707.109 1231.1 705.488 1229.95 704.043 1228.2 702.773 1225.85L708.284 1222.69C709.419 1224.93 710.513 1226.58 711.567 1227.65 712.621 1228.72 713.783 1229.25 715.053 1229.25 715.701 1229.25 716.349 1229.12 716.998 1228.87 717.646 1228.61 718.234 1228.1 718.761 1227.35 719.288 1226.59 719.747 1225.52 720.139 1224.15 720.531 1222.77 721.051 1220.54 721.699 1217.46L727.049 1191.64C727.454 1189.67 728.035 1187.78 728.791 1185.97 729.548 1184.16 730.277 1182.85 730.98 1182.04L730.899 1181.63C726.414 1181.63 723.016 1181.84 720.706 1182.24 718.396 1182.65 716.734 1183.34 715.721 1184.31 714.708 1185.28 714.201 1186.69 714.201 1188.52 714.201 1189.9 714.674 1191.58 715.62 1193.55L709.379 1195.98C708.784 1195.01 708.359 1194.1 708.102 1193.24 707.845 1192.39 707.717 1191.45 707.717 1190.43 707.717 1189.48 707.967 1188.49 708.467 1187.45 708.967 1186.41 709.825 1185.29 711.04 1184.11 712.445 1182.73 714.201 1181.4 716.309 1180.13 718.011 1179.11 719.632 1178.37 721.172 1177.92 722.712 1177.48 724.414 1177.18 726.279 1177.01 727.521 1176.9 729.413 1176.85 731.952 1176.85Z" fill-rule="evenodd"/><text fill="#000000" fill-opacity="0" font-family="Arial,Arial_MSFontService,sans-serif" font-size="55.9683" x="702.773" y="1225.82">ℐ</text><g clip-path="url(#clip14)" filter="url(#fx1)" transform="translate(741 1207)"><g clip-path="url(#clip15)"><path d="M9.9411 13.1328 11.4006 13.1328 6.99237 32.9697C6.71437 34.1413 6.52077 35.0745 6.41156 35.7695 6.30235 36.4645 6.24774 37.09 6.24774 37.646 6.24774 38.4006 6.40163 38.9466 6.70941 39.2842 7.01719 39.6217 7.47886 39.7905 8.09442 39.7905 8.45184 39.7905 8.80926 39.721 9.16669 39.582 9.52411 39.443 9.90635 39.2246 10.3134 38.9268 10.7205 38.6289 11.1673 38.2467 11.6537 37.78 12.1402 37.3134 12.6813 36.7524 13.277 36.0972L15.3024 38.063C14.2699 39.1154 13.3316 40.004 12.4877 40.7288 11.6438 41.4535 10.8446 42.0443 10.09 42.501 9.33547 42.9577 8.5958 43.2853 7.87103 43.4839 7.14626 43.6825 6.37681 43.7817 5.56268 43.7817 4.80812 43.7817 4.12803 43.6427 3.5224 43.3647 2.91677 43.0868 2.39553 42.7045 1.95868 42.218 1.52183 41.7315 1.18426 41.1507 0.945984 40.4756 0.707702 39.8005 0.588562 39.0558 0.588562 38.2417 0.588562 37.5864 0.667989 36.7723 0.826843 35.7993 0.985697 34.8263 1.18923 33.769 1.43744 32.6272 1.68565 31.4854 1.95868 30.2891 2.25653 29.0381 2.55438 27.7871 2.84727 26.5461 3.13519 25.3149 3.42312 24.0838 3.68125 22.8974 3.90961 21.7556 4.13796 20.6139 4.30178 19.5763 4.40106 18.6431 4.44077 18.4842 4.46063 18.3303 4.46063 18.1814 4.46063 18.0325 4.46063 17.8984 4.46063 17.7793 4.42092 17.0049 4.14789 16.439 3.64154 16.0815 3.13519 15.7241 2.23667 15.5256 0.945984 15.4858L1.30341 13.4605ZM8.21356 1.1294 14.1706 1.1294 12.7111 7.53321 6.81366 7.53321Z" fill-rule="evenodd"/></g></g><path d="M749.474 1218.9 750.933 1218.9 746.525 1238.74C746.247 1239.91 746.053 1240.84 745.944 1241.54 745.835 1242.23 745.78 1242.86 745.78 1243.41 745.78 1244.17 745.934 1244.72 746.242 1245.05 746.55 1245.39 747.012 1245.56 747.627 1245.56 747.985 1245.56 748.342 1245.49 748.699 1245.35 749.057 1245.21 749.439 1244.99 749.846 1244.7 750.253 1244.4 750.7 1244.02 751.186 1243.55 751.673 1243.08 752.214 1242.52 752.81 1241.87L754.835 1243.83C753.803 1244.88 752.864 1245.77 752.02 1246.5 751.177 1247.22 750.377 1247.81 749.623 1248.27 748.868 1248.73 748.129 1249.05 747.404 1249.25 746.679 1249.45 745.91 1249.55 745.095 1249.55 744.341 1249.55 743.661 1249.41 743.055 1249.13 742.449 1248.86 741.928 1248.47 741.491 1247.99 741.055 1247.5 740.717 1246.92 740.479 1246.24 740.24 1245.57 740.121 1244.82 740.121 1244.01 740.121 1243.36 740.201 1242.54 740.36 1241.57 740.518 1240.6 740.722 1239.54 740.97 1238.4 741.218 1237.25 741.491 1236.06 741.789 1234.81 742.087 1233.56 742.38 1232.31 742.668 1231.08 742.956 1229.85 743.214 1228.67 743.442 1227.52 743.671 1226.38 743.834 1225.35 743.934 1224.41 743.974 1224.25 743.993 1224.1 743.993 1223.95 743.993 1223.8 743.993 1223.67 743.993 1223.55 743.954 1222.77 743.681 1222.21 743.174 1221.85 742.668 1221.49 741.769 1221.29 740.479 1221.25L740.836 1219.23ZM747.746 1206.9 753.703 1206.9 752.244 1213.3 746.346 1213.3Z" fill-rule="evenodd"/><text fill="#000000" fill-opacity="0" font-family="Arial,Arial_MSFontService,sans-serif" font-size="42.6523" x="740.121" y="1244.22">𝑖</text><g clip-path="url(#clip16)" filter="url(#fx2)" transform="translate(770 1170)"><g clip-path="url(#clip17)"><path d="M187.079 1.28779C194.968 3.3682 201.027 7.85998 205.255 14.7631 209.483 21.6663 211.598 29.9947 211.598 39.7482 211.598 49.5288 209.49 57.8572 205.275 64.7333 201.06 71.6095 194.995 76.0878 187.079 78.1682L186.106 75.0476C192.347 72.9671 196.987 68.8604 200.027 62.7272 203.067 56.5941 204.586 48.7993 204.586 39.343 204.586 30.2108 203.073 22.6254 200.047 16.5869 197.021 10.5483 192.334 6.48881 185.984 4.4084ZM25.1333 1.28779 26.2275 4.4084C19.9052 6.48881 15.2243 10.5483 12.1848 16.5869 9.14521 22.6254 7.62543 30.2108 7.62543 39.343 7.62543 48.7993 9.14521 56.5941 12.1848 62.7272 15.2243 68.8604 19.8647 72.9671 26.1059 75.0476L25.1333 78.1682C17.2169 76.0878 11.1513 71.6095 6.93648 64.7333 2.72163 57.8572 0.614212 49.5288 0.614212 39.7482 0.614212 29.9947 2.72839 21.6663 6.95673 14.7631 11.1851 7.85998 17.2439 3.3682 25.1333 1.28779Z" fill-rule="evenodd"/></g></g><path d="M955.611 1170.06C963.5 1172.14 969.559 1176.63 973.788 1183.53 978.016 1190.44 980.13 1198.76 980.13 1208.52 980.13 1218.3 978.023 1226.63 973.808 1233.5 969.593 1240.38 963.528 1244.86 955.611 1246.94L954.639 1243.82C960.88 1241.74 965.52 1237.63 968.56 1231.5 971.599 1225.36 973.119 1217.57 973.119 1208.11 973.119 1198.98 971.606 1191.39 968.58 1185.36 965.554 1179.32 960.866 1175.26 954.517 1173.18ZM793.666 1170.06 794.76 1173.18C788.438 1175.26 783.757 1179.32 780.717 1185.36 777.678 1191.39 776.158 1198.98 776.158 1208.11 776.158 1217.57 777.678 1225.36 780.717 1231.5 783.757 1237.63 788.397 1241.74 794.639 1243.82L793.666 1246.94C785.75 1244.86 779.684 1240.38 775.469 1233.5 771.254 1226.63 769.147 1218.3 769.147 1208.52 769.147 1198.76 771.261 1190.44 775.489 1183.53 779.718 1176.63 785.777 1172.14 793.666 1170.06Z" fill-rule="evenodd"/><g clip-path="url(#clip18)" filter="url(#fx3)" transform="translate(801 1184)"><g clip-path="url(#clip19)"><path d="M12.403 0.647465 17.9957 0.647465 15.7667 10.6577 28.087 10.6577 27.1954 14.751 14.8751 14.751 11.2682 30.4756C10.5657 33.5286 10.1199 35.7239 9.93079 37.0613 9.74166 38.3987 9.64709 39.4727 9.64709 40.2832 9.64709 43.6335 11.0385 45.3086 13.8214 45.3086 15.0102 45.3086 16.2733 44.856 17.6107 43.9509 18.9481 43.0458 20.5354 41.499 22.3727 39.3105L24.7233 41.7422C22.3727 44.5791 20.1099 46.673 17.9349 48.0239 15.76 49.3748 13.4837 50.0503 11.1061 50.0503 5.45927 50.0503 2.63586 47.1999 2.63586 41.499 2.63586 39.6888 2.86552 37.784 3.32483 35.7847L8.10706 14.751 1.29846 14.751 1.90637 11.9546C3.50045 11.9276 4.70951 11.806 5.53357 11.5898 6.35762 11.3737 7.04659 11.0765 7.60046 10.6982 8.15434 10.32 8.66093 9.77962 9.12024 9.07715 9.57955 8.37468 10.0253 7.47632 10.4576 6.38208 10.8899 5.28785 11.5384 3.37631 12.403 0.647465Z" fill-rule="evenodd"/></g></g><path d="M811.936 1183.42 817.528 1183.42 815.299 1193.43 827.62 1193.43 826.728 1197.52 814.408 1197.52 810.801 1213.24C810.098 1216.3 809.653 1218.49 809.463 1219.83 809.274 1221.17 809.18 1222.24 809.18 1223.05 809.18 1226.4 810.571 1228.08 813.354 1228.08 814.543 1228.08 815.806 1227.62 817.143 1226.72 818.481 1225.81 820.068 1224.27 821.905 1222.08L824.256 1224.51C821.905 1227.35 819.643 1229.44 817.468 1230.79 815.293 1232.14 813.016 1232.82 810.639 1232.82 804.992 1232.82 802.169 1229.97 802.169 1224.27 802.169 1222.46 802.398 1220.55 802.857 1218.55L807.64 1197.52 800.831 1197.52 801.439 1194.72C803.033 1194.7 804.242 1194.57 805.066 1194.36 805.89 1194.14 806.579 1193.85 807.133 1193.47 807.687 1193.09 808.194 1192.55 808.653 1191.85 809.112 1191.14 809.558 1190.25 809.99 1189.15 810.423 1188.06 811.071 1186.15 811.936 1183.42Z" fill-rule="evenodd"/><text fill="#000000" fill-opacity="0" font-family="Arial,Arial_MSFontService,sans-serif" font-size="49.4028" x="800.831" y="1226.64">𝑡</text><g clip-path="url(#clip20)" filter="url(#fx4)" transform="translate(831 1219)"><g clip-path="url(#clip21)"><path d="M75.8011 16.9487C71.3929 17.048 68.1563 17.6139 66.0912 18.6465 64.0261 19.679 62.9935 21.2477 62.9935 23.3525 62.9935 24.9808 63.4552 26.1573 64.3785 26.8821 65.3019 27.6069 66.5677 27.9692 68.1761 27.9692 69.308 27.9692 70.3405 27.7707 71.2738 27.3735 72.2071 26.9764 73.0063 26.4651 73.6715 25.8396 74.3367 25.2141 74.8579 24.5191 75.2352 23.7546 75.6125 22.9902 75.8011 22.2406 75.8011 21.5059ZM88.8451 1.46045 101.921 1.46045 101.921 3.3667C100.968 3.48584 100.288 3.68937 99.8805 3.9773 99.4734 4.26522 99.2699 4.60775 99.2699 5.00488 99.2699 5.40202 99.3741 5.80908 99.5826 6.22608 99.7911 6.64307 100.124 7.13949 100.58 7.71533L104.512 13.0469 108.742 7.92383C109.198 7.40755 109.551 6.92603 109.799 6.47925 110.047 6.03247 110.171 5.52116 110.171 4.94531 110.171 4.58789 109.978 4.26522 109.59 3.9773 109.203 3.68937 108.612 3.48584 107.818 3.3667L107.818 1.46045 118.749 1.46045 118.749 3.3667C117.776 3.60498 116.848 4.08154 115.964 4.79639 115.081 5.51123 114.113 6.48421 113.06 7.71533L106.508 15.5786 113.745 24.8418C114.301 25.5765 114.823 26.207 115.309 26.7332 115.796 27.2594 116.252 27.7012 116.679 28.0586 117.106 28.416 117.518 28.694 117.915 28.8926 118.313 29.0911 118.71 29.2401 119.107 29.3394L119.107 31.2456 105.852 31.2456 105.852 29.25C106.726 29.1507 107.366 28.9521 107.774 28.6543 108.181 28.3564 108.384 28.009 108.384 27.6118 108.384 27.2743 108.325 26.9268 108.205 26.5693 108.086 26.2119 107.838 25.7751 107.461 25.2588L102.874 19.0933 97.8998 25.1992C97.5225 25.6559 97.2544 26.063 97.0956 26.4204 96.9367 26.7778 96.8573 27.1551 96.8573 27.5522 96.8573 27.9295 97.0608 28.282 97.4679 28.6096 97.8749 28.9373 98.5153 29.1507 99.389 29.25L99.389 31.2456 88.2196 31.2456 88.2196 29.3394C88.7756 29.1408 89.272 28.9373 89.7089 28.7288 90.1457 28.5203 90.5875 28.2423 91.0343 27.8948 91.4811 27.5473 91.9626 27.1055 92.4789 26.5693 92.9951 26.0332 93.6107 25.3382 94.3256 24.4844L100.878 16.6509 94.1468 7.80469C93.5313 6.99056 92.9951 6.31543 92.5384 5.7793 92.0817 5.24317 91.6598 4.80632 91.2726 4.46875 90.8854 4.13119 90.4982 3.88298 90.111 3.72412 89.7237 3.56527 89.3018 3.44613 88.8451 3.3667ZM72.4652 0.834963C73.9942 0.874676 75.3295 1.04842 76.4713 1.3562 77.6131 1.66398 78.5662 2.19515 79.3307 2.94971 80.0952 3.70427 80.671 4.72193 81.0582 6.00269 81.4454 7.28345 81.649 8.90674 81.6688 10.8726L81.6688 22.2505C81.6688 23.5412 81.6589 24.5837 81.639 25.3779 81.6192 26.1722 81.7085 26.8175 81.9071 27.314 82.1057 27.8104 82.4631 28.2026 82.9794 28.4905 83.4956 28.7784 84.28 29.0614 85.3324 29.3394L85.3324 31.2456 76.1586 31.2456C76.1983 30.5109 76.2281 29.7762 76.2479 29.0415 76.2678 28.3068 76.2976 27.592 76.3373 26.897 76.2777 26.8573 76.2181 26.8324 76.1586 26.8225 76.099 26.8126 76.0196 26.7878 75.9203 26.748 74.987 27.6615 74.0984 28.4359 73.2545 29.0713 72.4106 29.7067 71.5667 30.2279 70.7228 30.635 69.8789 31.0421 69.025 31.335 68.1612 31.5137 67.2975 31.6924 66.399 31.7817 65.4657 31.7817 64.175 31.7817 63.0084 31.5931 61.9659 31.2158 60.9235 30.8385 60.0398 30.3074 59.3151 29.6223 58.5903 28.9373 58.0343 28.1281 57.6471 27.1948 57.2599 26.2616 57.0663 25.229 57.0663 24.0972 57.0663 21.0392 58.63 18.6961 61.7574 17.0679 64.8849 15.4396 69.5661 14.4666 75.8011 14.1489L75.8011 12.0044C75.8011 10.535 75.687 9.28898 75.4586 8.26636 75.2303 7.24374 74.8728 6.41471 74.3863 5.7793 73.8999 5.14388 73.2595 4.68221 72.4652 4.39429 71.6709 4.10637 70.7079 3.9624 69.576 3.9624 68.0074 3.9624 66.6869 4.3794 65.6146 5.21338 64.5424 6.04737 63.7481 7.36784 63.2318 9.17481L58.8236 9.17481 58.8236 4.64746C60.2533 3.97233 61.5638 3.39649 62.7552 2.91992 63.9466 2.44336 65.0835 2.05119 66.1656 1.74341 67.2478 1.43563 68.3002 1.21224 69.3229 1.07324 70.3455 0.934246 71.3929 0.85482 72.4652 0.834963ZM20.8734 0.834963C23.0577 0.834963 24.81 1.29663 26.1305 2.21997 27.451 3.14331 28.419 4.57796 29.0345 6.52393 30.1465 5.45166 31.1443 4.55811 32.028 3.84326 32.9116 3.12842 33.7456 2.55257 34.5299 2.11572 35.3142 1.67887 36.0936 1.36613 36.868 1.17749 37.6425 0.988853 38.4864 0.874676 39.3998 0.834963 40.75 0.85482 41.9613 1.04842 43.0336 1.41577 44.1058 1.78312 45.0143 2.37386 45.7589 3.18799 46.5035 4.00212 47.0744 5.07438 47.4716 6.40479 47.8687 7.73519 48.0573 9.36345 48.0375 11.2896L48.0375 23.6504C48.0375 24.8219 48.0524 25.7205 48.0822 26.3459 48.1119 26.9714 48.236 27.4629 48.4545 27.8203 48.6729 28.1777 49.0253 28.4508 49.5118 28.6394 49.9983 28.828 50.6983 29.0614 51.6117 29.3394L51.6117 31.2456 38.5956 31.2456 38.5956 29.3394C39.3899 29.0614 40.0253 28.8429 40.5018 28.6841 40.9784 28.5252 41.3408 28.282 41.589 27.9543 41.8372 27.6267 41.9961 27.1501 42.0655 26.5247 42.135 25.8992 42.1698 24.9907 42.1698 23.7993L42.1698 14.4468C42.1698 12.342 42.0556 10.6641 41.8273 9.41309 41.5989 8.16211 41.2614 7.20402 40.8146 6.53882 40.3678 5.87362 39.7969 5.44173 39.1019 5.24317 38.4069 5.0446 37.6027 4.94531 36.6893 4.94531 35.9943 4.94531 35.2299 5.12899 34.3959 5.49634 33.5619 5.86369 32.7875 6.36011 32.0726 6.9856 31.3578 7.61109 30.7571 8.33089 30.2706 9.14502 29.7841 9.95915 29.5409 10.8031 29.5409 11.6768L29.5409 23.6504C29.5409 24.8219 29.5607 25.7304 29.6005 26.3757 29.6402 27.0211 29.7742 27.5175 30.0026 27.865 30.2309 28.2125 30.5883 28.4806 31.0748 28.6692 31.5613 28.8578 32.2613 29.0812 33.1747 29.3394L33.1747 31.2456 20.099 31.2456 20.099 29.3394C20.8933 29.0614 21.5237 28.838 21.9904 28.6692 22.457 28.5004 22.8144 28.2522 23.0626 27.9246 23.3108 27.5969 23.4697 27.1253 23.5392 26.5098 23.6087 25.8942 23.6434 24.9907 23.6434 23.7993L23.6434 14.834C23.6434 12.6696 23.5293 10.9421 23.3009 9.65137 23.0725 8.36068 22.735 7.3728 22.2882 6.68775 21.8414 6.00269 21.2705 5.55095 20.5756 5.33252 19.8806 5.1141 19.0764 4.98503 18.163 4.94531 17.3687 4.98503 16.5446 5.19849 15.6908 5.5857 14.837 5.9729 14.0576 6.47925 13.3527 7.10474 12.6477 7.73023 12.0769 8.43018 11.64 9.20459 11.2032 9.97901 11.0046 10.7534 11.0443 11.5278L11.0443 23.6504C11.0443 24.8815 11.0691 25.8197 11.1188 26.4651 11.1684 27.1104 11.3124 27.5969 11.5507 27.9246 11.7889 28.2522 12.1513 28.4954 12.6378 28.6543 13.1243 28.8132 13.8143 29.0415 14.7079 29.3394L14.7079 31.2456 1.6322 31.2456 1.6322 29.3394C2.40662 29.0614 3.02714 28.8429 3.49378 28.6841 3.96041 28.5252 4.31783 28.282 4.56604 27.9543 4.81425 27.6267 4.97311 27.1452 5.0426 26.5098 5.1121 25.8743 5.14685 24.951 5.14685 23.7397L5.14685 9.71094C5.14685 8.95638 5.13196 8.30607 5.10217 7.76001 5.07239 7.21395 5.03764 6.77214 4.99793 6.43457 4.95821 6.01758 4.88375 5.66016 4.77454 5.36231 4.66533 5.06446 4.47669 4.80135 4.20862 4.573 3.94055 4.34465 3.56327 4.14608 3.07678 3.9773 2.59029 3.80851 1.95984 3.6447 1.18543 3.48584L1.18543 1.46045 8.98914 1.13281 11.1039 1.13281C11.0443 1.98666 10.9748 2.8256 10.8954 3.64966 10.816 4.47372 10.7465 5.30274 10.6869 6.13672 10.7465 6.17643 10.806 6.19629 10.8656 6.19629 10.9252 6.19629 10.9847 6.21615 11.0443 6.25586 12.0967 5.22331 13.0598 4.3645 13.9335 3.67945 14.8072 2.99439 15.6312 2.44336 16.4056 2.02637 17.1801 1.60938 17.9296 1.31153 18.6544 1.13281 19.3792 0.954103 20.1189 0.85482 20.8734 0.834963Z" fill-rule="evenodd"/></g></g><path d="M905.334 1234.72C900.926 1234.82 897.689 1235.38 895.624 1236.42 893.559 1237.45 892.526 1239.02 892.526 1241.12 892.526 1242.75 892.988 1243.93 893.911 1244.65 894.835 1245.38 896.1 1245.74 897.709 1245.74 898.841 1245.74 899.873 1245.54 900.806 1245.14 901.74 1244.75 902.539 1244.23 903.204 1243.61 903.869 1242.98 904.391 1242.29 904.768 1241.52 905.145 1240.76 905.334 1240.01 905.334 1239.27ZM918.378 1219.23 931.453 1219.23 931.453 1221.14C930.5 1221.25 929.82 1221.46 929.413 1221.75 929.006 1222.03 928.803 1222.38 928.803 1222.77 928.803 1223.17 928.907 1223.58 929.115 1223.99 929.324 1224.41 929.656 1224.91 930.113 1225.48L934.045 1230.82 938.274 1225.69C938.731 1225.18 939.083 1224.69 939.332 1224.25 939.58 1223.8 939.704 1223.29 939.704 1222.71 939.704 1222.36 939.51 1222.03 939.123 1221.75 938.736 1221.46 938.145 1221.25 937.351 1221.14L937.351 1219.23 948.282 1219.23 948.282 1221.14C947.309 1221.37 946.381 1221.85 945.497 1222.57 944.614 1223.28 943.646 1224.25 942.593 1225.48L936.04 1233.35 943.278 1242.61C943.834 1243.35 944.355 1243.98 944.842 1244.5 945.328 1245.03 945.785 1245.47 946.212 1245.83 946.639 1246.18 947.051 1246.46 947.448 1246.66 947.845 1246.86 948.242 1247.01 948.639 1247.11L948.639 1249.01 935.385 1249.01 935.385 1247.02C936.259 1246.92 936.899 1246.72 937.306 1246.42 937.713 1246.13 937.917 1245.78 937.917 1245.38 937.917 1245.04 937.857 1244.7 937.738 1244.34 937.619 1243.98 937.371 1243.54 936.993 1243.03L932.407 1236.86 927.432 1242.97C927.055 1243.42 926.787 1243.83 926.628 1244.19 926.469 1244.55 926.39 1244.92 926.39 1245.32 926.39 1245.7 926.594 1246.05 927.001 1246.38 927.408 1246.71 928.048 1246.92 928.922 1247.02L928.922 1249.01 917.752 1249.01 917.752 1247.11C918.308 1246.91 918.805 1246.71 919.242 1246.5 919.678 1246.29 920.12 1246.01 920.567 1245.66 921.014 1245.32 921.495 1244.87 922.012 1244.34 922.528 1243.8 923.143 1243.11 923.858 1242.25L930.411 1234.42 923.68 1225.57C923.064 1224.76 922.528 1224.08 922.071 1223.55 921.614 1223.01 921.192 1222.58 920.805 1222.24 920.418 1221.9 920.031 1221.65 919.644 1221.49 919.256 1221.33 918.834 1221.21 918.378 1221.14ZM901.998 1218.6C903.527 1218.64 904.862 1218.82 906.004 1219.12 907.146 1219.43 908.099 1219.96 908.863 1220.72 909.628 1221.47 910.204 1222.49 910.591 1223.77 910.978 1225.05 911.182 1226.68 911.201 1228.64L911.201 1240.02C911.201 1241.31 911.192 1242.35 911.172 1243.15 911.152 1243.94 911.241 1244.59 911.44 1245.08 911.638 1245.58 911.996 1245.97 912.512 1246.26 913.028 1246.55 913.813 1246.83 914.865 1247.11L914.865 1249.01 905.691 1249.01C905.731 1248.28 905.761 1247.55 905.781 1246.81 905.8 1246.08 905.83 1245.36 905.87 1244.67 905.81 1244.63 905.751 1244.6 905.691 1244.59 905.632 1244.58 905.552 1244.56 905.453 1244.52 904.52 1245.43 903.631 1246.2 902.787 1246.84 901.943 1247.48 901.099 1248 900.255 1248.4 899.411 1248.81 898.558 1249.1 897.694 1249.28 896.83 1249.46 895.932 1249.55 894.998 1249.55 893.708 1249.55 892.541 1249.36 891.499 1248.98 890.456 1248.61 889.573 1248.08 888.848 1247.39 888.123 1246.71 887.567 1245.9 887.18 1244.96 886.793 1244.03 886.599 1243 886.599 1241.87 886.599 1238.81 888.163 1236.46 891.29 1234.84 894.418 1233.21 899.099 1232.24 905.334 1231.92L905.334 1229.77C905.334 1228.3 905.22 1227.06 904.991 1226.04 904.763 1225.01 904.406 1224.18 903.919 1223.55 903.432 1222.91 902.792 1222.45 901.998 1222.16 901.204 1221.88 900.241 1221.73 899.109 1221.73 897.54 1221.73 896.22 1222.15 895.147 1222.98 894.075 1223.82 893.281 1225.14 892.764 1226.94L888.356 1226.94 888.356 1222.42C889.786 1221.74 891.096 1221.17 892.288 1220.69 893.479 1220.21 894.616 1219.82 895.698 1219.51 896.781 1219.2 897.833 1218.98 898.856 1218.84 899.878 1218.7 900.926 1218.62 901.998 1218.6ZM850.406 1218.6C852.59 1218.6 854.343 1219.07 855.663 1219.99 856.984 1220.91 857.952 1222.35 858.567 1224.29 859.679 1223.22 860.677 1222.33 861.561 1221.61 862.444 1220.9 863.278 1220.32 864.063 1219.88 864.847 1219.45 865.626 1219.13 866.401 1218.95 867.175 1218.76 868.019 1218.64 868.932 1218.6 870.283 1218.62 871.494 1218.82 872.566 1219.18 873.638 1219.55 874.547 1220.14 875.292 1220.96 876.036 1221.77 876.607 1222.84 877.004 1224.17 877.401 1225.5 877.59 1227.13 877.57 1229.06L877.57 1241.42C877.57 1242.59 877.585 1243.49 877.615 1244.11 877.645 1244.74 877.769 1245.23 877.987 1245.59 878.206 1245.95 878.558 1246.22 879.044 1246.41 879.531 1246.6 880.231 1246.83 881.144 1247.11L881.144 1249.01 868.128 1249.01 868.128 1247.11C868.922 1246.83 869.558 1246.61 870.034 1246.45 870.511 1246.29 870.873 1246.05 871.122 1245.72 871.37 1245.4 871.529 1244.92 871.598 1244.29 871.668 1243.67 871.702 1242.76 871.702 1241.57L871.702 1232.22C871.702 1230.11 871.588 1228.43 871.36 1227.18 871.132 1225.93 870.794 1224.97 870.347 1224.31 869.9 1223.64 869.33 1223.21 868.635 1223.01 867.94 1222.81 867.135 1222.71 866.222 1222.71 865.527 1222.71 864.763 1222.9 863.929 1223.27 863.095 1223.63 862.32 1224.13 861.605 1224.75 860.89 1225.38 860.29 1226.1 859.803 1226.91 859.317 1227.73 859.074 1228.57 859.074 1229.45L859.074 1241.42C859.074 1242.59 859.093 1243.5 859.133 1244.14 859.173 1244.79 859.307 1245.29 859.535 1245.63 859.764 1245.98 860.121 1246.25 860.607 1246.44 861.094 1246.63 861.794 1246.85 862.707 1247.11L862.707 1249.01 849.632 1249.01 849.632 1247.11C850.426 1246.83 851.056 1246.61 851.523 1246.44 851.99 1246.27 852.347 1246.02 852.595 1245.69 852.844 1245.37 853.002 1244.89 853.072 1244.28 853.141 1243.66 853.176 1242.76 853.176 1241.57L853.176 1232.6C853.176 1230.44 853.062 1228.71 852.834 1227.42 852.605 1226.13 852.268 1225.14 851.821 1224.46 851.374 1223.77 850.803 1223.32 850.108 1223.1 849.413 1222.88 848.609 1222.75 847.696 1222.71 846.901 1222.75 846.077 1222.97 845.223 1223.35 844.37 1223.74 843.59 1224.25 842.885 1224.87 842.18 1225.5 841.609 1226.2 841.173 1226.97 840.736 1227.75 840.537 1228.52 840.577 1229.3L840.577 1241.42C840.577 1242.65 840.602 1243.59 840.651 1244.23 840.701 1244.88 840.845 1245.37 841.083 1245.69 841.322 1246.02 841.684 1246.26 842.17 1246.42 842.657 1246.58 843.347 1246.81 844.241 1247.11L844.241 1249.01 831.165 1249.01 831.165 1247.11C831.939 1246.83 832.56 1246.61 833.026 1246.45 833.493 1246.29 833.85 1246.05 834.099 1245.72 834.347 1245.4 834.506 1244.91 834.575 1244.28 834.645 1243.64 834.68 1242.72 834.68 1241.51L834.68 1227.48C834.68 1226.73 834.665 1226.07 834.635 1225.53 834.605 1224.98 834.57 1224.54 834.531 1224.2 834.491 1223.79 834.416 1223.43 834.307 1223.13 834.198 1222.83 834.009 1222.57 833.741 1222.34 833.473 1222.11 833.096 1221.91 832.609 1221.75 832.123 1221.58 831.492 1221.41 830.718 1221.25L830.718 1219.23 838.522 1218.9 840.637 1218.9C840.577 1219.76 840.507 1220.59 840.428 1221.42 840.349 1222.24 840.279 1223.07 840.22 1223.91 840.279 1223.95 840.339 1223.97 840.398 1223.97 840.458 1223.97 840.517 1223.98 840.577 1224.02 841.629 1222.99 842.592 1222.13 843.466 1221.45 844.34 1220.76 845.164 1220.21 845.938 1219.8 846.713 1219.38 847.462 1219.08 848.187 1218.9 848.912 1218.72 849.651 1218.62 850.406 1218.6Z" fill-rule="evenodd"/><text fill="#000000" fill-opacity="0" font-family="Arial,Arial_MSFontService,sans-serif" font-size="30.9468" x="830.718" y="1245.68">max</text><g clip-path="url(#clip22)" filter="url(#fx5)" transform="translate(1017 1198)"><g clip-path="url(#clip23)"><path d="M0.636963 17.4077 50.5666 17.4077 50.5666 22.7979 0.636963 22.7979ZM0.636963 0.588871 50.5666 0.588871 50.5666 5.97901 0.636963 5.97901Z" fill-rule="evenodd"/></g></g><path d="M1016.17 1214.18 1066.1 1214.18 1066.1 1219.57 1016.17 1219.57ZM1016.17 1197.36 1066.1 1197.36 1066.1 1202.75 1016.17 1202.75Z" fill-rule="evenodd"/><text fill="#000000" fill-opacity="0" font-family="Arial,Arial_MSFontService,sans-serif" font-size="22.209" x="1016.17" y="1216.79">=</text><g clip-path="url(#clip24)" filter="url(#fx6)" transform="translate(1103 1176)"><g clip-path="url(#clip25)"><path d="M19.5708 1.4336 21.7998 1.4336C21.6377 4.02735 21.5566 7.62077 21.5566 12.2139L21.5566 46.8242C21.5566 48.3913 21.6444 49.5733 21.8201 50.3704 21.9957 51.1674 22.3064 51.8158 22.7522 52.3157 23.198 52.8155 23.8397 53.2073 24.6772 53.491 25.5148 53.7747 26.5685 53.9908 27.8384 54.1394 29.1082 54.288 30.7834 54.3893 32.8638 54.4434L32.8638 57.4019 2.91406 57.4019 2.91406 54.4434C5.91309 54.3083 8.05428 54.1259 9.33765 53.8962 10.621 53.6666 11.6004 53.3221 12.2759 52.8628 12.9513 52.4035 13.4444 51.755 13.7551 50.9175 14.0658 50.0799 14.2212 48.7155 14.2212 46.8242L14.2212 13.9565C14.2212 12.8758 14.0321 12.0855 13.6538 11.5857 13.2756 11.0859 12.7217 10.8359 11.9922 10.8359 11.1276 10.8359 9.89827 11.2817 8.3042 12.1733 6.71012 13.0649 4.73779 14.2943 2.38721 15.8613L0.604004 12.7407Z" fill-rule="evenodd"/></g></g><path d="M1121.1 1176.2 1123.33 1176.2C1123.17 1178.8 1123.09 1182.39 1123.09 1186.98L1123.09 1221.59C1123.09 1223.16 1123.18 1224.34 1123.35 1225.14 1123.53 1225.94 1123.84 1226.58 1124.28 1227.08 1124.73 1227.58 1125.37 1227.98 1126.21 1228.26 1127.05 1228.54 1128.1 1228.76 1129.37 1228.91 1130.64 1229.06 1132.32 1229.16 1134.4 1229.21L1134.4 1232.17 1104.45 1232.17 1104.45 1229.21C1107.45 1229.08 1109.59 1228.89 1110.87 1228.67 1112.15 1228.44 1113.13 1228.09 1113.81 1227.63 1114.48 1227.17 1114.98 1226.52 1115.29 1225.69 1115.6 1224.85 1115.75 1223.48 1115.75 1221.59L1115.75 1188.73C1115.75 1187.64 1115.56 1186.85 1115.19 1186.35 1114.81 1185.85 1114.25 1185.6 1113.52 1185.6 1112.66 1185.6 1111.43 1186.05 1109.84 1186.94 1108.24 1187.83 1106.27 1189.06 1103.92 1190.63L1102.14 1187.51Z" fill-rule="evenodd"/><text fill="#000000" fill-opacity="0" font-family="Arial,Arial_MSFontService,sans-serif" font-size="55.9683" x="1102.14" y="1225.17">1</text><g clip-path="url(#clip26)" filter="url(#fx7)" transform="translate(1166 1206)"><g clip-path="url(#clip27)"><path d="M0.595337 0.978029 50.525 0.978029 50.525 6.36817 0.595337 6.36817Z" fill-rule="evenodd"/></g></g><path d="M1165.13 1205.75 1215.06 1205.75 1215.06 1211.14 1165.13 1211.14Z" fill-rule="evenodd"/><text fill="#000000" fill-opacity="0" font-family="Arial,Arial_MSFontService,sans-serif" font-size="5.39014" x="1165.13" y="1210.46">−</text><g clip-path="url(#clip28)" filter="url(#fx8)" transform="translate(1241 1193)"><g clip-path="url(#clip29)"><path d="M29.5931 5.75098C28.2152 5.75098 26.8575 6.21704 25.5201 7.14917 24.1827 8.0813 22.717 9.57406 21.1229 11.6274 19.5288 13.6808 18.286 15.7072 17.3944 17.7065 16.5028 19.7059 15.8003 22.0024 15.287 24.5962L14.9628 26.2983C14.6926 27.7303 14.5237 28.8245 14.4562 29.5811 14.3886 30.3376 14.3549 31.0806 14.3549 31.8101 14.3549 33.9175 14.8074 35.4508 15.7125 36.4099 16.6176 37.3691 18.1779 37.8486 20.3934 37.8486 21.7714 37.8486 23.0412 37.5784 24.203 37.0381 25.3648 36.4977 26.4658 35.7142 27.506 34.6875 28.5462 33.6608 29.4851 32.418 30.3226 30.959 31.1602 29.5 31.91 27.8046 32.5719 25.8728 33.2338 23.941 33.7337 21.9552 34.0714 19.9153 34.4091 17.8754 34.578 15.9639 34.578 14.1807 34.578 11.3438 34.1795 9.22957 33.3824 7.83814 32.5854 6.4467 31.3223 5.75098 29.5931 5.75098ZM12.5311 0.968754C14.2063 0.968754 15.5369 1.52263 16.5231 2.63037 17.5092 3.73812 18.0023 5.21062 18.0023 7.04786 18.0023 8.56087 17.6916 10.155 17.0702 11.8301L17.5565 11.9922C22.5549 4.67025 27.5262 1.00928 32.4706 1.00928 35.4156 1.00928 37.7054 2.13054 39.34 4.37305 40.9746 6.61556 41.7919 9.7767 41.7919 13.8564 41.7919 18.3145 40.8935 22.6982 39.0968 27.0076 37.3001 31.317 34.8077 34.7348 31.6195 37.261 28.4314 39.7872 24.8649 41.0503 20.9203 41.0503 17.3269 41.0503 14.3413 40.2668 11.9637 38.6997L10.0995 47.5752C9.69421 49.4935 9.49158 51.0741 9.49158 52.3169 9.49158 53.5057 9.79553 54.35 10.4034 54.8499 11.0114 55.3497 12.1934 55.6807 13.9496 55.8428L13.6254 57.8286 1.10242 57.8286 10.8695 14.8291C11.4369 12.3434 11.7206 10.3036 11.7206 8.70947 11.7206 7.62875 11.545 6.84522 11.1937 6.35889 10.8425 5.87256 10.2886 5.6294 9.5321 5.6294 8.69454 5.6294 7.80969 5.97388 6.87756 6.66285 5.94544 7.35181 4.66882 8.6014 3.04773 10.4116L0.737671 8.14209C3.16931 5.60238 5.22945 3.7719 6.91809 2.65064 8.60673 1.52938 10.4777 0.968754 12.5311 0.968754Z" fill-rule="evenodd"/></g></g><path d="M1269.13 1197.52C1267.75 1197.52 1266.39 1197.99 1265.05 1198.92 1263.72 1199.85 1262.25 1201.34 1260.66 1203.4 1259.06 1205.45 1257.82 1207.48 1256.93 1209.48 1256.04 1211.47 1255.33 1213.77 1254.82 1216.36L1254.5 1218.07C1254.23 1219.5 1254.06 1220.59 1253.99 1221.35 1253.92 1222.11 1253.89 1222.85 1253.89 1223.58 1253.89 1225.69 1254.34 1227.22 1255.25 1228.18 1256.15 1229.14 1257.71 1229.62 1259.93 1229.62 1261.3 1229.62 1262.57 1229.35 1263.74 1228.81 1264.9 1228.27 1266 1227.48 1267.04 1226.46 1268.08 1225.43 1269.02 1224.19 1269.86 1222.73 1270.69 1221.27 1271.44 1219.57 1272.1 1217.64 1272.77 1215.71 1273.27 1213.72 1273.6 1211.68 1273.94 1209.64 1274.11 1207.73 1274.11 1205.95 1274.11 1203.11 1273.71 1201 1272.92 1199.61 1272.12 1198.22 1270.85 1197.52 1269.13 1197.52ZM1252.06 1192.74C1253.74 1192.74 1255.07 1193.29 1256.06 1194.4 1257.04 1195.51 1257.54 1196.98 1257.54 1198.82 1257.54 1200.33 1257.22 1201.92 1256.6 1203.6L1257.09 1203.76C1262.09 1196.44 1267.06 1192.78 1272 1192.78 1274.95 1192.78 1277.24 1193.9 1278.87 1196.14 1280.51 1198.38 1281.32 1201.55 1281.32 1205.63 1281.32 1210.08 1280.43 1214.47 1278.63 1218.78 1276.83 1223.09 1274.34 1226.5 1271.15 1229.03 1267.96 1231.56 1264.4 1232.82 1260.45 1232.82 1256.86 1232.82 1253.87 1232.04 1251.5 1230.47L1249.63 1239.34C1249.23 1241.26 1249.02 1242.84 1249.02 1244.09 1249.02 1245.27 1249.33 1246.12 1249.94 1246.62 1250.54 1247.12 1251.73 1247.45 1253.48 1247.61L1253.16 1249.6 1240.64 1249.6 1250.4 1206.6C1250.97 1204.11 1251.25 1202.07 1251.25 1200.48 1251.25 1199.4 1251.08 1198.61 1250.73 1198.13 1250.38 1197.64 1249.82 1197.4 1249.06 1197.4 1248.23 1197.4 1247.34 1197.74 1246.41 1198.43 1245.48 1199.12 1244.2 1200.37 1242.58 1202.18L1240.27 1199.91C1242.7 1197.37 1244.76 1195.54 1246.45 1194.42 1248.14 1193.3 1250.01 1192.74 1252.06 1192.74Z" fill-rule="evenodd"/><text fill="#000000" fill-opacity="0" font-family="Arial,Arial_MSFontService,sans-serif" font-size="56.8599" x="1240.27" y="1242.49">𝑝</text><g clip-path="url(#clip30)" filter="url(#fx9)" transform="translate(1288 1211)"><g clip-path="url(#clip31)"><path d="M10.2828 12.7079 11.7423 12.7079 7.33411 32.5448C7.05611 33.7164 6.86251 34.6496 6.75329 35.3446 6.64408 36.0396 6.58948 36.6651 6.58948 37.2211 6.58948 37.9756 6.74337 38.5217 7.05115 38.8593 7.35893 39.1968 7.8206 39.3656 8.43616 39.3656 8.79358 39.3656 9.151 39.2961 9.50842 39.1571 9.86584 39.0181 10.2481 38.7997 10.6552 38.5018 11.0622 38.204 11.509 37.8217 11.9955 37.3551 12.482 36.8885 13.0231 36.3275 13.6188 35.6722L15.6442 37.6381C14.6116 38.6905 13.6734 39.5791 12.8295 40.3038 11.9856 41.0286 11.1863 41.6193 10.4318 42.076 9.6772 42.5328 8.93754 42.8604 8.21277 43.059 7.488 43.2575 6.71855 43.3568 5.90442 43.3568 5.14986 43.3568 4.46977 43.2178 3.86414 42.9398 3.2585 42.6618 2.73726 42.2796 2.30041 41.7931 1.86357 41.3066 1.526 40.7258 1.28772 40.0507 1.04944 39.3755 0.930298 38.6309 0.930298 37.8168 0.930298 37.1615 1.00973 36.3474 1.16858 35.3744 1.32743 34.4014 1.53096 33.344 1.77917 32.2023 2.02738 31.0605 2.30041 29.8641 2.59827 28.6132 2.89612 27.3622 3.189 26.1211 3.47693 24.89 3.76485 23.6589 4.02299 22.4725 4.25134 21.3307 4.47969 20.1889 4.64351 19.1514 4.7428 18.2181 4.78251 18.0593 4.80237 17.9054 4.80237 17.7565 4.80237 17.6075 4.80237 17.4735 4.80237 17.3544 4.76265 16.58 4.48962 16.014 3.98328 15.6566 3.47693 15.2992 2.57841 15.1006 1.28772 15.0609L1.64514 13.0355ZM8.5553 0.704472 14.5123 0.704472 13.0529 7.10828 7.15539 7.10828Z" fill-rule="evenodd"/></g></g><path d="M1296.82 1222.48 1298.27 1222.48 1293.87 1242.31C1293.59 1243.48 1293.4 1244.42 1293.29 1245.11 1293.18 1245.81 1293.12 1246.43 1293.12 1246.99 1293.12 1247.74 1293.28 1248.29 1293.58 1248.63 1293.89 1248.97 1294.35 1249.13 1294.97 1249.13 1295.33 1249.13 1295.68 1249.06 1296.04 1248.93 1296.4 1248.79 1296.78 1248.57 1297.19 1248.27 1297.59 1247.97 1298.04 1247.59 1298.53 1247.12 1299.01 1246.66 1299.56 1246.1 1300.15 1245.44L1302.18 1247.41C1301.14 1248.46 1300.21 1249.35 1299.36 1250.07 1298.52 1250.8 1297.72 1251.39 1296.96 1251.84 1296.21 1252.3 1295.47 1252.63 1294.75 1252.83 1294.02 1253.03 1293.25 1253.13 1292.44 1253.13 1291.68 1253.13 1291 1252.99 1290.4 1252.71 1289.79 1252.43 1289.27 1252.05 1288.83 1251.56 1288.4 1251.08 1288.06 1250.49 1287.82 1249.82 1287.58 1249.14 1287.46 1248.4 1287.46 1247.59 1287.46 1246.93 1287.54 1246.12 1287.7 1245.14 1287.86 1244.17 1288.06 1243.11 1288.31 1241.97 1288.56 1240.83 1288.83 1239.63 1289.13 1238.38 1289.43 1237.13 1289.72 1235.89 1290.01 1234.66 1290.3 1233.43 1290.56 1232.24 1290.78 1231.1 1291.01 1229.96 1291.18 1228.92 1291.28 1227.99 1291.32 1227.83 1291.33 1227.67 1291.33 1227.53 1291.33 1227.38 1291.33 1227.24 1291.33 1227.12 1291.3 1226.35 1291.02 1225.78 1290.52 1225.43 1290.01 1225.07 1289.11 1224.87 1287.82 1224.83L1288.18 1222.8ZM1295.09 1210.47 1301.04 1210.47 1299.59 1216.88 1293.69 1216.88Z" fill-rule="evenodd"/><text fill="#000000" fill-opacity="0" font-family="Arial,Arial_MSFontService,sans-serif" font-size="42.6523" x="1287.46" y="1247.79">𝑖</text><g clip-path="url(#clip32)" filter="url(#fx10)" transform="translate(1291 1168)"><g clip-path="url(#clip33)"><path d="M19.4498 1.23499C20.8994 1.23499 22.2447 1.31441 23.4857 1.47327 24.7268 1.63212 26.0125 1.88033 27.3429 2.2179L25.6749 9.51526 22.1603 9.51526C22.1404 8.48271 22.066 7.6239 21.9369 6.93884 21.8078 6.25379 21.5993 5.71269 21.3114 5.31555 21.0235 4.91842 20.6462 4.63546 20.1796 4.46668 19.7129 4.29789 19.142 4.20358 18.4669 4.18372 17.3947 4.18372 16.3671 4.422 15.3842 4.89856 14.4012 5.37512 13.4878 6.03536 12.6439 6.87927 11.8 7.72319 11.0306 8.71106 10.3356 9.8429 9.64058 10.9747 9.04488 12.1959 8.54846 13.5065 8.05204 14.817 7.6698 16.1822 7.40173 17.6019 7.13367 19.0217 6.99963 20.4365 6.99963 21.8463 6.99963 23.9511 7.41663 25.5546 8.25061 26.6566 9.08459 27.7587 10.3356 28.3097 12.0035 28.3097 12.9368 28.3097 13.8006 28.2253 14.5948 28.0565 15.3891 27.8877 16.1635 27.6048 16.9181 27.2076 17.6726 26.8105 18.452 26.2893 19.2562 25.6439 20.0604 24.9986 20.949 24.1993 21.922 23.2462 22.2993 23.6434 22.6617 24.0355 23.0092 24.4227 23.3566 24.8099 23.719 25.2021 24.0963 25.5992 21.9518 27.8232 19.8072 29.4763 17.6627 30.5585 15.5182 31.6407 13.2148 32.1818 10.7526 32.1818 7.67476 32.1818 5.31677 31.2832 3.67859 29.4862 2.04041 27.6892 1.22131 25.1227 1.22131 21.7867 1.22131 19.9202 1.42981 18.1182 1.8468 16.3807 2.26379 14.6433 2.86446 13.0101 3.6488 11.4811 4.43315 9.95211 5.37138 8.56214 6.4635 7.31116 7.55562 6.06018 8.77681 4.98295 10.1271 4.07947 11.4773 3.17599 12.9368 2.47604 14.5055 1.97962 16.0742 1.4832 17.7223 1.23499 19.4498 1.23499Z" fill-rule="evenodd"/></g></g><path d="M1308.98 1168C1310.43 1168 1311.78 1168.08 1313.02 1168.24 1314.26 1168.4 1315.55 1168.65 1316.88 1168.99L1315.21 1176.28 1311.69 1176.28C1311.67 1175.25 1311.6 1174.39 1311.47 1173.71 1311.34 1173.02 1311.13 1172.48 1310.84 1172.08 1310.56 1171.69 1310.18 1171.4 1309.71 1171.24 1309.25 1171.07 1308.67 1170.97 1308 1170.95 1306.93 1170.95 1305.9 1171.19 1304.92 1171.67 1303.93 1172.14 1303.02 1172.8 1302.18 1173.65 1301.33 1174.49 1300.56 1175.48 1299.87 1176.61 1299.17 1177.74 1298.58 1178.96 1298.08 1180.28 1297.58 1181.59 1297.2 1182.95 1296.93 1184.37 1296.67 1185.79 1296.53 1187.21 1296.53 1188.62 1296.53 1190.72 1296.95 1192.32 1297.78 1193.43 1298.62 1194.53 1299.87 1195.08 1301.54 1195.08 1302.47 1195.08 1303.33 1194.99 1304.13 1194.83 1304.92 1194.66 1305.7 1194.37 1306.45 1193.98 1307.21 1193.58 1307.98 1193.06 1308.79 1192.41 1309.59 1191.77 1310.48 1190.97 1311.45 1190.02 1311.83 1190.41 1312.19 1190.8 1312.54 1191.19 1312.89 1191.58 1313.25 1191.97 1313.63 1192.37 1311.48 1194.59 1309.34 1196.25 1307.2 1197.33 1305.05 1198.41 1302.75 1198.95 1300.29 1198.95 1297.21 1198.95 1294.85 1198.05 1293.21 1196.26 1291.57 1194.46 1290.75 1191.89 1290.75 1188.56 1290.75 1186.69 1290.96 1184.89 1291.38 1183.15 1291.8 1181.41 1292.4 1179.78 1293.18 1178.25 1293.97 1176.72 1294.9 1175.33 1296 1174.08 1297.09 1172.83 1298.31 1171.75 1299.66 1170.85 1301.01 1169.94 1302.47 1169.24 1304.04 1168.75 1305.61 1168.25 1307.26 1168 1308.98 1168Z" fill-rule="evenodd"/><text fill="#000000" fill-opacity="0" font-family="Arial,Arial_MSFontService,sans-serif" font-size="30.9468" x="1290.75" y="1195.08">𝑐</text></g></svg>