<svg width="2200" height="207" xmlns="http://www.w3.org/2000/svg" xmlns:xlink="http://www.w3.org/1999/xlink" xml:space="preserve" overflow="hidden"><defs><filter id="fx0" x="-10%" y="-10%" width="120%" height="120%" filterUnits="userSpaceOnUse" primitiveUnits="userSpaceOnUse"><feComponentTransfer color-interpolation-filters="sRGB"><feFuncR type="discrete" tableValues="1 1"/><feFuncG type="discrete" tableValues="1 1"/><feFuncB type="discrete" tableValues="1 1"/><feFuncA type="linear" slope="0.4" intercept="0"/></feComponentTransfer><feGaussianBlur stdDeviation="0 0"/></filter><filter id="fx1" x="-10%" y="-10%" width="120%" height="120%" filterUnits="userSpaceOnUse" primitiveUnits="userSpaceOnUse"><feComponentTransfer color-interpolation-filters="sRGB"><feFuncR type="discrete" tableValues="1 1"/><feFuncG type="discrete" tableValues="1 1"/><feFuncB type="discrete" tableValues="1 1"/><feFuncA type="linear" slope="0.4" intercept="0"/></feComponentTransfer><feGaussianBlur stdDeviation="0 0"/></filter><filter id="fx2" x="-10%" y="-10%" width="120%" height="120%" filterUnits="userSpaceOnUse" primitiveUnits="userSpaceOnUse"><feComponentTransfer color-interpolation-filters="sRGB"><feFuncR type="discrete" tableValues="1 1"/><feFuncG type="discrete" tableValues="1 1"/><feFuncB type="discrete" tableValues="1 1"/><feFuncA type="linear" slope="0.4" intercept="0"/></feComponentTransfer><feGaussianBlur stdDeviation="0 0"/></filter><filter id="fx3" x="-10%" y="-10%" width="120%" height="120%" filterUnits="userSpaceOnUse" primitiveUnits="userSpaceOnUse"><feComponentTransfer color-interpolation-filters="sRGB"><feFuncR type="discrete" tableValues="1 1"/><feFuncG type="discrete" tableValues="1 1"/><feFuncB type="discrete" tableValues="1 1"/><feFuncA type="linear" slope="0.4" intercept="0"/></feComponentTransfer><feGaussianBlur stdDeviation="0 0"/></filter><filter id="fx4" x="-10%" y="-10%" width="120%" height="120%" filterUnits="userSpaceOnUse" primitiveUnits="userSpaceOnUse"><feComponentTransfer color-interpolation-filters="sRGB"><feFuncR type="discrete" tableValues="1 1"/><feFuncG type="discrete" tableValues="1 1"/><feFuncB type="discrete" tableValues="1 1"/><feFuncA type="linear" slope="0.4" intercept="0"/></feComponentTransfer><feGaussianBlur stdDeviation="0 0"/></filter><filter id="fx5" x="-10%" y="-10%" width="120%" height="120%" filterUnits="userSpaceOnUse" primitiveUnits="userSpaceOnUse"><feComponentTransfer color-interpolation-filters="sRGB"><feFuncR type="discrete" tableValues="1 1"/><feFuncG type="discrete" tableValues="1 1"/><feFuncB type="discrete" tableValues="1 1"/><feFuncA type="linear" slope="0.4" intercept="0"/></feComponentTransfer><feGaussianBlur stdDeviation="0 0"/></filter><filter id="fx6" x="-10%" y="-10%" width="120%" height="120%" filterUnits="userSpaceOnUse" primitiveUnits="userSpaceOnUse"><feComponentTransfer color-interpolation-filters="sRGB"><feFuncR type="discrete" tableValues="1 1"/><feFuncG type="discrete" tableValues="1 1"/><feFuncB type="discrete" tableValues="1 1"/><feFuncA type="linear" slope="0.4" intercept="0"/></feComponentTransfer><feGaussianBlur stdDeviation="0 0"/></filter><filter id="fx7" x="-10%" y="-10%" width="120%" height="120%" filterUnits="userSpaceOnUse" primitiveUnits="userSpaceOnUse"><feComponentTransfer color-interpolation-filters="sRGB"><feFuncR type="discrete" tableValues="1 1"/><feFuncG type="discrete" tableValues="1 1"/><feFuncB type="discrete" tableValues="1 1"/><feFuncA type="linear" slope="0.4" intercept="0"/></feComponentTransfer><feGaussianBlur stdDeviation="0 0"/></filter><filter id="fx8" x="-10%" y="-10%" width="120%" height="120%" filterUnits="userSpaceOnUse" primitiveUnits="userSpaceOnUse"><feComponentTransfer color-interpolation-filters="sRGB"><feFuncR type="discrete" tableValues="1 1"/><feFuncG type="discrete" tableValues="1 1"/><feFuncB type="discrete" tableValues="1 1"/><feFuncA type="linear" slope="0.4" intercept="0"/></feComponentTransfer><feGaussianBlur stdDeviation="0 0"/></filter><filter id="fx9" x="-10%" y="-10%" width="120%" height="120%" filterUnits="userSpaceOnUse" primitiveUnits="userSpaceOnUse"><feComponentTransfer color-interpolation-filters="sRGB"><feFuncR type="discrete" tableValues="1 1"/><feFuncG type="discrete" tableValues="1 1"/><feFuncB type="discrete" tableValues="1 1"/><feFuncA type="linear" slope="0.4" intercept="0"/></feComponentTransfer><feGaussianBlur stdDeviation="0 0"/></filter><filter id="fx10" x="-10%" y="-10%" width="120%" height="120%" filterUnits="userSpaceOnUse" primitiveUnits="userSpaceOnUse"><feComponentTransfer color-interpolation-filters="sRGB"><feFuncR type="discrete" tableValues="1 1"/><feFuncG type="discrete" tableValues="1 1"/><feFuncB type="discrete" tableValues="1 1"/><feFuncA type="linear" slope="0.4" intercept="0"/></feComponentTransfer><feGaussianBlur stdDeviation="0 0"/></filter><filter id="fx11" x="-10%" y="-10%" width="120%" height="120%" filterUnits="userSpaceOnUse" primitiveUnits="userSpaceOnUse"><feComponentTransfer color-interpolation-filters="sRGB"><feFuncR type="discrete" tableValues="1 1"/><feFuncG type="discrete" tableValues="1 1"/><feFuncB type="discrete" tableValues="1 1"/><feFuncA type="linear" slope="0.4" intercept="0"/></feComponentTransfer><feGaussianBlur stdDeviation="0 0"/></filter><filter id="fx12" x="-10%" y="-10%" width="120%" height="120%" filterUnits="userSpaceOnUse" primitiveUnits="userSpaceOnUse"><feComponentTransfer color-interpolation-filters="sRGB"><feFuncR type="discrete" tableValues="1 1"/><feFuncG type="discrete" tableValues="1 1"/><feFuncB type="discrete" tableValues="1 1"/><feFuncA type="linear" slope="0.4" intercept="0"/></feComponentTransfer><feGaussianBlur stdDeviation="0 0"/></filter><filter id="fx13" x="-10%" y="-10%" width="120%" height="120%" filterUnits="userSpaceOnUse" primitiveUnits="userSpaceOnUse"><feComponentTransfer color-interpolation-filters="sRGB"><feFuncR type="discrete" tableValues="1 1"/><feFuncG type="discrete" tableValues="1 1"/><feFuncB type="discrete" tableValues="1 1"/><feFuncA type="linear" slope="0.4" intercept="0"/></feComponentTransfer><feGaussianBlur stdDeviation="0 0"/></filter><filter id="fx14" x="-10%" y="-10%" width="120%" height="120%" filterUnits="userSpaceOnUse" primitiveUnits="userSpaceOnUse"><feComponentTransfer color-interpolation-filters="sRGB"><feFuncR type="discrete" tableValues="1 1"/><feFuncG type="discrete" tableValues="1 1"/><feFuncB type="discrete" tableValues="1 1"/><feFuncA type="linear" slope="0.4" intercept="0"/></feComponentTransfer><feGaussianBlur stdDeviation="0 0"/></filter><filter id="fx15" x="-10%" y="-10%" width="120%" height="120%" filterUnits="userSpaceOnUse" primitiveUnits="userSpaceOnUse"><feComponentTransfer color-interpolation-filters="sRGB"><feFuncR type="discrete" tableValues="1 1"/><feFuncG type="discrete" tableValues="1 1"/><feFuncB type="discrete" tableValues="1 1"/><feFuncA type="linear" slope="0.4" intercept="0"/></feComponentTransfer><feGaussianBlur stdDeviation="0 0"/></filter><filter id="fx16" x="-10%" y="-10%" width="120%" height="120%" filterUnits="userSpaceOnUse" primitiveUnits="userSpaceOnUse"><feComponentTransfer color-interpolation-filters="sRGB"><feFuncR type="discrete" tableValues="1 1"/><feFuncG type="discrete" tableValues="1 1"/><feFuncB type="discrete" tableValues="1 1"/><feFuncA type="linear" slope="0.4" intercept="0"/></feComponentTransfer><feGaussianBlur stdDeviation="0 0"/></filter><filter id="fx17" x="-10%" y="-10%" width="120%" height="120%" filterUnits="userSpaceOnUse" primitiveUnits="userSpaceOnUse"><feComponentTransfer color-interpolation-filters="sRGB"><feFuncR type="discrete" tableValues="1 1"/><feFuncG type="discrete" tableValues="1 1"/><feFuncB type="discrete" tableValues="1 1"/><feFuncA type="linear" slope="0.4" intercept="0"/></feComponentTransfer><feGaussianBlur stdDeviation="0 0"/></filter><filter id="fx18" x="-10%" y="-10%" width="120%" height="120%" filterUnits="userSpaceOnUse" primitiveUnits="userSpaceOnUse"><feComponentTransfer color-interpolation-filters="sRGB"><feFuncR type="discrete" tableValues="1 1"/><feFuncG type="discrete" tableValues="1 1"/><feFuncB type="discrete" tableValues="1 1"/><feFuncA type="linear" slope="0.4" intercept="0"/></feComponentTransfer><feGaussianBlur stdDeviation="0 0"/></filter><filter id="fx19" x="-10%" y="-10%" width="120%" height="120%" filterUnits="userSpaceOnUse" primitiveUnits="userSpaceOnUse"><feComponentTransfer color-interpolation-filters="sRGB"><feFuncR type="discrete" tableValues="1 1"/><feFuncG type="discrete" tableValues="1 1"/><feFuncB type="discrete" tableValues="1 1"/><feFuncA type="linear" slope="0.4" intercept="0"/></feComponentTransfer><feGaussianBlur stdDeviation="0 0"/></filter><filter id="fx20" x="-10%" y="-10%" width="120%" height="120%" filterUnits="userSpaceOnUse" primitiveUnits="userSpaceOnUse"><feComponentTransfer color-interpolation-filters="sRGB"><feFuncR type="discrete" tableValues="1 1"/><feFuncG type="discrete" tableValues="1 1"/><feFuncB type="discrete" tableValues="1 1"/><feFuncA type="linear" slope="0.4" intercept="0"/></feComponentTransfer><feGaussianBlur stdDeviation="0 0"/></filter><filter id="fx21" x="-10%" y="-10%" width="120%" height="120%" filterUnits="userSpaceOnUse" primitiveUnits="userSpaceOnUse"><feComponentTransfer color-interpolation-filters="sRGB"><feFuncR type="discrete" tableValues="1 1"/><feFuncG type="discrete" tableValues="1 1"/><feFuncB type="discrete" tableValues="1 1"/><feFuncA type="linear" slope="0.4" intercept="0"/></feComponentTransfer><feGaussianBlur stdDeviation="0 0"/></filter><filter id="fx22" x="-10%" y="-10%" width="120%" height="120%" filterUnits="userSpaceOnUse" primitiveUnits="userSpaceOnUse"><feComponentTransfer color-interpolation-filters="sRGB"><feFuncR type="discrete" tableValues="1 1"/><feFuncG type="discrete" tableValues="1 1"/><feFuncB type="discrete" tableValues="1 1"/><feFuncA type="linear" slope="0.4" intercept="0"/></feComponentTransfer><feGaussianBlur stdDeviation="0 0"/></filter><filter id="fx23" x="-10%" y="-10%" width="120%" height="120%" filterUnits="userSpaceOnUse" primitiveUnits="userSpaceOnUse"><feComponentTransfer color-interpolation-filters="sRGB"><feFuncR type="discrete" tableValues="1 1"/><feFuncG type="discrete" tableValues="1 1"/><feFuncB type="discrete" tableValues="1 1"/><feFuncA type="linear" slope="0.4" intercept="0"/></feComponentTransfer><feGaussianBlur stdDeviation="0 0"/></filter><filter id="fx24" x="-10%" y="-10%" width="120%" height="120%" filterUnits="userSpaceOnUse" primitiveUnits="userSpaceOnUse"><feComponentTransfer color-interpolation-filters="sRGB"><feFuncR type="discrete" tableValues="1 1"/><feFuncG type="discrete" tableValues="1 1"/><feFuncB type="discrete" tableValues="1 1"/><feFuncA type="linear" slope="0.4" intercept="0"/></feComponentTransfer><feGaussianBlur stdDeviation="0 0"/></filter><filter id="fx25" x="-10%" y="-10%" width="120%" height="120%" filterUnits="userSpaceOnUse" primitiveUnits="userSpaceOnUse"><feComponentTransfer color-interpolation-filters="sRGB"><feFuncR type="discrete" tableValues="1 1"/><feFuncG type="discrete" tableValues="1 1"/><feFuncB type="discrete" tableValues="1 1"/><feFuncA type="linear" slope="0.4" intercept="0"/></feComponentTransfer><feGaussianBlur stdDeviation="0 0"/></filter><filter id="fx26" x="-10%" y="-10%" width="120%" height="120%" filterUnits="userSpaceOnUse" primitiveUnits="userSpaceOnUse"><feComponentTransfer color-interpolation-filters="sRGB"><feFuncR type="discrete" tableValues="1 1"/><feFuncG type="discrete" tableValues="1 1"/><feFuncB type="discrete" tableValues="1 1"/><feFuncA type="linear" slope="0.4" intercept="0"/></feComponentTransfer><feGaussianBlur stdDeviation="0 0"/></filter><filter id="fx27" x="-10%" y="-10%" width="120%" height="120%" filterUnits="userSpaceOnUse" primitiveUnits="userSpaceOnUse"><feComponentTransfer color-interpolation-filters="sRGB"><feFuncR type="discrete" tableValues="1 1"/><feFuncG type="discrete" tableValues="1 1"/><feFuncB type="discrete" tableValues="1 1"/><feFuncA type="linear" slope="0.4" intercept="0"/></feComponentTransfer><feGaussianBlur stdDeviation="0 0"/></filter><filter id="fx28" x="-10%" y="-10%" width="120%" height="120%" filterUnits="userSpaceOnUse" primitiveUnits="userSpaceOnUse"><feComponentTransfer color-interpolation-filters="sRGB"><feFuncR type="discrete" tableValues="1 1"/><feFuncG type="discrete" tableValues="1 1"/><feFuncB type="discrete" tableValues="1 1"/><feFuncA type="linear" slope="0.4" intercept="0"/></feComponentTransfer><feGaussianBlur stdDeviation="0 0"/></filter><filter id="fx29" x="-10%" y="-10%" width="120%" height="120%" filterUnits="userSpaceOnUse" primitiveUnits="userSpaceOnUse"><feComponentTransfer color-interpolation-filters="sRGB"><feFuncR type="discrete" tableValues="1 1"/><feFuncG type="discrete" tableValues="1 1"/><feFuncB type="discrete" tableValues="1 1"/><feFuncA type="linear" slope="0.4" intercept="0"/></feComponentTransfer><feGaussianBlur stdDeviation="0 0"/></filter><filter id="fx30" x="-10%" y="-10%" width="120%" height="120%" filterUnits="userSpaceOnUse" primitiveUnits="userSpaceOnUse"><feComponentTransfer color-interpolation-filters="sRGB"><feFuncR type="discrete" tableValues="1 1"/><feFuncG type="discrete" tableValues="1 1"/><feFuncB type="discrete" tableValues="1 1"/><feFuncA type="linear" slope="0.4" intercept="0"/></feComponentTransfer><feGaussianBlur stdDeviation="0 0"/></filter><clipPath id="clip31"><rect x="306" y="1833" width="2200" height="207"/></clipPath><clipPath id="clip32"><rect x="1" y="0" width="44" height="58"/></clipPath><clipPath id="clip33"><rect x="0" y="0" width="46" height="58"/></clipPath><clipPath id="clip34"><rect x="0" y="0" width="107" height="45"/></clipPath><clipPath id="clip35"><rect x="0" y="0" width="107" height="45"/></clipPath><clipPath id="clip36"><rect x="1" y="1" width="75" height="57"/></clipPath><clipPath id="clip37"><rect x="0" y="0" width="77" height="59"/></clipPath><clipPath id="clip38"><rect x="1" y="1" width="26" height="39"/></clipPath><clipPath id="clip39"><rect x="0" y="0" width="28" height="41"/></clipPath><clipPath id="clip40"><rect x="0" y="1" width="160" height="78"/></clipPath><clipPath id="clip41"><rect x="0" y="0" width="161" height="79"/></clipPath><clipPath id="clip42"><rect x="1" y="0" width="27" height="51"/></clipPath><clipPath id="clip43"><rect x="0" y="0" width="29" height="51"/></clipPath><clipPath id="clip44"><rect x="1" y="1" width="13" height="21"/></clipPath><clipPath id="clip45"><rect x="0" y="0" width="14" height="23"/></clipPath><clipPath id="clip46"><rect x="1" y="0" width="37" height="41"/></clipPath><clipPath id="clip47"><rect x="0" y="0" width="39" height="41"/></clipPath><clipPath id="clip48"><rect x="0" y="0" width="51" height="23"/></clipPath><clipPath id="clip49"><rect x="0" y="0" width="52" height="24"/></clipPath><clipPath id="clip50"><rect x="0" y="0" width="226" height="161"/></clipPath><clipPath id="clip51"><rect x="0" y="0" width="227" height="162"/></clipPath><clipPath id="clip52"><rect x="0" y="0" width="38" height="60"/></clipPath><clipPath id="clip53"><rect x="0" y="0" width="39" height="60"/></clipPath><clipPath id="clip54"><rect x="1" y="1" width="35" height="13"/></clipPath><clipPath id="clip55"><rect x="0" y="0" width="36" height="15"/></clipPath><clipPath id="clip56"><rect x="1" y="1" width="15" height="43"/></clipPath><clipPath id="clip57"><rect x="0" y="0" width="17" height="45"/></clipPath><clipPath id="clip58"><rect x="0" y="0" width="29" height="52"/></clipPath><clipPath id="clip59"><rect x="0" y="0" width="30" height="52"/></clipPath><clipPath id="clip60"><rect x="1" y="0" width="37" height="60"/></clipPath><clipPath id="clip61"><rect x="0" y="0" width="39" height="60"/></clipPath><clipPath id="clip62"><rect x="0" y="1" width="35" height="13"/></clipPath><clipPath id="clip63"><rect x="0" y="0" width="35" height="15"/></clipPath><clipPath id="clip64"><rect x="1" y="1" width="16" height="43"/></clipPath><clipPath id="clip65"><rect x="0" y="0" width="17" height="45"/></clipPath><clipPath id="clip66"><rect x="0" y="1" width="90" height="78"/></clipPath><clipPath id="clip67"><rect x="0" y="0" width="91" height="79"/></clipPath><clipPath id="clip68"><rect x="1" y="0" width="28" height="51"/></clipPath><clipPath id="clip69"><rect x="0" y="0" width="29" height="51"/></clipPath><clipPath id="clip70"><rect x="0" y="0" width="226" height="161"/></clipPath><clipPath id="clip71"><rect x="0" y="0" width="227" height="162"/></clipPath><clipPath id="clip72"><rect x="0" y="0" width="38" height="60"/></clipPath><clipPath id="clip73"><rect x="0" y="0" width="39" height="60"/></clipPath><clipPath id="clip74"><rect x="1" y="1" width="35" height="13"/></clipPath><clipPath id="clip75"><rect x="0" y="0" width="36" height="15"/></clipPath><clipPath id="clip76"><rect x="1" y="1" width="15" height="43"/></clipPath><clipPath id="clip77"><rect x="0" y="0" width="17" height="45"/></clipPath><clipPath id="clip78"><rect x="0" y="0" width="29" height="52"/></clipPath><clipPath id="clip79"><rect x="0" y="0" width="30" height="52"/></clipPath><clipPath id="clip80"><rect x="1" y="0" width="37" height="60"/></clipPath><clipPath id="clip81"><rect x="0" y="0" width="39" height="60"/></clipPath><clipPath id="clip82"><rect x="0" y="1" width="35" height="13"/></clipPath><clipPath id="clip83"><rect x="0" y="0" width="35" height="15"/></clipPath><clipPath id="clip84"><rect x="1" y="1" width="16" height="43"/></clipPath><clipPath id="clip85"><rect x="0" y="0" width="17" height="45"/></clipPath><clipPath id="clip86"><rect x="0" y="1" width="228" height="78"/></clipPath><clipPath id="clip87"><rect x="0" y="0" width="229" height="79"/></clipPath><clipPath id="clip88"><rect x="1" y="0" width="28" height="51"/></clipPath><clipPath id="clip89"><rect x="0" y="0" width="29" height="51"/></clipPath><clipPath id="clip90"><rect x="0" y="0" width="51" height="53"/></clipPath><clipPath id="clip91"><rect x="0" y="0" width="52" height="54"/></clipPath><clipPath id="clip92"><rect x="1" y="0" width="37" height="41"/></clipPath><clipPath id="clip93"><rect x="0" y="0" width="38" height="41"/></clipPath></defs><g clip-path="url(#clip31)" transform="translate(-306 -1833)"><g clip-path="url(#clip32)" filter="url(#fx0)" transform="translate(345 1910)"><g clip-path="url(#clip33)"><path d="M30.6746 0.537968C33.2413 0.537968 35.5919 0.693325 37.7264 1.00403 39.8608 1.31474 42.1979 1.87537 44.7376 2.68592L42.2654 13.5878 38.3748 13.5878C38.1316 10.2105 37.3886 7.78561 36.1458 6.31311 34.903 4.84062 32.8766 4.10437 30.0667 4.10437 27.7972 4.10437 25.6762 4.68527 23.7039 5.84705 21.7316 7.00883 19.8606 8.74475 18.0909 11.0548 16.3212 13.3649 14.7271 16.2761 13.3087 19.7885 11.8902 23.3008 10.7892 26.9618 10.0057 30.7714 9.22215 34.5809 8.83038 38.1609 8.83038 41.5111 8.83038 45.726 9.55312 48.7993 10.9986 50.7311 12.4441 52.6629 14.7068 53.6288 17.7869 53.6288 18.8947 53.6288 20.0294 53.5004 21.1912 53.2438 22.353 52.9871 23.4405 52.5481 24.4537 51.9266 25.4669 51.3052 26.3652 50.4677 27.1487 49.4139 27.9323 48.3602 28.4996 47.0363 28.8509 45.4423L29.2967 43.5375C29.8911 40.9978 30.1883 38.8228 30.1883 37.0126 30.1883 35.7427 29.8708 34.8579 29.2359 34.358 28.601 33.8582 27.5945 33.5677 26.2166 33.4867L26.6624 31.5009 42.8733 31.5009 42.4275 33.4867C41.4009 33.7028 40.6579 33.946 40.1985 34.2162 39.7392 34.4864 39.3272 34.8984 38.9625 35.4523 38.5977 36.0061 38.2397 36.8505 37.8885 37.9852 37.5373 39.12 37.0779 40.9843 36.5106 43.578L33.7142 56.3036 30.5125 57.1952 28.4051 53.9935C25.5952 55.3174 23.3797 56.1753 21.7586 56.567 20.1375 56.9588 18.4894 57.1547 16.8143 57.1547 11.7348 57.1547 7.87124 55.6957 5.22345 52.7777 2.57566 49.8597 1.25177 45.5909 1.25177 39.9711 1.25177 35.9454 1.92723 31.4266 3.27814 26.4147 4.62905 21.4028 6.59463 16.9245 9.17487 12.9799 11.7551 9.0352 14.8757 5.97538 18.5367 3.80042 22.1976 1.62545 26.2436 0.537968 30.6746 0.537968Z" fill-rule="evenodd"/></g></g><path d="M373.832 1908.99C376.398 1908.99 378.749 1909.15 380.883 1909.46 383.018 1909.77 385.355 1910.33 387.895 1911.14L385.422 1922.04 381.532 1922.04C381.289 1918.66 380.546 1916.24 379.303 1914.77 378.06 1913.29 376.034 1912.56 373.224 1912.56 370.954 1912.56 368.833 1913.14 366.861 1914.3 364.888 1915.46 363.017 1917.2 361.248 1919.51 359.478 1921.82 357.884 1924.73 356.466 1928.24 355.047 1931.75 353.946 1935.42 353.163 1939.22 352.379 1943.03 351.987 1946.61 351.987 1949.96 351.987 1954.18 352.71 1957.25 354.155 1959.18 355.601 1961.12 357.864 1962.08 360.944 1962.08 362.052 1962.08 363.186 1961.95 364.348 1961.7 365.51 1961.44 366.597 1961 367.611 1960.38 368.624 1959.76 369.522 1958.92 370.306 1957.87 371.089 1956.81 371.657 1955.49 372.008 1953.9L372.454 1951.99C373.048 1949.45 373.345 1947.28 373.345 1945.47 373.345 1944.2 373.028 1943.31 372.393 1942.81 371.758 1942.31 370.751 1942.02 369.374 1941.94L369.819 1939.95 386.03 1939.95 385.584 1941.94C384.558 1942.16 383.815 1942.4 383.355 1942.67 382.896 1942.94 382.484 1943.35 382.119 1943.91 381.755 1944.46 381.397 1945.3 381.045 1946.44 380.694 1947.57 380.235 1949.44 379.667 1952.03L376.871 1964.76 373.669 1965.65 371.562 1962.45C368.752 1963.77 366.537 1964.63 364.915 1965.02 363.294 1965.41 361.646 1965.61 359.971 1965.61 354.892 1965.61 351.028 1964.15 348.38 1961.23 345.733 1958.31 344.409 1954.04 344.409 1948.42 344.409 1944.4 345.084 1939.88 346.435 1934.87 347.786 1929.86 349.752 1925.38 352.332 1921.43 354.912 1917.49 358.033 1914.43 361.694 1912.25 365.355 1910.08 369.401 1908.99 373.832 1908.99Z" fill-rule="evenodd"/><text fill="#000000" fill-opacity="0" font-family="Arial,Arial_MSFontService,sans-serif" font-size="56.6572" x="344.409" y="1958.57">𝐺</text><g clip-path="url(#clip34)" filter="url(#fx1)" transform="translate(390 1955)"><g clip-path="url(#clip35)"><path d="M92.8408 4.96008C91.848 4.96008 90.8701 5.15369 89.907 5.5409 88.944 5.9281 88.0851 6.43445 87.3306 7.05994 86.576 7.68543 85.9704 8.38538 85.5137 9.15979 85.057 9.93421 84.8286 10.7086 84.8286 11.483L84.8286 20.0314C84.8286 21.8185 84.9726 23.2879 85.2605 24.4396 85.5484 25.5913 86.0002 26.4997 86.6157 27.1649 87.2313 27.8301 88.0107 28.2868 88.9539 28.535 89.8971 28.7832 91.014 28.9073 92.3047 28.9073 94.9059 28.9073 96.8569 27.8947 98.1575 25.8693 99.4581 23.8439 100.108 20.8356 100.108 16.8444 100.108 12.8532 99.5177 9.87464 98.3362 7.90882 97.1547 5.943 95.3229 4.96008 92.8408 4.96008ZM18.8409 4.96008C17.848 4.96008 16.8701 5.15369 15.907 5.5409 14.944 5.9281 14.0852 6.43445 13.3306 7.05994 12.576 7.68543 11.9704 8.38538 11.5137 9.15979 11.057 9.93421 10.8286 10.7086 10.8286 11.483L10.8286 20.0314C10.8286 21.8185 10.9726 23.2879 11.2605 24.4396 11.5485 25.5913 12.0002 26.4997 12.6158 27.1649 13.2313 27.8301 14.0107 28.2868 14.9539 28.535 15.8971 28.7832 17.014 28.9073 18.3047 28.9073 20.906 28.9073 22.8569 27.8947 24.1575 25.8693 25.4581 23.8439 26.1084 20.8356 26.1084 16.8444 26.1084 12.8532 25.5177 9.87464 24.3362 7.90882 23.1547 5.943 21.3229 4.96008 18.8409 4.96008ZM54.3687 3.79846C51.827 3.79846 49.8662 4.8608 48.4861 6.98548 47.1061 9.11015 46.416 12.1383 46.416 16.0699 46.416 18.1152 46.5948 19.9321 46.9522 21.5206 47.3096 23.1092 47.8308 24.4495 48.5159 25.5416 49.201 26.6337 50.0399 27.4677 51.0327 28.0436 52.0256 28.6194 53.1574 28.9073 54.4282 28.9073 55.8579 28.9073 57.0742 28.5797 58.0769 27.9244 59.0797 27.2692 59.8889 26.3905 60.5044 25.2885 61.12 24.1864 61.5668 22.9056 61.8448 21.4462 62.1227 19.9867 62.2617 18.4528 62.2617 16.8444 62.2617 14.5807 62.0582 12.6298 61.6511 10.9916 61.2441 9.3534 60.6881 8.00314 59.9832 6.9408 59.2783 5.87846 58.4443 5.08915 57.4812 4.57288 56.5182 4.0566 55.4807 3.79846 54.3687 3.79846ZM95.1939 0.849733C98.7879 0.849733 101.553 2.16028 103.489 4.78137 105.425 7.40247 106.393 11.205 106.393 16.1891 106.393 18.8896 106.06 21.2178 105.395 23.1737 104.73 25.1296 103.797 26.7479 102.595 28.0287 101.394 29.3094 99.9446 30.2576 98.2468 30.8732 96.5491 31.4887 94.6677 31.7965 92.6026 31.7965 89.5645 31.7965 86.9732 31.3299 84.8286 30.3966L84.8286 36.443C84.8286 37.6145 84.8535 38.5131 84.9031 39.1385 84.9527 39.764 85.1017 40.2456 85.3499 40.5831 85.5981 40.9207 85.9903 41.1788 86.5264 41.3575 87.0625 41.5363 87.8171 41.7646 88.7901 42.0426L88.7901 44.0084 75.2676 44.0084 75.2676 42.0426C76.1214 41.7845 76.7916 41.566 77.2781 41.3873 77.7646 41.2086 78.1319 40.9505 78.3801 40.6129 78.6284 40.2753 78.7872 39.7889 78.8567 39.1534 78.9262 38.518 78.961 37.6145 78.961 36.443L78.961 9.90442C78.961 8.77258 78.956 7.83932 78.9461 7.10462 78.9361 6.36992 78.817 5.76428 78.5886 5.28772 78.3603 4.81116 77.9681 4.43884 77.4121 4.17078 76.8561 3.90271 76.042 3.67932 74.9697 3.50061L74.9697 1.47522 82.6841 1.14758 84.8882 1.14758C84.8286 2.00143 84.7591 2.84037 84.6797 3.66443 84.6003 4.48849 84.5308 5.31751 84.4712 6.15149 84.5308 6.1912 84.5854 6.21106 84.635 6.21106 84.6847 6.21106 84.7294 6.23092 84.7691 6.27063 86.0399 5.03951 87.1568 4.06157 88.1199 3.33679 89.0829 2.61202 89.9616 2.06596 90.7559 1.69861 91.5502 1.33126 92.2948 1.09794 92.9898 0.998659 93.6848 0.899376 94.4195 0.849733 95.1939 0.849733ZM54.4878 0.849733C56.9699 0.849733 59.1045 1.21708 60.8916 1.95178 62.6787 2.68649 64.1481 3.71904 65.2998 5.04944 66.4515 6.37984 67.3004 7.97831 67.8465 9.84485 68.3925 11.7114 68.6656 13.7666 68.6656 16.0104 68.6656 18.5918 68.323 20.8654 67.638 22.8312 66.9529 24.797 65.97 26.4451 64.6892 27.7755 63.4085 29.1059 61.8646 30.1087 60.0576 30.7838 58.2507 31.4589 56.2352 31.7965 54.0113 31.7965 51.8072 31.7965 49.8364 31.4887 48.0989 30.8732 46.3614 30.2576 44.8871 29.3194 43.6758 28.0585 42.4646 26.7976 41.5412 25.214 40.9058 23.3077 40.2704 21.4015 39.9527 19.1577 39.9527 16.5763 39.9527 14.0148 40.32 11.7561 41.0547 9.80017 41.7894 7.84428 42.8071 6.20113 44.1077 4.87073 45.4083 3.54033 46.9422 2.53756 48.7095 1.86243 50.4768 1.1873 52.4029 0.849733 54.4878 0.849733ZM21.1939 0.849733C24.788 0.849733 27.553 2.16028 29.489 4.78137 31.4251 7.40247 32.3931 11.205 32.3931 16.1891 32.3931 18.8896 32.0605 21.2178 31.3953 23.1737 30.7301 25.1296 29.7968 26.7479 28.5955 28.0287 27.3942 29.3094 25.9446 30.2576 24.2469 30.8732 22.5491 31.4887 20.6677 31.7965 18.6026 31.7965 15.5645 31.7965 12.9732 31.3299 10.8286 30.3966L10.8286 36.443C10.8286 37.6145 10.8535 38.5131 10.9031 39.1385 10.9527 39.764 11.1017 40.2456 11.3499 40.5831 11.5981 40.9207 11.9903 41.1788 12.5264 41.3575 13.0625 41.5363 13.8171 41.7646 14.7901 42.0426L14.7901 44.0084 1.26761 44.0084 1.26761 42.0426C2.12145 41.7845 2.79162 41.566 3.27811 41.3873 3.7646 41.2086 4.13195 40.9505 4.38016 40.6129 4.62837 40.2753 4.78722 39.7889 4.85672 39.1534 4.92622 38.518 4.96097 37.6145 4.96097 36.443L4.96097 9.90442C4.96097 8.77258 4.95601 7.83932 4.94608 7.10462 4.93615 6.36992 4.81701 5.76428 4.58866 5.28772 4.3603 4.81116 3.96813 4.43884 3.41214 4.17078 2.85615 3.90271 2.04202 3.67932 0.969759 3.50061L0.969759 1.47522 8.68411 1.14758 10.8882 1.14758C10.8286 2.00143 10.7591 2.84037 10.6797 3.66443 10.6003 4.48849 10.5308 5.31751 10.4712 6.15149 10.5308 6.1912 10.5854 6.21106 10.635 6.21106 10.6847 6.21106 10.7294 6.23092 10.7691 6.27063 12.0399 5.03951 13.1569 4.06157 14.1199 3.33679 15.083 2.61202 15.9616 2.06596 16.7559 1.69861 17.5502 1.33126 18.2948 1.09794 18.9898 0.998659 19.6848 0.899376 20.4195 0.849733 21.1939 0.849733Z" fill-rule="evenodd"/></g></g><path d="M480.998 1958.41C480.005 1958.41 479.027 1958.61 478.064 1958.99 477.101 1959.38 476.242 1959.89 475.487 1960.51 474.733 1961.14 474.127 1961.84 473.671 1962.61 473.214 1963.39 472.986 1964.16 472.986 1964.94L472.986 1973.48C472.986 1975.27 473.129 1976.74 473.417 1977.89 473.705 1979.04 474.157 1979.95 474.773 1980.62 475.388 1981.28 476.168 1981.74 477.111 1981.99 478.054 1982.24 479.171 1982.36 480.462 1982.36 483.063 1982.36 485.014 1981.35 486.314 1979.32 487.615 1977.3 488.265 1974.29 488.265 1970.3 488.265 1966.31 487.675 1963.33 486.493 1961.36 485.312 1959.4 483.48 1958.41 480.998 1958.41ZM406.998 1958.41C406.005 1958.41 405.027 1958.61 404.064 1958.99 403.101 1959.38 402.242 1959.89 401.487 1960.51 400.733 1961.14 400.127 1961.84 399.671 1962.61 399.214 1963.39 398.986 1964.16 398.986 1964.94L398.986 1973.48C398.986 1975.27 399.129 1976.74 399.417 1977.89 399.705 1979.04 400.157 1979.95 400.773 1980.62 401.388 1981.28 402.168 1981.74 403.111 1981.99 404.054 1982.24 405.171 1982.36 406.462 1982.36 409.063 1982.36 411.014 1981.35 412.314 1979.32 413.615 1977.3 414.265 1974.29 414.265 1970.3 414.265 1966.31 413.675 1963.33 412.493 1961.36 411.312 1959.4 409.48 1958.41 406.998 1958.41ZM442.526 1957.25C439.984 1957.25 438.023 1958.31 436.643 1960.44 435.263 1962.56 434.573 1965.59 434.573 1969.52 434.573 1971.57 434.752 1973.39 435.109 1974.97 435.466 1976.56 435.988 1977.9 436.673 1979 437.358 1980.09 438.197 1980.92 439.19 1981.5 440.182 1982.07 441.314 1982.36 442.585 1982.36 444.015 1982.36 445.231 1982.03 446.234 1981.38 447.237 1980.72 448.046 1979.84 448.661 1978.74 449.277 1977.64 449.724 1976.36 450.002 1974.9 450.28 1973.44 450.419 1971.91 450.419 1970.3 450.419 1968.03 450.215 1966.08 449.808 1964.45 449.401 1962.81 448.845 1961.46 448.14 1960.39 447.435 1959.33 446.601 1958.54 445.638 1958.03 444.675 1957.51 443.638 1957.25 442.526 1957.25ZM483.351 1954.3C486.945 1954.3 489.71 1955.61 491.646 1958.23 493.582 1960.86 494.55 1964.66 494.55 1969.64 494.55 1972.34 494.217 1974.67 493.552 1976.63 492.887 1978.58 491.954 1980.2 490.752 1981.48 489.551 1982.76 488.102 1983.71 486.404 1984.33 484.706 1984.94 482.825 1985.25 480.759 1985.25 477.721 1985.25 475.13 1984.78 472.986 1983.85L472.986 1989.9C472.986 1991.07 473.01 1991.97 473.06 1992.59 473.11 1993.22 473.259 1993.7 473.507 1994.04 473.755 1994.37 474.147 1994.63 474.683 1994.81 475.219 1994.99 475.974 1995.22 476.947 1995.5L476.947 1997.46 463.424 1997.46 463.424 1995.5C464.278 1995.24 464.948 1995.02 465.435 1994.84 465.921 1994.66 466.289 1994.4 466.537 1994.07 466.785 1993.73 466.944 1993.24 467.014 1992.61 467.083 1991.97 467.118 1991.07 467.118 1989.9L467.118 1963.36C467.118 1962.23 467.113 1961.29 467.103 1960.56 467.093 1959.82 466.974 1959.22 466.746 1958.74 466.517 1958.26 466.125 1957.89 465.569 1957.62 465.013 1957.36 464.199 1957.13 463.127 1956.95L463.127 1954.93 470.841 1954.6 473.045 1954.6C472.986 1955.45 472.916 1956.29 472.837 1957.12 472.757 1957.94 472.688 1958.77 472.628 1959.6 472.688 1959.64 472.742 1959.66 472.792 1959.66 472.842 1959.66 472.886 1959.68 472.926 1959.72 474.197 1958.49 475.314 1957.52 476.277 1956.79 477.24 1956.07 478.118 1955.52 478.913 1955.15 479.707 1954.78 480.452 1954.55 481.147 1954.45 481.842 1954.35 482.576 1954.3 483.351 1954.3ZM442.645 1954.3C445.127 1954.3 447.261 1954.67 449.049 1955.41 450.836 1956.14 452.305 1957.17 453.457 1958.5 454.608 1959.83 455.457 1961.43 456.003 1963.3 456.549 1965.16 456.822 1967.22 456.822 1969.46 456.822 1972.05 456.48 1974.32 455.795 1976.28 455.11 1978.25 454.127 1979.9 452.846 1981.23 451.565 1982.56 450.022 1983.56 448.215 1984.24 446.408 1984.91 444.392 1985.25 442.168 1985.25 439.964 1985.25 437.993 1984.94 436.256 1984.33 434.518 1983.71 433.044 1982.77 431.833 1981.51 430.621 1980.25 429.698 1978.67 429.063 1976.76 428.427 1974.85 428.11 1972.61 428.11 1970.03 428.11 1967.47 428.477 1965.21 429.212 1963.25 429.946 1961.3 430.964 1959.65 432.265 1958.32 433.565 1956.99 435.099 1955.99 436.866 1955.32 438.634 1954.64 440.56 1954.3 442.645 1954.3ZM409.351 1954.3C412.945 1954.3 415.71 1955.61 417.646 1958.23 419.582 1960.86 420.55 1964.66 420.55 1969.64 420.55 1972.34 420.217 1974.67 419.552 1976.63 418.887 1978.58 417.954 1980.2 416.752 1981.48 415.551 1982.76 414.102 1983.71 412.404 1984.33 410.706 1984.94 408.825 1985.25 406.759 1985.25 403.721 1985.25 401.13 1984.78 398.986 1983.85L398.986 1989.9C398.986 1991.07 399.01 1991.97 399.06 1992.59 399.11 1993.22 399.259 1993.7 399.507 1994.04 399.755 1994.37 400.147 1994.63 400.683 1994.81 401.219 1994.99 401.974 1995.22 402.947 1995.5L402.947 1997.46 389.424 1997.46 389.424 1995.5C390.278 1995.24 390.949 1995.02 391.435 1994.84 391.921 1994.66 392.289 1994.4 392.537 1994.07 392.785 1993.73 392.944 1993.24 393.014 1992.61 393.083 1991.97 393.118 1991.07 393.118 1989.9L393.118 1963.36C393.118 1962.23 393.113 1961.29 393.103 1960.56 393.093 1959.82 392.974 1959.22 392.746 1958.74 392.517 1958.26 392.125 1957.89 391.569 1957.62 391.013 1957.36 390.199 1957.13 389.127 1956.95L389.127 1954.93 396.841 1954.6 399.045 1954.6C398.986 1955.45 398.916 1956.29 398.837 1957.12 398.757 1957.94 398.688 1958.77 398.628 1959.6 398.688 1959.64 398.742 1959.66 398.792 1959.66 398.842 1959.66 398.886 1959.68 398.926 1959.72 400.197 1958.49 401.314 1957.52 402.277 1956.79 403.24 1956.07 404.118 1955.52 404.913 1955.15 405.707 1954.78 406.452 1954.55 407.147 1954.45 407.842 1954.35 408.576 1954.3 409.351 1954.3Z" fill-rule="evenodd"/><text fill="#000000" fill-opacity="0" font-family="Arial,Arial_MSFontService,sans-serif" font-size="43.1587" x="389.127" y="1992.07">pop</text><g clip-path="url(#clip36)" filter="url(#fx2)" transform="translate(402 1878)"><g clip-path="url(#clip37)"><path d="M57.8437 1.35208C63.6419 2.88105 68.0947 6.18223 71.2023 11.2556 74.3099 16.329 75.8637 22.4499 75.8637 29.6182 75.8637 36.8063 74.3149 42.9272 71.2172 47.9807 68.1196 53.0343 63.6617 56.3255 57.8437 57.8545L57.1288 55.5611C61.7158 54.0321 65.1262 51.0139 67.36 46.5064 69.5939 41.9989 70.7109 36.2702 70.7109 29.3203 70.7109 22.6087 69.5989 17.034 67.3749 12.596 65.151 8.15798 61.7058 5.17451 57.0395 3.64553ZM19.339 1.35208 20.1432 3.64553C15.4967 5.17451 12.0565 8.15798 9.82265 12.596 7.58876 17.034 6.47182 22.6087 6.47182 29.3203 6.47182 36.2702 7.58876 41.9989 9.82265 46.5064 12.0565 51.0139 15.4669 54.0321 20.0538 55.5611L19.339 57.8545C13.521 56.3255 9.06313 53.0343 5.96547 47.9807 2.86781 42.9272 1.31899 36.8063 1.31899 29.6182 1.31899 22.4499 2.87278 16.329 5.98036 11.2556 9.08794 6.18223 13.5408 2.88105 19.339 1.35208Z" fill-rule="evenodd"/></g></g><path d="M458.001 1877.81C463.799 1879.33 468.252 1882.64 471.359 1887.71 474.467 1892.78 476.021 1898.9 476.021 1906.07 476.021 1913.26 474.472 1919.38 471.374 1924.43 468.276 1929.49 463.819 1932.78 458.001 1934.31L457.286 1932.01C461.873 1930.49 465.283 1927.47 467.517 1922.96 469.751 1918.45 470.868 1912.72 470.868 1905.77 470.868 1899.06 469.756 1893.49 467.532 1889.05 465.308 1884.61 461.863 1881.63 457.196 1880.1ZM419.496 1877.81 420.3 1880.1C415.654 1881.63 412.213 1884.61 409.98 1889.05 407.746 1893.49 406.629 1899.06 406.629 1905.77 406.629 1912.72 407.746 1918.45 409.98 1922.96 412.213 1927.47 415.624 1930.49 420.211 1932.01L419.496 1934.31C413.678 1932.78 409.22 1929.49 406.122 1924.43 403.025 1919.38 401.476 1913.26 401.476 1906.07 401.476 1898.9 403.03 1892.78 406.137 1887.71 409.245 1882.64 413.698 1879.33 419.496 1877.81Z" fill-rule="evenodd"/><g clip-path="url(#clip38)" filter="url(#fx3)" transform="translate(426 1885)"><g clip-path="url(#clip39)"><path d="M14.7415 1.36365C16.8066 1.36365 18.5689 1.59697 20.0283 2.0636 21.4878 2.53024 22.6743 3.16069 23.5877 3.95496 24.5011 4.74923 25.1613 5.70235 25.5684 6.81433 25.9755 7.92632 26.179 9.12765 26.179 10.4183 26.179 11.1928 26.1244 11.9126 26.0152 12.5778 25.906 13.243 25.7173 13.8982 25.4492 14.5436 25.1812 15.1889 24.8287 15.8392 24.3919 16.4945 23.955 17.1498 23.409 17.8448 22.7537 18.5795 22.2573 19.2149 21.6119 19.9496 20.8177 20.7836 20.0234 21.6176 19.1547 22.5111 18.2115 23.4642 17.2683 24.4174 16.2804 25.4102 15.2478 26.4427 14.2153 27.4753 13.2125 28.4979 12.2395 29.5106 11.2666 30.5233 10.373 31.5062 9.55887 32.4594 8.74474 33.4125 8.07954 34.2862 7.56326 35.0804L18.5838 35.0804C19.517 35.0804 20.2617 35.0457 20.8177 34.9762 21.3736 34.9067 21.8353 34.7528 22.2027 34.5145 22.57 34.2762 22.8828 33.9139 23.1409 33.4274 23.399 32.9409 23.6969 32.2707 24.0345 31.4169L26.8045 31.4169C26.7052 32.8267 26.6109 34.2465 26.5215 35.6761 26.4322 37.1058 26.3378 38.5256 26.2386 39.9354L1.01053 39.9354 1.01053 38.3866C1.48709 37.3143 2.04308 36.257 2.6785 35.2145 3.31391 34.172 4.02876 33.1146 4.82303 32.0424 5.6173 30.9701 6.52078 29.8631 7.53348 28.7213 8.54617 27.5795 9.66808 26.3931 10.8992 25.162 12.7657 23.2955 14.2848 21.7019 15.4563 20.3815 16.6279 19.061 17.5512 17.8845 18.2263 16.8519 18.9015 15.8194 19.3631 14.8663 19.6114 13.9926 19.8596 13.1189 19.9837 12.1856 19.9837 11.1928 19.9837 10.1801 19.8397 9.24679 19.5518 8.39295 19.2639 7.53911 18.8518 6.81433 18.3157 6.21863 17.7796 5.62293 17.0995 5.1563 16.2754 4.81873 15.4514 4.48116 14.5032 4.31238 13.4309 4.31238 11.5843 4.31238 10.0354 4.81377 8.78445 5.81653 7.53348 6.8193 6.5605 8.27381 5.86551 10.1801L1.96365 10.1801 1.96365 4.37195C4.50532 3.31954 6.84345 2.55506 8.97806 2.0785 11.1127 1.60193 13.0338 1.36365 14.7415 1.36365Z" fill-rule="evenodd"/></g></g><path d="M438.898 1884.82C440.963 1884.82 442.726 1885.05 444.185 1885.52 445.645 1885.98 446.831 1886.61 447.745 1887.41 448.658 1888.2 449.318 1889.16 449.725 1890.27 450.132 1891.38 450.336 1892.58 450.336 1893.87 450.336 1894.65 450.281 1895.37 450.172 1896.03 450.063 1896.7 449.874 1897.35 449.606 1898 449.338 1898.64 448.986 1899.29 448.549 1899.95 448.112 1900.6 447.566 1901.3 446.911 1902.03 446.414 1902.67 445.769 1903.4 444.975 1904.24 444.18 1905.07 443.312 1905.96 442.368 1906.92 441.425 1907.87 440.437 1908.86 439.405 1909.9 438.372 1910.93 437.369 1911.95 436.396 1912.96 435.423 1913.98 434.53 1914.96 433.716 1915.91 432.902 1916.87 432.236 1917.74 431.72 1918.53L442.741 1918.53C443.674 1918.53 444.419 1918.5 444.975 1918.43 445.531 1918.36 445.992 1918.21 446.36 1917.97 446.727 1917.73 447.04 1917.37 447.298 1916.88 447.556 1916.39 447.854 1915.72 448.191 1914.87L450.961 1914.87C450.862 1916.28 450.768 1917.7 450.678 1919.13 450.589 1920.56 450.495 1921.98 450.395 1923.39L425.167 1923.39 425.167 1921.84C425.644 1920.77 426.2 1919.71 426.835 1918.67 427.471 1917.63 428.186 1916.57 428.98 1915.5 429.774 1914.42 430.678 1913.32 431.69 1912.17 432.703 1911.03 433.825 1909.85 435.056 1908.62 436.923 1906.75 438.442 1905.16 439.613 1903.83 440.785 1902.51 441.708 1901.34 442.383 1900.31 443.058 1899.27 443.52 1898.32 443.768 1897.45 444.016 1896.57 444.141 1895.64 444.141 1894.65 444.141 1893.63 443.997 1892.7 443.709 1891.85 443.421 1890.99 443.009 1890.27 442.473 1889.67 441.936 1889.08 441.256 1888.61 440.432 1888.27 439.608 1887.93 438.66 1887.77 437.588 1887.77 435.741 1887.77 434.192 1888.27 432.941 1889.27 431.69 1890.27 430.717 1891.73 430.022 1893.63L426.121 1893.63 426.121 1887.83C428.662 1886.77 431 1886.01 433.135 1885.53 435.27 1885.06 437.191 1884.82 438.898 1884.82Z" fill-rule="evenodd"/><text fill="#000000" fill-opacity="0" font-family="Arial,Arial_MSFontService,sans-serif" font-size="38.5718" x="425.167" y="1918.57">2</text><g clip-path="url(#clip40)" filter="url(#fx4)" transform="translate(510 1903)"><g clip-path="url(#clip41)"><path d="M135.273 1.39211C143.162 3.47252 149.221 7.96429 153.45 14.8675 157.678 21.7706 159.792 30.099 159.792 39.8526 159.792 49.6332 157.685 57.9615 153.47 64.8377 149.255 71.7138 143.19 76.1921 135.273 78.2725L134.301 75.1519C140.542 73.0715 145.182 68.9647 148.222 62.8316 151.261 56.6984 152.781 48.9037 152.781 39.4473 152.781 30.3151 151.268 22.7298 148.242 16.6912 145.216 10.6526 140.528 6.59312 134.179 4.51272ZM25.0279 1.39211 26.1221 4.51272C19.7998 6.59312 15.1189 10.6526 12.0794 16.6912 9.03983 22.7298 7.52005 30.3151 7.52005 39.4473 7.52005 48.9037 9.03983 56.6984 12.0794 62.8316 15.1189 68.9647 19.7593 73.0715 26.0005 75.1519L25.0279 78.2725C17.1115 76.1921 11.0459 71.7138 6.83109 64.8377 2.61624 57.9615 0.50882 49.6332 0.50882 39.8526 0.50882 30.099 2.623 21.7706 6.85135 14.8675 11.0797 7.96429 17.1385 3.47252 25.0279 1.39211Z" fill-rule="evenodd"/></g></g><path d="M643.43 1902.85C651.319 1904.93 657.378 1909.42 661.607 1916.32 665.835 1923.22 667.949 1931.55 667.949 1941.31 667.949 1951.09 665.842 1959.42 661.627 1966.29 657.412 1973.17 651.346 1977.65 643.43 1979.73L642.457 1976.61C648.699 1974.52 653.339 1970.42 656.379 1964.29 659.418 1958.15 660.938 1950.36 660.938 1940.9 660.938 1931.77 659.425 1924.18 656.399 1918.14 653.373 1912.11 648.685 1908.05 642.336 1905.97ZM533.185 1902.85 534.279 1905.97C527.957 1908.05 523.276 1912.11 520.236 1918.14 517.197 1924.18 515.677 1931.77 515.677 1940.9 515.677 1950.36 517.197 1958.15 520.236 1964.29 523.276 1970.42 527.916 1974.52 534.157 1976.61L533.185 1979.73C525.268 1977.65 519.203 1973.17 514.988 1966.29 510.773 1959.42 508.666 1951.09 508.666 1941.31 508.666 1931.55 510.78 1923.22 515.008 1916.32 519.237 1909.42 525.295 1904.93 533.185 1902.85Z" fill-rule="evenodd"/><g clip-path="url(#clip42)" filter="url(#fx5)" transform="translate(541 1917)"><g clip-path="url(#clip43)"><path d="M12.2976 0.751835 17.8904 0.751835 15.6614 10.7621 27.9817 10.7621 27.0901 14.8554 14.7698 14.8554 11.1628 30.58C10.4604 33.633 10.0146 35.8282 9.82544 37.1656 9.63631 38.5031 9.54175 39.577 9.54175 40.3876 9.54175 43.7378 10.9332 45.413 13.7161 45.413 14.9049 45.413 16.168 44.9604 17.5054 44.0553 18.8428 43.1502 20.4301 41.6034 22.2673 39.4149L24.6179 41.8466C22.2673 44.6835 20.0046 46.7774 17.8296 48.1283 15.6546 49.4792 13.3783 50.1547 11.0007 50.1547 5.35392 50.1547 2.53052 47.3042 2.53052 41.6034 2.53052 39.7932 2.76017 37.8884 3.21948 35.889L8.00171 14.8554 1.19312 14.8554 1.80103 12.059C3.3951 12.0319 4.60417 11.9104 5.42822 11.6942 6.25228 11.4781 6.94124 11.1809 7.49512 10.8026 8.04899 10.4244 8.55558 9.884 9.01489 9.18152 9.4742 8.47905 9.92 7.58069 10.3523 6.48645 10.7846 5.39222 11.433 3.48068 12.2976 0.751835Z" fill-rule="evenodd"/></g></g><path d="M551.455 1916.21 557.047 1916.21 554.818 1926.22 567.139 1926.22 566.247 1930.31 553.927 1930.31 550.32 1946.03C549.617 1949.09 549.172 1951.28 548.982 1952.62 548.793 1953.96 548.699 1955.03 548.699 1955.84 548.699 1959.19 550.09 1960.87 552.873 1960.87 554.062 1960.87 555.325 1960.41 556.662 1959.51 558 1958.6 559.587 1957.06 561.424 1954.87L563.775 1957.3C561.424 1960.14 559.161 1962.23 556.987 1963.58 554.812 1964.93 552.535 1965.61 550.158 1965.61 544.511 1965.61 541.687 1962.76 541.687 1957.06 541.687 1955.25 541.917 1953.34 542.376 1951.34L547.159 1930.31 540.35 1930.31 540.958 1927.51C542.552 1927.49 543.761 1927.36 544.585 1927.15 545.409 1926.93 546.098 1926.63 546.652 1926.26 547.206 1925.88 547.713 1925.34 548.172 1924.64 548.631 1923.93 549.077 1923.03 549.509 1921.94 549.942 1920.85 550.59 1918.93 551.455 1916.21Z" fill-rule="evenodd"/><text fill="#000000" fill-opacity="0" font-family="Arial,Arial_MSFontService,sans-serif" font-size="49.4028" x="540.35" y="1959.43">𝑡</text><g clip-path="url(#clip44)" filter="url(#fx6)" transform="translate(572 1956)"><g clip-path="url(#clip45)"><path d="M5.55499 1.10388 12.6473 1.10388C13.0255 2.99516 13.2147 4.85942 13.2147 6.69666 13.2147 8.58793 12.8904 10.3171 12.242 11.8842 11.5936 13.4512 10.5601 15.0115 9.14166 16.5651 7.72321 18.1186 5.77114 19.8275 3.28546 21.6918L1.09699 19.2196C2.47491 17.9227 3.47459 16.7542 4.09601 15.714 4.71743 14.6738 5.16323 13.4917 5.43341 12.1678 5.70359 10.844 5.83868 9.18233 5.83868 7.18298 5.83868 5.1296 5.74412 3.10323 5.55499 1.10388Z" fill-rule="evenodd"/></g></g><path d="M575.712 1955.56 582.804 1955.56C583.182 1957.45 583.372 1959.31 583.372 1961.15 583.372 1963.04 583.047 1964.77 582.399 1966.34 581.75 1967.9 580.717 1969.46 579.299 1971.02 577.88 1972.57 575.928 1974.28 573.442 1976.15L571.254 1973.67C572.632 1972.38 573.632 1971.21 574.253 1970.17 574.874 1969.13 575.32 1967.95 575.59 1966.62 575.861 1965.3 575.996 1963.64 575.996 1961.64 575.996 1959.58 575.901 1957.56 575.712 1955.56Z" fill-rule="evenodd"/><text fill="#000000" fill-opacity="0" font-family="Arial,Arial_MSFontService,sans-serif" font-size="20.5879" x="571.254" y="1973.57">,</text><g clip-path="url(#clip46)" filter="url(#fx7)" transform="translate(603 1927)"><g clip-path="url(#clip47)"><path d="M16.2728 0.762089 37.5091 0.762089 36.2933 6.1117 23.6082 6.1117 19.0286 26.4159C18.4342 29.0637 18.137 31.063 18.137 32.4139 18.137 33.4947 18.3126 34.2782 18.6639 34.7645 19.0151 35.2509 19.569 35.494 20.3255 35.494 21.2441 35.494 22.2438 35.1158 23.3245 34.3593 24.4053 33.6027 25.6346 32.4004 27.0125 30.7523L29.3631 32.9408C27.0395 35.5345 24.9659 37.3853 23.1421 38.493 21.3184 39.6008 19.4474 40.1547 17.5291 40.1547 15.6108 40.1547 14.0978 39.5197 12.9901 38.2499 11.8823 36.98 11.3284 35.3319 11.3284 33.3055 11.3284 31.4953 11.7067 28.8746 12.4632 25.4432L13.0306 22.89C13.4629 20.9177 14.1046 18.3239 14.9556 15.1088 15.8067 11.8936 16.6645 9.01616 17.5291 6.47644L17.3265 6.1117 13.8411 6.1117C12.0579 6.1117 10.6867 6.25354 9.7276 6.53724 8.76845 6.82093 7.82957 7.30725 6.91095 7.99622 5.99233 8.68518 5.03318 9.6781 4.03351 10.975L1.48029 8.82703C2.93927 7.01681 4.21588 5.59835 5.31012 4.57166 6.40436 3.54497 7.45131 2.76819 8.45099 2.24134 9.45066 1.71448 10.5314 1.33623 11.6932 1.10657 12.855 0.876915 14.3815 0.762089 16.2728 0.762089Z" fill-rule="evenodd"/></g></g><path d="M617.43 1926.22 638.666 1926.22 637.45 1931.57 624.765 1931.57 620.186 1951.87C619.591 1954.52 619.294 1956.52 619.294 1957.87 619.294 1958.95 619.47 1959.73 619.821 1960.22 620.172 1960.7 620.726 1960.95 621.482 1960.95 622.401 1960.95 623.401 1960.57 624.481 1959.81 625.562 1959.06 626.792 1957.85 628.169 1956.21L630.52 1958.39C628.196 1960.99 626.123 1962.84 624.299 1963.95 622.475 1965.05 620.604 1965.61 618.686 1965.61 616.768 1965.61 615.255 1964.97 614.147 1963.7 613.039 1962.43 612.485 1960.79 612.485 1958.76 612.485 1956.95 612.864 1954.33 613.62 1950.9L614.188 1948.34C614.62 1946.37 615.261 1943.78 616.113 1940.56 616.964 1937.35 617.821 1934.47 618.686 1931.93L618.483 1931.57 614.998 1931.57C613.215 1931.57 611.844 1931.71 610.885 1931.99 609.925 1932.27 608.987 1932.76 608.068 1933.45 607.149 1934.14 606.19 1935.13 605.19 1936.43L602.637 1934.28C604.096 1932.47 605.373 1931.05 606.467 1930.03 607.561 1929 608.608 1928.22 609.608 1927.69 610.608 1927.17 611.688 1926.79 612.85 1926.56 614.012 1926.33 615.538 1926.22 617.43 1926.22Z" fill-rule="evenodd"/><text fill="#000000" fill-opacity="0" font-family="Arial,Arial_MSFontService,sans-serif" font-size="39.3926" x="602.637" y="1960.68">𝜏</text><g clip-path="url(#clip48)" filter="url(#fx8)" transform="translate(705 1931)"><g clip-path="url(#clip49)"><path d="M0.831666 17.5121 50.7613 17.5121 50.7613 22.9022 0.831666 22.9022ZM0.831666 0.693241 50.7613 0.693241 50.7613 6.08338 0.831666 6.08338Z" fill-rule="evenodd"/></g></g><path d="M703.989 1946.97 753.918 1946.97 753.918 1952.36 703.989 1952.36ZM703.989 1930.15 753.918 1930.15 753.918 1935.54 703.989 1935.54Z" fill-rule="evenodd"/><text fill="#000000" fill-opacity="0" font-family="Arial,Arial_MSFontService,sans-serif" font-size="22.209" x="703.989" y="1949.58">=</text><g clip-path="url(#clip50)" filter="url(#fx9)" transform="translate(789 1862)"><g clip-path="url(#clip51)"><path d="M207.626 0.61702 225.864 79.3211 225.864 82.3201 207.626 160.984 203.249 160.052 218.407 80.8206 203.249 1.58968ZM18.8879 0.61702 23.2649 1.58968 8.10767 80.8206 23.2649 160.052 18.8879 160.984 0.650635 82.3201 0.650635 79.3211Z" fill-rule="evenodd"/></g></g><path d="M994.783 1861.07 1013.02 1939.77 1013.02 1942.77 994.783 2021.44 990.406 2020.51 1005.56 1941.27 990.406 1862.04ZM806.045 1861.07 810.422 1862.04 795.265 1941.27 810.422 2020.51 806.045 2021.44 787.807 1942.77 787.807 1939.77Z" fill-rule="evenodd"/><g clip-path="url(#clip52)" filter="url(#fx10)" transform="translate(817 1908)"><g clip-path="url(#clip53)"><path d="M25.4864 23.8554C24.1896 23.8554 22.913 24.2674 21.6566 25.0914 20.4003 25.9155 19.0021 27.2799 17.462 29.1847 15.922 31.0895 14.6656 33.0415 13.693 35.0409 12.7203 37.0402 11.8963 39.5935 11.2208 42.7006L10.8561 44.4027C10.4508 46.294 10.2482 48.1312 10.2482 49.9144 10.2482 52.0489 10.7142 53.5889 11.6464 54.5345 12.5785 55.4802 14.1253 55.953 16.2867 55.953 17.3945 55.953 18.4482 55.7706 19.4479 55.4059 20.4475 55.0411 21.4675 54.44 22.5077 53.6024 23.5479 52.7649 24.5341 51.6639 25.4662 50.2994 26.3983 48.935 27.2561 47.2531 28.0397 45.2538 28.8232 43.2544 29.4311 41.1132 29.8634 38.8302 30.2957 36.5472 30.5118 34.3654 30.5118 32.285 30.5118 29.4751 30.1133 27.3677 29.3163 25.9628 28.5192 24.5578 27.2426 23.8554 25.4864 23.8554ZM18.3942 0.552128 20.7447 0.552128 13.6119 28.9213 14.1388 29.0834C16.7596 25.571 19.2182 23.0313 21.5148 21.4642 23.8113 19.8972 26.1079 19.1137 28.4044 19.1137 31.3494 19.1137 33.6392 20.2349 35.2738 22.4774 36.9084 24.7199 37.7257 27.8811 37.7257 31.9608 37.7257 36.4188 36.8273 40.8025 35.0306 45.1119 33.2339 49.4213 30.7415 52.8392 27.5533 55.3654 24.3652 57.8916 20.7988 59.1547 16.8541 59.1547 13.2607 59.1547 10.0725 58.2766 7.28967 56.5204L3.56116 59.1547 0.967407 58.5062 11.464 12.1835C12.0854 9.42762 12.3961 7.42826 12.3961 6.18543 12.3961 5.05066 12.0516 4.25363 11.3627 3.79432 10.6737 3.335 9.43762 3.07833 7.65442 3.0243L8.14075 0.916874Z" fill-rule="evenodd"/></g></g><path d="M840.643 1930.31C839.346 1930.31 838.07 1930.72 836.814 1931.54 835.557 1932.37 834.159 1933.73 832.619 1935.64 831.079 1937.54 829.823 1939.49 828.85 1941.49 827.877 1943.49 827.053 1946.05 826.378 1949.15L826.013 1950.86C825.608 1952.75 825.405 1954.58 825.405 1956.37 825.405 1958.5 825.871 1960.04 826.803 1960.99 827.735 1961.93 829.282 1962.41 831.444 1962.41 832.551 1962.41 833.605 1962.22 834.605 1961.86 835.604 1961.49 836.624 1960.89 837.665 1960.06 838.705 1959.22 839.691 1958.12 840.623 1956.75 841.555 1955.39 842.413 1953.71 843.197 1951.71 843.98 1949.71 844.588 1947.57 845.02 1945.28 845.453 1943 845.669 1940.82 845.669 1938.74 845.669 1935.93 845.27 1933.82 844.473 1932.42 843.676 1931.01 842.4 1930.31 840.643 1930.31ZM833.551 1907.01 835.902 1907.01 828.769 1935.37 829.296 1935.54C831.917 1932.02 834.375 1929.48 836.672 1927.92 838.968 1926.35 841.265 1925.57 843.561 1925.57 846.506 1925.57 848.796 1926.69 850.431 1928.93 852.065 1931.17 852.883 1934.33 852.883 1938.41 852.883 1942.87 851.984 1947.26 850.188 1951.57 848.391 1955.87 845.898 1959.29 842.71 1961.82 839.522 1964.35 835.956 1965.61 832.011 1965.61 828.418 1965.61 825.229 1964.73 822.447 1962.97L818.718 1965.61 816.124 1964.96 826.621 1918.64C827.242 1915.88 827.553 1913.88 827.553 1912.64 827.553 1911.5 827.209 1910.71 826.52 1910.25 825.831 1909.79 824.595 1909.53 822.811 1909.48L823.298 1907.37Z" fill-rule="evenodd"/><text fill="#000000" fill-opacity="0" font-family="Arial,Arial_MSFontService,sans-serif" font-size="58.6025" x="816.124" y="1958.28">𝑏</text><g clip-path="url(#clip54)" filter="url(#fx11)" transform="translate(821 1891)"><g clip-path="url(#clip55)"><path d="M15.5519 1.29102 20.9825 1.29102 35.1671 11.5444 33.5865 13.8545 18.713 6.51905 18.2672 6.51905 3.06946 13.8545 1.48889 11.5444Z" fill-rule="evenodd"/></g></g><path d="M834.709 1890.74 840.139 1890.74 854.324 1901 852.743 1903.31 837.87 1895.97 837.424 1895.97 822.226 1903.31 820.646 1901Z" fill-rule="evenodd"/><text fill="#000000" fill-opacity="0" font-family="Arial,Arial_MSFontService,sans-serif" font-size="12.5635" x="820.646" y="1901.74">෠</text><g clip-path="url(#clip56)" filter="url(#fx12)" transform="translate(860 1940)"><g clip-path="url(#clip57)"><path d="M10.6108 13.2372 12.0703 13.2372 7.66205 33.0741C7.38405 34.2456 7.19045 35.1789 7.08124 35.8739 6.97202 36.5689 6.91742 37.1944 6.91742 37.7504 6.91742 38.5049 7.07131 39.051 7.37909 39.3885 7.68687 39.7261 8.14854 39.8949 8.7641 39.8949 9.12152 39.8949 9.47894 39.8254 9.83636 39.6864 10.1938 39.5474 10.576 39.329 10.9831 39.0311 11.3902 38.7333 11.8369 38.351 12.3234 37.8844 12.8099 37.4178 13.351 36.8568 13.9467 36.2015L15.9721 38.1674C14.9396 39.2198 14.0013 40.1084 13.1574 40.8331 12.3135 41.5579 11.5143 42.1486 10.7597 42.6053 10.0051 43.0621 9.26548 43.3897 8.54071 43.5883 7.81594 43.7868 7.04649 43.8861 6.23236 43.8861 5.4778 43.8861 4.79771 43.7471 4.19208 43.4691 3.58645 43.1911 3.06521 42.8089 2.62836 42.3224 2.19151 41.8359 1.85394 41.2551 1.61566 40.58 1.37738 39.9048 1.25824 39.1602 1.25824 38.3461 1.25824 37.6908 1.33767 36.8767 1.49652 35.9037 1.65538 34.9307 1.85891 33.8733 2.10712 32.7316 2.35533 31.5898 2.62836 30.3934 2.92621 29.1425 3.22406 27.8915 3.51695 26.6504 3.80487 25.4193 4.09279 24.1882 4.35093 23.0018 4.57928 21.86 4.80764 20.7182 4.97145 19.6807 5.07074 18.7474 5.11045 18.5886 5.13031 18.4347 5.13031 18.2858 5.13031 18.1368 5.13031 18.0028 5.13031 17.8837 5.0906 17.1093 4.81756 16.5433 4.31122 16.1859 3.80487 15.8285 2.90635 15.6299 1.61566 15.5902L1.97308 13.5648ZM8.88324 1.23377 14.8403 1.23377 13.3808 7.63758 7.48334 7.63758Z" fill-rule="evenodd"/></g></g><path d="M868.768 1951.69 870.227 1951.69 865.819 1971.53C865.541 1972.7 865.347 1973.63 865.238 1974.33 865.129 1975.02 865.074 1975.65 865.074 1976.2 865.074 1976.96 865.228 1977.5 865.536 1977.84 865.844 1978.18 866.305 1978.35 866.921 1978.35 867.278 1978.35 867.636 1978.28 867.993 1978.14 868.351 1978 868.733 1977.78 869.14 1977.48 869.547 1977.19 869.994 1976.8 870.48 1976.34 870.967 1975.87 871.508 1975.31 872.104 1974.66L874.129 1976.62C873.096 1977.67 872.158 1978.56 871.314 1979.29 870.47 1980.01 869.671 1980.6 868.917 1981.06 868.162 1981.52 867.422 1981.84 866.698 1982.04 865.973 1982.24 865.203 1982.34 864.389 1982.34 863.635 1982.34 862.955 1982.2 862.349 1981.92 861.743 1981.64 861.222 1981.26 860.785 1980.78 860.348 1980.29 860.011 1979.71 859.773 1979.03 859.534 1978.36 859.415 1977.61 859.415 1976.8 859.415 1976.14 859.495 1975.33 859.653 1974.36 859.812 1973.38 860.016 1972.33 860.264 1971.19 860.512 1970.04 860.785 1968.85 861.083 1967.6 861.381 1966.34 861.674 1965.1 861.962 1963.87 862.25 1962.64 862.508 1961.46 862.736 1960.31 862.965 1959.17 863.128 1958.13 863.228 1957.2 863.267 1957.04 863.287 1956.89 863.287 1956.74 863.287 1956.59 863.287 1956.46 863.287 1956.34 863.247 1955.56 862.974 1955 862.468 1954.64 861.962 1954.28 861.063 1954.08 859.773 1954.04L860.13 1952.02ZM867.04 1939.69 872.997 1939.69 871.538 1946.09 865.64 1946.09Z" fill-rule="evenodd"/><text fill="#000000" fill-opacity="0" font-family="Arial,Arial_MSFontService,sans-serif" font-size="42.6523" x="859.415" y="1977.01">𝑖</text><g clip-path="url(#clip58)" filter="url(#fx13)" transform="translate(886 1869)"><g clip-path="url(#clip59)"><path d="M11.2858 0.701542 18.2555 0.701542 18.2555 2.57801 16.7067 15.6239 26.7443 14.0453 28.5314 14.0453 28.5314 20.1512 26.7443 20.1512 17.1534 18.5131 17.1534 51.1576 12.3878 51.1576 12.3878 18.5131 2.85657 20.1512 0.980103 20.1512 0.980103 14.0453 2.85657 14.0453 12.8644 15.6239 11.2858 2.57801Z" fill-rule="evenodd"/></g></g><path d="M895.443 1868.16 902.412 1868.16 902.412 1870.03 900.864 1883.08 910.901 1881.5 912.688 1881.5 912.688 1887.6 910.901 1887.6 901.31 1885.97 901.31 1918.61 896.545 1918.61 896.545 1885.97 887.013 1887.6 885.137 1887.6 885.137 1881.5 887.013 1881.5 897.021 1883.08 895.443 1870.03Z" fill-rule="evenodd"/><text fill="#000000" fill-opacity="0" font-family="Arial,Arial_MSFontService,sans-serif" font-size="50.4561" x="885.137" y="1912.3">†</text><g clip-path="url(#clip60)" filter="url(#fx14)" transform="translate(924 1908)"><g clip-path="url(#clip61)"><path d="M25.5989 23.8554C24.3021 23.8554 23.0254 24.2674 21.7691 25.0914 20.5128 25.9155 19.1146 27.2799 17.5745 29.1847 16.0345 31.0895 14.7781 33.0415 13.8055 35.0409 12.8328 37.0402 12.0088 39.5935 11.3333 42.7006L10.9686 44.4027C10.5633 46.294 10.3607 48.1312 10.3607 49.9144 10.3607 52.0489 10.8267 53.5889 11.7588 54.5345 12.691 55.4802 14.2378 55.953 16.3992 55.953 17.507 55.953 18.5607 55.7706 19.5604 55.4059 20.56 55.0411 21.58 54.44 22.6202 53.6024 23.6604 52.7649 24.6465 51.6639 25.5787 50.2994 26.5108 48.935 27.3686 47.2531 28.1522 45.2538 28.9357 43.2544 29.5436 41.1132 29.9759 38.8302 30.4082 36.5472 30.6243 34.3654 30.6243 32.285 30.6243 29.4751 30.2258 27.3677 29.4288 25.9628 28.6317 24.5578 27.3551 23.8554 25.5989 23.8554ZM18.5067 0.552128 20.8572 0.552128 13.7244 28.9213 14.2513 29.0834C16.872 25.571 19.3307 23.0313 21.6273 21.4642 23.9238 19.8972 26.2204 19.1137 28.5169 19.1137 31.4619 19.1137 33.7517 20.2349 35.3863 22.4774 37.0209 24.7199 37.8382 27.8811 37.8382 31.9608 37.8382 36.4188 36.9398 40.8025 35.1431 45.1119 33.3464 49.4213 30.854 52.8392 27.6658 55.3654 24.4777 57.8916 20.9113 59.1547 16.9666 59.1547 13.3732 59.1547 10.185 58.2766 7.40216 56.5204L3.67365 59.1547 1.0799 58.5062 11.5765 12.1835C12.1979 9.42762 12.5086 7.42826 12.5086 6.18543 12.5086 5.05066 12.1641 4.25363 11.4752 3.79432 10.7862 3.335 9.55011 3.07833 7.76691 3.0243L8.25323 0.916874Z" fill-rule="evenodd"/></g></g><path d="M947.756 1930.31C946.459 1930.31 945.182 1930.72 943.926 1931.54 942.67 1932.37 941.271 1933.73 939.731 1935.64 938.191 1937.54 936.935 1939.49 935.962 1941.49 934.99 1943.49 934.166 1946.05 933.49 1949.15L933.125 1950.86C932.72 1952.75 932.518 1954.58 932.518 1956.37 932.518 1958.5 932.984 1960.04 933.916 1960.99 934.848 1961.93 936.395 1962.41 938.556 1962.41 939.664 1962.41 940.718 1962.22 941.717 1961.86 942.717 1961.49 943.737 1960.89 944.777 1960.06 945.817 1959.22 946.803 1958.12 947.736 1956.75 948.668 1955.39 949.526 1953.71 950.309 1951.71 951.093 1949.71 951.701 1947.57 952.133 1945.28 952.565 1943 952.781 1940.82 952.781 1938.74 952.781 1935.93 952.383 1933.82 951.586 1932.42 950.789 1931.01 949.512 1930.31 947.756 1930.31ZM940.664 1907.01 943.014 1907.01 935.881 1935.37 936.408 1935.54C939.029 1932.02 941.488 1929.48 943.784 1927.92 946.081 1926.35 948.377 1925.57 950.674 1925.57 953.619 1925.57 955.909 1926.69 957.543 1928.93 959.178 1931.17 959.995 1934.33 959.995 1938.41 959.995 1942.87 959.097 1947.26 957.3 1951.57 955.503 1955.87 953.011 1959.29 949.823 1961.82 946.635 1964.35 943.068 1965.61 939.124 1965.61 935.53 1965.61 932.342 1964.73 929.559 1962.97L925.831 1965.61 923.237 1964.96 933.733 1918.64C934.355 1915.88 934.666 1913.88 934.666 1912.64 934.666 1911.5 934.321 1910.71 933.632 1910.25 932.943 1909.79 931.707 1909.53 929.924 1909.48L930.41 1907.37Z" fill-rule="evenodd"/><text fill="#000000" fill-opacity="0" font-family="Arial,Arial_MSFontService,sans-serif" font-size="58.6025" x="923.237" y="1958.28">𝑏</text><g clip-path="url(#clip62)" filter="url(#fx15)" transform="translate(929 1891)"><g clip-path="url(#clip63)"><path d="M14.6644 1.29102 20.095 1.29102 34.2796 11.5444 32.699 13.8545 17.8255 6.51905 17.3797 6.51905 2.18195 13.8545 0.60138 11.5444Z" fill-rule="evenodd"/></g></g><path d="M941.821 1890.74 947.252 1890.74 961.437 1901 959.856 1903.31 944.982 1895.97 944.537 1895.97 929.339 1903.31 927.758 1901Z" fill-rule="evenodd"/><text fill="#000000" fill-opacity="0" font-family="Arial,Arial_MSFontService,sans-serif" font-size="12.5635" x="927.758" y="1901.74">෠</text><g clip-path="url(#clip64)" filter="url(#fx16)" transform="translate(967 1940)"><g clip-path="url(#clip65)"><path d="M10.7233 13.2372 12.1827 13.2372 7.77454 33.0741C7.49654 34.2456 7.30294 35.1789 7.19372 35.8739 7.08451 36.5689 7.02991 37.1944 7.02991 37.7504 7.02991 38.5049 7.1838 39.051 7.49158 39.3885 7.79936 39.7261 8.26103 39.8949 8.87659 39.8949 9.23401 39.8949 9.59143 39.8254 9.94885 39.6864 10.3063 39.5474 10.6885 39.329 11.0956 39.0311 11.5026 38.7333 11.9494 38.351 12.4359 37.8844 12.9224 37.4178 13.4635 36.8568 14.0592 36.2015L16.0846 38.1674C15.052 39.2198 14.1138 40.1084 13.2699 40.8331 12.426 41.5579 11.6267 42.1486 10.8722 42.6053 10.1176 43.0621 9.37797 43.3897 8.6532 43.5883 7.92842 43.7868 7.15898 43.8861 6.34485 43.8861 5.59029 43.8861 4.9102 43.7471 4.30456 43.4691 3.69893 43.1911 3.17769 42.8089 2.74084 42.3224 2.304 41.8359 1.96643 41.2551 1.72815 40.58 1.48987 39.9048 1.37073 39.1602 1.37073 38.3461 1.37073 37.6908 1.45015 36.8767 1.60901 35.9037 1.76786 34.9307 1.97139 33.8733 2.2196 32.7316 2.46781 31.5898 2.74084 30.3934 3.0387 29.1425 3.33655 27.8915 3.62943 26.6504 3.91736 25.4193 4.20528 24.1882 4.46342 23.0018 4.69177 21.86 4.92012 20.7182 5.08394 19.6807 5.18323 18.7474 5.22294 18.5886 5.2428 18.4347 5.2428 18.2858 5.2428 18.1368 5.2428 18.0028 5.2428 17.8837 5.20308 17.1093 4.93005 16.5433 4.42371 16.1859 3.91736 15.8285 3.01884 15.6299 1.72815 15.5902L2.08557 13.5648ZM8.99573 1.23377 14.9528 1.23377 13.4933 7.63758 7.59582 7.63758Z" fill-rule="evenodd"/></g></g><path d="M975.88 1951.69 977.34 1951.69 972.931 1971.53C972.653 1972.7 972.46 1973.63 972.351 1974.33 972.241 1975.02 972.187 1975.65 972.187 1976.2 972.187 1976.96 972.341 1977.5 972.648 1977.84 972.956 1978.18 973.418 1978.35 974.034 1978.35 974.391 1978.35 974.748 1978.28 975.106 1978.14 975.463 1978 975.845 1977.78 976.253 1977.48 976.66 1977.19 977.106 1976.8 977.593 1976.34 978.079 1975.87 978.62 1975.31 979.216 1974.66L981.242 1976.62C980.209 1977.67 979.271 1978.56 978.427 1979.29 977.583 1980.01 976.784 1980.6 976.029 1981.06 975.275 1981.52 974.535 1981.84 973.81 1982.04 973.085 1982.24 972.316 1982.34 971.502 1982.34 970.747 1982.34 970.067 1982.2 969.461 1981.92 968.856 1981.64 968.335 1981.26 967.898 1980.78 967.461 1980.29 967.123 1979.71 966.885 1979.03 966.647 1978.36 966.528 1977.61 966.528 1976.8 966.528 1976.14 966.607 1975.33 966.766 1974.36 966.925 1973.38 967.128 1972.33 967.377 1971.19 967.625 1970.04 967.898 1968.85 968.196 1967.6 968.493 1966.34 968.786 1965.1 969.074 1963.87 969.362 1962.64 969.62 1961.46 969.849 1960.31 970.077 1959.17 970.241 1958.13 970.34 1957.2 970.38 1957.04 970.4 1956.89 970.4 1956.74 970.4 1956.59 970.4 1956.46 970.4 1956.34 970.36 1955.56 970.087 1955 969.581 1954.64 969.074 1954.28 968.176 1954.08 966.885 1954.04L967.242 1952.02ZM974.153 1939.69 980.11 1939.69 978.65 1946.09 972.753 1946.09Z" fill-rule="evenodd"/><text fill="#000000" fill-opacity="0" font-family="Arial,Arial_MSFontService,sans-serif" font-size="42.6523" x="966.528" y="1977.01">𝑖</text><g clip-path="url(#clip66)" filter="url(#fx17)" transform="translate(1040 1903)"><g clip-path="url(#clip67)"><path d="M65.0502 1.39211C72.9396 3.47252 78.9984 7.96429 83.2267 14.8675 87.4551 21.7706 89.5693 30.099 89.5693 39.8526 89.5693 49.6332 87.4619 57.9615 83.247 64.8377 79.0322 71.7138 72.9666 76.1921 65.0502 78.2725L64.0776 75.1519C70.3188 73.0715 74.9592 68.9647 77.9987 62.8316 81.0383 56.6984 82.558 48.9037 82.558 39.4473 82.558 30.3151 81.045 22.7298 78.019 16.6912 74.9929 10.6526 70.3053 6.59312 63.956 4.51272ZM25.3195 1.39211 26.4138 4.51272C20.0915 6.59312 15.4106 10.6526 12.371 16.6912 9.33148 22.7298 7.81171 30.3151 7.81171 39.4473 7.81171 48.9037 9.33148 56.6984 12.371 62.8316 15.4106 68.9647 20.051 73.0715 26.2922 75.1519L25.3195 78.2725C17.4031 76.1921 11.3376 71.7138 7.12274 64.8377 2.9079 57.9615 0.800476 49.6332 0.800476 39.8526 0.800476 30.099 2.91461 21.7706 7.14301 14.8675 11.3713 7.96429 17.4302 3.47252 25.3195 1.39211Z" fill-rule="evenodd"/></g></g><path d="M1103.21 1902.85C1111.1 1904.93 1117.16 1909.42 1121.38 1916.32 1125.61 1923.22 1127.73 1931.55 1127.73 1941.31 1127.73 1951.09 1125.62 1959.42 1121.4 1966.29 1117.19 1973.17 1111.12 1977.65 1103.21 1979.73L1102.23 1976.61C1108.48 1974.52 1113.12 1970.42 1116.16 1964.29 1119.2 1958.15 1120.71 1950.36 1120.71 1940.9 1120.71 1931.77 1119.2 1924.18 1116.18 1918.14 1113.15 1912.11 1108.46 1908.05 1102.11 1905.97ZM1063.48 1902.85 1064.57 1905.97C1058.25 1908.05 1053.57 1912.11 1050.53 1918.14 1047.49 1924.18 1045.97 1931.77 1045.97 1940.9 1045.97 1950.36 1047.49 1958.15 1050.53 1964.29 1053.57 1970.42 1058.21 1974.52 1064.45 1976.61L1063.48 1979.73C1055.56 1977.65 1049.49 1973.17 1045.28 1966.29 1041.06 1959.42 1038.96 1951.09 1038.96 1941.31 1038.96 1931.55 1041.07 1923.22 1045.3 1916.32 1049.53 1909.42 1055.59 1904.93 1063.48 1902.85Z" fill-rule="evenodd"/><g clip-path="url(#clip68)" filter="url(#fx18)" transform="translate(1071 1917)"><g clip-path="url(#clip69)"><path d="M12.5892 0.751835 18.182 0.751835 15.953 10.7621 28.2733 10.7621 27.3817 14.8554 15.0614 14.8554 11.4545 30.58C10.752 33.633 10.3062 35.8282 10.1171 37.1656 9.92794 38.5031 9.83337 39.577 9.83337 40.3876 9.83337 43.7378 11.2248 45.413 14.0077 45.413 15.1965 45.413 16.4596 44.9604 17.797 44.0553 19.1344 43.1502 20.7217 41.6034 22.559 39.4149L24.9095 41.8466C22.559 44.6835 20.2962 46.7774 18.1212 48.1283 15.9462 49.4792 13.67 50.1547 11.2924 50.1547 5.64555 50.1547 2.82214 47.3042 2.82214 41.6034 2.82214 39.7932 3.0518 37.8884 3.51111 35.889L8.29333 14.8554 1.48474 14.8554 2.09265 12.059C3.68673 12.0319 4.89579 11.9104 5.71985 11.6942 6.5439 11.4781 7.23287 11.1809 7.78674 10.8026 8.34062 10.4244 8.84721 9.884 9.30652 9.18152 9.76583 8.47905 10.2116 7.58069 10.6439 6.48645 11.0762 5.39222 11.7246 3.48068 12.5892 0.751835Z" fill-rule="evenodd"/></g></g><path d="M1081.75 1916.21 1087.34 1916.21 1085.11 1926.22 1097.43 1926.22 1096.54 1930.31 1084.22 1930.31 1080.61 1946.03C1079.91 1949.09 1079.46 1951.28 1079.27 1952.62 1079.08 1953.96 1078.99 1955.03 1078.99 1955.84 1078.99 1959.19 1080.38 1960.87 1083.16 1960.87 1084.35 1960.87 1085.62 1960.41 1086.95 1959.51 1088.29 1958.6 1089.88 1957.06 1091.72 1954.87L1094.07 1957.3C1091.72 1960.14 1089.45 1962.23 1087.28 1963.58 1085.1 1964.93 1082.83 1965.61 1080.45 1965.61 1074.8 1965.61 1071.98 1962.76 1071.98 1957.06 1071.98 1955.25 1072.21 1953.34 1072.67 1951.34L1077.45 1930.31 1070.64 1930.31 1071.25 1927.51C1072.84 1927.49 1074.05 1927.36 1074.88 1927.15 1075.7 1926.93 1076.39 1926.63 1076.94 1926.26 1077.5 1925.88 1078 1925.34 1078.46 1924.64 1078.92 1923.93 1079.37 1923.03 1079.8 1921.94 1080.23 1920.85 1080.88 1918.93 1081.75 1916.21Z" fill-rule="evenodd"/><text fill="#000000" fill-opacity="0" font-family="Arial,Arial_MSFontService,sans-serif" font-size="49.4028" x="1070.64" y="1959.43">𝑡</text><g clip-path="url(#clip70)" filter="url(#fx19)" transform="translate(1160 1862)"><g clip-path="url(#clip71)"><path d="M207.601 0.61702 225.839 79.3211 225.839 82.3201 207.601 160.984 203.224 160.052 218.382 80.8206 203.224 1.58968ZM18.8629 0.61702 23.2399 1.58968 8.08264 80.8206 23.2399 160.052 18.8629 160.984 0.62561 82.3201 0.62561 79.3211Z" fill-rule="evenodd"/></g></g><path d="M1365.76 1861.07 1384 1939.77 1384 1942.77 1365.76 2021.44 1361.38 2020.51 1376.54 1941.27 1361.38 1862.04ZM1177.02 1861.07 1181.4 1862.04 1166.24 1941.27 1181.4 2020.51 1177.02 2021.44 1158.78 1942.77 1158.78 1939.77Z" fill-rule="evenodd"/><g clip-path="url(#clip72)" filter="url(#fx20)" transform="translate(1188 1908)"><g clip-path="url(#clip73)"><path d="M25.4614 23.8554C24.1645 23.8554 22.8879 24.2674 21.6316 25.0914 20.3752 25.9155 18.977 27.2799 17.437 29.1847 15.897 31.0895 14.6406 33.0415 13.668 35.0409 12.6953 37.0402 11.8713 39.5935 11.1958 42.7006L10.8311 44.4027C10.4258 46.294 10.2231 48.1312 10.2231 49.9144 10.2231 52.0489 10.6892 53.5889 11.6213 54.5345 12.5535 55.4802 14.1003 55.953 16.2617 55.953 17.3695 55.953 18.4232 55.7706 19.4228 55.4059 20.4225 55.0411 21.4425 54.44 22.4827 53.6024 23.5229 52.7649 24.509 51.6639 25.4412 50.2994 26.3733 48.935 27.2311 47.2531 28.0146 45.2538 28.7982 43.2544 29.4061 41.1132 29.8384 38.8302 30.2707 36.5472 30.4868 34.3654 30.4868 32.285 30.4868 29.4751 30.0883 27.3677 29.2913 25.9628 28.4942 24.5578 27.2176 23.8554 25.4614 23.8554ZM18.3691 0.552128 20.7197 0.552128 13.5869 28.9213 14.1138 29.0834C16.7345 25.571 19.1932 23.0313 21.4897 21.4642 23.7863 19.8972 26.0828 19.1137 28.3794 19.1137 31.3244 19.1137 33.6142 20.2349 35.2488 22.4774 36.8834 24.7199 37.7007 27.8811 37.7007 31.9608 37.7007 36.4188 36.8023 40.8025 35.0056 45.1119 33.2089 49.4213 30.7165 52.8392 27.5283 55.3654 24.3402 57.8916 20.7738 59.1547 16.8291 59.1547 13.2357 59.1547 10.0475 58.2766 7.26465 56.5204L3.53613 59.1547 0.942383 58.5062 11.439 12.1835C12.0604 9.42762 12.3711 7.42826 12.3711 6.18543 12.3711 5.05066 12.0266 4.25363 11.3376 3.79432 10.6487 3.335 9.4126 3.07833 7.62939 3.0243L8.11572 0.916874Z" fill-rule="evenodd"/></g></g><path d="M1211.62 1930.31C1210.32 1930.31 1209.04 1930.72 1207.79 1931.54 1206.53 1932.37 1205.13 1933.73 1203.59 1935.64 1202.05 1937.54 1200.8 1939.49 1199.82 1941.49 1198.85 1943.49 1198.03 1946.05 1197.35 1949.15L1196.99 1950.86C1196.58 1952.75 1196.38 1954.58 1196.38 1956.37 1196.38 1958.5 1196.85 1960.04 1197.78 1960.99 1198.71 1961.93 1200.26 1962.41 1202.42 1962.41 1203.53 1962.41 1204.58 1962.22 1205.58 1961.86 1206.58 1961.49 1207.6 1960.89 1208.64 1960.06 1209.68 1959.22 1210.67 1958.12 1211.6 1956.75 1212.53 1955.39 1213.39 1953.71 1214.17 1951.71 1214.96 1949.71 1215.56 1947.57 1216 1945.28 1216.43 1943 1216.64 1940.82 1216.64 1938.74 1216.64 1935.93 1216.25 1933.82 1215.45 1932.42 1214.65 1931.01 1213.37 1930.31 1211.62 1930.31ZM1204.53 1907.01 1206.88 1907.01 1199.74 1935.37 1200.27 1935.54C1202.89 1932.02 1205.35 1929.48 1207.65 1927.92 1209.94 1926.35 1212.24 1925.57 1214.54 1925.57 1217.48 1925.57 1219.77 1926.69 1221.41 1928.93 1223.04 1931.17 1223.86 1934.33 1223.86 1938.41 1223.86 1942.87 1222.96 1947.26 1221.16 1951.57 1219.37 1955.87 1216.87 1959.29 1213.69 1961.82 1210.5 1964.35 1206.93 1965.61 1202.99 1965.61 1199.39 1965.61 1196.2 1964.73 1193.42 1962.97L1189.69 1965.61 1187.1 1964.96 1197.6 1918.64C1198.22 1915.88 1198.53 1913.88 1198.53 1912.64 1198.53 1911.5 1198.18 1910.71 1197.49 1910.25 1196.81 1909.79 1195.57 1909.53 1193.79 1909.48L1194.27 1907.37Z" fill-rule="evenodd"/><text fill="#000000" fill-opacity="0" font-family="Arial,Arial_MSFontService,sans-serif" font-size="58.6025" x="1187.1" y="1958.28">𝑏</text><g clip-path="url(#clip74)" filter="url(#fx21)" transform="translate(1192 1891)"><g clip-path="url(#clip75)"><path d="M15.5269 1.29102 20.9575 1.29102 35.1421 11.5444 33.5615 13.8545 18.688 6.51905 18.2422 6.51905 3.04443 13.8545 1.46387 11.5444Z" fill-rule="evenodd"/></g></g><path d="M1205.68 1890.74 1211.11 1890.74 1225.3 1901 1223.72 1903.31 1208.84 1895.97 1208.4 1895.97 1193.2 1903.31 1191.62 1901Z" fill-rule="evenodd"/><text fill="#000000" fill-opacity="0" font-family="Arial,Arial_MSFontService,sans-serif" font-size="12.5635" x="1191.62" y="1901.74">෠</text><g clip-path="url(#clip76)" filter="url(#fx22)" transform="translate(1231 1940)"><g clip-path="url(#clip77)"><path d="M10.5858 13.2372 12.0453 13.2372 7.63708 33.0741C7.35909 34.2456 7.16549 35.1789 7.05627 35.8739 6.94706 36.5689 6.89246 37.1944 6.89246 37.7504 6.89246 38.5049 7.04634 39.051 7.35413 39.3885 7.66191 39.7261 8.12358 39.8949 8.73913 39.8949 9.09656 39.8949 9.45398 39.8254 9.8114 39.6864 10.1688 39.5474 10.5511 39.329 10.9581 39.0311 11.3652 38.7333 11.812 38.351 12.2985 37.8844 12.785 37.4178 13.326 36.8568 13.9218 36.2015L15.9471 38.1674C14.9146 39.2198 13.9764 40.1084 13.1324 40.8331 12.2885 41.5579 11.4893 42.1486 10.7347 42.6053 9.98018 43.0621 9.24052 43.3897 8.51575 43.5883 7.79097 43.7868 7.02152 43.8861 6.2074 43.8861 5.45284 43.8861 4.77275 43.7471 4.16711 43.4691 3.56148 43.1911 3.04024 42.8089 2.60339 42.3224 2.16654 41.8359 1.82898 41.2551 1.5907 40.58 1.35242 39.9048 1.23328 39.1602 1.23328 38.3461 1.23328 37.6908 1.3127 36.8767 1.47156 35.9037 1.63041 34.9307 1.83394 33.8733 2.08215 32.7316 2.33036 31.5898 2.60339 30.3934 2.90124 29.1425 3.1991 27.8915 3.49198 26.6504 3.77991 25.4193 4.06783 24.1882 4.32597 23.0018 4.55432 21.86 4.78267 20.7182 4.94649 19.6807 5.04578 18.7474 5.08549 18.5886 5.10535 18.4347 5.10535 18.2858 5.10535 18.1368 5.10535 18.0028 5.10535 17.8837 5.06563 17.1093 4.7926 16.5433 4.28625 16.1859 3.77991 15.8285 2.88139 15.6299 1.5907 15.5902L1.94812 13.5648ZM8.85828 1.23377 14.8153 1.23377 13.3558 7.63758 7.45837 7.63758Z" fill-rule="evenodd"/></g></g><path d="M1239.74 1951.69 1241.2 1951.69 1236.79 1971.53C1236.52 1972.7 1236.32 1973.63 1236.21 1974.33 1236.1 1975.02 1236.05 1975.65 1236.05 1976.2 1236.05 1976.96 1236.2 1977.5 1236.51 1977.84 1236.82 1978.18 1237.28 1978.35 1237.9 1978.35 1238.25 1978.35 1238.61 1978.28 1238.97 1978.14 1239.33 1978 1239.71 1977.78 1240.11 1977.48 1240.52 1977.19 1240.97 1976.8 1241.46 1976.34 1241.94 1975.87 1242.48 1975.31 1243.08 1974.66L1245.1 1976.62C1244.07 1977.67 1243.13 1978.56 1242.29 1979.29 1241.45 1980.01 1240.65 1980.6 1239.89 1981.06 1239.14 1981.52 1238.4 1981.84 1237.67 1982.04 1236.95 1982.24 1236.18 1982.34 1235.36 1982.34 1234.61 1982.34 1233.93 1982.2 1233.32 1981.92 1232.72 1981.64 1232.2 1981.26 1231.76 1980.78 1231.32 1980.29 1230.99 1979.71 1230.75 1979.03 1230.51 1978.36 1230.39 1977.61 1230.39 1976.8 1230.39 1976.14 1230.47 1975.33 1230.63 1974.36 1230.79 1973.38 1230.99 1972.33 1231.24 1971.19 1231.49 1970.04 1231.76 1968.85 1232.06 1967.6 1232.36 1966.34 1232.65 1965.1 1232.94 1963.87 1233.22 1962.64 1233.48 1961.46 1233.71 1960.31 1233.94 1959.17 1234.1 1958.13 1234.2 1957.2 1234.24 1957.04 1234.26 1956.89 1234.26 1956.74 1234.26 1956.59 1234.26 1956.46 1234.26 1956.34 1234.22 1955.56 1233.95 1955 1233.44 1954.64 1232.94 1954.28 1232.04 1954.08 1230.75 1954.04L1231.1 1952.02ZM1238.02 1939.69 1243.97 1939.69 1242.51 1946.09 1236.62 1946.09Z" fill-rule="evenodd"/><text fill="#000000" fill-opacity="0" font-family="Arial,Arial_MSFontService,sans-serif" font-size="42.6523" x="1230.39" y="1977.01">𝑖</text><g clip-path="url(#clip78)" filter="url(#fx23)" transform="translate(1257 1869)"><g clip-path="url(#clip79)"><path d="M11.2607 0.701542 18.2305 0.701542 18.2305 2.57801 16.6816 15.6239 26.7192 14.0453 28.5063 14.0453 28.5063 20.1512 26.7192 20.1512 17.1284 18.5131 17.1284 51.1576 12.3628 51.1576 12.3628 18.5131 2.83154 20.1512 0.955079 20.1512 0.955079 14.0453 2.83154 14.0453 12.8394 15.6239 11.2607 2.57801Z" fill-rule="evenodd"/></g></g><path d="M1266.42 1868.16 1273.39 1868.16 1273.39 1870.03 1271.84 1883.08 1281.88 1881.5 1283.66 1881.5 1283.66 1887.6 1281.88 1887.6 1272.29 1885.97 1272.29 1918.61 1267.52 1918.61 1267.52 1885.97 1257.99 1887.6 1256.11 1887.6 1256.11 1881.5 1257.99 1881.5 1268 1883.08 1266.42 1870.03Z" fill-rule="evenodd"/><text fill="#000000" fill-opacity="0" font-family="Arial,Arial_MSFontService,sans-serif" font-size="50.4561" x="1256.11" y="1912.3">†</text><g clip-path="url(#clip80)" filter="url(#fx24)" transform="translate(1295 1908)"><g clip-path="url(#clip81)"><path d="M25.574 23.8554C24.2771 23.8554 23.0005 24.2674 21.7441 25.0914 20.4878 25.9155 19.0896 27.2799 17.5496 29.1847 16.0095 31.0895 14.7532 33.0415 13.7805 35.0409 12.8079 37.0402 11.9838 39.5935 11.3083 42.7006L10.9436 44.4027C10.5383 46.294 10.3357 48.1312 10.3357 49.9144 10.3357 52.0489 10.8018 53.5889 11.7339 54.5345 12.666 55.4802 14.2128 55.953 16.3743 55.953 17.482 55.953 18.5357 55.7706 19.5354 55.4059 20.5351 55.0411 21.555 54.44 22.5952 53.6024 23.6354 52.7649 24.6216 51.6639 25.5537 50.2994 26.4858 48.935 27.3437 47.2531 28.1272 45.2538 28.9107 43.2544 29.5186 41.1132 29.9509 38.8302 30.3832 36.5472 30.5994 34.3654 30.5994 32.285 30.5994 29.4751 30.2008 27.3677 29.4038 25.9628 28.6068 24.5578 27.3302 23.8554 25.574 23.8554ZM18.4817 0.552128 20.8323 0.552128 13.6995 28.9213 14.2263 29.0834C16.8471 25.571 19.3057 23.0313 21.6023 21.4642 23.8988 19.8972 26.1954 19.1137 28.4919 19.1137 31.4369 19.1137 33.7267 20.2349 35.3613 22.4774 36.9959 24.7199 37.8132 27.8811 37.8132 31.9608 37.8132 36.4188 36.9149 40.8025 35.1182 45.1119 33.3214 49.4213 30.829 52.8392 27.6409 55.3654 24.4527 57.8916 20.8863 59.1547 16.9416 59.1547 13.3482 59.1547 10.1601 58.2766 7.3772 56.5204L3.64868 59.1547 1.05493 58.5062 11.5515 12.1835C12.1729 9.42762 12.4836 7.42826 12.4836 6.18543 12.4836 5.05066 12.1392 4.25363 11.4502 3.79432 10.7612 3.335 9.52515 3.07833 7.74194 3.0243L8.22827 0.916874Z" fill-rule="evenodd"/></g></g><path d="M1318.73 1930.31C1317.43 1930.31 1316.16 1930.72 1314.9 1931.54 1313.64 1932.37 1312.25 1933.73 1310.71 1935.64 1309.17 1937.54 1307.91 1939.49 1306.94 1941.49 1305.96 1943.49 1305.14 1946.05 1304.47 1949.15L1304.1 1950.86C1303.7 1952.75 1303.49 1954.58 1303.49 1956.37 1303.49 1958.5 1303.96 1960.04 1304.89 1960.99 1305.82 1961.93 1307.37 1962.41 1309.53 1962.41 1310.64 1962.41 1311.69 1962.22 1312.69 1961.86 1313.69 1961.49 1314.71 1960.89 1315.75 1960.06 1316.79 1959.22 1317.78 1958.12 1318.71 1956.75 1319.64 1955.39 1320.5 1953.71 1321.28 1951.71 1322.07 1949.71 1322.68 1947.57 1323.11 1945.28 1323.54 1943 1323.76 1940.82 1323.76 1938.74 1323.76 1935.93 1323.36 1933.82 1322.56 1932.42 1321.76 1931.01 1320.49 1930.31 1318.73 1930.31ZM1311.64 1907.01 1313.99 1907.01 1306.86 1935.37 1307.38 1935.54C1310 1932.02 1312.46 1929.48 1314.76 1927.92 1317.06 1926.35 1319.35 1925.57 1321.65 1925.57 1324.59 1925.57 1326.88 1926.69 1328.52 1928.93 1330.15 1931.17 1330.97 1934.33 1330.97 1938.41 1330.97 1942.87 1330.07 1947.26 1328.28 1951.57 1326.48 1955.87 1323.99 1959.29 1320.8 1961.82 1317.61 1964.35 1314.04 1965.61 1310.1 1965.61 1306.51 1965.61 1303.32 1964.73 1300.53 1962.97L1296.81 1965.61 1294.21 1964.96 1304.71 1918.64C1305.33 1915.88 1305.64 1913.88 1305.64 1912.64 1305.64 1911.5 1305.3 1910.71 1304.61 1910.25 1303.92 1909.79 1302.68 1909.53 1300.9 1909.48L1301.39 1907.37Z" fill-rule="evenodd"/><text fill="#000000" fill-opacity="0" font-family="Arial,Arial_MSFontService,sans-serif" font-size="58.6025" x="1294.21" y="1958.28">𝑏</text><g clip-path="url(#clip82)" filter="url(#fx25)" transform="translate(1300 1891)"><g clip-path="url(#clip83)"><path d="M14.6394 1.29102 20.0701 1.29102 34.2546 11.5444 32.6741 13.8545 17.8005 6.51905 17.3547 6.51905 2.15698 13.8545 0.576416 11.5444Z" fill-rule="evenodd"/></g></g><path d="M1312.8 1890.74 1318.23 1890.74 1332.41 1901 1330.83 1903.31 1315.96 1895.97 1315.51 1895.97 1300.31 1903.31 1298.73 1901Z" fill-rule="evenodd"/><text fill="#000000" fill-opacity="0" font-family="Arial,Arial_MSFontService,sans-serif" font-size="12.5635" x="1298.73" y="1901.74">෠</text><g clip-path="url(#clip84)" filter="url(#fx26)" transform="translate(1338 1940)"><g clip-path="url(#clip85)"><path d="M10.6982 13.2372 12.1577 13.2372 7.74951 33.0741C7.47152 34.2456 7.27791 35.1789 7.1687 35.8739 7.05949 36.5689 7.00488 37.1944 7.00488 37.7504 7.00488 38.5049 7.15877 39.051 7.46655 39.3885 7.77433 39.7261 8.236 39.8949 8.85156 39.8949 9.20898 39.8949 9.56641 39.8254 9.92383 39.6864 10.2812 39.5474 10.6635 39.329 11.0706 39.0311 11.4776 38.7333 11.9244 38.351 12.4109 37.8844 12.8974 37.4178 13.4385 36.8568 14.0342 36.2015L16.0596 38.1674C15.027 39.2198 14.0888 40.1084 13.2449 40.8331 12.401 41.5579 11.6017 42.1486 10.8472 42.6053 10.0926 43.0621 9.35295 43.3897 8.62817 43.5883 7.9034 43.7868 7.13395 43.8861 6.31982 43.8861 5.56527 43.8861 4.88517 43.7471 4.27954 43.4691 3.67391 43.1911 3.15267 42.8089 2.71582 42.3224 2.27897 41.8359 1.94141 41.2551 1.70312 40.58 1.46484 39.9048 1.3457 39.1602 1.3457 38.3461 1.3457 37.6908 1.42513 36.8767 1.58398 35.9037 1.74284 34.9307 1.94637 33.8733 2.19458 32.7316 2.44279 31.5898 2.71582 30.3934 3.01367 29.1425 3.31152 27.8915 3.60441 26.6504 3.89233 25.4193 4.18026 24.1882 4.43839 23.0018 4.66675 21.86 4.8951 20.7182 5.05892 19.6807 5.1582 18.7474 5.19792 18.5886 5.21777 18.4347 5.21777 18.2858 5.21777 18.1368 5.21777 18.0028 5.21777 17.8837 5.17806 17.1093 4.90503 16.5433 4.39868 16.1859 3.89233 15.8285 2.99381 15.6299 1.70312 15.5902L2.06055 13.5648ZM8.9707 1.23377 14.9277 1.23377 13.4683 7.63758 7.5708 7.63758Z" fill-rule="evenodd"/></g></g><path d="M1346.86 1951.69 1348.31 1951.69 1343.91 1971.53C1343.63 1972.7 1343.43 1973.63 1343.33 1974.33 1343.22 1975.02 1343.16 1975.65 1343.16 1976.2 1343.16 1976.96 1343.32 1977.5 1343.62 1977.84 1343.93 1978.18 1344.39 1978.35 1345.01 1978.35 1345.37 1978.35 1345.72 1978.28 1346.08 1978.14 1346.44 1978 1346.82 1977.78 1347.23 1977.48 1347.63 1977.19 1348.08 1976.8 1348.57 1976.34 1349.05 1975.87 1349.6 1975.31 1350.19 1974.66L1352.22 1976.62C1351.18 1977.67 1350.25 1978.56 1349.4 1979.29 1348.56 1980.01 1347.76 1980.6 1347 1981.06 1346.25 1981.52 1345.51 1981.84 1344.79 1982.04 1344.06 1982.24 1343.29 1982.34 1342.48 1982.34 1341.72 1982.34 1341.04 1982.2 1340.44 1981.92 1339.83 1981.64 1339.31 1981.26 1338.87 1980.78 1338.44 1980.29 1338.1 1979.71 1337.86 1979.03 1337.62 1978.36 1337.5 1977.61 1337.5 1976.8 1337.5 1976.14 1337.58 1975.33 1337.74 1974.36 1337.9 1973.38 1338.1 1972.33 1338.35 1971.19 1338.6 1970.04 1338.87 1968.85 1339.17 1967.6 1339.47 1966.34 1339.76 1965.1 1340.05 1963.87 1340.34 1962.64 1340.6 1961.46 1340.82 1960.31 1341.05 1959.17 1341.22 1958.13 1341.32 1957.2 1341.35 1957.04 1341.37 1956.89 1341.37 1956.74 1341.37 1956.59 1341.37 1956.46 1341.37 1956.34 1341.33 1955.56 1341.06 1955 1340.56 1954.64 1340.05 1954.28 1339.15 1954.08 1337.86 1954.04L1338.22 1952.02ZM1345.13 1939.69 1351.08 1939.69 1349.63 1946.09 1343.73 1946.09Z" fill-rule="evenodd"/><text fill="#000000" fill-opacity="0" font-family="Arial,Arial_MSFontService,sans-serif" font-size="42.6523" x="1337.5" y="1977.01">𝑖</text><g clip-path="url(#clip86)" filter="url(#fx27)" transform="translate(1411 1903)"><g clip-path="url(#clip87)"><path d="M203.144 1.39211C211.033 3.47252 217.092 7.96429 221.321 14.8675 225.549 21.7706 227.663 30.099 227.663 39.8526 227.663 49.6332 225.556 57.9615 221.341 64.8377 217.126 71.7138 211.06 76.1921 203.144 78.2725L202.171 75.1519C208.413 73.0715 213.053 68.9647 216.093 62.8316 219.132 56.6984 220.652 48.9037 220.652 39.4473 220.652 30.3151 219.139 22.7298 216.113 16.6912 213.087 10.6526 208.399 6.59312 202.05 4.51272ZM25.2946 1.39211 26.3888 4.51272C20.0665 6.59312 15.3856 10.6526 12.3461 16.6912 9.30652 22.7298 7.78674 30.3151 7.78674 39.4473 7.78674 48.9037 9.30652 56.6984 12.3461 62.8316 15.3856 68.9647 20.026 73.0715 26.2672 75.1519L25.2946 78.2725C17.3782 76.1921 11.3126 71.7138 7.09778 64.8377 2.88293 57.9615 0.775513 49.6332 0.775513 39.8526 0.775513 30.099 2.88965 21.7706 7.11804 14.8675 11.3463 7.96429 17.4052 3.47252 25.2946 1.39211Z" fill-rule="evenodd"/></g></g><path d="M1612.3 1902.85C1620.19 1904.93 1626.25 1909.42 1630.48 1916.32 1634.71 1923.22 1636.82 1931.55 1636.82 1941.31 1636.82 1951.09 1634.71 1959.42 1630.5 1966.29 1626.28 1973.17 1620.22 1977.65 1612.3 1979.73L1611.33 1976.61C1617.57 1974.52 1622.21 1970.42 1625.25 1964.29 1628.29 1958.15 1629.81 1950.36 1629.81 1940.9 1629.81 1931.77 1628.3 1924.18 1625.27 1918.14 1622.24 1912.11 1617.56 1908.05 1611.21 1905.97ZM1434.45 1902.85 1435.55 1905.97C1429.22 1908.05 1424.54 1912.11 1421.5 1918.14 1418.46 1924.18 1416.94 1931.77 1416.94 1940.9 1416.94 1950.36 1418.46 1958.15 1421.5 1964.29 1424.54 1970.42 1429.18 1974.52 1435.42 1976.61L1434.45 1979.73C1426.54 1977.65 1420.47 1973.17 1416.25 1966.29 1412.04 1959.42 1409.93 1951.09 1409.93 1941.31 1409.93 1931.55 1412.05 1923.22 1416.27 1916.32 1420.5 1909.42 1426.56 1904.93 1434.45 1902.85Z" fill-rule="evenodd"/><g clip-path="url(#clip88)" filter="url(#fx28)" transform="translate(1442 1917)"><g clip-path="url(#clip89)"><path d="M12.5642 0.751835 18.157 0.751835 15.928 10.7621 28.2483 10.7621 27.3567 14.8554 15.0364 14.8554 11.4294 30.58C10.727 33.633 10.2812 35.8282 10.092 37.1656 9.90291 38.5031 9.80835 39.577 9.80835 40.3876 9.80835 43.7378 11.1998 45.413 13.9827 45.413 15.1715 45.413 16.4346 44.9604 17.772 44.0553 19.1094 43.1502 20.6967 41.6034 22.5339 39.4149L24.8845 41.8466C22.5339 44.6835 20.2712 46.7774 18.0962 48.1283 15.9212 49.4792 13.6449 50.1547 11.2673 50.1547 5.62052 50.1547 2.79712 47.3042 2.79712 41.6034 2.79712 39.7932 3.02677 37.8884 3.48608 35.889L8.26831 14.8554 1.45972 14.8554 2.06763 12.059C3.6617 12.0319 4.87077 11.9104 5.69482 11.6942 6.51888 11.4781 7.20784 11.1809 7.76172 10.8026 8.31559 10.4244 8.82218 9.884 9.28149 9.18152 9.7408 8.47905 10.1866 7.58069 10.6189 6.48645 11.0512 5.39222 11.6996 3.48068 12.5642 0.751835Z" fill-rule="evenodd"/></g></g><path d="M1452.72 1916.21 1458.31 1916.21 1456.08 1926.22 1468.41 1926.22 1467.51 1930.31 1455.19 1930.31 1451.59 1946.03C1450.88 1949.09 1450.44 1951.28 1450.25 1952.62 1450.06 1953.96 1449.97 1955.03 1449.97 1955.84 1449.97 1959.19 1451.36 1960.87 1454.14 1960.87 1455.33 1960.87 1456.59 1960.41 1457.93 1959.51 1459.27 1958.6 1460.85 1957.06 1462.69 1954.87L1465.04 1957.3C1462.69 1960.14 1460.43 1962.23 1458.25 1963.58 1456.08 1964.93 1453.8 1965.61 1451.42 1965.61 1445.78 1965.61 1442.95 1962.76 1442.95 1957.06 1442.95 1955.25 1443.18 1953.34 1443.64 1951.34L1448.43 1930.31 1441.62 1930.31 1442.22 1927.51C1443.82 1927.49 1445.03 1927.36 1445.85 1927.15 1446.68 1926.93 1447.36 1926.63 1447.92 1926.26 1448.47 1925.88 1448.98 1925.34 1449.44 1924.64 1449.9 1923.93 1450.34 1923.03 1450.78 1921.94 1451.21 1920.85 1451.86 1918.93 1452.72 1916.21Z" fill-rule="evenodd"/><text fill="#000000" fill-opacity="0" font-family="Arial,Arial_MSFontService,sans-serif" font-size="49.4028" x="1441.62" y="1959.43">𝑡</text><g clip-path="url(#clip90)" filter="url(#fx29)" transform="translate(1497 1916)"><g clip-path="url(#clip91)"><path d="M22.8502 0.738651 28.6051 0.738651 28.6051 24.0824 50.6925 24.0824 50.6925 29.4725 28.6051 29.4725 28.6051 52.8163 22.8502 52.8163 22.8502 29.4725 0.762818 29.4725 0.762818 24.0824 22.8502 24.0824Z" fill-rule="evenodd"/></g></g><path d="M1518.01 1915.19 1523.76 1915.19 1523.76 1938.54 1545.85 1938.54 1545.85 1943.93 1523.76 1943.93 1523.76 1967.27 1518.01 1967.27 1518.01 1943.93 1495.92 1943.93 1495.92 1938.54 1518.01 1938.54Z" fill-rule="evenodd"/><text fill="#000000" fill-opacity="0" font-family="Arial,Arial_MSFontService,sans-serif" font-size="52.0776" x="1495.92" y="1960.76">+</text><g clip-path="url(#clip92)" filter="url(#fx30)" transform="translate(1572 1927)"><g clip-path="url(#clip93)"><path d="M16.1436 0.762089 37.3799 0.762089 36.1641 6.1117 23.479 6.1117 18.8994 26.4159C18.305 29.0637 18.0078 31.063 18.0078 32.4139 18.0078 33.4947 18.1834 34.2782 18.5347 34.7645 18.8859 35.2509 19.4398 35.494 20.1963 35.494 21.1149 35.494 22.1146 35.1158 23.1953 34.3593 24.276 33.6027 25.5054 32.4004 26.8833 30.7523L29.2339 32.9408C26.9103 35.5345 24.8367 37.3853 23.0129 38.493 21.1892 39.6008 19.3182 40.1547 17.3999 40.1547 15.4816 40.1547 13.9686 39.5197 12.8608 38.2499 11.7531 36.98 11.1992 35.3319 11.1992 33.3055 11.1992 31.4953 11.5775 28.8746 12.334 25.4432L12.9014 22.89C13.3337 20.9177 13.9753 18.3239 14.8264 15.1088 15.6775 11.8936 16.5353 9.01616 17.3999 6.47644L17.1973 6.1117 13.7119 6.1117C11.9287 6.1117 10.5575 6.25354 9.59839 6.53724 8.63924 6.82093 7.70036 7.30725 6.78174 7.99622 5.86312 8.68518 4.90397 9.6781 3.9043 10.975L1.35107 8.82703C2.81006 7.01681 4.08667 5.59835 5.18091 4.57166 6.27515 3.54497 7.3221 2.76819 8.32178 2.24134 9.32145 1.71448 10.4022 1.33623 11.564 1.10657 12.7257 0.876915 14.2523 0.762089 16.1436 0.762089Z" fill-rule="evenodd"/></g></g><path d="M1586.3 1926.22 1607.54 1926.22 1606.32 1931.57 1593.64 1931.57 1589.06 1951.87C1588.46 1954.52 1588.16 1956.52 1588.16 1957.87 1588.16 1958.95 1588.34 1959.73 1588.69 1960.22 1589.04 1960.7 1589.6 1960.95 1590.35 1960.95 1591.27 1960.95 1592.27 1960.57 1593.35 1959.81 1594.43 1959.06 1595.66 1957.85 1597.04 1956.21L1599.39 1958.39C1597.07 1960.99 1594.99 1962.84 1593.17 1963.95 1591.35 1965.05 1589.48 1965.61 1587.56 1965.61 1585.64 1965.61 1584.13 1964.97 1583.02 1963.7 1581.91 1962.43 1581.36 1960.79 1581.36 1958.76 1581.36 1956.95 1581.73 1954.33 1582.49 1950.9L1583.06 1948.34C1583.49 1946.37 1584.13 1943.78 1584.98 1940.56 1585.83 1937.35 1586.69 1934.47 1587.56 1931.93L1587.35 1931.57 1583.87 1931.57C1582.09 1931.57 1580.71 1931.71 1579.76 1931.99 1578.8 1932.27 1577.86 1932.76 1576.94 1933.45 1576.02 1934.14 1575.06 1935.13 1574.06 1936.43L1571.51 1934.28C1572.97 1932.47 1574.24 1931.05 1575.34 1930.03 1576.43 1929 1577.48 1928.22 1578.48 1927.69 1579.48 1927.17 1580.56 1926.79 1581.72 1926.56 1582.88 1926.33 1584.41 1926.22 1586.3 1926.22Z" fill-rule="evenodd"/><text fill="#000000" fill-opacity="0" font-family="Arial,Arial_MSFontService,sans-serif" font-size="39.3926" x="1571.51" y="1960.68">𝜏</text></g></svg>