<svg width="799" height="133" xmlns="http://www.w3.org/2000/svg" xmlns:xlink="http://www.w3.org/1999/xlink" xml:space="preserve" overflow="hidden"><defs><filter id="fx0" x="-10%" y="-10%" width="120%" height="120%" filterUnits="userSpaceOnUse" primitiveUnits="userSpaceOnUse"><feComponentTransfer color-interpolation-filters="sRGB"><feFuncR type="discrete" tableValues="1 1"/><feFuncG type="discrete" tableValues="1 1"/><feFuncB type="discrete" tableValues="1 1"/><feFuncA type="linear" slope="0.4" intercept="0"/></feComponentTransfer><feGaussianBlur stdDeviation="0 0"/></filter><filter id="fx1" x="-10%" y="-10%" width="120%" height="120%" filterUnits="userSpaceOnUse" primitiveUnits="userSpaceOnUse"><feComponentTransfer color-interpolation-filters="sRGB"><feFuncR type="discrete" tableValues="1 1"/><feFuncG type="discrete" tableValues="1 1"/><feFuncB type="discrete" tableValues="1 1"/><feFuncA type="linear" slope="0.4" intercept="0"/></feComponentTransfer><feGaussianBlur stdDeviation="0 0"/></filter><filter id="fx2" x="-10%" y="-10%" width="120%" height="120%" filterUnits="userSpaceOnUse" primitiveUnits="userSpaceOnUse"><feComponentTransfer color-interpolation-filters="sRGB"><feFuncR type="discrete" tableValues="1 1"/><feFuncG type="discrete" tableValues="1 1"/><feFuncB type="discrete" tableValues="1 1"/><feFuncA type="linear" slope="0.4" intercept="0"/></feComponentTransfer><feGaussianBlur stdDeviation="0 0"/></filter><filter id="fx3" x="-10%" y="-10%" width="120%" height="120%" filterUnits="userSpaceOnUse" primitiveUnits="userSpaceOnUse"><feComponentTransfer color-interpolation-filters="sRGB"><feFuncR type="discrete" tableValues="1 1"/><feFuncG type="discrete" tableValues="1 1"/><feFuncB type="discrete" tableValues="1 1"/><feFuncA type="linear" slope="0.4" intercept="0"/></feComponentTransfer><feGaussianBlur stdDeviation="0 0"/></filter><filter id="fx4" x="-10%" y="-10%" width="120%" height="120%" filterUnits="userSpaceOnUse" primitiveUnits="userSpaceOnUse"><feComponentTransfer color-interpolation-filters="sRGB"><feFuncR type="discrete" tableValues="1 1"/><feFuncG type="discrete" tableValues="1 1"/><feFuncB type="discrete" tableValues="1 1"/><feFuncA type="linear" slope="0.4" intercept="0"/></feComponentTransfer><feGaussianBlur stdDeviation="0 0"/></filter><filter id="fx5" x="-10%" y="-10%" width="120%" height="120%" filterUnits="userSpaceOnUse" primitiveUnits="userSpaceOnUse"><feComponentTransfer color-interpolation-filters="sRGB"><feFuncR type="discrete" tableValues="1 1"/><feFuncG type="discrete" tableValues="1 1"/><feFuncB type="discrete" tableValues="1 1"/><feFuncA type="linear" slope="0.4" intercept="0"/></feComponentTransfer><feGaussianBlur stdDeviation="0 0"/></filter><filter id="fx6" x="-10%" y="-10%" width="120%" height="120%" filterUnits="userSpaceOnUse" primitiveUnits="userSpaceOnUse"><feComponentTransfer color-interpolation-filters="sRGB"><feFuncR type="discrete" tableValues="1 1"/><feFuncG type="discrete" tableValues="1 1"/><feFuncB type="discrete" tableValues="1 1"/><feFuncA type="linear" slope="0.4" intercept="0"/></feComponentTransfer><feGaussianBlur stdDeviation="0 0"/></filter><filter id="fx7" x="-10%" y="-10%" width="120%" height="120%" filterUnits="userSpaceOnUse" primitiveUnits="userSpaceOnUse"><feComponentTransfer color-interpolation-filters="sRGB"><feFuncR type="discrete" tableValues="1 1"/><feFuncG type="discrete" tableValues="1 1"/><feFuncB type="discrete" tableValues="1 1"/><feFuncA type="linear" slope="0.4" intercept="0"/></feComponentTransfer><feGaussianBlur stdDeviation="0 0"/></filter><filter id="fx8" x="-10%" y="-10%" width="120%" height="120%" filterUnits="userSpaceOnUse" primitiveUnits="userSpaceOnUse"><feComponentTransfer color-interpolation-filters="sRGB"><feFuncR type="discrete" tableValues="1 1"/><feFuncG type="discrete" tableValues="1 1"/><feFuncB type="discrete" tableValues="1 1"/><feFuncA type="linear" slope="0.4" intercept="0"/></feComponentTransfer><feGaussianBlur stdDeviation="0 0"/></filter><clipPath id="clip9"><rect x="759" y="1826" width="799" height="133"/></clipPath><clipPath id="clip10"><rect x="1" y="1" width="43" height="57"/></clipPath><clipPath id="clip11"><rect x="0" y="0" width="44" height="58"/></clipPath><clipPath id="clip12"><rect x="1" y="1" width="131" height="42"/></clipPath><clipPath id="clip13"><rect x="0" y="0" width="133" height="43"/></clipPath><clipPath id="clip14"><rect x="1" y="0" width="106" height="78"/></clipPath><clipPath id="clip15"><rect x="0" y="0" width="108" height="79"/></clipPath><clipPath id="clip16"><rect x="1" y="0" width="46" height="56"/></clipPath><clipPath id="clip17"><rect x="0" y="0" width="48" height="57"/></clipPath><clipPath id="clip18"><rect x="0" y="1" width="51" height="23"/></clipPath><clipPath id="clip19"><rect x="0" y="0" width="52" height="24"/></clipPath><clipPath id="clip20"><rect x="1" y="0" width="46" height="56"/></clipPath><clipPath id="clip21"><rect x="0" y="0" width="48" height="57"/></clipPath><clipPath id="clip22"><rect x="0" y="1" width="11" height="11"/></clipPath><clipPath id="clip23"><rect x="0" y="0" width="11" height="12"/></clipPath><clipPath id="clip24"><rect x="0" y="0" width="34" height="57"/></clipPath><clipPath id="clip25"><rect x="0" y="0" width="34" height="58"/></clipPath><clipPath id="clip26"><rect x="0" y="0" width="129" height="73"/></clipPath><clipPath id="clip27"><rect x="0" y="0" width="130" height="73"/></clipPath></defs><g clip-path="url(#clip9)" transform="translate(-759 -1826)"><g clip-path="url(#clip10)" filter="url(#fx0)" transform="translate(809 1880)"><g clip-path="url(#clip11)"><path d="M11.5002 1.43921C14.148 1.43921 16.0798 2.4524 17.2957 4.47876 18.5115 6.50513 19.1194 9.84188 19.1194 14.489 19.1194 19.9467 18.8627 25.8637 18.3494 32.24L18.7141 32.24C25.2795 21.2166 30.7102 11.1658 35.0061 2.08765L43.4763 2.08765 42.9495 4.03296C40.3287 7.1941 36.4921 12.3951 31.4397 19.636 26.3873 26.8769 21.6726 34.0637 17.2957 41.1965 16.4041 46.8163 15.2693 52.1119 13.8914 57.0833L7.85278 57.0833 6.67749 55.1785C7.75822 50.9366 9.69002 46.2625 12.4729 41.156 12.7161 36.0496 12.8376 30.835 12.8376 25.5125 12.8376 21.0004 12.7431 17.5015 12.554 15.0159 12.3648 12.5302 12.0879 10.6592 11.7231 9.40284 11.3584 8.14649 10.9261 7.28191 10.4263 6.80909 9.92643 6.33627 9.31177 6.09986 8.58228 6.09986 7.06926 6.09986 5.32658 7.1941 3.35425 9.38257L1.08472 7.11304C2.38159 5.95126 3.38802 5.07317 4.104 4.47876 4.81999 3.88436 5.56299 3.35751 6.33301 2.8982 7.10303 2.43889 7.90007 2.08089 8.72412 1.82422 9.54818 1.56755 10.4736 1.43921 11.5002 1.43921Z" fill-rule="evenodd"/></g></g><path d="M819.037 1880.21C821.685 1880.21 823.616 1881.22 824.832 1883.25 826.048 1885.28 826.656 1888.61 826.656 1893.26 826.656 1898.72 826.399 1904.64 825.886 1911.01L826.251 1911.01C832.816 1899.99 838.247 1889.94 842.543 1880.86L851.013 1880.86 850.486 1882.81C847.865 1885.97 844.029 1891.17 838.976 1898.41 833.924 1905.65 829.209 1912.84 824.832 1919.97 823.941 1925.59 822.806 1930.88 821.428 1935.86L815.389 1935.86 814.214 1933.95C815.295 1929.71 817.227 1925.03 820.009 1919.93 820.253 1914.82 820.374 1909.61 820.374 1904.28 820.374 1899.77 820.28 1896.27 820.09 1893.79 819.901 1891.3 819.624 1889.43 819.26 1888.17 818.895 1886.92 818.463 1886.05 817.963 1885.58 817.463 1885.11 816.848 1884.87 816.119 1884.87 814.606 1884.87 812.863 1885.97 810.891 1888.15L808.621 1885.89C809.918 1884.72 810.924 1883.85 811.641 1883.25 812.357 1882.66 813.099 1882.13 813.87 1881.67 814.64 1881.21 815.437 1880.85 816.261 1880.6 817.085 1880.34 818.01 1880.21 819.037 1880.21Z" fill-rule="evenodd"/><text fill="#000000" fill-opacity="0" font-family="Arial,Arial_MSFontService,sans-serif" font-size="55.644" x="808.621" y="1928.9">ğ›¾</text><g clip-path="url(#clip12)" filter="url(#fx1)" transform="translate(853 1896)"><g clip-path="url(#clip13)"><path d="M119.02 14.2136C117.948 14.2136 116.98 14.4271 116.116 14.854 115.253 15.2809 114.498 15.9015 113.853 16.7156 113.207 17.5297 112.681 18.5275 112.274 19.709 111.867 20.8905 111.604 22.2258 111.485 23.7151L125.305 23.7151C125.106 20.4784 124.516 18.0857 123.533 16.5369 122.55 14.988 121.046 14.2136 119.02 14.2136ZM38.1576 11.8904 47.7186 11.8904 47.7186 27.4382C47.7186 29.5828 47.7881 31.35 47.9271 32.74 48.0661 34.13 48.3292 35.2271 48.7164 36.0312 49.1036 36.8354 49.6547 37.3914 50.3695 37.6992 51.0844 38.007 52.0275 38.1609 53.1991 38.1609 53.9735 38.1609 54.7976 37.9722 55.6713 37.595 56.545 37.2177 57.3442 36.7213 58.069 36.1057 58.7937 35.4902 59.3944 34.7852 59.871 33.991 60.3475 33.1967 60.5858 32.3925 60.5858 31.5784L60.5858 19.3962C60.5858 18.2644 60.561 17.3857 60.5114 16.7603 60.4617 16.1348 60.3177 15.6433 60.0795 15.2859 59.8412 14.9285 59.4788 14.6554 58.9923 14.4668 58.5058 14.2782 57.8257 14.0548 56.952 13.7966L56.952 11.8904 66.4237 11.8904 66.4237 33.4846C66.4237 34.4973 66.4187 35.3512 66.4088 36.0461 66.3989 36.7411 66.4982 37.317 66.7067 37.7737 66.9152 38.2304 67.3024 38.6027 67.8683 38.8906 68.4342 39.1785 69.293 39.4218 70.4447 39.6204L70.4447 41.6755 62.7899 41.9734 60.6454 41.9734C60.705 41.1394 60.7546 40.3153 60.7943 39.5012 60.834 38.6871 60.8737 37.863 60.9135 37.0291 60.834 36.9893 60.7645 36.9695 60.705 36.9695 60.6454 36.9695 60.5858 36.9496 60.5262 36.9099 59.593 37.9028 58.7094 38.7367 57.8754 39.4119 57.0414 40.087 56.2273 40.6331 55.433 41.05 54.6387 41.467 53.8494 41.7649 53.0651 41.9436 52.2807 42.1223 51.4616 42.2117 50.6078 42.2117 49.1185 42.1918 47.8179 41.9932 46.7059 41.616 45.594 41.2387 44.6756 40.6331 43.9508 39.7991 43.226 38.9651 42.68 37.8829 42.3126 36.5525 41.9453 35.2221 41.7517 33.5839 41.7318 31.6379L41.7318 19.3962C41.7318 18.3041 41.7268 17.4503 41.7169 16.8347 41.707 16.2192 41.5978 15.7376 41.3893 15.3901 41.1808 15.0426 40.8333 14.7647 40.3468 14.5562 39.8603 14.3477 39.1306 14.0945 38.1576 13.7966ZM119.378 11.2649C121.483 11.2649 123.3 11.5876 124.828 12.2329 126.357 12.8783 127.598 13.7668 128.552 14.8987 129.028 15.4547 129.455 16.0901 129.832 16.8049 130.21 17.5198 130.532 18.3488 130.8 19.292 131.068 20.2352 131.277 21.3124 131.426 22.5237 131.575 23.7349 131.669 25.115 131.709 26.6638L111.306 26.6638 111.306 26.9319C111.306 30.6848 112.006 33.4945 113.406 35.3611 114.806 37.2276 117.025 38.1609 120.063 38.1609 120.877 38.1609 121.656 38.0765 122.401 37.9077 123.146 37.7389 123.885 37.4758 124.62 37.1184 125.355 36.761 126.094 36.2993 126.839 35.7334 127.584 35.1675 128.363 34.4973 129.177 33.7229L131.262 36.1951C130.15 37.2872 129.093 38.2155 128.09 38.98 127.087 39.7445 126.089 40.365 125.097 40.8416 124.104 41.3181 123.091 41.6656 122.058 41.884 121.026 42.1025 119.934 42.2117 118.782 42.2117 114.255 42.2117 110.849 40.916 108.566 38.3247 106.282 35.7334 105.14 31.9159 105.14 26.8723 105.14 24.5491 105.478 22.4294 106.153 20.5132 106.828 18.597 107.791 16.9539 109.042 15.5837 110.293 14.2136 111.793 13.1513 113.54 12.3967 115.287 11.6422 117.233 11.2649 119.378 11.2649ZM96.8583 11.2649C98.0894 11.2649 99.2609 11.384 100.373 11.6223L100.373 19.009 96.5604 19.009C96.342 18.453 96.1136 17.9715 95.8754 17.5645 95.6371 17.1574 95.3641 16.8198 95.0563 16.5518 94.7485 16.2837 94.3911 16.0851 93.984 15.9561 93.5769 15.827 93.0954 15.7625 92.5394 15.7625 91.9636 15.7625 91.3133 15.9461 90.5885 16.3135 89.8637 16.6808 89.1836 17.1822 88.5482 17.8176 87.9128 18.453 87.3816 19.1877 86.9547 20.0217 86.5278 20.8557 86.3143 21.7393 86.3143 22.6726L86.3143 34.0803C86.3143 35.3313 86.3689 36.2894 86.4781 36.9546 86.5874 37.6198 86.7909 38.1212 87.0887 38.4587 87.3866 38.7963 87.7937 39.0396 88.3099 39.1885 88.8262 39.3374 89.5013 39.531 90.3353 39.7693L90.3353 41.6755 76.9022 41.6755 76.9022 39.7693C77.6766 39.4913 78.2972 39.2729 78.7638 39.114 79.2304 38.9552 79.5878 38.7119 79.8361 38.3843 80.0843 38.0566 80.2431 37.5751 80.3126 36.9397 80.3821 36.3043 80.4169 35.3809 80.4169 34.1697L80.4169 21.3621C80.4169 19.9919 80.4119 18.87 80.402 17.9963 80.392 17.1226 80.2729 16.4128 80.0445 15.8667 79.8162 15.3206 79.429 14.9036 78.8829 14.6157 78.3369 14.3278 77.5277 14.0945 76.4554 13.9158L76.4554 11.8904 84.2591 11.5627 86.3739 11.5627 85.9569 16.8645C86.0165 16.9042 86.0661 16.929 86.1058 16.939 86.1455 16.9489 86.1952 16.9737 86.2548 17.0134 87.2079 15.9809 88.0865 15.0973 88.8907 14.3626 89.6949 13.6278 90.5091 13.0321 91.3331 12.5754 92.1572 12.1187 93.011 11.7861 93.8946 11.5776 94.7783 11.3691 95.7662 11.2649 96.8583 11.2649ZM16.4203 4.32495C15.4672 4.32495 14.5885 4.33488 13.7843 4.35474 12.9801 4.3746 12.2404 4.40438 11.5653 4.4441L11.5653 21.4216 15.2587 21.4216C17.1053 21.4216 18.7038 21.2628 20.0541 20.9451 21.4043 20.6274 22.5163 20.121 23.39 19.426 24.2637 18.731 24.914 17.8325 25.3409 16.7305 25.7679 15.6284 25.9813 14.2931 25.9813 12.7244 25.9813 9.78557 25.1573 7.65096 23.5092 6.32056 21.861 4.99016 19.4981 4.32495 16.4203 4.32495ZM1.37879 1.0188 17.6713 1.0188C22.7745 1.0188 26.577 1.92229 29.079 3.72925 31.5809 5.53622 32.8319 8.29631 32.8319 12.0095 32.8319 14.1739 32.41 16.0603 31.566 17.6687 30.7221 19.2771 29.5804 20.6125 28.1407 21.6748 26.7011 22.7371 25.0232 23.5265 23.1071 24.0427 21.1909 24.559 19.1705 24.7973 17.0458 24.7576L16.2416 24.7576C15.348 24.7576 14.5041 24.7526 13.7098 24.7427 12.9156 24.7327 12.2007 24.698 11.5653 24.6384L11.5653 34.0208C11.5852 35.0334 11.6348 35.8575 11.7142 36.4929 11.7937 37.1283 11.9823 37.6545 12.2802 38.0715 12.578 38.4885 13.0198 38.8211 13.6056 39.0693 14.1914 39.3175 14.9906 39.5509 16.0033 39.7693L16.0033 41.6755 1.37879 41.6755 1.37879 39.7693C2.33191 39.4714 3.06661 39.2282 3.58289 39.0396 4.09916 38.8509 4.47644 38.5828 4.71472 38.2354 4.953 37.8879 5.08704 37.4014 5.11682 36.7759 5.14661 36.1504 5.1615 35.2519 5.1615 34.0803L5.1615 8.61402C5.1615 7.40276 5.13668 6.48438 5.08704 5.85889 5.0374 5.2334 4.89343 4.75684 4.65515 4.4292 4.41687 4.10157 4.04456 3.85336 3.53821 3.68457 3.03186 3.51579 2.31205 3.28247 1.37879 2.98462Z" fill-rule="evenodd"/></g></g><path d="M970.557 1908.99C969.485 1908.99 968.517 1909.2 967.653 1909.63 966.789 1910.05 966.034 1910.67 965.389 1911.49 964.744 1912.3 964.218 1913.3 963.811 1914.48 963.403 1915.66 963.14 1917 963.021 1918.49L976.842 1918.49C976.643 1915.25 976.052 1912.86 975.069 1911.31 974.086 1909.76 972.582 1908.99 970.557 1908.99ZM889.694 1906.66 899.255 1906.66 899.255 1922.21C899.255 1924.35 899.325 1926.12 899.464 1927.51 899.603 1928.9 899.866 1930 900.253 1930.8 900.64 1931.61 901.191 1932.16 901.906 1932.47 902.621 1932.78 903.564 1932.93 904.736 1932.93 905.51 1932.93 906.334 1932.74 907.208 1932.37 908.081 1931.99 908.881 1931.49 909.605 1930.88 910.33 1930.26 910.931 1929.56 911.407 1928.76 911.884 1927.97 912.122 1927.16 912.122 1926.35L912.122 1914.17C912.122 1913.04 912.097 1912.16 912.048 1911.53 911.998 1910.91 911.854 1910.42 911.616 1910.06 911.378 1909.7 911.015 1909.43 910.529 1909.24 910.042 1909.05 909.362 1908.83 908.489 1908.57L908.489 1906.66 917.96 1906.66 917.96 1928.26C917.96 1929.27 917.955 1930.12 917.945 1930.82 917.935 1931.51 918.035 1932.09 918.243 1932.55 918.452 1933 918.839 1933.37 919.405 1933.66 919.971 1933.95 920.83 1934.19 921.981 1934.39L921.981 1936.45 914.326 1936.75 912.182 1936.75C912.241 1935.91 912.291 1935.09 912.331 1934.27 912.371 1933.46 912.41 1932.64 912.45 1931.8 912.371 1931.76 912.301 1931.74 912.241 1931.74 912.182 1931.74 912.122 1931.72 912.063 1931.68 911.129 1932.67 910.246 1933.51 909.412 1934.18 908.578 1934.86 907.764 1935.41 906.969 1935.82 906.175 1936.24 905.386 1936.54 904.602 1936.72 903.817 1936.89 902.998 1936.98 902.144 1936.98 900.655 1936.96 899.354 1936.77 898.242 1936.39 897.13 1936.01 896.212 1935.41 895.487 1934.57 894.763 1933.74 894.216 1932.66 893.849 1931.32 893.482 1929.99 893.288 1928.36 893.268 1926.41L893.268 1914.17C893.268 1913.08 893.263 1912.22 893.253 1911.61 893.243 1910.99 893.134 1910.51 892.926 1910.16 892.717 1909.81 892.37 1909.54 891.883 1909.33 891.397 1909.12 890.667 1908.87 889.694 1908.57ZM970.914 1906.04C973.019 1906.04 974.836 1906.36 976.365 1907.01 977.894 1907.65 979.135 1908.54 980.088 1909.67 980.565 1910.23 980.992 1910.86 981.369 1911.58 981.746 1912.29 982.069 1913.12 982.337 1914.06 982.605 1915.01 982.813 1916.08 982.962 1917.3 983.111 1918.51 983.206 1919.89 983.245 1921.44L962.843 1921.44 962.843 1921.7C962.843 1925.46 963.542 1928.27 964.942 1930.13 966.342 1932 968.561 1932.93 971.599 1932.93 972.413 1932.93 973.193 1932.85 973.938 1932.68 974.682 1932.51 975.422 1932.25 976.156 1931.89 976.891 1931.53 977.631 1931.07 978.375 1930.51 979.12 1929.94 979.899 1929.27 980.714 1928.49L982.799 1930.97C981.687 1932.06 980.629 1932.99 979.626 1933.75 978.624 1934.52 977.626 1935.14 976.633 1935.61 975.64 1936.09 974.628 1936.44 973.595 1936.66 972.562 1936.87 971.47 1936.98 970.319 1936.98 965.791 1936.98 962.386 1935.69 960.102 1933.1 957.819 1930.51 956.677 1926.69 956.677 1921.64 956.677 1919.32 957.015 1917.2 957.69 1915.29 958.365 1913.37 959.328 1911.73 960.579 1910.36 961.83 1908.99 963.329 1907.92 965.076 1907.17 966.824 1906.41 968.77 1906.04 970.914 1906.04ZM948.395 1906.04C949.626 1906.04 950.797 1906.16 951.909 1906.39L951.909 1913.78 948.097 1913.78C947.878 1913.23 947.65 1912.74 947.412 1912.34 947.174 1911.93 946.901 1911.59 946.593 1911.32 946.285 1911.06 945.928 1910.86 945.521 1910.73 945.113 1910.6 944.632 1910.53 944.076 1910.53 943.5 1910.53 942.85 1910.72 942.125 1911.09 941.4 1911.45 940.72 1911.95 940.085 1912.59 939.449 1913.23 938.918 1913.96 938.491 1914.79 938.064 1915.63 937.851 1916.51 937.851 1917.44L937.851 1928.85C937.851 1930.1 937.905 1931.06 938.015 1931.73 938.124 1932.39 938.327 1932.89 938.625 1933.23 938.923 1933.57 939.33 1933.81 939.846 1933.96 940.363 1934.11 941.038 1934.3 941.872 1934.54L941.872 1936.45 928.439 1936.45 928.439 1934.54C929.213 1934.26 929.834 1934.04 930.3 1933.89 930.767 1933.73 931.124 1933.48 931.373 1933.16 931.621 1932.83 931.78 1932.35 931.849 1931.71 931.919 1931.08 931.953 1930.15 931.953 1928.94L931.953 1916.13C931.953 1914.76 931.948 1913.64 931.938 1912.77 931.929 1911.89 931.809 1911.18 931.581 1910.64 931.353 1910.09 930.966 1909.68 930.419 1909.39 929.873 1909.1 929.064 1908.87 927.992 1908.69L927.992 1906.66 935.796 1906.33 937.91 1906.33 937.493 1911.64C937.553 1911.68 937.603 1911.7 937.642 1911.71 937.682 1911.72 937.732 1911.75 937.791 1911.79 938.744 1910.75 939.623 1909.87 940.427 1909.13 941.231 1908.4 942.046 1907.8 942.87 1907.35 943.694 1906.89 944.548 1906.56 945.431 1906.35 946.315 1906.14 947.303 1906.04 948.395 1906.04ZM867.957 1899.1C867.004 1899.1 866.125 1899.11 865.321 1899.13 864.517 1899.15 863.777 1899.18 863.102 1899.22L863.102 1916.19 866.795 1916.19C868.642 1916.19 870.24 1916.03 871.591 1915.72 872.941 1915.4 874.053 1914.89 874.927 1914.2 875.8 1913.5 876.451 1912.6 876.877 1911.5 877.304 1910.4 877.518 1909.07 877.518 1907.5 877.518 1904.56 876.694 1902.42 875.046 1901.09 873.398 1899.76 871.035 1899.1 867.957 1899.1ZM852.915 1895.79 869.208 1895.79C874.311 1895.79 878.114 1896.69 880.615 1898.5 883.117 1900.31 884.368 1903.07 884.368 1906.78 884.368 1908.95 883.946 1910.83 883.103 1912.44 882.259 1914.05 881.117 1915.38 879.677 1916.45 878.238 1917.51 876.56 1918.3 874.644 1918.81 872.727 1919.33 870.707 1919.57 868.582 1919.53L867.778 1919.53C866.885 1919.53 866.041 1919.52 865.246 1919.51 864.452 1919.5 863.737 1919.47 863.102 1919.41L863.102 1928.79C863.122 1929.81 863.171 1930.63 863.251 1931.27 863.33 1931.9 863.519 1932.43 863.817 1932.84 864.115 1933.26 864.556 1933.59 865.142 1933.84 865.728 1934.09 866.527 1934.32 867.54 1934.54L867.54 1936.45 852.915 1936.45 852.915 1934.54C853.868 1934.24 854.603 1934 855.119 1933.81 855.636 1933.62 856.013 1933.35 856.251 1933.01 856.49 1932.66 856.624 1932.17 856.653 1931.55 856.683 1930.92 856.698 1930.02 856.698 1928.85L856.698 1903.39C856.698 1902.17 856.673 1901.26 856.624 1900.63 856.574 1900.01 856.43 1899.53 856.192 1899.2 855.953 1898.87 855.581 1898.63 855.075 1898.46 854.568 1898.29 853.849 1898.05 852.915 1897.76Z" fill-rule="evenodd"/><text fill="#000000" fill-opacity="0" font-family="Arial,Arial_MSFontService,sans-serif" font-size="41.1929" x="852.915" y="1931.83">Pure</text><g clip-path="url(#clip14)" filter="url(#fx2)" transform="translate(997 1858)"><g clip-path="url(#clip15)"><path d="M82.136 0.717694C90.0254 2.7981 96.0842 7.28988 100.313 14.193 104.541 21.0962 106.655 29.4246 106.655 39.1781 106.655 48.9587 104.548 57.2871 100.333 64.1632 96.118 71.0394 90.0524 75.5177 82.136 77.5981L81.1634 74.4775C87.4046 72.397 92.045 68.2903 95.0845 62.1571 98.1241 56.024 99.6439 48.2292 99.6439 38.7729 99.6439 29.6407 98.1308 22.0553 95.1048 16.0168 92.0787 9.97819 87.3911 5.9187 81.0418 3.8383ZM25.997 0.717694 27.0912 3.8383C20.769 5.9187 16.088 9.97819 13.0485 16.0168 10.0089 22.0553 8.48918 29.6407 8.48918 38.7729 8.48918 48.2292 10.0089 56.024 13.0485 62.1571 16.088 68.2903 20.7284 72.397 26.9696 74.4775L25.997 77.5981C18.0806 75.5177 12.015 71.0394 7.8002 64.1632 3.58536 57.2871 1.47795 48.9587 1.47795 39.1781 1.47795 29.4246 3.59212 21.0962 7.82048 14.193 12.0488 7.28988 18.1077 2.7981 25.997 0.717694Z" fill-rule="evenodd"/></g></g><path d="M1077.67 1857.49C1085.56 1859.57 1091.62 1864.06 1095.85 1870.97 1100.08 1877.87 1102.19 1886.2 1102.19 1895.95 1102.19 1905.73 1100.08 1914.06 1095.87 1920.94 1091.65 1927.81 1085.59 1932.29 1077.67 1934.37L1076.7 1931.25C1082.94 1929.17 1087.58 1925.06 1090.62 1918.93 1093.66 1912.8 1095.18 1905 1095.18 1895.54 1095.18 1886.41 1093.67 1878.83 1090.64 1872.79 1087.62 1866.75 1082.93 1862.69 1076.58 1860.61ZM1021.53 1857.49 1022.63 1860.61C1016.31 1862.69 1011.62 1866.75 1008.58 1872.79 1005.55 1878.83 1004.03 1886.41 1004.03 1895.54 1004.03 1905 1005.55 1912.8 1008.58 1918.93 1011.62 1925.06 1016.26 1929.17 1022.51 1931.25L1021.53 1934.37C1013.62 1932.29 1007.55 1927.81 1003.34 1920.94 999.122 1914.06 997.014 1905.73 997.014 1895.95 997.014 1886.2 999.129 1877.87 1003.36 1870.97 1007.59 1864.06 1013.64 1859.57 1021.53 1857.49Z" fill-rule="evenodd"/><g clip-path="url(#clip16)" filter="url(#fx3)" transform="translate(1027 1865)"><g clip-path="url(#clip17)"><path d="M4.297 0.511967 46.6075 0.511967 43.4464 14.7776 39.5558 14.7776C39.5558 12.1568 39.4882 10.1912 39.3531 8.88086 39.2181 7.57048 38.9614 6.5708 38.5831 5.88184 38.2049 5.19287 37.7388 4.72006 37.1849 4.46338 36.6311 4.20671 35.6516 4.07837 34.2467 4.07837L28.2487 4.07837 19.4542 44.0383C19.2111 45.092 19.0422 45.9296 18.9476 46.551 18.8531 47.1724 18.772 47.8276 18.7045 48.5166 18.6369 49.2056 18.6031 49.8202 18.6031 50.3606 18.6031 51.1982 18.7382 51.8534 19.0084 52.3262 19.2786 52.799 19.6839 53.1435 20.2242 53.3596 20.7646 53.5758 21.6967 53.7379 23.0206 53.8459L22.5748 55.8318 5.51282 55.8318 5.95862 53.8459C7.03935 53.6838 7.83638 53.4677 8.34973 53.1975 8.86308 52.9273 9.31563 52.5085 9.7074 51.9412 10.0992 51.3738 10.4909 50.4822 10.8827 49.2664 11.2745 48.0505 11.7405 46.2133 12.2809 43.7546L20.9537 4.07837 15.8068 4.07837C14.1316 4.07837 12.7942 4.32154 11.7946 4.80787 10.7949 5.29419 9.79521 6.19931 8.79553 7.5232 7.79586 8.84709 6.58004 11.0626 5.14807 14.1697L1.25745 14.1697Z" fill-rule="evenodd"/></g></g><path d="M1029.83 1864.28 1072.14 1864.28 1068.98 1878.55 1065.09 1878.55C1065.09 1875.93 1065.02 1873.96 1064.89 1872.65 1064.75 1871.34 1064.5 1870.34 1064.12 1869.65 1063.74 1868.96 1063.28 1868.49 1062.72 1868.24 1062.17 1867.98 1061.19 1867.85 1059.78 1867.85L1053.79 1867.85 1044.99 1907.81C1044.75 1908.86 1044.58 1909.7 1044.48 1910.32 1044.39 1910.94 1044.31 1911.6 1044.24 1912.29 1044.17 1912.98 1044.14 1913.59 1044.14 1914.13 1044.14 1914.97 1044.27 1915.63 1044.54 1916.1 1044.82 1916.57 1045.22 1916.92 1045.76 1917.13 1046.3 1917.35 1047.23 1917.51 1048.56 1917.62L1048.11 1919.6 1031.05 1919.6 1031.5 1917.62C1032.58 1917.46 1033.37 1917.24 1033.89 1916.97 1034.4 1916.7 1034.85 1916.28 1035.24 1915.71 1035.64 1915.15 1036.03 1914.25 1036.42 1913.04 1036.81 1911.82 1037.28 1909.99 1037.82 1907.53L1046.49 1867.85 1041.34 1867.85C1039.67 1867.85 1038.33 1868.09 1037.33 1868.58 1036.33 1869.07 1035.33 1869.97 1034.33 1871.3 1033.33 1872.62 1032.12 1874.83 1030.68 1877.94L1026.79 1877.94Z" fill-rule="evenodd"/><text fill="#000000" fill-opacity="0" font-family="Arial,Arial_MSFontService,sans-serif" font-size="55.3198" x="1026.79" y="1912.69">ğ‘‡</text><g clip-path="url(#clip18)" filter="url(#fx4)" transform="translate(1139 1885)"><g clip-path="url(#clip19)"><path d="M0.694458 17.8376 50.6241 17.8376 50.6241 23.2278 0.694458 23.2278ZM0.694458 1.0188 50.6241 1.0188 50.6241 6.40894 0.694458 6.40894Z" fill-rule="evenodd"/></g></g><path d="M1138.23 1901.61 1188.16 1901.61 1188.16 1907 1138.23 1907ZM1138.23 1884.79 1188.16 1884.79 1188.16 1890.18 1138.23 1890.18Z" fill-rule="evenodd"/><text fill="#000000" fill-opacity="0" font-family="Arial,Arial_MSFontService,sans-serif" font-size="22.209" x="1138.23" y="1904.22">=</text><g clip-path="url(#clip20)" filter="url(#fx5)" transform="translate(1220 1865)"><g clip-path="url(#clip21)"><path d="M4.3241 0.511967 46.6346 0.511967 43.4735 14.7776 39.5829 14.7776C39.5829 12.1568 39.5153 10.1912 39.3802 8.88086 39.2452 7.57048 38.9885 6.5708 38.6102 5.88184 38.232 5.19287 37.7659 4.72006 37.212 4.46338 36.6582 4.20671 35.6787 4.07837 34.2738 4.07837L28.2758 4.07837 19.4813 44.0383C19.2382 45.092 19.0693 45.9296 18.9747 46.551 18.8802 47.1724 18.7991 47.8276 18.7316 48.5166 18.664 49.2056 18.6302 49.8202 18.6302 50.3606 18.6302 51.1982 18.7653 51.8534 19.0355 52.3262 19.3057 52.799 19.711 53.1435 20.2513 53.3596 20.7917 53.5758 21.7238 53.7379 23.0477 53.8459L22.6019 55.8318 5.53992 55.8318 5.98572 53.8459C7.06645 53.6838 7.86348 53.4677 8.37683 53.1975 8.89018 52.9273 9.34273 52.5085 9.7345 51.9412 10.1263 51.3738 10.518 50.4822 10.9098 49.2664 11.3016 48.0505 11.7676 46.2133 12.308 43.7546L20.9808 4.07837 15.8339 4.07837C14.1587 4.07837 12.8213 4.32154 11.8217 4.80787 10.822 5.29419 9.82231 6.19931 8.82263 7.5232 7.82296 8.84709 6.60714 11.0626 5.17517 14.1697L1.28455 14.1697Z" fill-rule="evenodd"/></g></g><path d="M1222.86 1864.28 1265.17 1864.28 1262.01 1878.55 1258.12 1878.55C1258.12 1875.93 1258.05 1873.96 1257.92 1872.65 1257.78 1871.34 1257.53 1870.34 1257.15 1869.65 1256.77 1868.96 1256.3 1868.49 1255.75 1868.24 1255.19 1867.98 1254.22 1867.85 1252.81 1867.85L1246.81 1867.85 1238.02 1907.81C1237.77 1908.86 1237.61 1909.7 1237.51 1910.32 1237.42 1910.94 1237.34 1911.6 1237.27 1912.29 1237.2 1912.98 1237.17 1913.59 1237.17 1914.13 1237.17 1914.97 1237.3 1915.63 1237.57 1916.1 1237.84 1916.57 1238.25 1916.92 1238.79 1917.13 1239.33 1917.35 1240.26 1917.51 1241.58 1917.62L1241.14 1919.6 1224.08 1919.6 1224.52 1917.62C1225.6 1917.46 1226.4 1917.24 1226.91 1916.97 1227.43 1916.7 1227.88 1916.28 1228.27 1915.71 1228.66 1915.15 1229.05 1914.25 1229.45 1913.04 1229.84 1911.82 1230.3 1909.99 1230.84 1907.53L1239.52 1867.85 1234.37 1867.85C1232.7 1867.85 1231.36 1868.09 1230.36 1868.58 1229.36 1869.07 1228.36 1869.97 1227.36 1871.3 1226.36 1872.62 1225.14 1874.83 1223.71 1877.94L1219.82 1877.94Z" fill-rule="evenodd"/><text fill="#000000" fill-opacity="0" font-family="Arial,Arial_MSFontService,sans-serif" font-size="55.3198" x="1219.82" y="1912.69">ğ‘‡</text><g clip-path="url(#clip22)" filter="url(#fx6)" transform="translate(1294 1891)"><g clip-path="url(#clip23)"><path d="M5.57458 1.17896C6.95251 1.17896 8.08053 1.63827 8.95862 2.55689 9.83671 3.47551 10.2758 4.66431 10.2758 6.12329 10.2758 7.58228 9.83671 8.77108 8.95862 9.6897 8.08053 10.6083 6.95251 11.0676 5.57458 11.0676 4.19665 11.0676 3.06864 10.6083 2.19055 9.6897 1.31246 8.77108 0.873413 7.58228 0.873413 6.12329 0.873413 4.66431 1.31246 3.47551 2.19055 2.55689 3.06864 1.63827 4.19665 1.17896 5.57458 1.17896Z" fill-rule="evenodd"/></g></g><path d="M1298.11 1890.95C1299.49 1890.95 1300.62 1891.41 1301.5 1892.33 1302.37 1893.25 1302.81 1894.44 1302.81 1895.9 1302.81 1897.35 1302.37 1898.54 1301.5 1899.46 1300.62 1900.38 1299.49 1900.84 1298.11 1900.84 1296.73 1900.84 1295.61 1900.38 1294.73 1899.46 1293.85 1898.54 1293.41 1897.35 1293.41 1895.9 1293.41 1894.44 1293.85 1893.25 1294.73 1892.33 1295.61 1891.41 1296.73 1890.95 1298.11 1890.95Z" fill-rule="evenodd"/><text fill="#000000" fill-opacity="0" font-family="Arial,Arial_MSFontService,sans-serif" font-size="9.88867" x="1293.41" y="1899.6">â‹…</text><g clip-path="url(#clip24)" filter="url(#fx7)" transform="translate(1336 1864)"><g clip-path="url(#clip25)"><path d="M19.8657 0.863529 22.0947 0.863529C21.9326 3.45728 21.8516 7.0507 21.8516 11.6438L21.8516 46.2542C21.8516 47.8212 21.9394 49.0033 22.115 49.8003 22.2906 50.5973 22.6013 51.2458 23.0471 51.7456 23.4929 52.2454 24.1346 52.6372 24.9722 52.9209 25.8097 53.2046 26.8634 53.4207 28.1333 53.5693 29.4032 53.7179 31.0783 53.8193 33.1587 53.8733L33.1587 56.8318 3.20898 56.8318 3.20898 53.8733C6.20801 53.7382 8.3492 53.5558 9.63257 53.3262 10.9159 53.0965 11.8953 52.752 12.5708 52.2927 13.2463 51.8334 13.7393 51.185 14.05 50.3474 14.3608 49.5098 14.5161 48.1454 14.5161 46.2542L14.5161 13.3865C14.5161 12.3058 14.327 11.5155 13.9487 11.0156 13.5705 10.5158 13.0166 10.2659 12.2871 10.2659 11.4225 10.2659 10.1932 10.7117 8.59912 11.6033 7.00504 12.4949 5.03271 13.7242 2.68213 15.2913L0.898926 12.1707Z" fill-rule="evenodd"/></g></g><path d="M1354.4 1863.64 1356.63 1863.64C1356.47 1866.23 1356.39 1869.82 1356.39 1874.42L1356.39 1909.03C1356.39 1910.59 1356.48 1911.78 1356.65 1912.57 1356.83 1913.37 1357.14 1914.02 1357.58 1914.52 1358.03 1915.02 1358.67 1915.41 1359.51 1915.69 1360.35 1915.98 1361.4 1916.19 1362.67 1916.34 1363.94 1916.49 1365.61 1916.59 1367.7 1916.65L1367.7 1919.6 1337.75 1919.6 1337.75 1916.65C1340.74 1916.51 1342.89 1916.33 1344.17 1916.1 1345.45 1915.87 1346.43 1915.52 1347.11 1915.06 1347.78 1914.61 1348.28 1913.96 1348.59 1913.12 1348.9 1912.28 1349.05 1910.92 1349.05 1909.03L1349.05 1876.16C1349.05 1875.08 1348.86 1874.29 1348.49 1873.79 1348.11 1873.29 1347.55 1873.04 1346.82 1873.04 1345.96 1873.04 1344.73 1873.48 1343.14 1874.38 1341.54 1875.27 1339.57 1876.5 1337.22 1878.06L1335.44 1874.94Z" fill-rule="evenodd"/><text fill="#000000" fill-opacity="0" font-family="Arial,Arial_MSFontService,sans-serif" font-size="55.9683" x="1335.44" y="1912.61">1</text><g clip-path="url(#clip26)" filter="url(#fx8)" transform="translate(1382 1865)"><g clip-path="url(#clip27)"><path d="M59.9169 19.6003C57.134 19.6003 54.9117 20.7148 53.2501 22.9439 51.5885 25.1729 50.6091 28.3542 50.3119 32.488L68.0223 32.488C67.8602 29.5701 67.4955 27.1857 66.9281 25.335 66.3607 23.4842 65.5096 22.0658 64.3749 21.0796 63.2401 20.0934 61.7541 19.6003 59.9169 19.6003ZM23.5897 17.0471 30.5604 17.0471 30.5604 47.4426C30.5604 50.6038 31.5331 52.1843 33.4784 52.1843 34.6672 52.1843 35.937 51.6169 37.288 50.4822L38.8685 52.9138C36.0316 55.2644 33.1947 56.4397 30.3578 56.4397 26.3321 56.4397 24.1436 54.1296 23.7924 49.5095L23.4276 49.3879C19.3479 53.927 15.4572 56.1965 11.7557 56.1965 9.70235 56.1965 7.86511 55.413 6.24402 53.8459L5.9198 54.0891C6.37911 59.4657 7.06808 63.9373 7.9867 67.5037L7.9867 69.7327 4.46082 72.0833 0.853884 72.0833 0.853884 17.0877 7.82459 17.0877 7.82459 39.4182C7.82459 44.4976 8.36495 47.8006 9.44568 49.3271 10.5264 50.8537 12.2826 51.6169 14.7142 51.6169 16.6595 51.6169 18.6251 50.6578 20.611 48.7395 22.5968 46.8212 23.5897 44.6733 23.5897 42.2957ZM60.3221 16.3987C63.051 16.3987 65.3745 16.831 67.2928 17.6956 69.2111 18.5601 70.7444 19.7422 71.8927 21.2417 73.041 22.7412 73.9326 24.6325 74.5675 26.9155 75.2024 29.1986 75.5604 32.1773 75.6415 35.8518L50.1092 35.8518 50.1092 36.5813C50.1092 39.7695 50.4672 42.451 51.1832 44.626 51.8992 46.8009 53.0745 48.5031 54.7091 49.7324 56.3437 50.9618 58.4714 51.5764 61.0922 51.5764 63.3076 51.5764 65.3002 51.1644 67.0699 50.3403 68.8396 49.5163 70.6026 48.1721 72.3588 46.3079L74.8309 48.9421C73.1018 50.7524 71.5144 52.1708 70.069 53.1975 68.6235 54.2242 67.0362 55.028 65.307 55.6089 63.5778 56.1898 61.673 56.4802 59.5926 56.4802 54.0269 56.4802 49.8256 54.8118 46.9886 51.4751 44.1517 48.1383 42.7333 43.2143 42.7333 36.7029 42.7333 32.6772 43.456 29.1243 44.9015 26.0442 46.347 22.9641 48.4071 20.5865 51.0819 18.9114 53.7567 17.2363 56.8368 16.3987 60.3221 16.3987ZM79.41 0.511967 97.7284 0.511967 97.7284 2.49781C96.4855 2.71395 95.5399 2.98413 94.8915 3.30835 94.243 3.63257 93.7567 4.09188 93.4325 4.68628 93.1083 5.28068 92.9462 6.07772 92.9462 7.0774 92.9462 7.99601 93.0542 8.98893 93.2704 10.0562 93.4865 11.1234 93.7972 12.3189 94.2025 13.6428L103.686 46.7131 115.317 13.3997C115.479 12.8863 115.641 12.346 115.804 11.7786 115.966 11.2112 116.108 10.6573 116.229 10.1169 116.351 9.57658 116.432 9.10376 116.472 8.69849 116.513 8.29322 116.533 7.91496 116.533 7.56372 116.533 5.94263 116.162 4.76059 115.419 4.01758 114.676 3.27458 113.412 2.76799 111.629 2.49781L111.629 0.511967 128.651 0.511967 128.651 2.49781C127.543 2.76799 126.651 3.15976 125.976 3.6731 125.3 4.18644 124.632 5.0105 123.97 6.14527 123.308 7.28003 122.504 9.09025 121.558 11.5759L104.74 56.4802 99.4305 56.4802 85.7728 11.2922C85.0433 8.83358 84.4084 7.08415 83.868 6.04395 83.3277 5.00375 82.7333 4.22022 82.0848 3.69336 81.4364 3.16651 80.5448 2.76799 79.41 2.49781Z" fill-rule="evenodd"/></g></g><path d="M1440.45 1883.37C1437.67 1883.37 1435.45 1884.49 1433.79 1886.72 1432.12 1888.94 1431.15 1892.13 1430.85 1896.26L1448.56 1896.26C1448.4 1893.34 1448.03 1890.96 1447.46 1889.11 1446.9 1887.26 1446.05 1885.84 1444.91 1884.85 1443.78 1883.87 1442.29 1883.37 1440.45 1883.37ZM1404.13 1880.82 1411.1 1880.82 1411.1 1911.21C1411.1 1914.38 1412.07 1915.96 1414.01 1915.96 1415.2 1915.96 1416.47 1915.39 1417.82 1914.25L1419.41 1916.69C1416.57 1919.04 1413.73 1920.21 1410.89 1920.21 1406.87 1920.21 1404.68 1917.9 1404.33 1913.28L1403.96 1913.16C1399.88 1917.7 1395.99 1919.97 1392.29 1919.97 1390.24 1919.97 1388.4 1919.19 1386.78 1917.62L1386.46 1917.86C1386.92 1923.24 1387.6 1927.71 1388.52 1931.28L1388.52 1933.5 1385 1935.86 1381.39 1935.86 1381.39 1880.86 1388.36 1880.86 1388.36 1903.19C1388.36 1908.27 1388.9 1911.57 1389.98 1913.1 1391.06 1914.63 1392.82 1915.39 1395.25 1915.39 1397.2 1915.39 1399.16 1914.43 1401.15 1912.51 1403.13 1910.59 1404.13 1908.45 1404.13 1906.07ZM1440.86 1880.17C1443.59 1880.17 1445.91 1880.6 1447.83 1881.47 1449.75 1882.33 1451.28 1883.51 1452.43 1885.01 1453.58 1886.51 1454.47 1888.4 1455.1 1890.69 1455.74 1892.97 1456.1 1895.95 1456.18 1899.62L1430.65 1899.62 1430.65 1900.35C1430.65 1903.54 1431 1906.22 1431.72 1908.4 1432.44 1910.57 1433.61 1912.28 1435.25 1913.5 1436.88 1914.73 1439.01 1915.35 1441.63 1915.35 1443.84 1915.35 1445.84 1914.94 1447.61 1914.11 1449.38 1913.29 1451.14 1911.94 1452.9 1910.08L1455.37 1912.71C1453.64 1914.52 1452.05 1915.94 1450.61 1916.97 1449.16 1918 1447.57 1918.8 1445.84 1919.38 1444.11 1919.96 1442.21 1920.25 1440.13 1920.25 1434.56 1920.25 1430.36 1918.58 1427.53 1915.25 1424.69 1911.91 1423.27 1906.99 1423.27 1900.47 1423.27 1896.45 1423.99 1892.9 1425.44 1889.82 1426.88 1886.74 1428.94 1884.36 1431.62 1882.68 1434.29 1881.01 1437.37 1880.17 1440.86 1880.17ZM1459.95 1864.28 1478.26 1864.28 1478.26 1866.27C1477.02 1866.49 1476.08 1866.76 1475.43 1867.08 1474.78 1867.4 1474.29 1867.86 1473.97 1868.46 1473.64 1869.05 1473.48 1869.85 1473.48 1870.85 1473.48 1871.77 1473.59 1872.76 1473.81 1873.83 1474.02 1874.9 1474.33 1876.09 1474.74 1877.41L1484.22 1910.49 1495.85 1877.17C1496.02 1876.66 1496.18 1876.12 1496.34 1875.55 1496.5 1874.98 1496.64 1874.43 1496.77 1873.89 1496.89 1873.35 1496.97 1872.88 1497.01 1872.47 1497.05 1872.07 1497.07 1871.69 1497.07 1871.34 1497.07 1869.71 1496.7 1868.53 1495.96 1867.79 1495.21 1867.05 1493.95 1866.54 1492.17 1866.27L1492.17 1864.28 1509.19 1864.28 1509.19 1866.27C1508.08 1866.54 1507.19 1866.93 1506.51 1867.45 1505.84 1867.96 1505.17 1868.78 1504.51 1869.92 1503.84 1871.05 1503.04 1872.86 1502.09 1875.35L1485.28 1920.25 1479.97 1920.25 1466.31 1875.06C1465.58 1872.61 1464.94 1870.86 1464.4 1869.82 1463.86 1868.78 1463.27 1867.99 1462.62 1867.47 1461.97 1866.94 1461.08 1866.54 1459.95 1866.27Z" fill-rule="evenodd"/><text fill="#000000" fill-opacity="0" font-family="Arial,Arial_MSFontService,sans-serif" font-size="71.5713" x="1381.39" y="1926.91">Î¼eV</text></g></svg>