<svg width="1545" height="258" xmlns="http://www.w3.org/2000/svg" xmlns:xlink="http://www.w3.org/1999/xlink" xml:space="preserve" overflow="hidden"><defs><filter id="fx0" x="-10%" y="-10%" width="120%" height="120%" filterUnits="userSpaceOnUse" primitiveUnits="userSpaceOnUse"><feComponentTransfer color-interpolation-filters="sRGB"><feFuncR type="discrete" tableValues="1 1"/><feFuncG type="discrete" tableValues="1 1"/><feFuncB type="discrete" tableValues="1 1"/><feFuncA type="linear" slope="0.4" intercept="0"/></feComponentTransfer><feGaussianBlur stdDeviation="0 0"/></filter><filter id="fx1" x="-10%" y="-10%" width="120%" height="120%" filterUnits="userSpaceOnUse" primitiveUnits="userSpaceOnUse"><feComponentTransfer color-interpolation-filters="sRGB"><feFuncR type="discrete" tableValues="1 1"/><feFuncG type="discrete" tableValues="1 1"/><feFuncB type="discrete" tableValues="1 1"/><feFuncA type="linear" slope="0.4" intercept="0"/></feComponentTransfer><feGaussianBlur stdDeviation="0 0"/></filter><filter id="fx2" x="-10%" y="-10%" width="120%" height="120%" filterUnits="userSpaceOnUse" primitiveUnits="userSpaceOnUse"><feComponentTransfer color-interpolation-filters="sRGB"><feFuncR type="discrete" tableValues="1 1"/><feFuncG type="discrete" tableValues="1 1"/><feFuncB type="discrete" tableValues="1 1"/><feFuncA type="linear" slope="0.4" intercept="0"/></feComponentTransfer><feGaussianBlur stdDeviation="0 0"/></filter><filter id="fx3" x="-10%" y="-10%" width="120%" height="120%" filterUnits="userSpaceOnUse" primitiveUnits="userSpaceOnUse"><feComponentTransfer color-interpolation-filters="sRGB"><feFuncR type="discrete" tableValues="1 1"/><feFuncG type="discrete" tableValues="1 1"/><feFuncB type="discrete" tableValues="1 1"/><feFuncA type="linear" slope="0.4" intercept="0"/></feComponentTransfer><feGaussianBlur stdDeviation="0 0"/></filter><filter id="fx4" x="-10%" y="-10%" width="120%" height="120%" filterUnits="userSpaceOnUse" primitiveUnits="userSpaceOnUse"><feComponentTransfer color-interpolation-filters="sRGB"><feFuncR type="discrete" tableValues="1 1"/><feFuncG type="discrete" tableValues="1 1"/><feFuncB type="discrete" tableValues="1 1"/><feFuncA type="linear" slope="0.4" intercept="0"/></feComponentTransfer><feGaussianBlur stdDeviation="0 0"/></filter><filter id="fx5" x="-10%" y="-10%" width="120%" height="120%" filterUnits="userSpaceOnUse" primitiveUnits="userSpaceOnUse"><feComponentTransfer color-interpolation-filters="sRGB"><feFuncR type="discrete" tableValues="1 1"/><feFuncG type="discrete" tableValues="1 1"/><feFuncB type="discrete" tableValues="1 1"/><feFuncA type="linear" slope="0.4" intercept="0"/></feComponentTransfer><feGaussianBlur stdDeviation="0 0"/></filter><filter id="fx6" x="-10%" y="-10%" width="120%" height="120%" filterUnits="userSpaceOnUse" primitiveUnits="userSpaceOnUse"><feComponentTransfer color-interpolation-filters="sRGB"><feFuncR type="discrete" tableValues="1 1"/><feFuncG type="discrete" tableValues="1 1"/><feFuncB type="discrete" tableValues="1 1"/><feFuncA type="linear" slope="0.4" intercept="0"/></feComponentTransfer><feGaussianBlur stdDeviation="0 0"/></filter><filter id="fx7" x="-10%" y="-10%" width="120%" height="120%" filterUnits="userSpaceOnUse" primitiveUnits="userSpaceOnUse"><feComponentTransfer color-interpolation-filters="sRGB"><feFuncR type="discrete" tableValues="1 1"/><feFuncG type="discrete" tableValues="1 1"/><feFuncB type="discrete" tableValues="1 1"/><feFuncA type="linear" slope="0.4" intercept="0"/></feComponentTransfer><feGaussianBlur stdDeviation="0 0"/></filter><filter id="fx8" x="-10%" y="-10%" width="120%" height="120%" filterUnits="userSpaceOnUse" primitiveUnits="userSpaceOnUse"><feComponentTransfer color-interpolation-filters="sRGB"><feFuncR type="discrete" tableValues="1 1"/><feFuncG type="discrete" tableValues="1 1"/><feFuncB type="discrete" tableValues="1 1"/><feFuncA type="linear" slope="0.4" intercept="0"/></feComponentTransfer><feGaussianBlur stdDeviation="0 0"/></filter><filter id="fx9" x="-10%" y="-10%" width="120%" height="120%" filterUnits="userSpaceOnUse" primitiveUnits="userSpaceOnUse"><feComponentTransfer color-interpolation-filters="sRGB"><feFuncR type="discrete" tableValues="1 1"/><feFuncG type="discrete" tableValues="1 1"/><feFuncB type="discrete" tableValues="1 1"/><feFuncA type="linear" slope="0.4" intercept="0"/></feComponentTransfer><feGaussianBlur stdDeviation="0 0"/></filter><filter id="fx10" x="-10%" y="-10%" width="120%" height="120%" filterUnits="userSpaceOnUse" primitiveUnits="userSpaceOnUse"><feComponentTransfer color-interpolation-filters="sRGB"><feFuncR type="discrete" tableValues="1 1"/><feFuncG type="discrete" tableValues="1 1"/><feFuncB type="discrete" tableValues="1 1"/><feFuncA type="linear" slope="0.4" intercept="0"/></feComponentTransfer><feGaussianBlur stdDeviation="0 0"/></filter><filter id="fx11" x="-10%" y="-10%" width="120%" height="120%" filterUnits="userSpaceOnUse" primitiveUnits="userSpaceOnUse"><feComponentTransfer color-interpolation-filters="sRGB"><feFuncR type="discrete" tableValues="1 1"/><feFuncG type="discrete" tableValues="1 1"/><feFuncB type="discrete" tableValues="1 1"/><feFuncA type="linear" slope="0.4" intercept="0"/></feComponentTransfer><feGaussianBlur stdDeviation="0 0"/></filter><filter id="fx12" x="-10%" y="-10%" width="120%" height="120%" filterUnits="userSpaceOnUse" primitiveUnits="userSpaceOnUse"><feComponentTransfer color-interpolation-filters="sRGB"><feFuncR type="discrete" tableValues="1 1"/><feFuncG type="discrete" tableValues="1 1"/><feFuncB type="discrete" tableValues="1 1"/><feFuncA type="linear" slope="0.4" intercept="0"/></feComponentTransfer><feGaussianBlur stdDeviation="0 0"/></filter><filter id="fx13" x="-10%" y="-10%" width="120%" height="120%" filterUnits="userSpaceOnUse" primitiveUnits="userSpaceOnUse"><feComponentTransfer color-interpolation-filters="sRGB"><feFuncR type="discrete" tableValues="1 1"/><feFuncG type="discrete" tableValues="1 1"/><feFuncB type="discrete" tableValues="1 1"/><feFuncA type="linear" slope="0.4" intercept="0"/></feComponentTransfer><feGaussianBlur stdDeviation="0 0"/></filter><filter id="fx14" x="-10%" y="-10%" width="120%" height="120%" filterUnits="userSpaceOnUse" primitiveUnits="userSpaceOnUse"><feComponentTransfer color-interpolation-filters="sRGB"><feFuncR type="discrete" tableValues="1 1"/><feFuncG type="discrete" tableValues="1 1"/><feFuncB type="discrete" tableValues="1 1"/><feFuncA type="linear" slope="0.4" intercept="0"/></feComponentTransfer><feGaussianBlur stdDeviation="0 0"/></filter><filter id="fx15" x="-10%" y="-10%" width="120%" height="120%" filterUnits="userSpaceOnUse" primitiveUnits="userSpaceOnUse"><feComponentTransfer color-interpolation-filters="sRGB"><feFuncR type="discrete" tableValues="1 1"/><feFuncG type="discrete" tableValues="1 1"/><feFuncB type="discrete" tableValues="1 1"/><feFuncA type="linear" slope="0.4" intercept="0"/></feComponentTransfer><feGaussianBlur stdDeviation="0 0"/></filter><filter id="fx16" x="-10%" y="-10%" width="120%" height="120%" filterUnits="userSpaceOnUse" primitiveUnits="userSpaceOnUse"><feComponentTransfer color-interpolation-filters="sRGB"><feFuncR type="discrete" tableValues="1 1"/><feFuncG type="discrete" tableValues="1 1"/><feFuncB type="discrete" tableValues="1 1"/><feFuncA type="linear" slope="0.4" intercept="0"/></feComponentTransfer><feGaussianBlur stdDeviation="0 0"/></filter><filter id="fx17" x="-10%" y="-10%" width="120%" height="120%" filterUnits="userSpaceOnUse" primitiveUnits="userSpaceOnUse"><feComponentTransfer color-interpolation-filters="sRGB"><feFuncR type="discrete" tableValues="1 1"/><feFuncG type="discrete" tableValues="1 1"/><feFuncB type="discrete" tableValues="1 1"/><feFuncA type="linear" slope="0.4" intercept="0"/></feComponentTransfer><feGaussianBlur stdDeviation="0 0"/></filter><filter id="fx18" x="-10%" y="-10%" width="120%" height="120%" filterUnits="userSpaceOnUse" primitiveUnits="userSpaceOnUse"><feComponentTransfer color-interpolation-filters="sRGB"><feFuncR type="discrete" tableValues="1 1"/><feFuncG type="discrete" tableValues="1 1"/><feFuncB type="discrete" tableValues="1 1"/><feFuncA type="linear" slope="0.4" intercept="0"/></feComponentTransfer><feGaussianBlur stdDeviation="0 0"/></filter><filter id="fx19" x="-10%" y="-10%" width="120%" height="120%" filterUnits="userSpaceOnUse" primitiveUnits="userSpaceOnUse"><feComponentTransfer color-interpolation-filters="sRGB"><feFuncR type="discrete" tableValues="1 1"/><feFuncG type="discrete" tableValues="1 1"/><feFuncB type="discrete" tableValues="1 1"/><feFuncA type="linear" slope="0.4" intercept="0"/></feComponentTransfer><feGaussianBlur stdDeviation="0 0"/></filter><filter id="fx20" x="-10%" y="-10%" width="120%" height="120%" filterUnits="userSpaceOnUse" primitiveUnits="userSpaceOnUse"><feComponentTransfer color-interpolation-filters="sRGB"><feFuncR type="discrete" tableValues="1 1"/><feFuncG type="discrete" tableValues="1 1"/><feFuncB type="discrete" tableValues="1 1"/><feFuncA type="linear" slope="0.4" intercept="0"/></feComponentTransfer><feGaussianBlur stdDeviation="0 0"/></filter><filter id="fx21" x="-10%" y="-10%" width="120%" height="120%" filterUnits="userSpaceOnUse" primitiveUnits="userSpaceOnUse"><feComponentTransfer color-interpolation-filters="sRGB"><feFuncR type="discrete" tableValues="1 1"/><feFuncG type="discrete" tableValues="1 1"/><feFuncB type="discrete" tableValues="1 1"/><feFuncA type="linear" slope="0.4" intercept="0"/></feComponentTransfer><feGaussianBlur stdDeviation="0 0"/></filter><filter id="fx22" x="-10%" y="-10%" width="120%" height="120%" filterUnits="userSpaceOnUse" primitiveUnits="userSpaceOnUse"><feComponentTransfer color-interpolation-filters="sRGB"><feFuncR type="discrete" tableValues="1 1"/><feFuncG type="discrete" tableValues="1 1"/><feFuncB type="discrete" tableValues="1 1"/><feFuncA type="linear" slope="0.4" intercept="0"/></feComponentTransfer><feGaussianBlur stdDeviation="0 0"/></filter><filter id="fx23" x="-10%" y="-10%" width="120%" height="120%" filterUnits="userSpaceOnUse" primitiveUnits="userSpaceOnUse"><feComponentTransfer color-interpolation-filters="sRGB"><feFuncR type="discrete" tableValues="1 1"/><feFuncG type="discrete" tableValues="1 1"/><feFuncB type="discrete" tableValues="1 1"/><feFuncA type="linear" slope="0.4" intercept="0"/></feComponentTransfer><feGaussianBlur stdDeviation="0 0"/></filter><filter id="fx24" x="-10%" y="-10%" width="120%" height="120%" filterUnits="userSpaceOnUse" primitiveUnits="userSpaceOnUse"><feComponentTransfer color-interpolation-filters="sRGB"><feFuncR type="discrete" tableValues="1 1"/><feFuncG type="discrete" tableValues="1 1"/><feFuncB type="discrete" tableValues="1 1"/><feFuncA type="linear" slope="0.4" intercept="0"/></feComponentTransfer><feGaussianBlur stdDeviation="0 0"/></filter><clipPath id="clip25"><rect x="1759" y="1872" width="1545" height="258"/></clipPath><clipPath id="clip26"><rect x="0" y="1" width="107" height="77"/></clipPath><clipPath id="clip27"><rect x="0" y="0" width="108" height="78"/></clipPath><clipPath id="clip28"><rect x="0" y="0" width="49" height="57"/></clipPath><clipPath id="clip29"><rect x="0" y="0" width="49" height="57"/></clipPath><clipPath id="clip30"><rect x="0" y="1" width="51" height="23"/></clipPath><clipPath id="clip31"><rect x="0" y="0" width="52" height="24"/></clipPath><clipPath id="clip32"><rect x="0" y="0" width="119" height="58"/></clipPath><clipPath id="clip33"><rect x="0" y="0" width="119" height="58"/></clipPath><clipPath id="clip34"><rect x="1" y="0" width="1064" height="211"/></clipPath><clipPath id="clip35"><rect x="0" y="0" width="1066" height="211"/></clipPath><clipPath id="clip36"><rect x="0" y="0" width="51" height="6"/></clipPath><clipPath id="clip37"><rect x="0" y="0" width="52" height="7"/></clipPath><clipPath id="clip38"><rect x="0" y="0" width="33" height="57"/></clipPath><clipPath id="clip39"><rect x="0" y="0" width="34" height="58"/></clipPath><clipPath id="clip40"><rect x="0" y="1" width="35" height="57"/></clipPath><clipPath id="clip41"><rect x="0" y="0" width="36" height="58"/></clipPath><clipPath id="clip42"><rect x="1" y="0" width="47" height="6"/></clipPath><clipPath id="clip43"><rect x="0" y="0" width="48" height="7"/></clipPath><clipPath id="clip44"><rect x="1" y="1" width="54" height="179"/></clipPath><clipPath id="clip45"><rect x="0" y="0" width="56" height="181"/></clipPath><clipPath id="clip46"><rect x="1" y="0" width="38" height="72"/></clipPath><clipPath id="clip47"><rect x="0" y="0" width="39" height="73"/></clipPath><clipPath id="clip48"><rect x="1" y="0" width="116" height="78"/></clipPath><clipPath id="clip49"><rect x="0" y="0" width="118" height="79"/></clipPath><clipPath id="clip50"><rect x="1" y="0" width="53" height="41"/></clipPath><clipPath id="clip51"><rect x="0" y="0" width="54" height="42"/></clipPath><clipPath id="clip52"><rect x="0" y="1" width="148" height="59"/></clipPath><clipPath id="clip53"><rect x="0" y="0" width="149" height="61"/></clipPath><clipPath id="clip54"><rect x="1" y="0" width="270" height="213"/></clipPath><clipPath id="clip55"><rect x="0" y="0" width="271" height="213"/></clipPath><clipPath id="clip56"><rect x="0" y="0" width="101" height="60"/></clipPath><clipPath id="clip57"><rect x="0" y="0" width="102" height="60"/></clipPath><clipPath id="clip58"><rect x="0" y="1" width="35" height="57"/></clipPath><clipPath id="clip59"><rect x="0" y="0" width="36" height="58"/></clipPath><clipPath id="clip60"><rect x="1" y="1" width="41" height="59"/></clipPath><clipPath id="clip61"><rect x="0" y="0" width="42" height="61"/></clipPath><clipPath id="clip62"><rect x="0" y="1" width="37" height="40"/></clipPath><clipPath id="clip63"><rect x="0" y="0" width="38" height="41"/></clipPath><clipPath id="clip64"><rect x="1" y="0" width="46" height="57"/></clipPath><clipPath id="clip65"><rect x="0" y="0" width="48" height="57"/></clipPath><clipPath id="clip66"><rect x="1" y="0" width="189" height="6"/></clipPath><clipPath id="clip67"><rect x="0" y="0" width="190" height="7"/></clipPath><clipPath id="clip68"><rect x="0" y="1" width="40" height="59"/></clipPath><clipPath id="clip69"><rect x="0" y="0" width="41" height="61"/></clipPath><clipPath id="clip70"><rect x="1" y="0" width="53" height="41"/></clipPath><clipPath id="clip71"><rect x="0" y="0" width="55" height="42"/></clipPath><clipPath id="clip72"><rect x="0" y="1" width="48" height="26"/></clipPath><clipPath id="clip73"><rect x="0" y="0" width="48" height="27"/></clipPath><clipPath id="clip74"><rect x="1" y="0" width="28" height="40"/></clipPath><clipPath id="clip75"><rect x="0" y="0" width="29" height="41"/></clipPath></defs><g clip-path="url(#clip25)" transform="translate(-1759 -1872)"><g clip-path="url(#clip26)" filter="url(#fx0)" transform="translate(1816 1969)"><g clip-path="url(#clip27)"><path d="M90.6686 1.41377 106.839 37.8073 106.839 40.8064 90.6686 77.2404 86.3322 75.7004 99.3414 39.3068 86.3322 2.87276ZM16.9684 1.41377 21.2643 2.95381 8.25505 39.3474 21.2643 75.7814 16.9684 77.2404 0.798023 40.8469 0.798023 37.8479Z" fill-rule="evenodd"/></g></g><path d="M1903.93 1968.12 1920.1 2004.51 1920.1 2007.51 1903.93 2043.94 1899.59 2042.4 1912.6 2006.01 1899.59 1969.58ZM1830.23 1968.12 1834.53 1969.66 1821.52 2006.05 1834.53 2042.48 1830.23 2043.94 1814.06 2007.55 1814.06 2004.55Z" fill-rule="evenodd"/><g clip-path="url(#clip28)" filter="url(#fx1)" transform="translate(1843 1976)"><g clip-path="url(#clip29)"><path d="M17.5151 29.052 12.4897 52.2742C14.1379 52.3822 16.1642 52.4363 18.5688 52.4363 22.6756 52.4363 25.7624 51.9702 27.8293 51.0381 29.8962 50.106 31.6727 48.4511 33.1587 46.0735 34.6447 43.6959 35.3877 40.7644 35.3877 37.2791 35.3877 34.5502 34.4893 32.4968 32.6926 31.1189 30.8959 29.741 28.2144 29.052 24.6479 29.052ZM29.5112 4.24927C27.1606 4.24927 24.9722 4.2898 22.9458 4.37085L18.3662 25.4856 24.0806 25.4856C27.2687 25.4856 29.8017 25.2289 31.6794 24.7156 33.5572 24.2022 35.2121 23.2836 36.644 21.9597 38.076 20.6358 39.1162 19.1836 39.7646 17.603 40.4131 16.0225 40.7373 14.192 40.7373 12.1116 40.7373 10.9498 40.5347 9.86231 40.1294 8.84912 39.7241 7.83594 39.0284 6.97136 38.0422 6.25537 37.0561 5.53939 35.9213 5.02604 34.6379 4.71534 33.3546 4.40463 31.6457 4.24927 29.5112 4.24927ZM11.3145 0.682865 31.3755 0.682865C35.4282 0.682865 38.6772 1.1084 41.1223 1.95948 43.5675 2.81055 45.3642 4.06015 46.5124 5.70826 47.6607 7.35637 48.2349 9.42326 48.2349 11.9089 48.2349 15.4483 47.1541 18.5352 44.9927 21.1694 42.8312 23.8037 39.616 25.8233 35.3472 27.2283L35.2661 27.6741C37.7788 28.6737 39.7106 30.099 41.0615 31.9497 42.4124 33.8005 43.0879 35.9011 43.0879 38.2517 43.0879 41.8451 42.2638 44.9185 40.6157 47.4717 38.9676 50.0249 36.4954 52.085 33.1992 53.6521 29.903 55.2192 25.0802 56.0027 18.731 56.0027L0.69629 56.0027 1.14209 54.0168C2.16878 53.8547 2.9388 53.5913 3.45215 53.2266 3.9655 52.8618 4.39779 52.3552 4.74902 51.7068 5.10026 51.0583 5.42448 50.2681 5.72168 49.3359 6.01888 48.4038 6.46468 46.6003 7.05908 43.9255L13.9487 12.7195C14.5431 10.0177 14.8403 7.88322 14.8403 6.31617 14.8403 4.99228 14.5296 4.07365 13.9082 3.56031 13.2868 3.04696 12.2736 2.74976 10.8687 2.6687Z" fill-rule="evenodd"/></g></g><path d="M1857.78 2002.75 1852.75 2025.98C1854.4 2026.08 1856.43 2026.14 1858.83 2026.14 1862.94 2026.14 1866.02 2025.67 1868.09 2024.74 1870.16 2023.81 1871.93 2022.15 1873.42 2019.78 1874.91 2017.4 1875.65 2014.47 1875.65 2010.98 1875.65 2008.25 1874.75 2006.2 1872.95 2004.82 1871.16 2003.44 1868.48 2002.75 1864.91 2002.75ZM1869.77 1977.95C1867.42 1977.95 1865.23 1977.99 1863.21 1978.07L1858.63 1999.19 1864.34 1999.19C1867.53 1999.19 1870.06 1998.93 1871.94 1998.42 1873.82 1997.91 1875.47 1996.99 1876.91 1995.66 1878.34 1994.34 1879.38 1992.89 1880.03 1991.31 1880.68 1989.73 1881 1987.89 1881 1985.81 1881 1984.65 1880.8 1983.57 1880.39 1982.55 1879.99 1981.54 1879.29 1980.67 1878.3 1979.96 1877.32 1979.24 1876.18 1978.73 1874.9 1978.42 1873.62 1978.11 1871.91 1977.95 1869.77 1977.95ZM1851.58 1974.39 1871.64 1974.39C1875.69 1974.39 1878.94 1974.81 1881.38 1975.66 1883.83 1976.51 1885.63 1977.76 1886.77 1979.41 1887.92 1981.06 1888.5 1983.13 1888.5 1985.61 1888.5 1989.15 1887.42 1992.24 1885.25 1994.87 1883.09 1997.51 1879.88 1999.53 1875.61 2000.93L1875.53 2001.38C1878.04 2002.38 1879.97 2003.8 1881.32 2005.65 1882.67 2007.5 1883.35 2009.6 1883.35 2011.95 1883.35 2015.55 1882.53 2018.62 1880.88 2021.17 1879.23 2023.73 1876.76 2025.79 1873.46 2027.35 1870.17 2028.92 1865.34 2029.71 1858.99 2029.71L1840.96 2029.71 1841.4 2027.72C1842.43 2027.56 1843.2 2027.29 1843.71 2026.93 1844.23 2026.56 1844.66 2026.06 1845.01 2025.41 1845.36 2024.76 1845.69 2023.97 1845.98 2023.04 1846.28 2022.11 1846.73 2020.3 1847.32 2017.63L1854.21 1986.42C1854.81 1983.72 1855.1 1981.59 1855.1 1980.02 1855.1 1978.7 1854.79 1977.78 1854.17 1977.26 1853.55 1976.75 1852.54 1976.45 1851.13 1976.37Z" fill-rule="evenodd"/><text fill="#000000" fill-opacity="0" font-family="Arial,Arial_MSFontService,sans-serif" font-size="55.3198" x="1840.96" y="2022.79">𝐵</text><g clip-path="url(#clip30)" filter="url(#fx2)" transform="translate(1956 1996)"><g clip-path="url(#clip31)"><path d="M0.64563 18.0085 50.5753 18.0085 50.5753 23.3987 0.64563 23.3987ZM0.64563 1.1897 50.5753 1.1897 50.5753 6.57984 0.64563 6.57984Z" fill-rule="evenodd"/></g></g><path d="M1953.91 2011.71 2003.84 2011.71 2003.84 2017.1 1953.91 2017.1ZM1953.91 1994.89 2003.84 1994.89 2003.84 2000.28 1953.91 2000.28Z" fill-rule="evenodd"/><text fill="#000000" fill-opacity="0" font-family="Arial,Arial_MSFontService,sans-serif" font-size="22.209" x="1953.91" y="2014.33">=</text><g clip-path="url(#clip32)" filter="url(#fx3)" transform="translate(2039 1992)"><g clip-path="url(#clip33)"><path d="M101.445 5.47339C99.9315 5.47339 98.6279 5.7098 97.5337 6.18262 96.4394 6.65544 95.352 7.4187 94.2712 8.47241 93.1905 9.52613 92.4272 10.5461 91.9814 11.5322 91.5356 12.5184 91.3127 13.5789 91.3127 14.7136L91.3127 25.4128C91.3127 28.0066 91.4748 30.0059 91.7991 31.4109 92.1233 32.8158 92.6974 33.9574 93.5215 34.8354 94.3455 35.7135 95.3182 36.3687 96.4394 36.801 97.5607 37.2333 99.0399 37.4495 100.877 37.4495 104.146 37.4495 106.605 36.0918 108.253 33.3765 109.901 30.6611 110.725 26.6557 110.725 21.3601 110.725 10.769 107.632 5.47339 101.445 5.47339ZM17.7971 3.77124C15.0142 3.77124 12.792 4.88575 11.1304 7.11475 9.46875 9.34375 8.48934 12.5252 8.19214 16.6589L25.9026 16.6589C25.7405 13.741 25.3757 11.3566 24.8083 9.50586 24.241 7.65511 23.3899 6.23666 22.2551 5.25049 21.1204 4.26433 19.6344 3.77124 17.7971 3.77124ZM38.1008 1.25855 53.9875 1.25855 53.9875 3.24439C51.8531 3.56861 50.7859 4.40617 50.7859 5.75708 50.7859 6.3785 50.9277 6.99992 51.2114 7.62134 51.4951 8.24276 51.9342 8.93172 52.5286 9.68823L57.4729 16.6184 62.7414 9.9314C63.3088 9.20191 63.7681 8.49268 64.1194 7.80371 64.4706 7.11475 64.6462 6.40552 64.6462 5.67603 64.6462 5.05461 64.4166 4.54126 63.9573 4.13599 63.498 3.73072 62.782 3.43352 61.8093 3.24439L61.8093 1.25855 75.0618 1.25855 75.0618 3.24439C74.0351 3.54159 72.9881 4.12248 71.9209 4.98706 70.8537 5.85165 69.55 7.24309 68.01 9.16138L59.6208 19.4553 68.8611 31.8972C70.185 33.6804 71.3738 35.0448 72.4275 35.9905 73.4812 36.9361 74.5349 37.6116 75.5886 38.0168L75.5886 40.0027 59.2966 40.0027 59.2966 38.0168C61.5391 37.7467 62.6604 36.9091 62.6604 35.5042 62.6604 34.9368 62.5658 34.3964 62.3767 33.8831 62.1876 33.3697 61.8363 32.7753 61.323 32.0999L55.4465 23.9133 49.2053 32.0188C48.746 32.6132 48.388 33.1603 48.1313 33.6602 47.8747 34.16 47.7463 34.7206 47.7463 35.342 47.7463 36.0715 47.9963 36.6727 48.4961 37.1455 48.9959 37.6183 49.7862 37.9088 50.8669 38.0168L50.8669 40.0027 37.3308 40.0027 37.3308 38.0168C38.2224 37.6926 39.0262 37.2874 39.7422 36.801 40.4582 36.3147 41.1877 35.6865 41.9307 34.9165 42.6737 34.1465 43.6531 33.0185 44.8689 31.5325L53.2986 21.0764 44.6663 9.24244C43.4775 7.62134 42.5318 6.44605 41.8293 5.71656 41.1269 4.98706 40.4784 4.43319 39.884 4.05494 39.2896 3.67668 38.6952 3.4065 38.1008 3.24439ZM104.484 0.610111C108.942 0.610111 112.367 2.27849 114.758 5.61524 117.149 8.95199 118.344 13.8355 118.344 20.2659 118.344 24.7239 117.669 28.4727 116.318 31.5122 114.967 34.5518 113.002 36.8348 110.421 38.3613 107.841 39.8879 104.768 40.6511 101.201 40.6511 99.2021 40.6511 97.3918 40.4823 95.7707 40.1445 94.1497 39.8068 92.6637 39.3542 91.3127 38.7869L91.3127 47.3381C91.3127 49.0943 91.3735 50.4047 91.4951 51.2693 91.6167 52.1339 91.8328 52.8161 92.1435 53.3159 92.4543 53.8158 92.9001 54.2278 93.4809 54.552 94.0618 54.8762 95.0007 55.1734 96.2976 55.4436L96.2976 57.4294 79.7624 57.4294 79.7624 55.4436C80.7351 55.1734 81.5254 54.8965 82.1333 54.6128 82.7412 54.3291 83.2073 53.9103 83.5315 53.3564 83.8557 52.8026 84.0719 52.0528 84.1799 51.1072 84.288 50.1615 84.342 48.9052 84.342 47.3381L84.342 12.5657C84.342 10.6204 84.315 9.23568 84.261 8.41162 84.2069 7.58757 84.0989 6.90536 83.9368 6.36499 83.7747 5.82463 83.5382 5.37883 83.2275 5.02759 82.9168 4.67635 82.498 4.37915 81.9712 4.13599 81.4443 3.89283 80.573 3.64966 79.3572 3.4065L79.3572 1.25855 88.8811 0.893803 91.3533 0.893803 90.8264 7.49976 91.4343 7.66187C93.1095 5.95972 94.4333 4.72364 95.406 3.95362 96.3787 3.1836 97.3851 2.54192 98.4253 2.02857 99.4655 1.51522 100.465 1.15047 101.424 0.93433 102.383 0.718185 103.403 0.610111 104.484 0.610111ZM18.2024 0.569584C20.9312 0.569584 23.2548 1.00188 25.1731 1.86646 27.0914 2.73104 28.6247 3.91309 29.7729 5.4126 30.9212 6.91211 31.8128 8.80339 32.4478 11.0864 33.0827 13.3695 33.4407 16.3482 33.5217 20.0227L7.9895 20.0227 7.9895 20.7522C7.9895 23.9404 8.34749 26.6219 9.06348 28.7969 9.77946 30.9718 10.9548 32.674 12.5894 33.9033 14.224 35.1327 16.3516 35.7473 18.9724 35.7473 21.1879 35.7473 23.1805 35.3353 24.9502 34.5112 26.7199 33.6872 28.4828 32.343 30.239 30.4788L32.7112 33.113C30.982 34.9233 29.3947 36.3417 27.9492 37.3684 26.5037 38.3951 24.9164 39.1989 23.1873 39.7798 21.4581 40.3607 19.5533 40.6511 17.4729 40.6511 11.9071 40.6511 7.70581 38.9827 4.8689 35.646 2.03198 32.3092 0.613526 27.3852 0.613526 20.8738 0.613526 16.8481 1.33627 13.2952 2.78174 10.2151 4.22722 7.13501 6.28735 4.75741 8.96216 3.08228 11.637 1.40715 14.717 0.569584 18.2024 0.569584Z" fill-rule="evenodd"/></g></g><path d="M2137.71 1995.18C2136.19 1995.18 2134.89 1995.41 2133.8 1995.89 2132.7 1996.36 2131.61 1997.12 2130.53 1998.18 2129.45 1999.23 2128.69 2000.25 2128.24 2001.23 2127.8 2002.22 2127.57 2003.28 2127.57 2004.42L2127.57 2015.12C2127.57 2017.71 2127.74 2019.71 2128.06 2021.11 2128.39 2022.52 2128.96 2023.66 2129.78 2024.54 2130.61 2025.42 2131.58 2026.07 2132.7 2026.5 2133.82 2026.94 2135.3 2027.15 2137.14 2027.15 2140.41 2027.15 2142.87 2025.79 2144.52 2023.08 2146.16 2020.36 2146.99 2016.36 2146.99 2011.06 2146.99 2000.47 2143.89 1995.18 2137.71 1995.18ZM2054.06 1993.47C2051.28 1993.47 2049.05 1994.59 2047.39 1996.82 2045.73 1999.05 2044.75 2002.23 2044.45 2006.36L2062.16 2006.36C2062 2003.44 2061.64 2001.06 2061.07 1999.21 2060.5 1997.36 2059.65 1995.94 2058.52 1994.95 2057.38 1993.97 2055.9 1993.47 2054.06 1993.47ZM2074.36 1990.96 2090.25 1990.96 2090.25 1992.95C2088.12 1993.27 2087.05 1994.11 2087.05 1995.46 2087.05 1996.08 2087.19 1996.7 2087.47 1997.32 2087.76 1997.95 2088.2 1998.63 2088.79 1999.39L2093.74 2006.32 2099 1999.63C2099.57 1998.9 2100.03 1998.2 2100.38 1997.51 2100.73 1996.82 2100.91 1996.11 2100.91 1995.38 2100.91 1994.76 2100.68 1994.24 2100.22 1993.84 2099.76 1993.43 2099.04 1993.14 2098.07 1992.95L2098.07 1990.96 2111.32 1990.96 2111.32 1992.95C2110.3 1993.24 2109.25 1993.83 2108.18 1994.69 2107.12 1995.55 2105.81 1996.95 2104.27 1998.86L2095.88 2009.16 2105.12 2021.6C2106.45 2023.38 2107.64 2024.75 2108.69 2025.69 2109.74 2026.64 2110.8 2027.31 2111.85 2027.72L2111.85 2029.71 2095.56 2029.71 2095.56 2027.72C2097.8 2027.45 2098.92 2026.61 2098.92 2025.21 2098.92 2024.64 2098.83 2024.1 2098.64 2023.59 2098.45 2023.07 2098.1 2022.48 2097.59 2021.8L2091.71 2013.62 2085.47 2021.72C2085.01 2022.32 2084.65 2022.86 2084.39 2023.36 2084.14 2023.86 2084.01 2024.42 2084.01 2025.04 2084.01 2025.77 2084.26 2026.38 2084.76 2026.85 2085.26 2027.32 2086.05 2027.61 2087.13 2027.72L2087.13 2029.71 2073.59 2029.71 2073.59 2027.72C2074.48 2027.4 2075.29 2026.99 2076 2026.5 2076.72 2026.02 2077.45 2025.39 2078.19 2024.62 2078.94 2023.85 2079.92 2022.72 2081.13 2021.24L2089.56 2010.78 2080.93 1998.95C2079.74 1997.32 2078.79 1996.15 2078.09 1995.42 2077.39 1994.69 2076.74 1994.14 2076.15 1993.76 2075.55 1993.38 2074.96 1993.11 2074.36 1992.95ZM2140.75 1990.31C2145.2 1990.31 2148.63 1991.98 2151.02 1995.32 2153.41 1998.65 2154.61 2003.54 2154.61 2009.97 2154.61 2014.43 2153.93 2018.18 2152.58 2021.21 2151.23 2024.25 2149.26 2026.54 2146.68 2028.06 2144.1 2029.59 2141.03 2030.35 2137.46 2030.35 2135.46 2030.35 2133.65 2030.19 2132.03 2029.85 2130.41 2029.51 2128.93 2029.06 2127.57 2028.49L2127.57 2037.04C2127.57 2038.8 2127.64 2040.11 2127.76 2040.97 2127.88 2041.84 2128.09 2042.52 2128.41 2043.02 2128.72 2043.52 2129.16 2043.93 2129.74 2044.25 2130.32 2044.58 2131.26 2044.88 2132.56 2045.15L2132.56 2047.13 2116.02 2047.13 2116.02 2045.15C2117 2044.88 2117.79 2044.6 2118.4 2044.32 2119 2044.03 2119.47 2043.61 2119.79 2043.06 2120.12 2042.51 2120.33 2041.76 2120.44 2040.81 2120.55 2039.86 2120.6 2038.61 2120.6 2037.04L2120.6 2002.27C2120.6 2000.32 2120.58 1998.94 2120.52 1998.11 2120.47 1997.29 2120.36 1996.61 2120.2 1996.07 2120.04 1995.53 2119.8 1995.08 2119.49 1994.73 2119.18 1994.38 2118.76 1994.08 2118.23 1993.84 2117.71 1993.6 2116.84 1993.35 2115.62 1993.11L2115.62 1990.96 2125.14 1990.6 2127.62 1990.6 2127.09 1997.2 2127.7 1997.36C2129.37 1995.66 2130.7 1994.43 2131.67 1993.66 2132.64 1992.89 2133.65 1992.24 2134.69 1991.73 2135.73 1991.22 2136.73 1990.85 2137.69 1990.64 2138.65 1990.42 2139.67 1990.31 2140.75 1990.31ZM2054.46 1990.27C2057.19 1990.27 2059.52 1990.7 2061.44 1991.57 2063.35 1992.43 2064.89 1993.62 2066.04 1995.12 2067.18 1996.61 2068.07 1998.51 2068.71 2000.79 2069.34 2003.07 2069.7 2006.05 2069.78 2009.73L2044.25 2009.73 2044.25 2010.45C2044.25 2013.64 2044.61 2016.32 2045.33 2018.5 2046.04 2020.67 2047.22 2022.38 2048.85 2023.61 2050.49 2024.84 2052.61 2025.45 2055.23 2025.45 2057.45 2025.45 2059.44 2025.04 2061.21 2024.21 2062.98 2023.39 2064.75 2022.05 2066.5 2020.18L2068.97 2022.82C2067.24 2024.63 2065.66 2026.04 2064.21 2027.07 2062.77 2028.1 2061.18 2028.9 2059.45 2029.48 2057.72 2030.06 2055.82 2030.35 2053.74 2030.35 2048.17 2030.35 2043.97 2028.69 2041.13 2025.35 2038.29 2022.01 2036.88 2017.09 2036.88 2010.58 2036.88 2006.55 2037.6 2003 2039.04 1999.92 2040.49 1996.84 2042.55 1994.46 2045.22 1992.79 2047.9 1991.11 2050.98 1990.27 2054.46 1990.27Z" fill-rule="evenodd"/><text fill="#000000" fill-opacity="0" font-family="Arial,Arial_MSFontService,sans-serif" font-size="56.8599" x="2036.88" y="2040.02">exp</text><g clip-path="url(#clip34)" filter="url(#fx4)" transform="translate(2183 1903)"><g clip-path="url(#clip35)"><path d="M1043.71 0.553951 1064.54 0.553951 1064.54 210.04 1043.71 210.04 1043.71 206.149 1056.64 206.149 1056.64 4.44457 1043.71 4.44457ZM1.39017 0.553951 22.2212 0.553951 22.2212 4.44457 9.29297 4.44457 9.29297 206.149 22.2212 206.149 22.2212 210.04 1.39017 210.04Z" fill-rule="evenodd"/></g></g><path d="M3223.97 1901.26 3244.81 1901.26 3244.81 2110.74 3223.97 2110.74 3223.97 2106.85 3236.9 2106.85 3236.9 1905.15 3223.97 1905.15ZM2181.65 1901.26 2202.48 1901.26 2202.48 1905.15 2189.56 1905.15 2189.56 2106.85 2202.48 2106.85 2202.48 2110.74 2181.65 2110.74Z" fill-rule="evenodd"/><g clip-path="url(#clip36)" filter="url(#fx5)" transform="translate(2212 2005)"><g clip-path="url(#clip37)"><path d="M0.899903 0.578859 50.8296 0.578859 50.8296 5.969 0.899903 5.969Z" fill-rule="evenodd"/></g></g><path d="M2210.16 2003.28 2260.09 2003.28 2260.09 2008.67 2210.16 2008.67Z" fill-rule="evenodd"/><text fill="#000000" fill-opacity="0" font-family="Arial,Arial_MSFontService,sans-serif" font-size="5.39014" x="2210.16" y="2008">−</text><g clip-path="url(#clip38)" filter="url(#fx6)" transform="translate(2289 1913)"><g clip-path="url(#clip39)"><path d="M19.667 0.586552 21.896 0.586552C21.7339 3.1803 21.6528 6.77372 21.6528 11.3668L21.6528 45.9772C21.6528 47.5442 21.7406 48.7263 21.9163 49.5233 22.0919 50.3204 22.4026 50.9688 22.8484 51.4686 23.2942 51.9685 23.9359 52.3602 24.7734 52.6439 25.611 52.9276 26.6647 53.1438 27.9346 53.2924 29.2044 53.441 30.8796 53.5423 32.96 53.5963L32.96 56.5548 3.01025 56.5548 3.01025 53.5963C6.00928 53.4612 8.15047 53.2789 9.43384 53.0492 10.7172 52.8195 11.6966 52.4751 12.3721 52.0157 13.0475 51.5564 13.5406 50.908 13.8513 50.0704 14.162 49.2329 14.3174 47.8685 14.3174 45.9772L14.3174 13.1095C14.3174 12.0288 14.1283 11.2385 13.75 10.7387 13.3717 10.2388 12.8179 9.9889 12.0884 9.9889 11.2238 9.9889 9.99446 10.4347 8.40039 11.3263 6.80631 12.2179 4.83398 13.4472 2.4834 15.0143L0.700195 11.8937Z" fill-rule="evenodd"/></g></g><path d="M2305.93 1911.29 2308.16 1911.29C2308 1913.88 2307.92 1917.48 2307.92 1922.07L2307.92 1956.68C2307.92 1958.25 2308 1959.43 2308.18 1960.23 2308.35 1961.02 2308.66 1961.67 2309.11 1962.17 2309.56 1962.67 2310.2 1963.06 2311.04 1963.35 2311.87 1963.63 2312.93 1963.85 2314.2 1963.99 2315.47 1964.14 2317.14 1964.24 2319.22 1964.3L2319.22 1967.26 2289.27 1967.26 2289.27 1964.3C2292.27 1964.16 2294.41 1963.98 2295.7 1963.75 2296.98 1963.52 2297.96 1963.18 2298.63 1962.72 2299.31 1962.26 2299.8 1961.61 2300.11 1960.77 2300.42 1959.94 2300.58 1958.57 2300.58 1956.68L2300.58 1923.81C2300.58 1922.73 2300.39 1921.94 2300.01 1921.44 2299.63 1920.94 2299.08 1920.69 2298.35 1920.69 2297.49 1920.69 2296.26 1921.14 2294.66 1922.03 2293.07 1922.92 2291.1 1924.15 2288.75 1925.72L2286.96 1922.6Z" fill-rule="evenodd"/><text fill="#000000" fill-opacity="0" font-family="Arial,Arial_MSFontService,sans-serif" font-size="55.9683" x="2286.96" y="1960.26">1</text><g clip-path="url(#clip40)" filter="url(#fx7)" transform="translate(2287 2030)"><g clip-path="url(#clip41)"><path d="M18.7895 1.21778C23.8149 1.21778 27.611 2.31877 30.1777 4.52076 32.7445 6.72274 34.0278 9.91764 34.0278 14.1055 34.0278 15.5374 33.886 16.8546 33.6023 18.0569 33.3186 19.2592 32.8728 20.448 32.2649 21.6233 31.657 22.7986 30.8397 24.0617 29.813 25.4126 28.7863 26.7635 27.6515 28.1347 26.4087 29.5261 25.1658 30.9176 23.0179 33.2344 19.9648 36.4766 14.8314 41.9072 11.0623 46.6489 8.65771 50.7017L23.9365 50.7017C25.2604 50.7017 26.3276 50.6206 27.1382 50.4585 27.9487 50.2964 28.5972 50.0262 29.0835 49.6479 29.5698 49.2697 29.9548 48.7766 30.2385 48.1687 30.5222 47.5608 30.8802 46.6219 31.3125 45.3521L34.7573 45.3521 34.0684 57.186 0.714355 57.186 0.714355 55.2407C1.87614 52.4038 3.4432 49.4993 5.41553 46.5273 7.38786 43.5553 10.1842 40.0565 13.8047 36.0308 16.9388 32.5724 19.1948 29.9517 20.5728 28.1685 22.0858 26.2231 23.2138 24.5413 23.9568 23.1228 24.6998 21.7043 25.2334 20.3669 25.5576 19.1106 25.8818 17.8543 26.0439 16.5911 26.0439 15.3213 26.0439 13.2949 25.7197 11.505 25.0713 9.95142 24.4228 8.39787 23.4299 7.1753 22.0925 6.2837 20.7551 5.39209 19.0732 4.94629 17.0469 4.94629 11.9945 4.94629 8.59017 7.75619 6.83398 13.376L1.93018 13.376 1.93018 5.59473C5.19938 4.05469 8.2592 2.94019 11.1096 2.25122 13.96 1.56226 16.52 1.21778 18.7895 1.21778Z" fill-rule="evenodd"/></g></g><path d="M2303.05 2028.92C2308.08 2028.92 2311.87 2030.02 2314.44 2032.22 2317.01 2034.43 2318.29 2037.62 2318.29 2041.81 2318.29 2043.24 2318.15 2044.56 2317.86 2045.76 2317.58 2046.96 2317.14 2048.15 2316.53 2049.33 2315.92 2050.5 2315.1 2051.76 2314.08 2053.12 2313.05 2054.47 2311.91 2055.84 2310.67 2057.23 2309.43 2058.62 2307.28 2060.94 2304.23 2064.18 2299.09 2069.61 2295.32 2074.35 2292.92 2078.4L2308.2 2078.4C2309.52 2078.4 2310.59 2078.32 2311.4 2078.16 2312.21 2078 2312.86 2077.73 2313.35 2077.35 2313.83 2076.97 2314.22 2076.48 2314.5 2075.87 2314.78 2075.26 2315.14 2074.32 2315.57 2073.05L2319.02 2073.05 2318.33 2084.89 2284.98 2084.89 2284.98 2082.94C2286.14 2080.11 2287.71 2077.2 2289.68 2074.23 2291.65 2071.26 2294.45 2067.76 2298.07 2063.73 2301.2 2060.28 2303.46 2057.65 2304.83 2055.87 2306.35 2053.93 2307.48 2052.24 2308.22 2050.83 2308.96 2049.41 2309.5 2048.07 2309.82 2046.81 2310.14 2045.56 2310.31 2044.29 2310.31 2043.02 2310.31 2041 2309.98 2039.21 2309.33 2037.65 2308.69 2036.1 2307.69 2034.88 2306.35 2033.99 2305.02 2033.09 2303.34 2032.65 2301.31 2032.65 2296.26 2032.65 2292.85 2035.46 2291.1 2041.08L2286.19 2041.08 2286.19 2033.3C2289.46 2031.76 2292.52 2030.64 2295.37 2029.95 2298.22 2029.26 2300.78 2028.92 2303.05 2028.92Z" fill-rule="evenodd"/><text fill="#000000" fill-opacity="0" font-family="Arial,Arial_MSFontService,sans-serif" font-size="55.9683" x="2284.98" y="2077.89">2</text><g clip-path="url(#clip42)" filter="url(#fx8)" transform="translate(2281 2005)"><g clip-path="url(#clip43)"><path d="M1.09457 0.996452 47.0945 0.996452 47.0945 5.99645 1.09457 5.99645Z" fill-rule="evenodd"/></g></g><path d="M2279.36 2003.7 2325.36 2003.7 2325.36 2008.7 2279.36 2008.7Z" fill-rule="evenodd"/><g clip-path="url(#clip44)" filter="url(#fx9)" transform="translate(2345 1918)"><g clip-path="url(#clip45)"><path d="M47.8098 1.04932C49.2418 1.04932 50.5454 1.17767 51.7207 1.43433 52.896 1.691 53.8889 2.00848 54.6995 2.38673L53.9294 10.8569 49.4309 10.8569C49.3498 9.37093 49.0256 8.24293 48.4582 7.47291 47.8909 6.70289 46.8507 6.31788 45.3376 6.31788 41.5551 6.31788 38.7992 10.5732 37.0701 19.084 35.3409 27.5947 33.7873 51.0871 32.4094 89.561 31.0315 124.171 28.3499 147.826 24.3647 160.524 20.3796 173.223 14.9962 179.572 8.2146 179.572 6.83667 179.572 5.56681 179.464 4.40503 179.248 3.24325 179.032 2.21655 178.681 1.32495 178.194L2.09497 169.319 6.18823 169.319C6.5935 171.102 7.12036 172.352 7.7688 173.068 8.41724 173.784 9.4034 174.142 10.7273 174.142 13.1589 174.142 15.496 169.94 17.7385 161.538 19.981 153.135 21.7372 131.156 23.0071 95.5996 24.5741 57.0176 27.0936 31.6137 30.5654 19.3879 34.0373 7.16219 39.7854 1.04932 47.8098 1.04932Z" fill-rule="evenodd"/></g></g><path d="M2390.07 1916.75C2391.5 1916.75 2392.81 1916.88 2393.98 1917.14 2395.16 1917.39 2396.15 1917.71 2396.96 1918.09L2396.19 1926.56 2391.69 1926.56C2391.61 1925.07 2391.29 1923.95 2390.72 1923.18 2390.15 1922.41 2389.11 1922.02 2387.6 1922.02 2383.82 1922.02 2381.06 1926.28 2379.33 1934.79 2377.6 1943.3 2376.05 1966.79 2374.67 2005.26 2373.29 2039.87 2370.61 2063.53 2366.63 2076.23 2362.64 2088.93 2357.26 2095.27 2350.48 2095.27 2349.1 2095.27 2347.83 2095.17 2346.67 2094.95 2345.51 2094.73 2344.48 2094.38 2343.59 2093.9L2344.36 2085.02 2348.45 2085.02C2348.86 2086.8 2349.38 2088.05 2350.03 2088.77 2350.68 2089.49 2351.67 2089.84 2352.99 2089.84 2355.42 2089.84 2357.76 2085.64 2360 2077.24 2362.24 2068.84 2364 2046.86 2365.27 2011.3 2366.84 1972.72 2369.36 1947.32 2372.83 1935.09 2376.3 1922.86 2382.05 1916.75 2390.07 1916.75Z" fill-rule="evenodd"/><text fill="#000000" fill-opacity="0" font-family="Arial,Arial_MSFontService,sans-serif" font-size="178.523" x="2343.59" y="2072.96">න</text><g clip-path="url(#clip46)" filter="url(#fx10)" transform="translate(2469 1976)"><g clip-path="url(#clip47)"><path d="M22.1138 0.682865 38.3247 0.682865 37.8789 2.6687C36.8522 2.88485 36.116 3.12802 35.6702 3.3982 35.2244 3.66838 34.8191 4.07365 34.4543 4.61402 34.0896 5.15438 33.7249 5.9987 33.3601 7.14698 32.9954 8.29525 32.5293 10.1663 31.9619 12.76L22.8433 54.26C21.9246 58.4749 20.7493 61.8319 19.3174 64.3311 17.8854 66.8302 16.0279 68.681 13.7449 69.8833 11.4618 71.0856 8.65869 71.6868 5.33545 71.6868 3.76839 71.6868 2.48503 71.5517 1.48535 71.2815L2.53906 67.3909C3.10645 67.607 4.13314 67.7151 5.61914 67.7151 8.18587 67.7151 10.1987 66.7222 11.6577 64.7363 13.1167 62.7505 14.319 59.6501 15.2646 55.4353L24.748 12.7195C25.3424 10.0447 25.6396 7.86972 25.6396 6.19458 25.6396 4.92472 25.3222 4.03988 24.6873 3.54004 24.0523 3.0402 23.0459 2.74976 21.668 2.6687Z" fill-rule="evenodd"/></g></g><path d="M2488.38 1974.39 2504.59 1974.39 2504.14 1976.37C2503.11 1976.59 2502.38 1976.83 2501.93 1977.1 2501.49 1977.37 2501.08 1977.78 2500.72 1978.32 2500.35 1978.86 2499.99 1979.7 2499.62 1980.85 2499.26 1982 2498.79 1983.87 2498.22 1986.46L2489.11 2027.96C2488.19 2032.18 2487.01 2035.53 2485.58 2038.03 2484.15 2040.53 2482.29 2042.38 2480.01 2043.59 2477.72 2044.79 2474.92 2045.39 2471.6 2045.39 2470.03 2045.39 2468.75 2045.25 2467.75 2044.98L2468.8 2041.09C2469.37 2041.31 2470.4 2041.42 2471.88 2041.42 2474.45 2041.42 2476.46 2040.42 2477.92 2038.44 2479.38 2036.45 2480.58 2033.35 2481.53 2029.14L2491.01 1986.42C2491.6 1983.75 2491.9 1981.57 2491.9 1979.9 2491.9 1978.63 2491.58 1977.74 2490.95 1977.24 2490.31 1976.74 2489.31 1976.45 2487.93 1976.37Z" fill-rule="evenodd"/><text fill="#000000" fill-opacity="0" font-family="Arial,Arial_MSFontService,sans-serif" font-size="71.0039" x="2467.75" y="2036.51">𝐽</text><g clip-path="url(#clip48)" filter="url(#fx11)" transform="translate(2517 1969)"><g clip-path="url(#clip49)"><path d="M92.3226 0.888611C100.212 2.96902 106.271 7.46079 110.499 14.364 114.727 21.2671 116.842 29.5955 116.842 39.3491 116.842 49.1297 114.734 57.458 110.519 64.3342 106.305 71.2103 100.239 75.6886 92.3226 77.769L91.3499 74.6484C97.5911 72.568 102.232 68.4612 105.271 62.328 108.311 56.1949 109.83 48.4002 109.83 38.9438 109.83 29.8116 108.317 22.2263 105.291 16.1877 102.265 10.1491 97.5776 6.08962 91.2283 4.00922ZM25.871 0.888611 26.9653 4.00922C20.643 6.08962 15.9621 10.1491 12.9225 16.1877 9.883 22.2263 8.36322 29.8116 8.36322 38.9438 8.36322 48.4002 9.883 56.1949 12.9225 62.328 15.9621 68.4612 20.6025 72.568 26.8437 74.6484L25.871 77.769C17.9547 75.6886 11.8891 71.2103 7.67426 64.3342 3.45941 57.458 1.35199 49.1297 1.35199 39.3491 1.35199 29.5955 3.46619 21.2671 7.69452 14.364 11.9229 7.46079 17.9817 2.96902 25.871 0.888611Z" fill-rule="evenodd"/></g></g><path d="M2606.58 1967.59C2614.47 1969.67 2620.53 1974.16 2624.76 1981.07 2628.99 1987.97 2631.1 1996.3 2631.1 2006.05 2631.1 2015.83 2629 2024.16 2624.78 2031.04 2620.57 2037.91 2614.5 2042.39 2606.58 2044.47L2605.61 2041.35C2611.85 2039.27 2616.49 2035.16 2619.53 2029.03 2622.57 2022.9 2624.09 2015.1 2624.09 2005.65 2624.09 1996.51 2622.58 1988.93 2619.55 1982.89 2616.53 1976.85 2611.84 1972.79 2605.49 1970.71ZM2540.13 1967.59 2541.23 1970.71C2534.91 1972.79 2530.22 1976.85 2527.18 1982.89 2524.15 1988.93 2522.63 1996.51 2522.63 2005.65 2522.63 2015.1 2524.15 2022.9 2527.18 2029.03 2530.22 2035.16 2534.86 2039.27 2541.11 2041.35L2540.13 2044.47C2532.22 2042.39 2526.15 2037.91 2521.94 2031.04 2517.72 2024.16 2515.61 2015.83 2515.61 2006.05 2515.61 1996.3 2517.73 1987.97 2521.96 1981.07 2526.19 1974.16 2532.24 1969.67 2540.13 1967.59Z" fill-rule="evenodd"/><g clip-path="url(#clip50)" filter="url(#fx12)" transform="translate(2548 1992)"><g clip-path="url(#clip51)"><path d="M19.2197 0.569584 21.2866 3.32544C17.1798 6.6757 13.9647 10.465 11.6411 14.6934 9.31754 18.9217 8.15576 23.2919 8.15576 27.804 8.15576 30.9111 8.74341 33.2954 9.9187 34.957 11.094 36.6187 12.7489 37.4495 14.8833 37.4495 16.8826 37.4495 18.5848 36.6389 19.9897 35.0178 21.3947 33.3967 22.4349 31.0191 23.1103 27.885L26.4336 12.6062 33.2422 12.6062 30.1621 26.5476C29.8109 28.1417 29.6353 29.6277 29.6353 31.0056 29.6353 33.1671 30.1013 34.7814 31.0334 35.8486 31.9656 36.9159 33.2827 37.4495 34.9849 37.4495 37.2274 37.4495 39.2132 36.6322 40.9424 34.9976 42.6715 33.363 44.0157 30.9786 44.9748 27.8445 45.934 24.7104 46.4136 21.0629 46.4136 16.9021 46.4136 14.4434 46.0758 11.924 45.4004 9.34375 44.7249 6.76351 43.7793 4.62232 42.5635 2.92017L45.3193 0.569584C48.0212 3.13631 50.0543 5.95972 51.4187 9.0398 52.7831 12.1199 53.4653 15.4296 53.4653 18.969 53.4653 22.9407 52.6818 26.6016 51.1147 29.9519 49.5477 33.3022 47.3254 35.9229 44.448 37.8142 41.5706 39.7055 38.2811 40.6511 34.5796 40.6511 30.0946 40.6511 27.028 38.4356 25.3799 34.0046L25.2178 34.0046C24.2721 35.4906 23.2792 36.6862 22.239 37.5913 21.1988 38.4964 19.8952 39.2327 18.3281 39.8 16.7611 40.3674 14.8968 40.6511 12.7354 40.6511 10.6549 40.6511 8.74341 40.1851 7.00073 39.2529 5.25806 38.3208 3.84635 36.8618 2.76563 34.876 1.6849 32.8901 1.14453 30.4517 1.14453 27.5608 1.14453 22.6435 2.7251 17.8207 5.88623 13.0925 9.04736 8.36434 13.4919 4.19003 19.2197 0.569584Z" fill-rule="evenodd"/></g></g><path d="M2564.48 1990.27 2566.55 1993.03C2562.44 1996.38 2559.23 2000.17 2556.9 2004.4 2554.58 2008.62 2553.42 2012.99 2553.42 2017.51 2553.42 2020.61 2554.01 2023 2555.18 2024.66 2556.36 2026.32 2558.01 2027.15 2560.15 2027.15 2562.15 2027.15 2563.85 2026.34 2565.25 2024.72 2566.66 2023.1 2567.7 2020.72 2568.37 2017.59L2571.7 2002.31 2578.5 2002.31 2575.42 2016.25C2575.07 2017.84 2574.9 2019.33 2574.9 2020.71 2574.9 2022.87 2575.36 2024.48 2576.3 2025.55 2577.23 2026.62 2578.55 2027.15 2580.25 2027.15 2582.49 2027.15 2584.48 2026.33 2586.2 2024.7 2587.93 2023.07 2589.28 2020.68 2590.24 2017.55 2591.2 2014.41 2591.68 2010.77 2591.68 2006.6 2591.68 2004.15 2591.34 2001.63 2590.66 1999.05 2589.99 1996.47 2589.04 1994.33 2587.83 1992.62L2590.58 1990.27C2593.28 1992.84 2595.32 1995.66 2596.68 1998.74 2598.05 2001.82 2598.73 2005.13 2598.73 2008.67 2598.73 2012.64 2597.94 2016.3 2596.38 2019.65 2594.81 2023 2592.59 2025.63 2589.71 2027.52 2586.83 2029.41 2583.54 2030.35 2579.84 2030.35 2575.36 2030.35 2572.29 2028.14 2570.64 2023.71L2570.48 2023.71C2569.53 2025.19 2568.54 2026.39 2567.5 2027.29 2566.46 2028.2 2565.16 2028.94 2563.59 2029.5 2562.02 2030.07 2560.16 2030.35 2558 2030.35 2555.92 2030.35 2554.01 2029.89 2552.26 2028.96 2550.52 2028.02 2549.11 2026.56 2548.03 2024.58 2546.95 2022.59 2546.41 2020.15 2546.41 2017.26 2546.41 2012.35 2547.99 2007.52 2551.15 2002.8 2554.31 1998.07 2558.75 1993.89 2564.48 1990.27Z" fill-rule="evenodd"/><text fill="#000000" fill-opacity="0" font-family="Arial,Arial_MSFontService,sans-serif" font-size="40.0815" x="2546.41" y="2025.34">𝜔</text><g clip-path="url(#clip52)" filter="url(#fx13)" transform="translate(2658 1973)"><g clip-path="url(#clip53)"><path d="M54.7227 22.7712C51.4534 22.7712 48.9475 24.1897 47.2048 27.0266 45.4622 29.8635 44.5908 33.9028 44.5908 39.1443 44.5908 44.71 45.4757 48.9857 47.2454 51.9712 49.0151 54.9567 51.548 56.4495 54.8442 56.4495 56.6545 56.4495 58.1945 56.0104 59.4644 55.1323 60.7342 54.2542 61.7676 53.0722 62.5647 51.5862 63.3617 50.1002 63.9359 48.3778 64.2871 46.4189 64.6383 44.4601 64.814 42.4135 64.814 40.2791 64.814 36.3074 64.3749 33.0112 63.4968 30.3904 62.6187 27.7696 61.4232 25.8446 59.9102 24.6152 58.3971 23.3859 56.668 22.7712 54.7227 22.7712ZM54.8848 19.5696C60.6667 19.5696 65.0436 21.2515 68.0156 24.6152 70.9876 27.979 72.4736 32.8085 72.4736 39.1038 72.4736 43.5888 71.7306 47.3713 70.2446 50.4514 68.7586 53.5315 66.6512 55.8348 63.9224 57.3613 61.1935 58.8879 57.9648 59.6511 54.2363 59.6511 48.6165 59.6511 44.3274 57.9963 41.3689 54.6865 38.4104 51.3768 36.9311 46.4797 36.9311 39.9954 36.9311 35.5374 37.7079 31.7683 39.2615 28.6882 40.815 25.6082 42.9427 23.3184 45.6445 21.8189 48.3464 20.3193 51.4264 19.5696 54.8848 19.5696ZM19.0063 19.5696C21.2218 19.5696 23.2685 19.6979 25.1462 19.9546 27.024 20.2113 28.9085 20.6233 30.7998 21.1907L30.7998 29.6609 25.6528 29.6609C25.1935 27.9047 24.6261 26.52 23.9507 25.5068 23.2752 24.4937 22.4917 23.7844 21.6001 23.3792 20.7085 22.9739 19.6007 22.7712 18.2769 22.7712 16.3856 22.7712 14.7104 23.3792 13.2515 24.595 11.7925 25.8108 10.6375 27.6615 9.78638 30.1472 8.9353 32.6329 8.50977 35.6724 8.50977 39.2659 8.50977 41.5624 8.67188 43.6631 8.99609 45.5679 9.32031 47.4727 9.87419 49.1005 10.6577 50.4514 11.4412 51.8023 12.4814 52.856 13.7783 53.6125 15.0752 54.3691 16.6828 54.7473 18.6011 54.7473 20.4653 54.7473 22.2013 54.3826 23.8088 53.6531 25.4164 52.9236 27.0848 51.6402 28.814 49.803L31.124 52.4778C29.7461 53.9908 28.5303 55.1593 27.4766 55.9834 26.4229 56.8075 25.2948 57.4964 24.0925 58.0503 22.8902 58.6042 21.7014 59.0094 20.5261 59.2661 19.3508 59.5228 18.0742 59.6511 16.6963 59.6511 11.5898 59.6511 7.68571 57.9557 4.98389 54.5649 2.28207 51.1742 0.931154 46.2771 0.931154 39.8738 0.931154 35.8751 1.68766 32.3289 3.20068 29.2354 4.71371 26.1418 6.83464 23.7574 9.56348 22.0823 12.2923 20.4072 15.4399 19.5696 19.0063 19.5696ZM85.3892 10.2483 91.144 10.2483 91.144 20.2585 104.234 20.2585 104.234 24.3518 91.144 24.3518 91.144 42.3865C91.144 45.0072 91.2521 47.0944 91.4683 48.6479 91.6844 50.2015 92.0897 51.4173 92.6841 52.2954 93.2785 53.1735 93.9539 53.8017 94.7104 54.1799 95.4669 54.5582 96.4396 54.7473 97.6284 54.7473 98.7091 54.7473 99.7223 54.5244 100.668 54.0786 101.614 53.6328 102.546 52.9911 103.464 52.1536L105.288 54.342C103.37 56.2063 101.553 57.5572 99.8372 58.3948 98.1215 59.2323 96.345 59.6511 94.5078 59.6511 91.0225 59.6511 88.4287 58.6177 86.7266 56.5508 85.0244 54.4839 84.1733 51.2485 84.1733 46.8445L84.1733 24.3518 78.1753 24.3518 78.1753 22.2849C79.5262 22.0688 80.6204 21.6905 81.458 21.1502 82.2956 20.6098 82.9508 19.9141 83.4236 19.063 83.8964 18.2119 84.2679 17.1447 84.5381 15.8613 84.8083 14.578 85.0919 12.707 85.3892 10.2483ZM117.037 1.00806 119.468 1.00806 119.468 26.6213 119.63 26.6619C121.738 24.5274 123.406 23.0347 124.635 22.1836 125.865 21.3325 127.081 20.6908 128.283 20.2585 129.485 19.8263 130.775 19.6101 132.153 19.6101 133.639 19.6101 134.963 19.7857 136.125 20.137 137.287 20.4882 138.307 21.0218 139.185 21.7378 140.063 22.4538 140.779 23.3319 141.333 24.3721 141.887 25.4123 142.299 26.6551 142.569 28.1006 142.839 29.5461 142.974 31.3765 142.974 33.592L142.974 48.8708C142.974 51.2214 143.075 52.8223 143.278 53.6733 143.481 54.5244 143.845 55.1864 144.372 55.6592 144.899 56.132 145.96 56.5846 147.554 57.0168L147.554 59.0027 131.586 59.0027 131.586 57.0168C132.64 56.6926 133.396 56.4089 133.855 56.1658 134.315 55.9226 134.7 55.5849 135.01 55.1526 135.321 54.7203 135.564 54.0516 135.74 53.1465 135.916 52.2414 136.003 50.8702 136.003 49.033L136.003 38.4148C136.003 34.8214 135.821 32.0723 135.456 30.1675 135.092 28.2627 134.376 26.8375 133.308 25.8918 132.241 24.9462 130.748 24.4734 128.83 24.4734 127.749 24.4734 126.777 24.6625 125.912 25.0408 125.048 25.419 124.048 26.0945 122.913 27.0671 121.778 28.0398 120.92 29.0395 120.34 30.0662 119.759 31.0929 119.468 32.1871 119.468 33.3489L119.468 48.8708C119.468 50.7081 119.516 52.0185 119.61 52.802 119.705 53.5855 119.887 54.2407 120.157 54.7676 120.427 55.2944 120.839 55.7267 121.393 56.0645 121.947 56.4022 122.805 56.7196 123.967 57.0168L123.967 59.0027 107.918 59.0027 107.918 57.0168C109.107 56.6926 109.958 56.3819 110.471 56.0847 110.985 55.7875 111.383 55.4093 111.667 54.95 111.95 54.4906 112.16 53.8287 112.295 52.9641 112.43 52.0995 112.498 50.7351 112.498 48.8708L112.498 14.9495C112.498 12.3557 112.477 10.5455 112.437 9.5188 112.396 8.49211 112.288 7.62077 112.113 6.90479 111.937 6.18881 111.694 5.62818 111.383 5.2229 111.072 4.81763 110.654 4.49341 110.127 4.25025 109.6 4.00708 108.647 3.76392 107.27 3.52076L107.27 1.41333Z" fill-rule="evenodd"/></g></g><path d="M2709.98 1993.47C2706.72 1993.47 2704.21 1994.89 2702.47 1997.73 2700.72 2000.57 2699.85 2004.61 2699.85 2009.85 2699.85 2015.41 2700.74 2019.69 2702.51 2022.67 2704.28 2025.66 2706.81 2027.15 2710.11 2027.15 2711.92 2027.15 2713.46 2026.71 2714.73 2025.84 2716 2024.96 2717.03 2023.77 2717.83 2022.29 2718.62 2020.8 2719.2 2019.08 2719.55 2017.12 2719.9 2015.16 2720.08 2013.12 2720.08 2010.98 2720.08 2007.01 2719.64 2003.71 2718.76 2001.09 2717.88 1998.47 2716.69 1996.55 2715.17 1995.32 2713.66 1994.09 2711.93 1993.47 2709.98 1993.47ZM2710.15 1990.27C2715.93 1990.27 2720.31 1991.95 2723.28 1995.32 2726.25 1998.68 2727.74 2003.51 2727.74 2009.81 2727.74 2014.29 2726.99 2018.07 2725.51 2021.15 2724.02 2024.23 2721.91 2026.54 2719.18 2028.06 2716.46 2029.59 2713.23 2030.35 2709.5 2030.35 2703.88 2030.35 2699.59 2028.7 2696.63 2025.39 2693.67 2022.08 2692.19 2017.18 2692.19 2010.7 2692.19 2006.24 2692.97 2002.47 2694.52 1999.39 2696.08 1996.31 2698.2 1994.02 2700.91 1992.52 2703.61 1991.02 2706.69 1990.27 2710.15 1990.27ZM2674.27 1990.27C2676.48 1990.27 2678.53 1990.4 2680.41 1990.66 2682.29 1990.91 2684.17 1991.33 2686.06 1991.89L2686.06 2000.36 2680.92 2000.36C2680.46 1998.61 2679.89 1997.22 2679.21 1996.21 2678.54 1995.2 2677.75 1994.49 2676.86 1994.08 2675.97 1993.68 2674.86 1993.47 2673.54 1993.47 2671.65 1993.47 2669.97 1994.08 2668.51 1995.3 2667.05 1996.51 2665.9 1998.36 2665.05 2000.85 2664.2 2003.34 2663.77 2006.38 2663.77 2009.97 2663.77 2012.27 2663.93 2014.37 2664.26 2016.27 2664.58 2018.18 2665.14 2019.8 2665.92 2021.15 2666.7 2022.51 2667.74 2023.56 2669.04 2024.32 2670.34 2025.07 2671.95 2025.45 2673.86 2025.45 2675.73 2025.45 2677.46 2025.09 2679.07 2024.36 2680.68 2023.63 2682.35 2022.34 2684.08 2020.51L2686.39 2023.18C2685.01 2024.69 2683.79 2025.86 2682.74 2026.69 2681.69 2027.51 2680.56 2028.2 2679.35 2028.75 2678.15 2029.31 2676.96 2029.71 2675.79 2029.97 2674.61 2030.23 2673.34 2030.35 2671.96 2030.35 2666.85 2030.35 2662.95 2028.66 2660.25 2025.27 2657.54 2021.88 2656.19 2016.98 2656.19 2010.58 2656.19 2006.58 2656.95 2003.03 2658.46 1999.94 2659.98 1996.84 2662.1 1994.46 2664.83 1992.79 2667.55 1991.11 2670.7 1990.27 2674.27 1990.27ZM2740.65 1980.95 2746.41 1980.95 2746.41 1990.96 2759.5 1990.96 2759.5 1995.05 2746.41 1995.05 2746.41 2013.09C2746.41 2015.71 2746.51 2017.8 2746.73 2019.35 2746.95 2020.9 2747.35 2022.12 2747.95 2023 2748.54 2023.88 2749.22 2024.5 2749.97 2024.88 2750.73 2025.26 2751.7 2025.45 2752.89 2025.45 2753.97 2025.45 2754.98 2025.23 2755.93 2024.78 2756.88 2024.34 2757.81 2023.69 2758.73 2022.86L2760.55 2025.04C2758.63 2026.91 2756.81 2028.26 2755.1 2029.1 2753.38 2029.94 2751.61 2030.35 2749.77 2030.35 2746.28 2030.35 2743.69 2029.32 2741.99 2027.25 2740.29 2025.19 2739.44 2021.95 2739.44 2017.55L2739.44 1995.05 2733.44 1995.05 2733.44 1992.99C2734.79 1992.77 2735.88 1992.39 2736.72 1991.85 2737.56 1991.31 2738.21 1990.62 2738.69 1989.77 2739.16 1988.91 2739.53 1987.85 2739.8 1986.56 2740.07 1985.28 2740.35 1983.41 2740.65 1980.95ZM2772.3 1971.71 2774.73 1971.71 2774.73 1997.32 2774.89 1997.36C2777 1995.23 2778.67 1993.74 2779.9 1992.89 2781.13 1992.04 2782.34 1991.39 2783.55 1990.96 2784.75 1990.53 2786.04 1990.31 2787.42 1990.31 2788.9 1990.31 2790.23 1990.49 2791.39 1990.84 2792.55 1991.19 2793.57 1991.72 2794.45 1992.44 2795.33 1993.16 2796.04 1994.03 2796.59 1995.07 2797.15 1996.11 2797.56 1997.36 2797.83 1998.8 2798.1 2000.25 2798.24 2002.08 2798.24 2004.29L2798.24 2019.57C2798.24 2021.92 2798.34 2023.53 2798.54 2024.38 2798.74 2025.23 2799.11 2025.89 2799.63 2026.36 2800.16 2026.83 2801.22 2027.29 2802.82 2027.72L2802.82 2029.71 2786.85 2029.71 2786.85 2027.72C2787.9 2027.4 2788.66 2027.11 2789.12 2026.87 2789.58 2026.63 2789.96 2026.29 2790.27 2025.86 2790.58 2025.42 2790.83 2024.75 2791 2023.85 2791.18 2022.94 2791.27 2021.57 2791.27 2019.74L2791.27 2009.12C2791.27 2005.52 2791.08 2002.78 2790.72 2000.87 2790.35 1998.97 2789.64 1997.54 2788.57 1996.59 2787.5 1995.65 2786.01 1995.18 2784.09 1995.18 2783.01 1995.18 2782.04 1995.37 2781.17 1995.74 2780.31 1996.12 2779.31 1996.8 2778.18 1997.77 2777.04 1998.74 2776.18 1999.74 2775.6 2000.77 2775.02 2001.8 2774.73 2002.89 2774.73 2004.05L2774.73 2019.57C2774.73 2021.41 2774.78 2022.72 2774.87 2023.5 2774.97 2024.29 2775.15 2024.94 2775.42 2025.47 2775.69 2026 2776.1 2026.43 2776.66 2026.77 2777.21 2027.1 2778.07 2027.42 2779.23 2027.72L2779.23 2029.71 2763.18 2029.71 2763.18 2027.72C2764.37 2027.4 2765.22 2027.08 2765.73 2026.79 2766.25 2026.49 2766.65 2026.11 2766.93 2025.65 2767.21 2025.19 2767.42 2024.53 2767.56 2023.67 2767.69 2022.8 2767.76 2021.44 2767.76 2019.57L2767.76 1985.65C2767.76 1983.06 2767.74 1981.25 2767.7 1980.22 2767.66 1979.19 2767.55 1978.32 2767.37 1977.61 2767.2 1976.89 2766.96 1976.33 2766.65 1975.93 2766.33 1975.52 2765.92 1975.2 2765.39 1974.95 2764.86 1974.71 2763.91 1974.47 2762.53 1974.22L2762.53 1972.12Z" fill-rule="evenodd"/><text fill="#000000" fill-opacity="0" font-family="Arial,Arial_MSFontService,sans-serif" font-size="58.6431" x="2656.19" y="2023.02">coth</text><g clip-path="url(#clip54)" filter="url(#fx14)" transform="translate(2827 1902)"><g clip-path="url(#clip55)"><path d="M234.168 0.505546C245.272 10.016 254.087 24.2005 260.612 43.0593 267.137 61.918 270.399 82.9652 270.399 106.201 270.399 129.085 267.137 150.099 260.612 169.241 254.087 188.384 245.272 202.683 234.168 212.139L232.263 209.14C241.854 199.387 249.244 185.27 254.432 166.789 259.619 148.309 262.213 128.126 262.213 106.241 262.213 83.8433 259.605 63.5661 254.391 45.4098 249.177 27.2536 241.801 13.2987 232.263 3.5451ZM37.4346 0.505546 39.3394 3.5451C29.7749 13.2987 22.3921 27.2536 17.1912 45.4098 11.9901 63.5661 9.38965 83.8433 9.38965 106.241 9.38965 128.126 11.9834 148.309 17.1709 166.789 22.3584 185.27 29.7478 199.387 39.3394 209.14L37.4346 212.139C26.3301 202.683 17.5154 188.384 10.9905 169.241 4.46558 150.099 1.20312 129.085 1.20312 106.201 1.20312 82.9652 4.46558 61.918 10.9905 43.0593 17.5154 24.2005 26.3301 10.016 37.4346 0.505546Z" fill-rule="evenodd"/></g></g><path d="M3058.43 1900.21C3069.53 1909.72 3078.35 1923.9 3084.87 1942.76 3091.4 1961.62 3094.66 1982.67 3094.66 2005.9 3094.66 2028.79 3091.4 2049.8 3084.87 2068.94 3078.35 2088.09 3069.53 2102.39 3058.43 2111.84L3056.53 2108.84C3066.12 2099.09 3073.51 2084.97 3078.69 2066.49 3083.88 2048.01 3086.48 2027.83 3086.48 2005.94 3086.48 1983.55 3083.87 1963.27 3078.65 1945.11 3073.44 1926.96 3066.06 1913 3056.53 1903.25ZM2861.7 1900.21 2863.6 1903.25C2854.04 1913 2846.65 1926.96 2841.45 1945.11 2836.25 1963.27 2833.65 1983.55 2833.65 2005.94 2833.65 2027.83 2836.25 2048.01 2841.43 2066.49 2846.62 2084.97 2854.01 2099.09 2863.6 2108.84L2861.7 2111.84C2850.59 2102.39 2841.78 2088.09 2835.25 2068.94 2828.73 2049.8 2825.47 2028.79 2825.47 2005.9 2825.47 1982.67 2828.73 1961.62 2835.25 1942.76 2841.78 1923.9 2850.59 1909.72 2861.7 1900.21Z" fill-rule="evenodd"/><g clip-path="url(#clip56)" filter="url(#fx15)" transform="translate(2912 1911)"><g clip-path="url(#clip57)"><path d="M66.5322 19.1217 68.5991 21.8776C64.4923 25.2278 61.2772 29.0171 58.9536 33.2455 56.63 37.4738 55.4683 41.844 55.4683 46.3561 55.4683 49.4632 56.0559 51.8475 57.2312 53.5092 58.4065 55.1708 60.0614 56.0016 62.1958 56.0016 64.1951 56.0016 65.8973 55.191 67.3022 53.5699 68.7072 51.9489 69.7474 49.5713 70.4228 46.4371L73.7461 31.1583 80.5547 31.1583 77.4746 45.0997C77.1234 46.6938 76.9477 48.1798 76.9477 49.5577 76.9477 51.7192 77.4138 53.3335 78.3459 54.4008 79.2781 55.468 80.5952 56.0016 82.2974 56.0016 84.5399 56.0016 86.5257 55.1843 88.2549 53.5497 89.984 51.9151 91.3282 49.5307 92.2873 46.3966 93.2465 43.2625 93.7261 39.615 93.7261 35.4542 93.7261 32.9956 93.3883 30.4761 92.7129 27.8959 92.0374 25.3156 91.0918 23.1744 89.876 21.4723L92.6318 19.1217C95.3336 21.6884 97.3668 24.5118 98.7312 27.5919 100.096 30.672 100.778 33.9817 100.778 37.5211 100.778 41.4928 99.9943 45.1538 98.4272 48.504 96.8602 51.8543 94.6379 54.4751 91.7605 56.3663 88.883 58.2576 85.5936 59.2032 81.8921 59.2032 77.4071 59.2032 74.3405 56.9878 72.6924 52.5568L72.5303 52.5568C71.5846 54.0428 70.5917 55.2383 69.5515 56.1434 68.5113 57.0485 67.2077 57.7848 65.6406 58.3522 64.0736 58.9196 62.2093 59.2032 60.0478 59.2032 57.9674 59.2032 56.0559 58.7372 54.3132 57.8051 52.5705 56.8729 51.1589 55.4139 50.0781 53.4281 48.9974 51.4423 48.457 49.0039 48.457 46.1129 48.457 41.1956 50.0376 36.3728 53.1987 31.6447 56.3599 26.9165 60.8044 22.7421 66.5322 19.1217ZM18.1401 0.600712 20.4907 0.600712 17.897 11.0568 28.1504 6.63929 29.6094 9.922 16.8433 15.2716 13.52 28.6862 14.0063 28.8483C16.5461 25.471 18.9642 23.0123 21.2607 21.4723 23.5573 19.9323 25.8944 19.1622 28.272 19.1622 30.8117 19.1622 32.7637 19.8782 34.1282 21.3102 35.4926 22.7421 36.1748 24.755 36.1748 27.3488 36.1748 29.0509 35.783 31.469 34.9995 34.6031L32.3652 45.2213C31.6357 48.1663 31.271 50.2467 31.271 51.4625 31.271 52.5433 31.4466 53.3268 31.7978 53.8131 32.1491 54.2994 32.703 54.5426 33.4595 54.5426 34.27 54.5426 35.1346 54.2116 36.0532 53.5497 36.9718 52.8877 38.2687 51.6246 39.9438 49.7604L42.2539 52.0299C40.0654 54.2994 38.3903 55.88 37.2285 56.7716 36.0667 57.6632 34.9522 58.2914 33.885 58.6561 32.8178 59.0209 31.6087 59.2032 30.2578 59.2032 28.5016 59.2032 27.0967 58.5751 26.043 57.3187 24.9893 56.0624 24.4624 54.4615 24.4624 52.5162 24.4624 50.7601 24.9082 48.1798 25.7998 44.7755L27.583 37.7643C28.2314 35.2246 28.657 33.3468 28.8596 32.131 29.0623 30.9152 29.1636 29.929 29.1636 29.1725 29.1636 27.2812 28.8461 25.9303 28.2112 25.1198 27.5763 24.3092 26.5428 23.9039 25.1108 23.9039 23.9761 23.9039 22.7265 24.3632 21.3621 25.2819 19.9976 26.2005 18.5724 27.5987 17.0864 29.4764 15.6004 31.3542 14.4184 33.1509 13.5403 34.8666 12.6622 36.5822 11.9665 38.6289 11.4531 41.0065L7.76514 58.5548 0.753908 58.5548 9.83203 18.1896 4.27979 20.5807 2.8208 17.298 10.7642 14.0558 11.4126 11.1783C11.8989 8.82776 12.1421 7.17965 12.1421 6.23401 12.1421 5.09925 11.7976 4.30221 11.1086 3.8429 10.4197 3.38359 9.18359 3.12692 7.40039 3.07288L7.88672 0.965458Z" fill-rule="evenodd"/></g></g><path d="M2975.79 1927.82 2977.86 1930.58C2973.75 1933.93 2970.54 1937.72 2968.22 1941.95 2965.89 1946.18 2964.73 1950.55 2964.73 1955.06 2964.73 1958.17 2965.32 1960.55 2966.49 1962.21 2967.67 1963.87 2969.32 1964.7 2971.46 1964.7 2973.46 1964.7 2975.16 1963.89 2976.56 1962.27 2977.97 1960.65 2979.01 1958.27 2979.69 1955.14L2983.01 1939.86 2989.82 1939.86 2986.74 1953.8C2986.39 1955.4 2986.21 1956.88 2986.21 1958.26 2986.21 1960.42 2986.68 1962.04 2987.61 1963.1 2988.54 1964.17 2989.86 1964.7 2991.56 1964.7 2993.8 1964.7 2995.79 1963.89 2997.52 1962.25 2999.25 1960.62 3000.59 1958.23 3001.55 1955.1 3002.51 1951.97 3002.99 1948.32 3002.99 1944.16 3002.99 1941.7 3002.65 1939.18 3001.98 1936.6 3001.3 1934.02 3000.35 1931.88 2999.14 1930.17L3001.89 1927.82C3004.6 1930.39 3006.63 1933.21 3007.99 1936.29 3009.36 1939.37 3010.04 1942.68 3010.04 1946.22 3010.04 1950.2 3009.26 1953.86 3007.69 1957.21 3006.12 1960.56 3003.9 1963.18 3001.02 1965.07 2998.15 1966.96 2994.86 1967.91 2991.15 1967.91 2986.67 1967.91 2983.6 1965.69 2981.95 1961.26L2981.79 1961.26C2980.85 1962.75 2979.85 1963.94 2978.81 1964.85 2977.77 1965.75 2976.47 1966.49 2974.9 1967.05 2973.34 1967.62 2971.47 1967.91 2969.31 1967.91 2967.23 1967.91 2965.32 1967.44 2963.58 1966.51 2961.83 1965.58 2960.42 1964.12 2959.34 1962.13 2958.26 1960.14 2957.72 1957.71 2957.72 1954.82 2957.72 1949.9 2959.3 1945.08 2962.46 1940.35 2965.62 1935.62 2970.07 1931.44 2975.79 1927.82ZM2927.4 1909.3 2929.75 1909.3 2927.16 1919.76 2937.41 1915.34 2938.87 1918.62 2926.11 1923.97 2922.78 1937.39 2923.27 1937.55C2925.81 1934.17 2928.23 1931.71 2930.52 1930.17 2932.82 1928.63 2935.16 1927.86 2937.53 1927.86 2940.07 1927.86 2942.03 1928.58 2943.39 1930.01 2944.75 1931.44 2945.44 1933.46 2945.44 1936.05 2945.44 1937.75 2945.05 1940.17 2944.26 1943.31L2941.63 1953.92C2940.9 1956.87 2940.53 1958.95 2940.53 1960.17 2940.53 1961.25 2940.71 1962.03 2941.06 1962.52 2941.41 1963 2941.97 1963.25 2942.72 1963.25 2943.53 1963.25 2944.4 1962.91 2945.32 1962.25 2946.23 1961.59 2947.53 1960.33 2949.21 1958.46L2951.52 1960.73C2949.33 1963 2947.65 1964.58 2946.49 1965.47 2945.33 1966.37 2944.21 1966.99 2943.15 1967.36 2942.08 1967.72 2940.87 1967.91 2939.52 1967.91 2937.76 1967.91 2936.36 1967.28 2935.31 1966.02 2934.25 1964.77 2933.72 1963.16 2933.72 1961.22 2933.72 1959.46 2934.17 1956.88 2935.06 1953.48L2936.85 1946.47C2937.49 1943.93 2937.92 1942.05 2938.12 1940.83 2938.32 1939.62 2938.43 1938.63 2938.43 1937.88 2938.43 1935.98 2938.11 1934.63 2937.47 1933.82 2936.84 1933.01 2935.8 1932.61 2934.37 1932.61 2933.24 1932.61 2931.99 1933.07 2930.62 1933.98 2929.26 1934.9 2927.83 1936.3 2926.35 1938.18 2924.86 1940.06 2923.68 1941.85 2922.8 1943.57 2921.92 1945.28 2921.23 1947.33 2920.72 1949.71L2917.03 1967.26 2910.02 1967.26 2919.09 1926.89 2913.54 1929.28 2912.08 1926 2920.03 1922.76 2920.67 1919.88C2921.16 1917.53 2921.4 1915.88 2921.4 1914.94 2921.4 1913.8 2921.06 1913 2920.37 1912.55 2919.68 1912.09 2918.45 1911.83 2916.66 1911.78L2917.15 1909.67Z" fill-rule="evenodd"/><text fill="#000000" fill-opacity="0" font-family="Arial,Arial_MSFontService,sans-serif" font-size="58.6025" x="2910.02" y="1960.58">ℏ𝜔</text><g clip-path="url(#clip58)" filter="url(#fx16)" transform="translate(2873 2030)"><g clip-path="url(#clip59)"><path d="M19.0208 1.21778C24.0461 1.21778 27.8422 2.31877 30.4089 4.52076 32.9757 6.72274 34.259 9.91764 34.259 14.1055 34.259 15.5374 34.1172 16.8546 33.8335 18.0569 33.5498 19.2592 33.104 20.448 32.4961 21.6233 31.8882 22.7986 31.0709 24.0617 30.0442 25.4126 29.0175 26.7635 27.8827 28.1347 26.6399 29.5261 25.3971 30.9176 23.2491 33.2344 20.196 36.4766 15.0626 41.9072 11.2935 46.6489 8.88892 50.7017L24.1677 50.7017C25.4916 50.7017 26.5588 50.6206 27.3694 50.4585 28.1799 50.2964 28.8284 50.0262 29.3147 49.6479 29.801 49.2697 30.186 48.7766 30.4697 48.1687 30.7534 47.5608 31.1114 46.6219 31.5437 45.3521L34.9885 45.3521 34.2996 57.186 0.945557 57.186 0.945557 55.2407C2.10734 52.4038 3.6744 49.4993 5.64673 46.5273 7.61906 43.5553 10.4154 40.0565 14.0359 36.0308 17.17 32.5724 19.426 29.9517 20.804 28.1685 22.317 26.2231 23.445 24.5413 24.188 23.1228 24.931 21.7043 25.4646 20.3669 25.7888 19.1106 26.113 17.8543 26.2751 16.5911 26.2751 15.3213 26.2751 13.2949 25.9509 11.505 25.3025 9.95142 24.6541 8.39787 23.6611 7.1753 22.3237 6.2837 20.9863 5.39209 19.3044 4.94629 17.2781 4.94629 12.2257 4.94629 8.82137 7.75619 7.06518 13.376L2.16138 13.376 2.16138 5.59473C5.43058 4.05469 8.4904 2.94019 11.3408 2.25122 14.1912 1.56226 16.7512 1.21778 19.0208 1.21778Z" fill-rule="evenodd"/></g></g><path d="M2889.28 2028.92C2894.31 2028.92 2898.1 2030.02 2900.67 2032.22 2903.24 2034.43 2904.52 2037.62 2904.52 2041.81 2904.52 2043.24 2904.38 2044.56 2904.1 2045.76 2903.81 2046.96 2903.37 2048.15 2902.76 2049.33 2902.15 2050.5 2901.33 2051.76 2900.31 2053.12 2899.28 2054.47 2898.15 2055.84 2896.9 2057.23 2895.66 2058.62 2893.51 2060.94 2890.46 2064.18 2885.32 2069.61 2881.56 2074.35 2879.15 2078.4L2894.43 2078.4C2895.75 2078.4 2896.82 2078.32 2897.63 2078.16 2898.44 2078 2899.09 2077.73 2899.58 2077.35 2900.06 2076.97 2900.45 2076.48 2900.73 2075.87 2901.02 2075.26 2901.37 2074.32 2901.81 2073.05L2905.25 2073.05 2904.56 2084.89 2871.21 2084.89 2871.21 2082.94C2872.37 2080.11 2873.94 2077.2 2875.91 2074.23 2877.88 2071.26 2880.68 2067.76 2884.3 2063.73 2887.43 2060.28 2889.69 2057.65 2891.07 2055.87 2892.58 2053.93 2893.71 2052.24 2894.45 2050.83 2895.19 2049.41 2895.73 2048.07 2896.05 2046.81 2896.38 2045.56 2896.54 2044.29 2896.54 2043.02 2896.54 2041 2896.21 2039.21 2895.56 2037.65 2894.92 2036.1 2893.92 2034.88 2892.59 2033.99 2891.25 2033.09 2889.57 2032.65 2887.54 2032.65 2882.49 2032.65 2879.08 2035.46 2877.33 2041.08L2872.42 2041.08 2872.42 2033.3C2875.69 2031.76 2878.75 2030.64 2881.6 2029.95 2884.45 2029.26 2887.01 2028.92 2889.28 2028.92Z" fill-rule="evenodd"/><text fill="#000000" fill-opacity="0" font-family="Arial,Arial_MSFontService,sans-serif" font-size="55.9683" x="2871.21" y="2077.89">2</text><g clip-path="url(#clip60)" filter="url(#fx17)" transform="translate(2917 2028)"><g clip-path="url(#clip61)"><path d="M18.6655 1.23194 21.0161 1.23194 13.0728 36.6123 14.3696 36.6123C16.396 36.6123 18.6723 35.7275 21.1985 33.9578 23.7247 32.1881 25.7443 30.5467 27.2573 29.0337 28.7703 27.5207 29.5269 26.0617 29.5269 24.6567 29.5269 23.3328 28.6082 22.5898 26.771 22.4277L27.2168 20.4419 40.3477 20.4419 41.1177 22.4277C38.8752 24.4541 36.4976 26.4399 33.9849 28.3853L23.9341 36.1665 27.9058 50.7969C28.23 52.0397 28.5204 52.9381 28.7771 53.4919 29.0338 54.0458 29.331 54.4578 29.6687 54.728 30.0064 54.9982 30.459 55.1333 31.0264 55.1333 31.7288 55.1333 32.5664 54.755 33.5391 53.9985 34.5117 53.242 35.6195 52.1478 36.8623 50.7158L39.1724 52.9854C36.7407 55.5521 34.7279 57.3353 33.1338 58.335 31.5397 59.3346 29.9997 59.8345 28.5137 59.8345 26.6764 59.8345 25.2174 59.3144 24.1367 58.2742 23.056 57.234 22.2049 55.498 21.5835 53.0664L18.9087 42.5293C18.6385 41.4756 18.3683 40.7461 18.0981 40.3408 17.828 39.9355 17.5173 39.6654 17.166 39.5303 16.8148 39.3952 16.1934 39.3276 15.3018 39.3276L12.5054 39.3276 8.29053 59.186 1.2793 59.186 11.6948 12.8633C12.0461 11.2962 12.296 10.0737 12.4446 9.19556 12.5932 8.31747 12.6675 7.54069 12.6675 6.86524 12.6675 5.73047 12.323 4.93344 11.634 4.47412 10.9451 4.01481 9.70898 3.75814 7.92578 3.70411L8.41211 1.59668Z" fill-rule="evenodd"/></g></g><path d="M2932.93 2026.93 2935.28 2026.93 2927.33 2062.31 2928.63 2062.31C2930.66 2062.31 2932.93 2061.43 2935.46 2059.66 2937.99 2057.89 2940.01 2056.25 2941.52 2054.74 2943.03 2053.22 2943.79 2051.76 2943.79 2050.36 2943.79 2049.04 2942.87 2048.29 2941.03 2048.13L2941.48 2046.14 2954.61 2046.14 2955.38 2048.13C2953.14 2050.16 2950.76 2052.14 2948.25 2054.09L2938.2 2061.87 2942.17 2076.5C2942.49 2077.74 2942.78 2078.64 2943.04 2079.19 2943.3 2079.75 2943.59 2080.16 2943.93 2080.43 2944.27 2080.7 2944.72 2080.84 2945.29 2080.84 2945.99 2080.84 2946.83 2080.46 2947.8 2079.7 2948.77 2078.94 2949.88 2077.85 2951.12 2076.42L2953.43 2078.69C2951 2081.25 2948.99 2083.04 2947.4 2084.04 2945.8 2085.04 2944.26 2085.54 2942.78 2085.54 2940.94 2085.54 2939.48 2085.02 2938.4 2083.98 2937.32 2082.94 2936.47 2081.2 2935.85 2078.77L2933.17 2068.23C2932.9 2067.18 2932.63 2066.45 2932.36 2066.04 2932.09 2065.64 2931.78 2065.37 2931.43 2065.23 2931.08 2065.1 2930.46 2065.03 2929.56 2065.03L2926.77 2065.03 2922.55 2084.89 2915.54 2084.89 2925.96 2038.57C2926.31 2037 2926.56 2035.78 2926.71 2034.9 2926.86 2034.02 2926.93 2033.24 2926.93 2032.57 2926.93 2031.43 2926.59 2030.64 2925.9 2030.18 2925.21 2029.72 2923.97 2029.46 2922.19 2029.41L2922.67 2027.3Z" fill-rule="evenodd"/><text fill="#000000" fill-opacity="0" font-family="Arial,Arial_MSFontService,sans-serif" font-size="58.6025" x="2915.54" y="2078.21">𝑘</text><g clip-path="url(#clip62)" filter="url(#fx18)" transform="translate(2961 2064)"><g clip-path="url(#clip63)"><path d="M13.4358 21.5928 10.0403 36.8726C10.5168 36.8924 11.1175 36.9123 11.8423 36.9321 12.5671 36.952 13.4259 36.9619 14.4187 36.9619 16.5632 36.9619 18.4149 36.7782 19.9736 36.4109 21.5324 36.0435 22.8231 35.4677 23.8457 34.6833 24.8683 33.899 25.6229 32.8813 26.1094 31.6304 26.5959 30.3794 26.8391 28.8802 26.8391 27.1328 26.8391 26.2194 26.7001 25.4152 26.4221 24.7202 26.1441 24.0252 25.6825 23.4444 25.0371 22.9778 24.3918 22.5112 23.5677 22.1637 22.5649 21.9353 21.5622 21.707 20.336 21.5928 18.8865 21.5928ZM22.4309 4.4961C21.4778 4.4961 20.5693 4.51099 19.7056 4.54078 18.8418 4.57056 18.0128 4.62517 17.2185 4.70459L14.1506 18.4951 18.7673 18.4951C20.9317 18.4951 22.7635 18.2916 24.2627 17.8845 25.7619 17.4775 26.9781 16.8966 27.9114 16.1421 28.8446 15.3875 29.5247 14.4791 29.9517 13.4167 30.3786 12.3544 30.592 11.158 30.592 9.82764 30.5523 8.9738 30.3835 8.20931 30.0857 7.53418 29.7878 6.85905 29.3162 6.2981 28.6709 5.85132 28.0256 5.40454 27.1916 5.06698 26.1689 4.83863 25.1463 4.61028 23.9003 4.4961 22.4309 4.4961ZM8.13403 1.39844 23.7415 1.39844C26.0647 1.39844 28.0355 1.58708 29.6538 1.96436 31.2721 2.34164 32.6025 2.8877 33.645 3.60254 34.6875 4.31739 35.4421 5.17619 35.9087 6.17896 36.3753 7.18172 36.6086 8.32845 36.6086 9.61914 36.6086 14.5039 33.5408 17.9491 27.405 19.9546 27.405 20.0539 27.4001 20.1333 27.3901 20.1929 27.3802 20.2524 27.3752 20.3021 27.3752 20.3418 29.2219 21.0765 30.6218 22.0892 31.5749 23.3799 32.5281 24.6706 33.0046 26.1598 33.0046 27.8477 33.0046 29.7539 32.6522 31.4566 31.9473 32.9558 31.2423 34.455 30.1552 35.7258 28.6858 36.7683 27.2164 37.8108 25.33 38.615 23.0266 39.1809 20.7232 39.7468 17.9631 40.0298 14.7463 40.0298L0.7771 40.0298 1.10474 38.2129C1.7203 38.1136 2.22168 37.9994 2.60889 37.8704 2.99609 37.7413 3.34359 37.4633 3.65137 37.0364 3.95915 36.6095 4.24211 35.9691 4.50024 35.1152 4.75838 34.2614 5.05623 33.0501 5.3938 31.4814L10.2786 9.76807C10.4771 8.89437 10.6261 8.11996 10.7253 7.44483 10.8246 6.7697 10.8743 6.21371 10.8743 5.77686 10.8743 4.8833 10.6509 4.24789 10.2041 3.87061 9.75732 3.49333 8.91838 3.29476 7.68725 3.27491Z" fill-rule="evenodd"/></g></g><path d="M2971.7 2083.3 2968.3 2098.58C2968.78 2098.59 2969.38 2098.61 2970.1 2098.63 2970.83 2098.65 2971.69 2098.66 2972.68 2098.66 2974.83 2098.66 2976.68 2098.48 2978.24 2098.11 2979.79 2097.75 2981.09 2097.17 2982.11 2096.39 2983.13 2095.6 2983.89 2094.58 2984.37 2093.33 2984.86 2092.08 2985.1 2090.58 2985.1 2088.84 2985.1 2087.92 2984.96 2087.12 2984.68 2086.42 2984.41 2085.73 2983.94 2085.15 2983.3 2084.68 2982.65 2084.21 2981.83 2083.87 2980.83 2083.64 2979.82 2083.41 2978.6 2083.3 2977.15 2083.3ZM2980.69 2066.2C2979.74 2066.2 2978.83 2066.21 2977.97 2066.24 2977.1 2066.27 2976.27 2066.33 2975.48 2066.41L2972.41 2080.2 2977.03 2080.2C2979.19 2080.2 2981.03 2079.99 2982.52 2079.59 2984.02 2079.18 2985.24 2078.6 2986.17 2077.84 2987.11 2077.09 2987.79 2076.18 2988.21 2075.12 2988.64 2074.06 2988.85 2072.86 2988.85 2071.53 2988.81 2070.68 2988.65 2069.91 2988.35 2069.24 2988.05 2068.56 2987.58 2068 2986.93 2067.55 2986.29 2067.11 2985.45 2066.77 2984.43 2066.54 2983.41 2066.31 2982.16 2066.2 2980.69 2066.2ZM2966.4 2063.1 2982 2063.1C2984.33 2063.1 2986.3 2063.29 2987.92 2063.67 2989.53 2064.04 2990.86 2064.59 2991.91 2065.31 2992.95 2066.02 2993.7 2066.88 2994.17 2067.88 2994.64 2068.88 2994.87 2070.03 2994.87 2071.32 2994.87 2076.21 2991.8 2079.65 2985.67 2081.66 2985.67 2081.76 2985.66 2081.84 2985.65 2081.9 2985.64 2081.96 2985.64 2082 2985.64 2082.04 2987.48 2082.78 2988.88 2083.79 2989.84 2085.08 2990.79 2086.37 2991.27 2087.86 2991.27 2089.55 2991.27 2091.46 2990.91 2093.16 2990.21 2094.66 2989.5 2096.16 2988.42 2097.43 2986.95 2098.47 2985.48 2099.51 2983.59 2100.32 2981.29 2100.88 2978.99 2101.45 2976.23 2101.73 2973.01 2101.73L2959.04 2101.73 2959.37 2099.92C2959.98 2099.82 2960.48 2099.7 2960.87 2099.57 2961.26 2099.44 2961.61 2099.17 2961.91 2098.74 2962.22 2098.31 2962.5 2097.67 2962.76 2096.82 2963.02 2095.96 2963.32 2094.75 2963.66 2093.18L2968.54 2071.47C2968.74 2070.6 2968.89 2069.82 2968.99 2069.15 2969.09 2068.47 2969.14 2067.92 2969.14 2067.48 2969.14 2066.59 2968.91 2065.95 2968.47 2065.57 2968.02 2065.2 2967.18 2065 2965.95 2064.98Z" fill-rule="evenodd"/><text fill="#000000" fill-opacity="0" font-family="Arial,Arial_MSFontService,sans-serif" font-size="38.6313" x="2959.04" y="2096.9">𝐵</text><g clip-path="url(#clip64)" filter="url(#fx19)" transform="translate(3007 2031)"><g clip-path="url(#clip65)"><path d="M4.38354 0.866215 46.6941 0.866215 43.533 15.1318 39.6423 15.1318C39.6423 12.5111 39.5748 10.5455 39.4397 9.23511 39.3046 7.92472 39.0479 6.92505 38.6697 6.23609 38.2914 5.54712 37.8254 5.07431 37.2715 4.81763 36.7176 4.56096 35.7382 4.43262 34.3332 4.43262L28.3352 4.43262 19.5408 44.3926C19.2976 45.4463 19.1287 46.2839 19.0342 46.9053 18.9396 47.5267 18.8586 48.1819 18.791 48.8708 18.7235 49.5598 18.6897 50.1745 18.6897 50.7148 18.6897 51.5524 18.8248 52.2076 19.095 52.6804 19.3652 53.1532 19.7704 53.4977 20.3108 53.7139 20.8512 53.93 21.7833 54.0921 23.1072 54.2002L22.6614 56.186 5.59937 56.186 6.04517 54.2002C7.1259 54.0381 7.92293 53.8219 8.43628 53.5518 8.94963 53.2816 9.40218 52.8628 9.79395 52.2954 10.1857 51.728 10.5775 50.8364 10.9692 49.6206 11.361 48.4048 11.8271 46.5675 12.3674 44.1089L21.0403 4.43262 15.8933 4.43262C14.2182 4.43262 12.8808 4.67579 11.8811 5.16211 10.8814 5.64844 9.88175 6.55355 8.88208 7.87745 7.88241 9.20134 6.66658 11.4168 5.23462 14.5239L1.34399 14.5239Z" fill-rule="evenodd"/></g></g><path d="M3008.65 2029.57 3050.96 2029.57 3047.8 2043.83 3043.9 2043.83C3043.9 2041.21 3043.84 2039.25 3043.7 2037.94 3043.57 2036.63 3043.31 2035.63 3042.93 2034.94 3042.55 2034.25 3042.09 2033.78 3041.53 2033.52 3040.98 2033.26 3040 2033.14 3038.6 2033.14L3032.6 2033.14 3023.8 2073.1C3023.56 2074.15 3023.39 2074.99 3023.3 2075.61 3023.2 2076.23 3023.12 2076.88 3023.05 2077.57 3022.99 2078.26 3022.95 2078.88 3022.95 2079.42 3022.95 2080.26 3023.09 2080.91 3023.36 2081.38 3023.63 2081.86 3024.03 2082.2 3024.57 2082.42 3025.11 2082.63 3026.05 2082.79 3027.37 2082.9L3026.92 2084.89 3009.86 2084.89 3010.31 2082.9C3011.39 2082.74 3012.19 2082.52 3012.7 2082.25 3013.21 2081.98 3013.66 2081.57 3014.06 2081 3014.45 2080.43 3014.84 2079.54 3015.23 2078.32 3015.62 2077.11 3016.09 2075.27 3016.63 2072.81L3025.3 2033.14 3020.16 2033.14C3018.48 2033.14 3017.14 2033.38 3016.14 2033.86 3015.14 2034.35 3014.14 2035.26 3013.14 2036.58 3012.14 2037.9 3010.93 2040.12 3009.5 2043.23L3005.61 2043.23Z" fill-rule="evenodd"/><text fill="#000000" fill-opacity="0" font-family="Arial,Arial_MSFontService,sans-serif" font-size="55.3198" x="3005.61" y="2077.97">𝑇</text><g clip-path="url(#clip66)" filter="url(#fx20)" transform="translate(2868 2005)"><g clip-path="url(#clip67)"><path d="M1.09448 0.996452 189.094 0.996452 189.094 5.99645 1.09448 5.99645Z" fill-rule="evenodd"/></g></g><path d="M2866.36 2003.7 3054.36 2003.7 3054.36 2008.7 2866.36 2008.7Z" fill-rule="evenodd"/><g clip-path="url(#clip68)" filter="url(#fx21)" transform="translate(3121 1973)"><g clip-path="url(#clip69)"><path d="M19.1538 22.8118C15.6955 22.8118 13.0612 24.1965 11.251 26.9658 9.44076 29.7352 8.53564 33.7136 8.53564 38.9011 8.53564 44.0886 9.27865 48.0333 10.7646 50.7351 12.2506 53.4369 14.5067 54.7878 17.5327 54.7878 18.7215 54.7878 19.7077 54.6865 20.4912 54.4839 21.2747 54.2812 22.0448 53.957 22.8013 53.5112 23.5578 53.0654 24.3278 52.4508 25.1113 51.6672 25.8949 50.8837 26.469 50.1677 26.8337 49.5193 27.1985 48.8708 27.4754 48.1278 27.6645 47.2903 27.8537 46.4527 27.9482 45.372 27.9482 44.0481L27.9482 34.97C27.9482 32.8625 27.8537 31.1739 27.6645 29.9041 27.4754 28.6342 27.158 27.567 26.7122 26.7024 26.2664 25.8378 25.6652 25.1083 24.9087 24.5139 24.1522 23.9195 23.3214 23.4872 22.4163 23.217 21.5111 22.9469 20.4237 22.8118 19.1538 22.8118ZM32.5278 1.00806 34.9189 1.00806 34.9189 47.9387C34.9189 50.0461 34.9595 51.5524 35.0405 52.4575 35.1216 53.3626 35.2972 54.0854 35.5674 54.6257 35.8376 55.1661 36.2631 55.6051 36.844 55.9429 37.4249 56.2806 38.4448 56.5981 39.9038 56.8953L39.9038 59.0027 30.3394 59.408 27.9077 59.408 28.394 52.7615 27.7861 52.5994C26.084 54.4096 24.6047 55.7673 23.3484 56.6724 22.092 57.5775 20.7546 58.3002 19.3362 58.8406 17.9177 59.3809 16.3979 59.6511 14.7769 59.6511 10.3459 59.6511 6.92806 57.9692 4.52344 54.6055 2.11882 51.2417 0.916504 46.3852 0.916504 40.0359 0.916504 35.6049 1.70003 31.8426 3.26709 28.749 4.83415 25.6554 6.94832 23.3521 9.60962 21.8391 12.2709 20.3261 15.2632 19.5696 18.5864 19.5696 20.3696 19.5696 21.9907 19.7114 23.4497 19.9951 24.9087 20.2788 26.4082 20.7449 27.9482 21.3933L27.9482 14.9495C27.9482 12.3557 27.928 10.5455 27.8874 9.5188 27.8469 8.49211 27.7388 7.62077 27.5632 6.90479 27.3876 6.18881 27.1444 5.62818 26.8337 5.2229 26.523 4.81763 26.1042 4.49341 25.5774 4.25025 25.0505 4.00708 24.0981 3.76392 22.7202 3.52076L22.7202 1.41333Z" fill-rule="evenodd"/></g></g><path d="M3137.42 1993.51C3133.96 1993.51 3131.32 1994.9 3129.51 1997.67 3127.7 2000.44 3126.8 2004.42 3126.8 2009.6 3126.8 2014.79 3127.54 2018.74 3129.03 2021.44 3130.51 2024.14 3132.77 2025.49 3135.79 2025.49 3136.98 2025.49 3137.97 2025.39 3138.75 2025.19 3139.54 2024.98 3140.31 2024.66 3141.06 2024.21 3141.82 2023.77 3142.59 2023.15 3143.37 2022.37 3144.16 2021.59 3144.73 2020.87 3145.1 2020.22 3145.46 2019.57 3145.74 2018.83 3145.93 2017.99 3146.12 2017.16 3146.21 2016.07 3146.21 2014.75L3146.21 2005.67C3146.21 2003.57 3146.12 2001.88 3145.93 2000.61 3145.74 1999.34 3145.42 1998.27 3144.97 1997.41 3144.53 1996.54 3143.93 1995.81 3143.17 1995.22 3142.41 1994.62 3141.58 1994.19 3140.68 1993.92 3139.77 1993.65 3138.69 1993.51 3137.42 1993.51ZM3150.79 1971.71 3153.18 1971.71 3153.18 2018.64C3153.18 2020.75 3153.22 2022.26 3153.3 2023.16 3153.38 2024.07 3153.56 2024.79 3153.83 2025.33 3154.1 2025.87 3154.53 2026.31 3155.11 2026.65 3155.69 2026.98 3156.71 2027.3 3158.17 2027.6L3158.17 2029.71 3148.6 2030.11 3146.17 2030.11 3146.66 2023.46 3146.05 2023.3C3144.35 2025.11 3142.87 2026.47 3141.61 2027.38 3140.35 2028.28 3139.02 2029 3137.6 2029.54 3136.18 2030.08 3134.66 2030.35 3133.04 2030.35 3128.61 2030.35 3125.19 2028.67 3122.79 2025.31 3120.38 2021.94 3119.18 2017.09 3119.18 2010.74 3119.18 2006.31 3119.96 2002.55 3121.53 1999.45 3123.1 1996.36 3125.21 1994.05 3127.87 1992.54 3130.53 1991.03 3133.53 1990.27 3136.85 1990.27 3138.63 1990.27 3140.25 1990.41 3141.71 1990.7 3143.17 1990.98 3144.67 1991.45 3146.21 1992.1L3146.21 1985.65C3146.21 1983.06 3146.19 1981.25 3146.15 1980.22 3146.11 1979.19 3146 1978.32 3145.83 1977.61 3145.65 1976.89 3145.41 1976.33 3145.1 1975.93 3144.79 1975.52 3144.37 1975.2 3143.84 1974.95 3143.31 1974.71 3142.36 1974.47 3140.98 1974.22L3140.98 1972.12Z" fill-rule="evenodd"/><text fill="#000000" fill-opacity="0" font-family="Arial,Arial_MSFontService,sans-serif" font-size="58.6431" x="3119.18" y="2023.02">d</text><g clip-path="url(#clip70)" filter="url(#fx22)" transform="translate(3166 1992)"><g clip-path="url(#clip71)"><path d="M19.4199 0.569584 21.4868 3.32544C17.38 6.6757 14.1649 10.465 11.8413 14.6934 9.51774 18.9217 8.35596 23.2919 8.35596 27.804 8.35596 30.9111 8.9436 33.2954 10.1189 34.957 11.2942 36.6187 12.9491 37.4495 15.0835 37.4495 17.0828 37.4495 18.785 36.6389 20.1899 35.0178 21.5949 33.3967 22.6351 31.0191 23.3105 27.885L26.6338 12.6062 33.4424 12.6062 30.3623 26.5476C30.0111 28.1417 29.8354 29.6277 29.8354 31.0056 29.8354 33.1671 30.3015 34.7814 31.2336 35.8486 32.1658 36.9159 33.4829 37.4495 35.1851 37.4495 37.4276 37.4495 39.4134 36.6322 41.1426 34.9976 42.8717 33.363 44.2159 30.9786 45.175 27.8445 46.1342 24.7104 46.6138 21.0629 46.6138 16.9021 46.6138 14.4434 46.276 11.924 45.6006 9.34375 44.9251 6.76351 43.9795 4.62232 42.7637 2.92017L45.5195 0.569584C48.2213 3.13631 50.2545 5.95972 51.6189 9.0398 52.9833 12.1199 53.6655 15.4296 53.6655 18.969 53.6655 22.9407 52.882 26.6016 51.3149 29.9519 49.7479 33.3022 47.5256 35.9229 44.6482 37.8142 41.7707 39.7055 38.4813 40.6511 34.7798 40.6511 30.2948 40.6511 27.2282 38.4356 25.5801 34.0046L25.418 34.0046C24.4723 35.4906 23.4794 36.6862 22.4392 37.5913 21.399 38.4964 20.0954 39.2327 18.5283 39.8 16.9613 40.3674 15.097 40.6511 12.9355 40.6511 10.8551 40.6511 8.9436 40.1851 7.20093 39.2529 5.45825 38.3208 4.04655 36.8618 2.96582 34.876 1.88509 32.8901 1.34473 30.4517 1.34473 27.5608 1.34473 22.6435 2.92529 17.8207 6.08643 13.0925 9.24756 8.36434 13.6921 4.19003 19.4199 0.569584Z" fill-rule="evenodd"/></g></g><path d="M3182.68 1990.27 3184.75 1993.03C3180.64 1996.38 3177.43 2000.17 3175.1 2004.4 3172.78 2008.62 3171.62 2012.99 3171.62 2017.51 3171.62 2020.61 3172.21 2023 3173.38 2024.66 3174.56 2026.32 3176.21 2027.15 3178.35 2027.15 3180.34 2027.15 3182.05 2026.34 3183.45 2024.72 3184.86 2023.1 3185.9 2020.72 3186.57 2017.59L3189.9 2002.31 3196.7 2002.31 3193.62 2016.25C3193.27 2017.84 3193.1 2019.33 3193.1 2020.71 3193.1 2022.87 3193.56 2024.48 3194.5 2025.55 3195.43 2026.62 3196.75 2027.15 3198.45 2027.15 3200.69 2027.15 3202.68 2026.33 3204.4 2024.7 3206.13 2023.07 3207.48 2020.68 3208.44 2017.55 3209.4 2014.41 3209.88 2010.77 3209.88 2006.6 3209.88 2004.15 3209.54 2001.63 3208.86 1999.05 3208.19 1996.47 3207.24 1994.33 3206.03 1992.62L3208.78 1990.27C3211.48 1992.84 3213.52 1995.66 3214.88 1998.74 3216.25 2001.82 3216.93 2005.13 3216.93 2008.67 3216.93 2012.64 3216.14 2016.3 3214.58 2019.65 3213.01 2023 3210.79 2025.63 3207.91 2027.52 3205.03 2029.41 3201.74 2030.35 3198.04 2030.35 3193.56 2030.35 3190.49 2028.14 3188.84 2023.71L3188.68 2023.71C3187.73 2025.19 3186.74 2026.39 3185.7 2027.29 3184.66 2028.2 3183.36 2028.94 3181.79 2029.5 3180.22 2030.07 3178.36 2030.35 3176.2 2030.35 3174.12 2030.35 3172.21 2029.89 3170.46 2028.96 3168.72 2028.02 3167.31 2026.56 3166.23 2024.58 3165.15 2022.59 3164.61 2020.15 3164.61 2017.26 3164.61 2012.35 3166.19 2007.52 3169.35 2002.8 3172.51 1998.07 3176.95 1993.89 3182.68 1990.27Z" fill-rule="evenodd"/><text fill="#000000" fill-opacity="0" font-family="Arial,Arial_MSFontService,sans-serif" font-size="40.0815" x="3164.61" y="2025.34">𝜔</text><g clip-path="url(#clip72)" filter="url(#fx23)" transform="translate(2413 1907)"><g clip-path="url(#clip73)"><path d="M35.7104 5.24133C33.5461 5.24133 31.7043 6.12992 30.1853 7.90711 28.6663 9.68429 27.1323 12.2111 25.5835 15.4874 26.9933 18.0887 28.4329 20.0346 29.9023 21.3253 31.3717 22.616 33.3276 23.2614 35.77 23.2614 37.9344 23.2614 39.7165 22.4621 41.1165 20.8636 42.5164 19.2652 43.2163 17.066 43.2163 14.2662 43.2163 11.5657 42.561 9.38644 41.2505 7.7284 39.9399 6.07035 38.0933 5.24133 35.7104 5.24133ZM12.0908 4.318C9.86686 4.318 8.05989 5.23141 6.66992 7.05823 5.27995 8.88505 4.58496 11.248 4.58496 14.1471 4.58496 16.5299 5.20548 18.4957 6.44653 20.0446 7.68758 21.5934 9.48958 22.3678 11.8525 22.3678 14.0964 22.3678 16.1267 21.2955 17.9436 19.151 19.7605 17.0065 21.0562 14.7726 21.8306 12.4493 20.52 9.86796 19.0804 7.86739 17.5117 6.44763 15.943 5.02787 14.1361 4.318 12.0908 4.318ZM12.1504 1.19055C14.7119 1.19055 16.8962 1.94015 18.7031 3.43933 20.5101 4.93852 22.0986 6.95895 23.4688 9.50061 24.4814 7.27665 26.0203 5.34558 28.0854 3.7074 30.1506 2.06922 32.5929 1.25012 35.4126 1.25012 38.8677 1.25012 41.6824 2.39685 43.8567 4.69031 46.031 6.98377 47.1182 10.0864 47.1182 13.9982 47.1182 17.4334 46.0757 20.3573 43.9907 22.7699 41.9058 25.1825 39.2152 26.3888 35.9189 26.3888 33.0596 26.3888 30.6867 25.6293 28.8003 24.1102 26.9139 22.5912 25.2956 20.68 23.9453 18.3766 22.9922 20.402 21.5178 22.2437 19.5222 23.9017 17.5266 25.5598 15.0693 26.3888 12.1504 26.3888 8.43717 26.3888 5.60758 25.2123 3.66162 22.8593 1.71566 20.5062 0.742676 17.6419 0.742676 14.2662 0.742676 10.5729 1.71566 7.47026 3.66162 4.95838 5.60758 2.4465 8.43717 1.19055 12.1504 1.19055Z" fill-rule="evenodd"/></g></g><path d="M2445.97 1909.94C2443.81 1909.94 2441.97 1910.83 2440.45 1912.61 2438.93 1914.39 2437.39 1916.91 2435.85 1920.19 2437.26 1922.79 2438.7 1924.74 2440.16 1926.03 2441.63 1927.32 2443.59 1927.96 2446.03 1927.96 2448.2 1927.96 2449.98 1927.16 2451.38 1925.57 2452.78 1923.97 2453.48 1921.77 2453.48 1918.97 2453.48 1916.27 2452.82 1914.09 2451.51 1912.43 2450.2 1910.77 2448.36 1909.94 2445.97 1909.94ZM2422.35 1909.02C2420.13 1909.02 2418.32 1909.93 2416.93 1911.76 2415.54 1913.59 2414.85 1915.95 2414.85 1918.85 2414.85 1921.23 2415.47 1923.2 2416.71 1924.75 2417.95 1926.3 2419.75 1927.07 2422.11 1927.07 2424.36 1927.07 2426.39 1926 2428.21 1923.85 2430.02 1921.71 2431.32 1919.48 2432.09 1917.15 2430.78 1914.57 2429.34 1912.57 2427.77 1911.15 2426.21 1909.73 2424.4 1909.02 2422.35 1909.02ZM2422.41 1905.89C2424.97 1905.89 2427.16 1906.64 2428.97 1908.14 2430.77 1909.64 2432.36 1911.66 2433.73 1914.2 2434.74 1911.98 2436.28 1910.05 2438.35 1908.41 2440.41 1906.77 2442.86 1905.95 2445.67 1905.95 2449.13 1905.95 2451.94 1907.1 2454.12 1909.39 2456.29 1911.69 2457.38 1914.79 2457.38 1918.7 2457.38 1922.14 2456.34 1925.06 2454.25 1927.47 2452.17 1929.89 2449.48 1931.09 2446.18 1931.09 2443.32 1931.09 2440.95 1930.33 2439.06 1928.81 2437.18 1927.29 2435.56 1925.38 2434.21 1923.08 2433.25 1925.1 2431.78 1926.95 2429.78 1928.6 2427.79 1930.26 2425.33 1931.09 2422.41 1931.09 2418.7 1931.09 2415.87 1929.91 2413.92 1927.56 2411.98 1925.21 2411 1922.34 2411 1918.97 2411 1915.28 2411.98 1912.17 2413.92 1909.66 2415.87 1907.15 2418.7 1905.89 2422.41 1905.89Z" fill-rule="evenodd"/><text fill="#000000" fill-opacity="0" font-family="Arial,Arial_MSFontService,sans-serif" font-size="25.1982" x="2411" y="1927.94">∞</text><g clip-path="url(#clip74)" filter="url(#fx24)" transform="translate(2381 2071)"><g clip-path="url(#clip75)"><path d="M14.8718 3.39722C13.4818 3.39722 12.3202 3.75961 11.387 4.48438 10.4537 5.20915 9.71403 6.27149 9.16797 7.67139 8.62191 9.07129 8.2347 10.779 8.00635 12.7944 7.77799 14.8099 7.66382 17.0984 7.66382 19.6599 7.66382 22.6186 7.80778 25.1751 8.0957 27.3296 8.38363 29.4841 8.8304 31.2563 9.43603 32.6462 10.0417 34.0362 10.8012 35.0588 11.7146 35.7141 12.628 36.3694 13.7201 36.697 14.991 36.697 16.1824 36.697 17.2249 36.3892 18.1184 35.7737 19.012 35.1581 19.7516 34.2 20.3374 32.8994 20.9232 31.5988 21.365 29.9507 21.6628 27.9551 21.9607 25.9595 22.1096 23.6015 22.1096 20.8811 22.1096 17.8232 21.9458 15.1921 21.6182 12.988 21.2905 10.7839 20.8289 8.97201 20.2332 7.55225 19.6374 6.13249 18.8879 5.08504 17.9844 4.40992 17.0809 3.73479 16.0434 3.39722 14.8718 3.39722ZM14.991 0.50806C17.3539 0.50806 19.3743 0.949875 21.0522 1.8335 22.7301 2.71712 24.1003 3.97803 25.1626 5.61621 26.2249 7.2544 27.0043 9.25497 27.5007 11.6179 27.9971 13.9809 28.2454 16.6516 28.2454 19.6301 28.2454 26.2424 27.0738 31.2414 24.7307 34.627 22.3876 38.0125 18.9921 39.7053 14.5442 39.7053 10.136 39.7053 6.85962 38.1069 4.71509 34.9099 2.57056 31.713 1.49829 26.8679 1.49829 20.3748 1.49829 16.9792 1.83089 14.0404 2.49609 11.5584 3.1613 9.07626 4.09456 7.01612 5.2959 5.37793 6.49723 3.73975 7.92196 2.51856 9.57007 1.71436 11.2182 0.91016 13.0251 0.50806 14.991 0.50806Z" fill-rule="evenodd"/></g></g><path d="M2393.13 2072.1C2391.74 2072.1 2390.58 2072.46 2389.65 2073.19 2388.72 2073.91 2387.98 2074.97 2387.43 2076.37 2386.88 2077.77 2386.5 2079.48 2386.27 2081.5 2386.04 2083.51 2385.93 2085.8 2385.93 2088.36 2385.93 2091.32 2386.07 2093.88 2386.36 2096.03 2386.65 2098.19 2387.09 2099.96 2387.7 2101.35 2388.3 2102.74 2389.06 2103.76 2389.98 2104.42 2390.89 2105.07 2391.98 2105.4 2393.25 2105.4 2394.44 2105.4 2395.49 2105.09 2396.38 2104.48 2397.27 2103.86 2398.01 2102.9 2398.6 2101.6 2399.19 2100.3 2399.63 2098.65 2399.93 2096.66 2400.22 2094.66 2400.37 2092.3 2400.37 2089.58 2400.37 2086.53 2400.21 2083.89 2399.88 2081.69 2399.55 2079.49 2399.09 2077.67 2398.5 2076.25 2397.9 2074.84 2397.15 2073.79 2396.25 2073.11 2395.34 2072.44 2394.31 2072.1 2393.13 2072.1ZM2393.25 2069.21C2395.62 2069.21 2397.64 2069.65 2399.31 2070.54 2400.99 2071.42 2402.36 2072.68 2403.42 2074.32 2404.49 2075.96 2405.27 2077.96 2405.76 2080.32 2406.26 2082.68 2406.51 2085.35 2406.51 2088.33 2406.51 2094.95 2405.34 2099.94 2402.99 2103.33 2400.65 2106.72 2397.25 2108.41 2392.81 2108.41 2388.4 2108.41 2385.12 2106.81 2382.98 2103.61 2380.83 2100.42 2379.76 2095.57 2379.76 2089.08 2379.76 2085.68 2380.09 2082.74 2380.76 2080.26 2381.42 2077.78 2382.36 2075.72 2383.56 2074.08 2384.76 2072.44 2386.18 2071.22 2387.83 2070.42 2389.48 2069.61 2391.29 2069.21 2393.25 2069.21Z" fill-rule="evenodd"/><text fill="#000000" fill-opacity="0" font-family="Arial,Arial_MSFontService,sans-serif" font-size="39.1973" x="2379.76" y="2103.51">0</text></g></svg>