<svg width="932" height="133" xmlns="http://www.w3.org/2000/svg" xmlns:xlink="http://www.w3.org/1999/xlink" xml:space="preserve" overflow="hidden"><defs><filter id="fx0" x="-10%" y="-10%" width="120%" height="120%" filterUnits="userSpaceOnUse" primitiveUnits="userSpaceOnUse"><feComponentTransfer color-interpolation-filters="sRGB"><feFuncR type="discrete" tableValues="1 1"/><feFuncG type="discrete" tableValues="1 1"/><feFuncB type="discrete" tableValues="1 1"/><feFuncA type="linear" slope="0.4" intercept="0"/></feComponentTransfer><feGaussianBlur stdDeviation="0 0"/></filter><filter id="fx1" x="-10%" y="-10%" width="120%" height="120%" filterUnits="userSpaceOnUse" primitiveUnits="userSpaceOnUse"><feComponentTransfer color-interpolation-filters="sRGB"><feFuncR type="discrete" tableValues="1 1"/><feFuncG type="discrete" tableValues="1 1"/><feFuncB type="discrete" tableValues="1 1"/><feFuncA type="linear" slope="0.4" intercept="0"/></feComponentTransfer><feGaussianBlur stdDeviation="0 0"/></filter><filter id="fx2" x="-10%" y="-10%" width="120%" height="120%" filterUnits="userSpaceOnUse" primitiveUnits="userSpaceOnUse"><feComponentTransfer color-interpolation-filters="sRGB"><feFuncR type="discrete" tableValues="1 1"/><feFuncG type="discrete" tableValues="1 1"/><feFuncB type="discrete" tableValues="1 1"/><feFuncA type="linear" slope="0.4" intercept="0"/></feComponentTransfer><feGaussianBlur stdDeviation="0 0"/></filter><filter id="fx3" x="-10%" y="-10%" width="120%" height="120%" filterUnits="userSpaceOnUse" primitiveUnits="userSpaceOnUse"><feComponentTransfer color-interpolation-filters="sRGB"><feFuncR type="discrete" tableValues="1 1"/><feFuncG type="discrete" tableValues="1 1"/><feFuncB type="discrete" tableValues="1 1"/><feFuncA type="linear" slope="0.4" intercept="0"/></feComponentTransfer><feGaussianBlur stdDeviation="0 0"/></filter><filter id="fx4" x="-10%" y="-10%" width="120%" height="120%" filterUnits="userSpaceOnUse" primitiveUnits="userSpaceOnUse"><feComponentTransfer color-interpolation-filters="sRGB"><feFuncR type="discrete" tableValues="1 1"/><feFuncG type="discrete" tableValues="1 1"/><feFuncB type="discrete" tableValues="1 1"/><feFuncA type="linear" slope="0.4" intercept="0"/></feComponentTransfer><feGaussianBlur stdDeviation="0 0"/></filter><filter id="fx5" x="-10%" y="-10%" width="120%" height="120%" filterUnits="userSpaceOnUse" primitiveUnits="userSpaceOnUse"><feComponentTransfer color-interpolation-filters="sRGB"><feFuncR type="discrete" tableValues="1 1"/><feFuncG type="discrete" tableValues="1 1"/><feFuncB type="discrete" tableValues="1 1"/><feFuncA type="linear" slope="0.4" intercept="0"/></feComponentTransfer><feGaussianBlur stdDeviation="0 0"/></filter><filter id="fx6" x="-10%" y="-10%" width="120%" height="120%" filterUnits="userSpaceOnUse" primitiveUnits="userSpaceOnUse"><feComponentTransfer color-interpolation-filters="sRGB"><feFuncR type="discrete" tableValues="1 1"/><feFuncG type="discrete" tableValues="1 1"/><feFuncB type="discrete" tableValues="1 1"/><feFuncA type="linear" slope="0.4" intercept="0"/></feComponentTransfer><feGaussianBlur stdDeviation="0 0"/></filter><filter id="fx7" x="-10%" y="-10%" width="120%" height="120%" filterUnits="userSpaceOnUse" primitiveUnits="userSpaceOnUse"><feComponentTransfer color-interpolation-filters="sRGB"><feFuncR type="discrete" tableValues="1 1"/><feFuncG type="discrete" tableValues="1 1"/><feFuncB type="discrete" tableValues="1 1"/><feFuncA type="linear" slope="0.4" intercept="0"/></feComponentTransfer><feGaussianBlur stdDeviation="0 0"/></filter><filter id="fx8" x="-10%" y="-10%" width="120%" height="120%" filterUnits="userSpaceOnUse" primitiveUnits="userSpaceOnUse"><feComponentTransfer color-interpolation-filters="sRGB"><feFuncR type="discrete" tableValues="1 1"/><feFuncG type="discrete" tableValues="1 1"/><feFuncB type="discrete" tableValues="1 1"/><feFuncA type="linear" slope="0.4" intercept="0"/></feComponentTransfer><feGaussianBlur stdDeviation="0 0"/></filter><filter id="fx9" x="-10%" y="-10%" width="120%" height="120%" filterUnits="userSpaceOnUse" primitiveUnits="userSpaceOnUse"><feComponentTransfer color-interpolation-filters="sRGB"><feFuncR type="discrete" tableValues="1 1"/><feFuncG type="discrete" tableValues="1 1"/><feFuncB type="discrete" tableValues="1 1"/><feFuncA type="linear" slope="0.4" intercept="0"/></feComponentTransfer><feGaussianBlur stdDeviation="0 0"/></filter><filter id="fx10" x="-10%" y="-10%" width="120%" height="120%" filterUnits="userSpaceOnUse" primitiveUnits="userSpaceOnUse"><feComponentTransfer color-interpolation-filters="sRGB"><feFuncR type="discrete" tableValues="1 1"/><feFuncG type="discrete" tableValues="1 1"/><feFuncB type="discrete" tableValues="1 1"/><feFuncA type="linear" slope="0.4" intercept="0"/></feComponentTransfer><feGaussianBlur stdDeviation="0 0"/></filter><filter id="fx11" x="-10%" y="-10%" width="120%" height="120%" filterUnits="userSpaceOnUse" primitiveUnits="userSpaceOnUse"><feComponentTransfer color-interpolation-filters="sRGB"><feFuncR type="discrete" tableValues="1 1"/><feFuncG type="discrete" tableValues="1 1"/><feFuncB type="discrete" tableValues="1 1"/><feFuncA type="linear" slope="0.4" intercept="0"/></feComponentTransfer><feGaussianBlur stdDeviation="0 0"/></filter><clipPath id="clip12"><rect x="649" y="1645" width="932" height="133"/></clipPath><clipPath id="clip13"><rect x="0" y="1" width="44" height="57"/></clipPath><clipPath id="clip14"><rect x="0" y="0" width="44" height="58"/></clipPath><clipPath id="clip15"><rect x="1" y="1" width="106" height="45"/></clipPath><clipPath id="clip16"><rect x="0" y="0" width="107" height="46"/></clipPath><clipPath id="clip17"><rect x="1" y="0" width="106" height="78"/></clipPath><clipPath id="clip18"><rect x="0" y="0" width="107" height="79"/></clipPath><clipPath id="clip19"><rect x="0" y="1" width="47" height="56"/></clipPath><clipPath id="clip20"><rect x="0" y="0" width="47" height="58"/></clipPath><clipPath id="clip21"><rect x="1" y="0" width="51" height="24"/></clipPath><clipPath id="clip22"><rect x="0" y="0" width="52" height="24"/></clipPath><clipPath id="clip23"><rect x="1" y="1" width="109" height="77"/></clipPath><clipPath id="clip24"><rect x="0" y="0" width="110" height="78"/></clipPath><clipPath id="clip25"><rect x="0" y="1" width="53" height="57"/></clipPath><clipPath id="clip26"><rect x="0" y="0" width="53" height="58"/></clipPath><clipPath id="clip27"><rect x="1" y="1" width="10" height="11"/></clipPath><clipPath id="clip28"><rect x="0" y="0" width="12" height="12"/></clipPath><clipPath id="clip29"><rect x="0" y="1" width="44" height="57"/></clipPath><clipPath id="clip30"><rect x="0" y="0" width="44" height="58"/></clipPath><clipPath id="clip31"><rect x="1" y="1" width="106" height="45"/></clipPath><clipPath id="clip32"><rect x="0" y="0" width="107" height="46"/></clipPath><clipPath id="clip33"><rect x="0" y="0" width="101" height="78"/></clipPath><clipPath id="clip34"><rect x="0" y="0" width="102" height="79"/></clipPath><clipPath id="clip35"><rect x="1" y="0" width="36" height="58"/></clipPath><clipPath id="clip36"><rect x="0" y="0" width="38" height="58"/></clipPath></defs><g clip-path="url(#clip12)" transform="translate(-649 -1645)"><g clip-path="url(#clip13)" filter="url(#fx0)" transform="translate(700 1699)"><g clip-path="url(#clip14)"><path d="M11.2565 1.41602C13.9043 1.41602 15.8361 2.4292 17.0519 4.45557 18.2677 6.48194 18.8756 9.81869 18.8756 14.4658 18.8756 19.9235 18.6189 25.8405 18.1056 32.2168L18.4703 32.2168C25.0358 21.1934 30.4664 11.1426 34.7623 2.06446L43.2325 2.06446 42.7057 4.00977C40.0849 7.1709 36.2483 12.3719 31.1959 19.6128 26.1435 26.8537 21.4288 34.0405 17.0519 41.1733 16.1603 46.7931 15.0255 52.0887 13.6476 57.0601L7.60901 57.0601 6.43372 55.1553C7.51445 50.9134 9.44625 46.2393 12.2291 41.1328 12.4723 36.0264 12.5939 30.8118 12.5939 25.4893 12.5939 20.9772 12.4993 17.4784 12.3102 14.9927 12.1211 12.507 11.8441 10.636 11.4794 9.37964 11.1146 8.12329 10.6823 7.25871 10.1825 6.78589 9.68266 6.31307 9.06799 6.07666 8.3385 6.07666 6.82548 6.07666 5.0828 7.1709 3.11047 9.35938L0.840943 7.08985C2.13782 5.92806 3.14425 5.04997 3.86023 4.45557 4.57621 3.86117 5.31921 3.33431 6.08923 2.875 6.85925 2.4157 7.65629 2.0577 8.48035 1.80103 9.3044 1.54436 10.2298 1.41602 11.2565 1.41602Z" fill-rule="evenodd"/></g></g><path d="M709.793 1699.19C712.441 1699.19 714.373 1700.2 715.588 1702.23 716.804 1704.25 717.412 1707.59 717.412 1712.24 717.412 1717.7 717.155 1723.61 716.642 1729.99L717.007 1729.99C723.572 1718.97 729.003 1708.91 733.299 1699.84L741.769 1699.84 741.242 1701.78C738.621 1704.94 734.785 1710.14 729.732 1717.38 724.68 1724.63 719.965 1731.81 715.588 1738.95 714.697 1744.57 713.562 1749.86 712.184 1754.83L706.146 1754.83 704.97 1752.93C706.051 1748.69 707.983 1744.01 710.766 1738.9 711.009 1733.8 711.13 1728.58 711.13 1723.26 711.13 1718.75 711.036 1715.25 710.847 1712.76 710.658 1710.28 710.381 1708.41 710.016 1707.15 709.651 1705.9 709.219 1705.03 708.719 1704.56 708.219 1704.09 707.604 1703.85 706.875 1703.85 705.362 1703.85 703.619 1704.94 701.647 1707.13L699.377 1704.86C700.674 1703.7 701.681 1702.82 702.397 1702.23 703.113 1701.63 703.856 1701.11 704.626 1700.65 705.396 1700.19 706.193 1699.83 707.017 1699.57 707.841 1699.32 708.766 1699.19 709.793 1699.19Z" fill-rule="evenodd"/><text fill="#000000" fill-opacity="0" font-family="Arial,Arial_MSFontService,sans-serif" font-size="55.644" x="699.377" y="1747.88">ğ›¾</text><g clip-path="url(#clip15)" filter="url(#fx1)" transform="translate(744 1712)"><g clip-path="url(#clip16)"><path d="M59.8275 30.3555C55.4193 30.4548 52.1826 31.0207 50.1175 32.0532 48.0524 33.0858 47.0198 34.6545 47.0198 36.7593 47.0198 38.3875 47.4815 39.564 48.4048 40.2888 49.3282 41.0136 50.5941 41.376 52.2024 41.376 53.3343 41.376 54.3668 41.1774 55.3001 40.7803 56.2334 40.3831 57.0326 39.8718 57.6978 39.2463 58.363 38.6208 58.8843 37.9259 59.2615 37.1614 59.6388 36.3969 59.8275 35.6473 59.8275 34.9126ZM89.6106 17.1904C86.8903 17.1904 84.8152 18.2379 83.3856 20.3328 81.9559 22.4277 81.241 25.4111 81.241 29.2832 81.241 33.2744 81.8367 36.248 83.0281 38.2039 84.2195 40.1598 86.0563 41.1377 88.5384 41.1377 89.7298 41.1377 90.8169 40.9193 91.7999 40.4824 92.7828 40.0456 93.6217 39.4846 94.3167 38.7996 95.0117 38.1145 95.5528 37.3451 95.94 36.4912 96.3272 35.6374 96.5208 34.7835 96.5208 33.9297L96.5208 25.8877C96.5208 24.1403 96.3818 22.7057 96.1038 21.5837 95.8258 20.4618 95.4039 19.5732 94.8379 18.918 94.272 18.2627 93.5522 17.811 92.6785 17.5627 91.8048 17.3145 90.7822 17.1904 89.6106 17.1904ZM56.4915 14.2417C58.0205 14.2814 59.3559 14.4552 60.4976 14.7629 61.6394 15.0707 62.5925 15.6019 63.357 16.3564 64.1215 17.111 64.6973 18.1287 65.0845 19.4094 65.4717 20.6902 65.6753 22.3135 65.6951 24.2793L65.6951 35.6572C65.6951 36.9479 65.6852 37.9904 65.6653 38.7847 65.6455 39.5789 65.7348 40.2243 65.9334 40.7207 66.132 41.2171 66.4894 41.6093 67.0057 41.8972 67.5219 42.1851 68.3063 42.4681 69.3587 42.7461L69.3587 44.6523 60.1849 44.6523C60.2246 43.9176 60.2544 43.1829 60.2742 42.4482 60.2941 41.7135 60.3239 40.9987 60.3636 40.3037 60.304 40.264 60.2444 40.2392 60.1849 40.2292 60.1253 40.2193 60.0459 40.1945 59.9466 40.1548 59.0133 41.0682 58.1247 41.8426 57.2808 42.478 56.4369 43.1134 55.593 43.6347 54.7491 44.0417 53.9052 44.4488 53.0513 44.7417 52.1876 44.9204 51.3238 45.0991 50.4253 45.1885 49.492 45.1885 48.2013 45.1885 47.0347 44.9998 45.9922 44.6226 44.9498 44.2453 44.0661 43.7141 43.3414 43.0291 42.6166 42.344 42.0606 41.5348 41.6734 40.6016 41.2862 39.6683 41.0926 38.6357 41.0926 37.5039 41.0926 34.446 42.6563 32.1029 45.7837 30.4746 48.9112 28.8464 53.5924 27.8734 59.8275 27.5557L59.8275 25.4111C59.8275 23.9417 59.7133 22.6957 59.4849 21.6731 59.2566 20.6505 58.8991 19.8215 58.4127 19.186 57.9262 18.5506 57.2858 18.089 56.4915 17.801 55.6972 17.5131 54.7342 17.3691 53.6024 17.3691 52.0337 17.3691 50.7132 17.7861 49.6409 18.6201 48.5687 19.4541 47.7744 20.7746 47.2581 22.5815L42.8499 22.5815 42.8499 18.0542C44.2796 17.3791 45.5901 16.8032 46.7816 16.3267 47.973 15.8501 49.1098 15.4579 50.192 15.1501 51.2741 14.8424 52.3266 14.619 53.3492 14.48 54.3718 14.341 55.4192 14.2616 56.4915 14.2417ZM16.0574 7.30176C15.1242 7.30176 14.2604 7.31169 13.4661 7.33155 12.6719 7.3514 11.957 7.38119 11.3216 7.4209L11.3216 24.1006 14.8958 24.1006C16.7028 24.1006 18.2864 23.9467 19.6465 23.6389 21.0067 23.3311 22.1435 22.8347 23.0569 22.1497 23.9704 21.4646 24.6554 20.571 25.1121 19.469 25.5688 18.3669 25.7972 17.0117 25.7972 15.4033 25.7972 12.7028 25.0128 10.6774 23.4442 9.32715 21.8755 7.97689 19.4132 7.30176 16.0574 7.30176ZM1.13507 3.99561 17.368 3.99561C22.4712 3.99561 26.2837 4.87427 28.8055 6.6316 31.3273 8.38892 32.5882 11.0646 32.5882 14.6587 32.5882 17.3791 31.8038 19.6676 30.2352 21.5242 28.6665 23.3808 26.3432 24.7956 23.2654 25.7686L23.2654 26.1855C24.3973 26.7018 25.4547 27.4167 26.4376 28.3301 27.4205 29.2435 28.4183 30.5342 29.431 32.2021 30.2451 33.6318 30.95 34.863 31.5457 35.8955 32.1414 36.9281 32.6726 37.8167 33.1392 38.5613 33.6059 39.3059 34.0328 39.9215 34.42 40.408 34.8072 40.8945 35.2043 41.2916 35.6114 41.5994 36.0184 41.9071 36.4553 42.1454 36.9219 42.3142 37.3886 42.483 37.9297 42.627 38.5452 42.7461L38.5452 44.6523 29.1331 44.6523C28.3587 43.5801 27.6141 42.4582 26.8992 41.2866 26.1844 40.1151 25.4497 38.8343 24.6951 37.4443 23.7817 35.7962 23.0172 34.4013 22.4017 33.2595 21.7861 32.1178 21.25 31.1746 20.7933 30.4299 20.3366 29.6853 19.9245 29.1045 19.5572 28.6875 19.1898 28.2705 18.7927 27.9627 18.3658 27.7642 17.9389 27.5656 17.4474 27.4465 16.8914 27.4067 16.3354 27.367 15.6504 27.3472 14.8362 27.3472L11.3216 27.3472 11.3216 36.9976C11.3216 38.2684 11.3563 39.2314 11.4258 39.8867 11.4953 40.542 11.6592 41.0334 11.9173 41.3611 12.1754 41.6887 12.5577 41.922 13.064 42.061 13.5704 42.2 14.2604 42.3986 15.1341 42.6567L15.1341 44.6523 1.13507 44.6523 1.13507 42.6567C2.0882 42.3787 2.8229 42.1454 3.33917 41.9568 3.85545 41.7681 4.23273 41.505 4.47101 41.1675 4.70929 40.8299 4.84332 40.3484 4.87311 39.7229 4.90289 39.0974 4.91779 38.2088 4.91779 37.0571L4.91779 11.5908C4.91779 10.3796 4.89297 9.46119 4.84332 8.8357 4.79368 8.21021 4.64972 7.73365 4.41144 7.40601 4.17316 7.07837 3.80084 6.83016 3.2945 6.66138 2.78815 6.4926 2.06834 6.25928 1.13507 5.96143ZM100.363 1.31495 102.359 1.31495 102.359 36.4614C102.359 37.6925 102.364 38.6606 102.374 39.3655 102.384 40.0704 102.503 40.6264 102.731 41.0334 102.959 41.4405 103.352 41.7433 103.908 41.9419 104.464 42.1405 105.298 42.3589 106.409 42.5972L106.409 44.6523C105.099 44.7119 103.803 44.7616 102.523 44.8013 101.242 44.841 99.966 44.8906 98.6951 44.9502L96.5208 44.9502C96.6002 44.1162 96.6598 43.2922 96.6995 42.478 96.7392 41.6639 96.7889 40.8398 96.8484 40.0059 96.7889 39.9661 96.7243 39.9463 96.6548 39.9463 96.5853 39.9463 96.5208 39.9264 96.4612 39.8867 95.389 40.9788 94.4309 41.8575 93.587 42.5227 92.7431 43.1879 91.9389 43.7091 91.1744 44.0864 90.4099 44.4637 89.6305 44.7268 88.8362 44.8757 88.042 45.0247 87.1583 45.1289 86.1854 45.1885 84.3982 45.1885 82.8047 44.8559 81.4048 44.1907 80.0049 43.5255 78.8235 42.5475 77.8604 41.2568 76.8974 39.9661 76.1627 38.3726 75.6563 36.4763 75.15 34.58 74.8968 32.4106 74.8968 29.9683 74.8968 27.4067 75.2641 25.148 75.9988 23.1921 76.7335 21.2362 77.7462 19.5931 79.0369 18.2627 80.3276 16.9323 81.8516 15.9295 83.6089 15.2544 85.3663 14.5793 87.2675 14.2417 89.3128 14.2417 90.0475 14.2417 90.7276 14.2665 91.3531 14.3162 91.9786 14.3658 92.5743 14.4502 93.1402 14.5693 93.7061 14.6885 94.2671 14.8374 94.8231 15.0161 95.379 15.1948 95.945 15.4033 96.5208 15.6416L96.5208 11.7695C96.5208 10.5186 96.5109 9.51579 96.491 8.76123 96.4712 8.00668 96.4414 7.40105 96.4017 6.94434 96.3222 6.50749 96.2378 6.11532 96.1485 5.76783 96.0591 5.42033 95.8804 5.11255 95.6124 4.84449 95.3443 4.57642 94.9571 4.34807 94.4507 4.15943 93.9444 3.97079 93.2444 3.8169 92.3509 3.69776L92.3509 1.73194Z" fill-rule="evenodd"/></g></g><path d="M802.364 1741.13C797.956 1741.23 794.719 1741.79 792.654 1742.83 790.589 1743.86 789.556 1745.43 789.556 1747.53 789.556 1749.16 790.018 1750.34 790.941 1751.06 791.865 1751.79 793.131 1752.15 794.739 1752.15 795.871 1752.15 796.903 1751.95 797.837 1751.55 798.77 1751.16 799.569 1750.64 800.234 1750.02 800.9 1749.39 801.421 1748.7 801.798 1747.93 802.175 1747.17 802.364 1746.42 802.364 1745.68ZM832.147 1727.96C829.427 1727.96 827.352 1729.01 825.922 1731.1 824.492 1733.2 823.778 1736.18 823.778 1740.06 823.778 1744.05 824.373 1747.02 825.565 1748.98 826.756 1750.93 828.593 1751.91 831.075 1751.91 832.266 1751.91 833.353 1751.69 834.336 1751.25 835.319 1750.82 836.158 1750.26 836.853 1749.57 837.548 1748.89 838.089 1748.12 838.477 1747.26 838.864 1746.41 839.057 1745.56 839.057 1744.7L839.057 1736.66C839.057 1734.91 838.918 1733.48 838.64 1732.36 838.362 1731.23 837.94 1730.35 837.374 1729.69 836.809 1729.03 836.089 1728.58 835.215 1728.33 834.341 1728.09 833.319 1727.96 832.147 1727.96ZM799.028 1725.01C800.557 1725.05 801.892 1725.23 803.034 1725.53 804.176 1725.84 805.129 1726.37 805.893 1727.13 806.658 1727.88 807.234 1728.9 807.621 1730.18 808.008 1731.46 808.212 1733.09 808.232 1735.05L808.232 1746.43C808.232 1747.72 808.222 1748.76 808.202 1749.56 808.182 1750.35 808.271 1751 808.47 1751.49 808.668 1751.99 809.026 1752.38 809.542 1752.67 810.058 1752.96 810.843 1753.24 811.895 1753.52L811.895 1755.42 802.721 1755.42C802.761 1754.69 802.791 1753.95 802.811 1753.22 802.831 1752.49 802.86 1751.77 802.9 1751.08 802.841 1751.04 802.781 1751.01 802.721 1751 802.662 1750.99 802.582 1750.97 802.483 1750.93 801.55 1751.84 800.661 1752.61 799.817 1753.25 798.973 1753.89 798.13 1754.41 797.286 1754.81 796.442 1755.22 795.588 1755.51 794.724 1755.69 793.86 1755.87 792.962 1755.96 792.029 1755.96 790.738 1755.96 789.571 1755.77 788.529 1755.39 787.486 1755.02 786.603 1754.49 785.878 1753.8 785.153 1753.12 784.597 1752.31 784.21 1751.37 783.823 1750.44 783.629 1749.41 783.629 1748.28 783.629 1745.22 785.193 1742.87 788.32 1741.25 791.448 1739.62 796.129 1738.65 802.364 1738.33L802.364 1736.18C802.364 1734.71 802.25 1733.47 802.021 1732.45 801.793 1731.42 801.436 1730.59 800.949 1729.96 800.463 1729.32 799.822 1728.86 799.028 1728.57 798.234 1728.29 797.271 1728.14 796.139 1728.14 794.57 1728.14 793.25 1728.56 792.177 1729.39 791.105 1730.23 790.311 1731.55 789.795 1733.35L785.386 1733.35 785.386 1728.83C786.816 1728.15 788.127 1727.58 789.318 1727.1 790.509 1726.62 791.646 1726.23 792.728 1725.92 793.811 1725.61 794.863 1725.39 795.886 1725.25 796.908 1725.11 797.956 1725.03 799.028 1725.01ZM758.594 1718.07C757.661 1718.07 756.797 1718.08 756.003 1718.1 755.208 1718.12 754.494 1718.15 753.858 1718.19L753.858 1734.87 757.432 1734.87C759.239 1734.87 760.823 1734.72 762.183 1734.41 763.543 1734.1 764.68 1733.61 765.593 1732.92 766.507 1732.24 767.192 1731.34 767.649 1730.24 768.105 1729.14 768.334 1727.78 768.334 1726.18 768.334 1723.47 767.549 1721.45 765.981 1720.1 764.412 1718.75 761.95 1718.07 758.594 1718.07ZM743.672 1714.77 759.904 1714.77C765.008 1714.77 768.82 1715.65 771.342 1717.4 773.864 1719.16 775.125 1721.84 775.125 1725.43 775.125 1728.15 774.34 1730.44 772.772 1732.3 771.203 1734.15 768.88 1735.57 765.802 1736.54L765.802 1736.96C766.934 1737.47 767.991 1738.19 768.974 1739.1 769.957 1740.02 770.955 1741.31 771.967 1742.97 772.782 1744.4 773.487 1745.63 774.082 1746.67 774.678 1747.7 775.209 1748.59 775.676 1749.33 776.142 1750.08 776.569 1750.69 776.956 1751.18 777.344 1751.67 777.741 1752.06 778.148 1752.37 778.555 1752.68 778.992 1752.92 779.458 1753.09 779.925 1753.26 780.466 1753.4 781.082 1753.52L781.082 1755.42 771.67 1755.42C770.895 1754.35 770.151 1753.23 769.436 1752.06 768.721 1750.89 767.986 1749.61 767.232 1748.22 766.318 1746.57 765.554 1745.17 764.938 1744.03 764.323 1742.89 763.786 1741.95 763.33 1741.2 762.873 1740.46 762.461 1739.88 762.094 1739.46 761.726 1739.04 761.329 1738.73 760.902 1738.54 760.475 1738.34 759.984 1738.22 759.428 1738.18 758.872 1738.14 758.187 1738.12 757.373 1738.12L753.858 1738.12 753.858 1747.77C753.858 1749.04 753.893 1750 753.962 1750.66 754.032 1751.31 754.196 1751.81 754.454 1752.13 754.712 1752.46 755.094 1752.69 755.601 1752.83 756.107 1752.97 756.797 1753.17 757.671 1753.43L757.671 1755.42 743.672 1755.42 743.672 1753.43C744.625 1753.15 745.359 1752.92 745.876 1752.73 746.392 1752.54 746.769 1752.28 747.008 1751.94 747.246 1751.6 747.38 1751.12 747.41 1750.49 747.439 1749.87 747.454 1748.98 747.454 1747.83L747.454 1722.36C747.454 1721.15 747.429 1720.23 747.38 1719.61 747.33 1718.98 747.186 1718.51 746.948 1718.18 746.71 1717.85 746.337 1717.6 745.831 1717.43 745.325 1717.26 744.605 1717.03 743.672 1716.73ZM842.9 1712.09 844.895 1712.09 844.895 1747.23C844.895 1748.46 844.9 1749.43 844.91 1750.14 844.92 1750.84 845.039 1751.4 845.268 1751.81 845.496 1752.21 845.888 1752.52 846.444 1752.71 847 1752.91 847.834 1753.13 848.946 1753.37L848.946 1755.42C847.635 1755.48 846.34 1755.53 845.059 1755.57 843.778 1755.61 842.502 1755.66 841.232 1755.72L839.057 1755.72C839.137 1754.89 839.196 1754.06 839.236 1753.25 839.276 1752.44 839.325 1751.61 839.385 1750.78 839.325 1750.74 839.261 1750.72 839.191 1750.72 839.122 1750.72 839.057 1750.7 838.998 1750.66 837.925 1751.75 836.967 1752.63 836.123 1753.29 835.28 1753.96 834.475 1754.48 833.711 1754.86 832.946 1755.24 832.167 1755.5 831.373 1755.65 830.578 1755.8 829.695 1755.9 828.722 1755.96 826.935 1755.96 825.341 1755.63 823.941 1754.96 822.541 1754.3 821.36 1753.32 820.397 1752.03 819.434 1750.74 818.699 1749.14 818.193 1747.25 817.686 1745.35 817.433 1743.18 817.433 1740.74 817.433 1738.18 817.801 1735.92 818.535 1733.96 819.27 1732.01 820.283 1730.37 821.573 1729.03 822.864 1727.7 824.388 1726.7 826.145 1726.03 827.903 1725.35 829.804 1725.01 831.849 1725.01 832.584 1725.01 833.264 1725.04 833.89 1725.09 834.515 1725.14 835.111 1725.22 835.677 1725.34 836.243 1725.46 836.804 1725.61 837.36 1725.79 837.916 1725.97 838.481 1726.18 839.057 1726.41L839.057 1722.54C839.057 1721.29 839.047 1720.29 839.028 1719.53 839.008 1718.78 838.978 1718.17 838.938 1717.72 838.859 1717.28 838.774 1716.89 838.685 1716.54 838.596 1716.19 838.417 1715.88 838.149 1715.62 837.881 1715.35 837.494 1715.12 836.987 1714.93 836.481 1714.74 835.781 1714.59 834.887 1714.47L834.887 1712.5Z" fill-rule="evenodd"/><text fill="#000000" fill-opacity="0" font-family="Arial,Arial_MSFontService,sans-serif" font-size="43.8735" x="743.672" y="1750.48">Rad</text><g clip-path="url(#clip17)" filter="url(#fx2)" transform="translate(863 1677)"><g clip-path="url(#clip18)"><path d="M81.684 0.694501C89.5733 2.77491 95.6321 7.26668 99.8605 14.1698 104.089 21.073 106.203 29.4014 106.203 39.1549 106.203 48.9355 104.096 57.2639 99.8807 64.1401 95.6659 71.0162 89.6003 75.4945 81.684 77.5749L80.7113 74.4543C86.9525 72.3739 91.5929 68.2671 94.6324 62.1339 97.672 56.0008 99.1918 48.2061 99.1918 38.7497 99.1918 29.6175 97.6787 22.0321 94.6527 15.9936 91.6266 9.955 86.939 5.89551 80.5897 3.8151ZM25.5449 0.694501 26.6391 3.8151C20.3169 5.89551 15.636 9.955 12.5964 15.9936 9.55687 22.0321 8.03709 29.6175 8.03709 38.7497 8.03709 48.2061 9.55687 56.0008 12.5964 62.1339 15.636 68.2671 20.2764 72.3739 26.5176 74.4543L25.5449 77.5749C17.6286 75.4945 11.563 71.0162 7.34813 64.1401 3.13329 57.2639 1.02586 48.9355 1.02586 39.1549 1.02586 29.4014 3.14003 21.073 7.36839 14.1698 11.5967 7.26668 17.6556 2.77491 25.5449 0.694501Z" fill-rule="evenodd"/></g></g><path d="M943.22 1676.47C951.11 1678.55 957.169 1683.04 961.397 1689.94 965.625 1696.84 967.74 1705.17 967.74 1714.93 967.74 1724.71 965.632 1733.04 961.417 1739.91 957.202 1746.79 951.137 1751.27 943.22 1753.35L942.248 1750.23C948.489 1748.15 953.129 1744.04 956.169 1737.91 959.208 1731.77 960.728 1723.98 960.728 1714.52 960.728 1705.39 959.215 1697.8 956.189 1691.77 953.163 1685.73 948.475 1681.67 942.126 1679.59ZM887.081 1676.47 888.176 1679.59C881.853 1681.67 877.172 1685.73 874.133 1691.77 871.093 1697.8 869.574 1705.39 869.574 1714.52 869.574 1723.98 871.093 1731.77 874.133 1737.91 877.172 1744.04 881.813 1748.15 888.054 1750.23L887.081 1753.35C879.165 1751.27 873.099 1746.79 868.885 1739.91 864.67 1733.04 862.562 1724.71 862.562 1714.93 862.562 1705.17 864.677 1696.84 868.905 1689.94 873.133 1683.04 879.192 1678.55 887.081 1676.47Z" fill-rule="evenodd"/><g clip-path="url(#clip19)" filter="url(#fx3)" transform="translate(893 1683)"><g clip-path="url(#clip20)"><path d="M3.84491 1.48877 46.1555 1.48877 42.9943 15.7544 39.1037 15.7544C39.1037 13.1336 39.0361 11.1681 38.9011 9.85767 38.766 8.54728 38.5093 7.54761 38.131 6.85865 37.7528 6.16968 37.2867 5.69687 36.7328 5.44019 36.179 5.18351 35.1996 5.05518 33.7946 5.05518L27.7966 5.05518 19.0021 45.0151C18.759 46.0688 18.5901 46.9064 18.4955 47.5278 18.401 48.1493 18.3199 48.8044 18.2524 49.4934 18.1848 50.1824 18.1511 50.797 18.1511 51.3374 18.1511 52.175 18.2862 52.8302 18.5563 53.303 18.8265 53.7758 19.2318 54.1203 19.7722 54.3364 20.3125 54.5526 21.2446 54.7147 22.5685 54.8228L22.1227 56.8086 5.06073 56.8086 5.50653 54.8228C6.58726 54.6606 7.3843 54.4445 7.89764 54.1743 8.41099 53.9041 8.86355 53.4854 9.25531 52.918 9.64707 52.3506 10.0388 51.459 10.4306 50.2432 10.8224 49.0273 11.2884 47.1901 11.8288 44.7314L20.5016 5.05518 15.3547 5.05518C13.6795 5.05518 12.3421 5.29834 11.3425 5.78467 10.3428 6.271 9.34312 7.17611 8.34344 8.5 7.34377 9.82389 6.12795 12.0394 4.69598 15.1465L0.805359 15.1465Z" fill-rule="evenodd"/></g></g><path d="M895.381 1683.26 937.692 1683.26 934.531 1697.53 930.64 1697.53C930.64 1694.91 930.573 1692.94 930.438 1691.63 930.302 1690.32 930.046 1689.32 929.668 1688.63 929.289 1687.94 928.823 1687.47 928.269 1687.21 927.715 1686.96 926.736 1686.83 925.331 1686.83L919.333 1686.83 910.539 1726.79C910.295 1727.84 910.127 1728.68 910.032 1729.3 909.938 1729.92 909.856 1730.58 909.789 1731.27 909.721 1731.95 909.688 1732.57 909.688 1733.11 909.688 1733.95 909.823 1734.6 910.093 1735.07 910.363 1735.55 910.768 1735.89 911.309 1736.11 911.849 1736.32 912.781 1736.49 914.105 1736.59L913.659 1738.58 896.597 1738.58 897.043 1736.59C898.124 1736.43 898.921 1736.22 899.434 1735.95 899.948 1735.68 900.4 1735.26 900.792 1734.69 901.184 1734.12 901.575 1733.23 901.967 1732.02 902.359 1730.8 902.825 1728.96 903.365 1726.5L912.038 1686.83 906.891 1686.83C905.216 1686.83 903.879 1687.07 902.879 1687.56 901.879 1688.04 900.88 1688.95 899.88 1690.27 898.88 1691.6 897.664 1693.81 896.232 1696.92L892.342 1696.92Z" fill-rule="evenodd"/><text fill="#000000" fill-opacity="0" font-family="Arial,Arial_MSFontService,sans-serif" font-size="55.3198" x="892.342" y="1731.67">ğ‘‡</text><g clip-path="url(#clip21)" filter="url(#fx4)" transform="translate(1004 1704)"><g clip-path="url(#clip22)"><path d="M1.24243 17.8145 51.1721 17.8145 51.1721 23.2046 1.24243 23.2046ZM1.24243 0.995609 51.1721 0.995609 51.1721 6.38574 1.24243 6.38574Z" fill-rule="evenodd"/></g></g><path d="M1003.78 1720.59 1053.71 1720.59 1053.71 1725.98 1003.78 1725.98ZM1003.78 1703.77 1053.71 1703.77 1053.71 1709.16 1003.78 1709.16Z" fill-rule="evenodd"/><text fill="#000000" fill-opacity="0" font-family="Arial,Arial_MSFontService,sans-serif" font-size="22.209" x="1003.78" y="1723.2">=</text><g clip-path="url(#clip23)" filter="url(#fx5)" transform="translate(1088 1677)"><g clip-path="url(#clip24)"><path d="M92.9258 1.21966 109.096 37.6132 109.096 40.6122 92.9258 77.0463 88.5893 75.5063 101.599 39.1127 88.5893 2.67865ZM17.2318 1.21966 21.5277 2.7597 8.51846 39.1533 21.5277 75.5873 17.2318 77.0463 1.06143 40.6528 1.06143 37.6537Z" fill-rule="evenodd"/></g></g><path d="M1179.46 1676.99 1195.63 1713.39 1195.63 1716.38 1179.46 1752.82 1175.13 1751.28 1188.14 1714.88 1175.13 1678.45ZM1103.77 1676.99 1108.06 1678.53 1095.05 1714.93 1108.06 1751.36 1103.77 1752.82 1087.6 1716.42 1087.6 1713.43Z" fill-rule="evenodd"/><g clip-path="url(#clip25)" filter="url(#fx6)" transform="translate(1114 1683)"><g clip-path="url(#clip26)"><path d="M24.4929 30.2632 24.0471 32.3706C23.5878 34.5861 22.9934 36.7476 22.2639 38.855 21.5344 40.9624 20.6428 42.928 19.5891 44.7517 18.5354 46.5754 17.0629 48.4735 15.1716 50.4458L15.1716 50.8511C17.3871 50.8511 19.6837 50.9727 22.0613 51.2158 24.4119 51.459 26.9651 51.5806 29.7209 51.5806 34.233 51.5806 37.7589 50.6349 40.2986 48.7437 42.8383 46.8524 44.1082 44.1641 44.1082 40.6787 44.1082 38.6794 43.7029 37.0177 42.8923 35.6938 42.0818 34.37 40.974 33.3027 39.5691 32.4922 38.1641 31.6816 36.516 31.1075 34.6248 30.7698 32.7335 30.4321 30.7206 30.2632 28.5862 30.2632ZM29.802 5.74414 25.3845 26.0889 32.9631 26.0889C35.2056 26.0889 37.2455 25.7174 39.0828 24.9744 40.92 24.2314 42.406 23.0561 43.5408 21.4485 44.6755 19.8409 45.2429 17.8483 45.2429 15.4707 45.2429 12.1745 43.9731 9.72934 41.4333 8.13526 38.8936 6.54118 35.0165 5.74414 29.802 5.74414ZM25.9924 1.20508 30.2073 1.20508C37.7183 1.20508 43.3111 2.26554 46.9856 4.38648 50.6601 6.50741 52.4973 9.6753 52.4973 13.8901 52.4973 16.7811 51.734 19.314 50.2075 21.489 48.681 23.664 46.2426 25.6025 42.8923 27.3047L42.8923 27.71C45.5401 28.7096 47.4787 30.1281 48.708 31.9653 49.9373 33.8026 50.552 36.1396 50.552 38.9766 50.552 42.2188 49.4578 45.2651 47.2693 48.1155 45.0808 50.9659 42.048 53.2354 38.1709 54.9241 34.2938 56.6127 30.0181 57.457 25.344 57.457 24.3443 57.457 22.3179 57.2949 19.2649 56.9707 16.2118 56.6735 13.7802 56.5249 11.97 56.5249 9.02498 56.5249 6.47176 56.8356 4.3103 57.457L2.9729 54.8228C4.1617 54.1203 5.75578 53.3638 7.75513 52.5532L9.33569 51.9048C12.1456 48.9328 14.3206 43.8263 15.8606 36.5854L20.4402 15.187C20.7374 13.728 21.2642 12.1002 22.0208 10.3035 22.7773 8.50676 23.5068 7.20313 24.2092 6.39258L24.1282 5.98731C19.5621 6.09538 16.1308 6.37232 13.8342 6.81812 11.5377 7.26392 9.88281 7.97315 8.86963 8.9458 7.85645 9.91846 7.34985 11.3234 7.34985 13.1606 7.34985 14.5386 7.82267 16.2137 8.76831 18.186L2.5271 20.6177C1.9327 19.645 1.50716 18.7332 1.25049 17.8821 0.993816 17.031 0.86548 16.0921 0.86548 15.0654 0.86548 13.7415 1.29777 12.4244 2.16235 11.114 3.02694 9.80363 4.29004 8.50676 5.95166 7.22339 7.61328 5.94003 9.30192 4.85929 11.0176 3.9812 12.7332 3.10312 14.6785 2.4209 16.8535 1.93457 19.0285 1.44825 22.0748 1.20508 25.9924 1.20508Z" fill-rule="evenodd"/></g></g><path d="M1137.03 1712.04 1136.58 1714.14C1136.12 1716.36 1135.53 1718.52 1134.8 1720.63 1134.07 1722.73 1133.18 1724.7 1132.13 1726.52 1131.07 1728.35 1129.6 1730.25 1127.71 1732.22L1127.71 1732.62C1129.92 1732.62 1132.22 1732.74 1134.6 1732.99 1136.95 1733.23 1139.5 1733.35 1142.26 1733.35 1146.77 1733.35 1150.3 1732.41 1152.84 1730.52 1155.37 1728.62 1156.64 1725.94 1156.64 1722.45 1156.64 1720.45 1156.24 1718.79 1155.43 1717.47 1154.62 1716.14 1153.51 1715.07 1152.11 1714.26 1150.7 1713.45 1149.05 1712.88 1147.16 1712.54 1145.27 1712.2 1143.26 1712.04 1141.12 1712.04ZM1142.34 1687.52 1137.92 1707.86 1145.5 1707.86C1147.74 1707.86 1149.78 1707.49 1151.62 1706.75 1153.46 1706 1154.94 1704.83 1156.08 1703.22 1157.21 1701.61 1157.78 1699.62 1157.78 1697.24 1157.78 1693.95 1156.51 1691.5 1153.97 1689.91 1151.43 1688.31 1147.55 1687.52 1142.34 1687.52ZM1138.53 1682.98 1142.74 1682.98C1150.25 1682.98 1155.85 1684.04 1159.52 1686.16 1163.2 1688.28 1165.03 1691.45 1165.03 1695.66 1165.03 1698.55 1164.27 1701.09 1162.74 1703.26 1161.22 1705.44 1158.78 1707.37 1155.43 1709.08L1155.43 1709.48C1158.08 1710.48 1160.02 1711.9 1161.24 1713.74 1162.47 1715.57 1163.09 1717.91 1163.09 1720.75 1163.09 1723.99 1161.99 1727.04 1159.81 1729.89 1157.62 1732.74 1154.58 1735.01 1150.71 1736.7 1146.83 1738.38 1142.55 1739.23 1137.88 1739.23 1136.88 1739.23 1134.85 1739.07 1131.8 1738.74 1128.75 1738.45 1126.32 1738.3 1124.51 1738.3 1121.56 1738.3 1119.01 1738.61 1116.85 1739.23L1115.51 1736.59C1116.7 1735.89 1118.29 1735.14 1120.29 1734.33L1121.87 1733.68C1124.68 1730.7 1126.86 1725.6 1128.4 1718.36L1132.98 1696.96C1133.27 1695.5 1133.8 1693.87 1134.56 1692.08 1135.31 1690.28 1136.04 1688.98 1136.75 1688.16L1136.66 1687.76C1132.1 1687.87 1128.67 1688.14 1126.37 1688.59 1124.07 1689.04 1122.42 1689.75 1121.41 1690.72 1120.39 1691.69 1119.89 1693.1 1119.89 1694.93 1119.89 1696.31 1120.36 1697.99 1121.3 1699.96L1115.06 1702.39C1114.47 1701.42 1114.04 1700.51 1113.79 1699.65 1113.53 1698.8 1113.4 1697.86 1113.4 1696.84 1113.4 1695.51 1113.83 1694.2 1114.7 1692.89 1115.56 1691.58 1116.83 1690.28 1118.49 1689 1120.15 1687.71 1121.84 1686.63 1123.55 1685.75 1125.27 1684.88 1127.22 1684.19 1129.39 1683.71 1131.56 1683.22 1134.61 1682.98 1138.53 1682.98Z" fill-rule="evenodd"/><text fill="#000000" fill-opacity="0" font-family="Arial,Arial_MSFontService,sans-serif" font-size="56.252" x="1113.4" y="1732.2">â„¬</text><g clip-path="url(#clip27)" filter="url(#fx7)" transform="translate(1226 1710)"><g clip-path="url(#clip28)"><path d="M5.99329 1.15576C7.37121 1.15576 8.49923 1.61507 9.37732 2.53369 10.2554 3.45231 10.6945 4.64112 10.6945 6.1001 10.6945 7.55908 10.2554 8.74788 9.37732 9.66651 8.49923 10.5851 7.37121 11.0444 5.99329 11.0444 4.61536 11.0444 3.48734 10.5851 2.60925 9.66651 1.73116 8.74788 1.29211 7.55908 1.29211 6.1001 1.29211 4.64112 1.73116 3.45231 2.60925 2.53369 3.48734 1.61507 4.61536 1.15576 5.99329 1.15576Z" fill-rule="evenodd"/></g></g><path d="M1230.53 1709.93C1231.91 1709.93 1233.04 1710.39 1233.91 1711.31 1234.79 1712.22 1235.23 1713.41 1235.23 1714.87 1235.23 1716.33 1234.79 1717.52 1233.91 1718.44 1233.04 1719.36 1231.91 1719.82 1230.53 1719.82 1229.15 1719.82 1228.02 1719.36 1227.15 1718.44 1226.27 1717.52 1225.83 1716.33 1225.83 1714.87 1225.83 1713.41 1226.27 1712.22 1227.15 1711.31 1228.02 1710.39 1229.15 1709.93 1230.53 1709.93Z" fill-rule="evenodd"/><text fill="#000000" fill-opacity="0" font-family="Arial,Arial_MSFontService,sans-serif" font-size="9.88867" x="1225.83" y="1718.58">â‹…</text><g clip-path="url(#clip29)" filter="url(#fx8)" transform="translate(1262 1699)"><g clip-path="url(#clip30)"><path d="M11.1273 1.41602C13.7751 1.41602 15.7069 2.4292 16.9227 4.45557 18.1385 6.48194 18.7465 9.81869 18.7465 14.4658 18.7465 19.9235 18.4898 25.8405 17.9764 32.2168L18.3412 32.2168C24.9066 21.1934 30.3373 11.1426 34.6332 2.06446L43.1034 2.06446 42.5765 4.00977C39.9558 7.1709 36.1192 12.3719 31.0668 19.6128 26.0144 26.8537 21.2997 34.0405 16.9227 41.1733 16.0311 46.7931 14.8964 52.0887 13.5184 57.0601L7.47986 57.0601 6.30457 55.1553C7.38529 50.9134 9.3171 46.2393 12.1 41.1328 12.3431 36.0264 12.4647 30.8118 12.4647 25.4893 12.4647 20.9772 12.3702 17.4784 12.181 14.9927 11.9919 12.507 11.715 10.636 11.3502 9.37964 10.9855 8.12329 10.5532 7.25871 10.0533 6.78589 9.55351 6.31307 8.93884 6.07666 8.20935 6.07666 6.69633 6.07666 4.95365 7.1709 2.98132 9.35938L0.711792 7.08985C2.00867 5.92806 3.0151 5.04997 3.73108 4.45557 4.44706 3.86117 5.19006 3.33431 5.96008 2.875 6.7301 2.4157 7.52714 2.0577 8.3512 1.80103 9.17525 1.54436 10.1006 1.41602 11.1273 1.41602Z" fill-rule="evenodd"/></g></g><path d="M1271.66 1699.19C1274.31 1699.19 1276.24 1700.2 1277.46 1702.23 1278.68 1704.25 1279.28 1707.59 1279.28 1712.24 1279.28 1717.7 1279.03 1723.61 1278.51 1729.99L1278.88 1729.99C1285.44 1718.97 1290.87 1708.91 1295.17 1699.84L1303.64 1699.84 1303.11 1701.78C1300.49 1704.94 1296.66 1710.14 1291.6 1717.38 1286.55 1724.63 1281.84 1731.81 1277.46 1738.95 1276.57 1744.57 1275.43 1749.86 1274.05 1754.83L1268.02 1754.83 1266.84 1752.93C1267.92 1748.69 1269.85 1744.01 1272.64 1738.9 1272.88 1733.8 1273 1728.58 1273 1723.26 1273 1718.75 1272.91 1715.25 1272.72 1712.76 1272.53 1710.28 1272.25 1708.41 1271.89 1707.15 1271.52 1705.9 1271.09 1705.03 1270.59 1704.56 1270.09 1704.09 1269.48 1703.85 1268.75 1703.85 1267.23 1703.85 1265.49 1704.94 1263.52 1707.13L1261.25 1704.86C1262.55 1703.7 1263.55 1702.82 1264.27 1702.23 1264.98 1701.63 1265.73 1701.11 1266.5 1700.65 1267.27 1700.19 1268.06 1699.83 1268.89 1699.57 1269.71 1699.32 1270.64 1699.19 1271.66 1699.19Z" fill-rule="evenodd"/><text fill="#000000" fill-opacity="0" font-family="Arial,Arial_MSFontService,sans-serif" font-size="55.644" x="1261.25" y="1747.88">ğ›¾</text><g clip-path="url(#clip31)" filter="url(#fx9)" transform="translate(1306 1712)"><g clip-path="url(#clip32)"><path d="M59.6982 30.3555C55.29 30.4548 52.0534 31.0207 49.9883 32.0532 47.9232 33.0858 46.8906 34.6545 46.8906 36.7593 46.8906 38.3875 47.3523 39.564 48.2756 40.2888 49.199 41.0136 50.4648 41.376 52.0732 41.376 53.2051 41.376 54.2376 41.1774 55.1709 40.7803 56.1042 40.3831 56.9034 39.8718 57.5686 39.2463 58.2338 38.6208 58.755 37.9259 59.1323 37.1614 59.5096 36.3969 59.6982 35.6473 59.6982 34.9126ZM89.4814 17.1904C86.7611 17.1904 84.686 18.2379 83.2563 20.3328 81.8267 22.4277 81.1118 25.4111 81.1118 29.2832 81.1118 33.2744 81.7075 36.248 82.8989 38.2039 84.0903 40.1598 85.9271 41.1377 88.4092 41.1377 89.6006 41.1377 90.6877 40.9193 91.6706 40.4824 92.6536 40.0456 93.4925 39.4846 94.1875 38.7996 94.8825 38.1145 95.4236 37.3451 95.8108 36.4912 96.198 35.6374 96.3916 34.7835 96.3916 33.9297L96.3916 25.8877C96.3916 24.1403 96.2526 22.7057 95.9746 21.5837 95.6966 20.4618 95.2747 19.5732 94.7087 18.918 94.1428 18.2627 93.423 17.811 92.5493 17.5627 91.6756 17.3145 90.653 17.1904 89.4814 17.1904ZM56.3623 14.2417C57.8913 14.2814 59.2266 14.4552 60.3684 14.7629 61.5102 15.0707 62.4633 15.6019 63.2278 16.3564 63.9923 17.111 64.5681 18.1287 64.9553 19.4094 65.3425 20.6902 65.5461 22.3135 65.5659 24.2793L65.5659 35.6572C65.5659 36.9479 65.556 37.9904 65.5361 38.7847 65.5163 39.5789 65.6056 40.2243 65.8042 40.7207 66.0028 41.2171 66.3602 41.6093 66.8765 41.8972 67.3927 42.1851 68.1771 42.4681 69.2295 42.7461L69.2295 44.6523 60.0557 44.6523C60.0954 43.9176 60.1252 43.1829 60.145 42.4482 60.1649 41.7135 60.1947 40.9987 60.2344 40.3037 60.1748 40.264 60.1152 40.2392 60.0557 40.2292 59.9961 40.2193 59.9167 40.1945 59.8174 40.1548 58.8841 41.0682 57.9955 41.8426 57.1516 42.478 56.3077 43.1134 55.4638 43.6347 54.6199 44.0417 53.776 44.4488 52.9221 44.7417 52.0583 44.9204 51.1946 45.0991 50.2961 45.1885 49.3628 45.1885 48.0721 45.1885 46.9055 44.9998 45.863 44.6226 44.8206 44.2453 43.9369 43.7141 43.2122 43.0291 42.4874 42.344 41.9314 41.5348 41.5442 40.6016 41.157 39.6683 40.9634 38.6357 40.9634 37.5039 40.9634 34.446 42.5271 32.1029 45.6545 30.4746 48.782 28.8464 53.4632 27.8734 59.6982 27.5557L59.6982 25.4111C59.6982 23.9417 59.5841 22.6957 59.3557 21.6731 59.1274 20.6505 58.7699 19.8215 58.2834 19.186 57.797 18.5506 57.1566 18.089 56.3623 17.801 55.568 17.5131 54.605 17.3691 53.4731 17.3691 51.9045 17.3691 50.584 17.7861 49.5117 18.6201 48.4395 19.4541 47.6452 20.7746 47.1289 22.5815L42.7207 22.5815 42.7207 18.0542C44.1504 17.3791 45.4609 16.8032 46.6523 16.3267 47.8437 15.8501 48.9805 15.4579 50.0627 15.1501 51.1449 14.8424 52.1973 14.619 53.22 14.48 54.2426 14.341 55.29 14.2616 56.3623 14.2417ZM15.9282 7.30176C14.995 7.30176 14.1312 7.31169 13.3369 7.33155 12.5426 7.3514 11.8278 7.38119 11.1924 7.4209L11.1924 24.1006 14.7666 24.1006C16.5736 24.1006 18.1571 23.9467 19.5173 23.6389 20.8775 23.3311 22.0143 22.8347 22.9277 22.1497 23.8411 21.4646 24.5262 20.571 24.9829 19.469 25.4396 18.3669 25.668 17.0117 25.668 15.4033 25.668 12.7028 24.8836 10.6774 23.3149 9.32715 21.7463 7.97689 19.284 7.30176 15.9282 7.30176ZM1.00586 3.99561 17.2388 3.99561C22.342 3.99561 26.1545 4.87427 28.6763 6.6316 31.1981 8.38892 32.459 11.0646 32.459 14.6587 32.459 17.3791 31.6746 19.6676 30.106 21.5242 28.5373 23.3808 26.214 24.7956 23.1362 25.7686L23.1362 26.1855C24.2681 26.7018 25.3254 27.4167 26.3083 28.3301 27.2913 29.2435 28.2891 30.5342 29.3018 32.2021 30.1159 33.6318 30.8208 34.863 31.4165 35.8955 32.0122 36.9281 32.5434 37.8167 33.01 38.5613 33.4766 39.3059 33.9036 39.9215 34.2908 40.408 34.678 40.8945 35.0751 41.2916 35.4822 41.5994 35.8892 41.9071 36.3261 42.1454 36.7927 42.3142 37.2594 42.483 37.8005 42.627 38.416 42.7461L38.416 44.6523 29.0039 44.6523C28.2295 43.5801 27.4849 42.4582 26.77 41.2866 26.0552 40.1151 25.3205 38.8343 24.5659 37.4443 23.6525 35.7962 22.888 34.4013 22.2725 33.2595 21.6569 32.1178 21.1208 31.1746 20.6641 30.4299 20.2074 29.6853 19.7953 29.1045 19.428 28.6875 19.0606 28.2705 18.6635 27.9627 18.2366 27.7642 17.8097 27.5656 17.3182 27.4465 16.7622 27.4067 16.2062 27.367 15.5212 27.3472 14.707 27.3472L11.1924 27.3472 11.1924 36.9976C11.1924 38.2684 11.2271 39.2314 11.2966 39.8867 11.3661 40.542 11.5299 41.0334 11.7881 41.3611 12.0462 41.6887 12.4285 41.922 12.9348 42.061 13.4412 42.2 14.1312 42.3986 15.0049 42.6567L15.0049 44.6523 1.00586 44.6523 1.00586 42.6567C1.95898 42.3787 2.69369 42.1454 3.20996 41.9568 3.72624 41.7681 4.10352 41.505 4.3418 41.1675 4.58008 40.8299 4.71411 40.3484 4.7439 39.7229 4.77368 39.0974 4.78858 38.2088 4.78858 37.0571L4.78858 11.5908C4.78858 10.3796 4.76375 9.46119 4.71411 8.8357 4.66447 8.21021 4.52051 7.73365 4.28223 7.40601 4.04395 7.07837 3.67163 6.83016 3.16528 6.66138 2.65894 6.4926 1.93913 6.25928 1.00586 5.96143ZM100.234 1.31495 102.229 1.31495 102.229 36.4614C102.229 37.6925 102.234 38.6606 102.244 39.3655 102.254 40.0704 102.373 40.6264 102.602 41.0334 102.83 41.4405 103.222 41.7433 103.778 41.9419 104.334 42.1405 105.168 42.3589 106.28 42.5972L106.28 44.6523C104.97 44.7119 103.674 44.7616 102.393 44.8013 101.113 44.841 99.8367 44.8906 98.5659 44.9502L96.3916 44.9502C96.471 44.1162 96.5306 43.2922 96.5703 42.478 96.61 41.6639 96.6597 40.8398 96.7192 40.0059 96.6597 39.9661 96.5951 39.9463 96.5256 39.9463 96.4561 39.9463 96.3916 39.9264 96.332 39.8867 95.2598 40.9788 94.3017 41.8575 93.4578 42.5227 92.6138 43.1879 91.8096 43.7091 91.0452 44.0864 90.2807 44.4637 89.5013 44.7268 88.707 44.8757 87.9128 45.0247 87.0291 45.1289 86.0561 45.1885 84.269 45.1885 82.6755 44.8559 81.2756 44.1907 79.8757 43.5255 78.6942 42.5475 77.7312 41.2568 76.7681 39.9661 76.0334 38.3726 75.5271 36.4763 75.0207 34.58 74.7676 32.4106 74.7676 29.9683 74.7676 27.4067 75.1349 25.148 75.8696 23.1921 76.6043 21.2362 77.617 19.5931 78.9077 18.2627 80.1984 16.9323 81.7224 15.9295 83.4797 15.2544 85.2371 14.5793 87.1383 14.2417 89.1836 14.2417 89.9183 14.2417 90.5984 14.2665 91.2239 14.3162 91.8494 14.3658 92.4451 14.4502 93.011 14.5693 93.5769 14.6885 94.1378 14.8374 94.6938 15.0161 95.2498 15.1948 95.8158 15.4033 96.3916 15.6416L96.3916 11.7695C96.3916 10.5186 96.3817 9.51579 96.3618 8.76123 96.3419 8.00668 96.3122 7.40105 96.2725 6.94434 96.193 6.50749 96.1086 6.11532 96.0193 5.76783 95.9299 5.42033 95.7512 5.11255 95.4831 4.84449 95.2151 4.57642 94.8279 4.34807 94.3215 4.15943 93.8152 3.97079 93.1152 3.8169 92.2217 3.69776L92.2217 1.73194Z" fill-rule="evenodd"/></g></g><path d="M1364.23 1741.13C1359.83 1741.23 1356.59 1741.79 1354.52 1742.83 1352.46 1743.86 1351.43 1745.43 1351.43 1747.53 1351.43 1749.16 1351.89 1750.34 1352.81 1751.06 1353.74 1751.79 1355 1752.15 1356.61 1752.15 1357.74 1752.15 1358.77 1751.95 1359.71 1751.55 1360.64 1751.16 1361.44 1750.64 1362.11 1750.02 1362.77 1749.39 1363.29 1748.7 1363.67 1747.93 1364.05 1747.17 1364.23 1746.42 1364.23 1745.68ZM1394.02 1727.96C1391.3 1727.96 1389.22 1729.01 1387.79 1731.1 1386.36 1733.2 1385.65 1736.18 1385.65 1740.06 1385.65 1744.05 1386.24 1747.02 1387.44 1748.98 1388.63 1750.93 1390.46 1751.91 1392.95 1751.91 1394.14 1751.91 1395.22 1751.69 1396.21 1751.25 1397.19 1750.82 1398.03 1750.26 1398.72 1749.57 1399.42 1748.89 1399.96 1748.12 1400.35 1747.26 1400.73 1746.41 1400.93 1745.56 1400.93 1744.7L1400.93 1736.66C1400.93 1734.91 1400.79 1733.48 1400.51 1732.36 1400.23 1731.23 1399.81 1730.35 1399.25 1729.69 1398.68 1729.03 1397.96 1728.58 1397.09 1728.33 1396.21 1728.09 1395.19 1727.96 1394.02 1727.96ZM1360.9 1725.01C1362.43 1725.05 1363.76 1725.23 1364.9 1725.53 1366.05 1725.84 1367 1726.37 1367.76 1727.13 1368.53 1727.88 1369.1 1728.9 1369.49 1730.18 1369.88 1731.46 1370.08 1733.09 1370.1 1735.05L1370.1 1746.43C1370.1 1747.72 1370.09 1748.76 1370.07 1749.56 1370.05 1750.35 1370.14 1751 1370.34 1751.49 1370.54 1751.99 1370.9 1752.38 1371.41 1752.67 1371.93 1752.96 1372.71 1753.24 1373.77 1753.52L1373.77 1755.42 1364.59 1755.42C1364.63 1754.69 1364.66 1753.95 1364.68 1753.22 1364.7 1752.49 1364.73 1751.77 1364.77 1751.08 1364.71 1751.04 1364.65 1751.01 1364.59 1751 1364.53 1750.99 1364.45 1750.97 1364.35 1750.93 1363.42 1751.84 1362.53 1752.61 1361.69 1753.25 1360.84 1753.89 1360 1754.41 1359.16 1754.81 1358.31 1755.22 1357.46 1755.51 1356.59 1755.69 1355.73 1755.87 1354.83 1755.96 1353.9 1755.96 1352.61 1755.96 1351.44 1755.77 1350.4 1755.39 1349.36 1755.02 1348.47 1754.49 1347.75 1753.8 1347.02 1753.12 1346.47 1752.31 1346.08 1751.37 1345.69 1750.44 1345.5 1749.41 1345.5 1748.28 1345.5 1745.22 1347.06 1742.87 1350.19 1741.25 1353.32 1739.62 1358 1738.65 1364.23 1738.33L1364.23 1736.18C1364.23 1734.71 1364.12 1733.47 1363.89 1732.45 1363.66 1731.42 1363.31 1730.59 1362.82 1729.96 1362.33 1729.32 1361.69 1728.86 1360.9 1728.57 1360.1 1728.29 1359.14 1728.14 1358.01 1728.14 1356.44 1728.14 1355.12 1728.56 1354.05 1729.39 1352.98 1730.23 1352.18 1731.55 1351.67 1733.35L1347.26 1733.35 1347.26 1728.83C1348.69 1728.15 1350 1727.58 1351.19 1727.1 1352.38 1726.62 1353.52 1726.23 1354.6 1725.92 1355.68 1725.61 1356.73 1725.39 1357.76 1725.25 1358.78 1725.11 1359.83 1725.03 1360.9 1725.01ZM1320.46 1718.07C1319.53 1718.07 1318.67 1718.08 1317.87 1718.1 1317.08 1718.12 1316.36 1718.15 1315.73 1718.19L1315.73 1734.87 1319.3 1734.87C1321.11 1734.87 1322.69 1734.72 1324.05 1734.41 1325.41 1734.1 1326.55 1733.61 1327.46 1732.92 1328.38 1732.24 1329.06 1731.34 1329.52 1730.24 1329.98 1729.14 1330.2 1727.78 1330.2 1726.18 1330.2 1723.47 1329.42 1721.45 1327.85 1720.1 1326.28 1718.75 1323.82 1718.07 1320.46 1718.07ZM1305.54 1714.77 1321.78 1714.77C1326.88 1714.77 1330.69 1715.65 1333.21 1717.4 1335.73 1719.16 1337 1721.84 1337 1725.43 1337 1728.15 1336.21 1730.44 1334.64 1732.3 1333.07 1734.15 1330.75 1735.57 1327.67 1736.54L1327.67 1736.96C1328.8 1737.47 1329.86 1738.19 1330.84 1739.1 1331.83 1740.02 1332.83 1741.31 1333.84 1742.97 1334.65 1744.4 1335.36 1745.63 1335.95 1746.67 1336.55 1747.7 1337.08 1748.59 1337.55 1749.33 1338.01 1750.08 1338.44 1750.69 1338.83 1751.18 1339.21 1751.67 1339.61 1752.06 1340.02 1752.37 1340.43 1752.68 1340.86 1752.92 1341.33 1753.09 1341.8 1753.26 1342.34 1753.4 1342.95 1753.52L1342.95 1755.42 1333.54 1755.42C1332.77 1754.35 1332.02 1753.23 1331.31 1752.06 1330.59 1750.89 1329.86 1749.61 1329.1 1748.22 1328.19 1746.57 1327.42 1745.17 1326.81 1744.03 1326.19 1742.89 1325.66 1741.95 1325.2 1741.2 1324.74 1740.46 1324.33 1739.88 1323.96 1739.46 1323.6 1739.04 1323.2 1738.73 1322.77 1738.54 1322.35 1738.34 1321.85 1738.22 1321.3 1738.18 1320.74 1738.14 1320.06 1738.12 1319.24 1738.12L1315.73 1738.12 1315.73 1747.77C1315.73 1749.04 1315.76 1750 1315.83 1750.66 1315.9 1751.31 1316.07 1751.81 1316.32 1752.13 1316.58 1752.46 1316.96 1752.69 1317.47 1752.83 1317.98 1752.97 1318.67 1753.17 1319.54 1753.43L1319.54 1755.42 1305.54 1755.42 1305.54 1753.43C1306.5 1753.15 1307.23 1752.92 1307.75 1752.73 1308.26 1752.54 1308.64 1752.28 1308.88 1751.94 1309.12 1751.6 1309.25 1751.12 1309.28 1750.49 1309.31 1749.87 1309.33 1748.98 1309.33 1747.83L1309.33 1722.36C1309.33 1721.15 1309.3 1720.23 1309.25 1719.61 1309.2 1718.98 1309.06 1718.51 1308.82 1718.18 1308.58 1717.85 1308.21 1717.6 1307.7 1717.43 1307.2 1717.26 1306.48 1717.03 1305.54 1716.73ZM1404.77 1712.09 1406.77 1712.09 1406.77 1747.23C1406.77 1748.46 1406.77 1749.43 1406.78 1750.14 1406.79 1750.84 1406.91 1751.4 1407.14 1751.81 1407.37 1752.21 1407.76 1752.52 1408.31 1752.71 1408.87 1752.91 1409.7 1753.13 1410.82 1753.37L1410.82 1755.42C1409.51 1755.48 1408.21 1755.53 1406.93 1755.57 1405.65 1755.61 1404.37 1755.66 1403.1 1755.72L1400.93 1755.72C1401.01 1754.89 1401.07 1754.06 1401.11 1753.25 1401.15 1752.44 1401.2 1751.61 1401.26 1750.78 1401.2 1750.74 1401.13 1750.72 1401.06 1750.72 1400.99 1750.72 1400.93 1750.7 1400.87 1750.66 1399.8 1751.75 1398.84 1752.63 1397.99 1753.29 1397.15 1753.96 1396.35 1754.48 1395.58 1754.86 1394.82 1755.24 1394.04 1755.5 1393.24 1755.65 1392.45 1755.8 1391.57 1755.9 1390.59 1755.96 1388.81 1755.96 1387.21 1755.63 1385.81 1754.96 1384.41 1754.3 1383.23 1753.32 1382.27 1752.03 1381.3 1750.74 1380.57 1749.14 1380.06 1747.25 1379.56 1745.35 1379.3 1743.18 1379.3 1740.74 1379.3 1738.18 1379.67 1735.92 1380.41 1733.96 1381.14 1732.01 1382.15 1730.37 1383.44 1729.03 1384.73 1727.7 1386.26 1726.7 1388.02 1726.03 1389.77 1725.35 1391.67 1725.01 1393.72 1725.01 1394.45 1725.01 1395.13 1725.04 1395.76 1725.09 1396.39 1725.14 1396.98 1725.22 1397.55 1725.34 1398.11 1725.46 1398.67 1725.61 1399.23 1725.79 1399.79 1725.97 1400.35 1726.18 1400.93 1726.41L1400.93 1722.54C1400.93 1721.29 1400.92 1720.29 1400.9 1719.53 1400.88 1718.78 1400.85 1718.17 1400.81 1717.72 1400.73 1717.28 1400.65 1716.89 1400.56 1716.54 1400.47 1716.19 1400.29 1715.88 1400.02 1715.62 1399.75 1715.35 1399.36 1715.12 1398.86 1714.93 1398.35 1714.74 1397.65 1714.59 1396.76 1714.47L1396.76 1712.5Z" fill-rule="evenodd"/><text fill="#000000" fill-opacity="0" font-family="Arial,Arial_MSFontService,sans-serif" font-size="43.8735" x="1305.54" y="1750.48">Rad</text><g clip-path="url(#clip33)" filter="url(#fx10)" transform="translate(1425 1677)"><g clip-path="url(#clip34)"><path d="M76.3068 0.694501C84.1962 2.77491 90.255 7.26668 94.4833 14.1698 98.7117 21.073 100.826 29.4014 100.826 39.1549 100.826 48.9355 98.7184 57.2639 94.5036 64.1401 90.2888 71.0162 84.2232 75.4945 76.3068 77.5749L75.3342 74.4543C81.5754 72.3739 86.2158 68.2671 89.2553 62.1339 92.2949 56.0008 93.8146 48.2061 93.8146 38.7497 93.8146 29.6175 92.3016 22.0321 89.2756 15.9936 86.2496 9.955 81.5619 5.89551 75.2126 3.8151ZM25.4157 0.694501 26.5099 3.8151C20.1877 5.89551 15.5068 9.955 12.4672 15.9936 9.42767 22.0321 7.9079 29.6175 7.9079 38.7497 7.9079 48.2061 9.42767 56.0008 12.4672 62.1339 15.5068 68.2671 20.1472 72.3739 26.3884 74.4543L25.4157 77.5749C17.4994 75.4945 11.4338 71.0162 7.21893 64.1401 3.00409 57.2639 0.896667 48.9355 0.896667 39.1549 0.896667 29.4014 3.01086 21.073 7.2392 14.1698 11.4675 7.26668 17.5264 2.77491 25.4157 0.694501Z" fill-rule="evenodd"/></g></g><path d="M1499.84 1676.47C1507.73 1678.55 1513.79 1683.04 1518.02 1689.94 1522.25 1696.84 1524.36 1705.17 1524.36 1714.93 1524.36 1724.71 1522.25 1733.04 1518.04 1739.91 1513.83 1746.79 1507.76 1751.27 1499.84 1753.35L1498.87 1750.23C1505.11 1748.15 1509.75 1744.04 1512.79 1737.91 1515.83 1731.77 1517.35 1723.98 1517.35 1714.52 1517.35 1705.39 1515.84 1697.8 1512.81 1691.77 1509.79 1685.73 1505.1 1681.67 1498.75 1679.59ZM1448.95 1676.47 1450.05 1679.59C1443.72 1681.67 1439.04 1685.73 1436 1691.77 1432.96 1697.8 1431.44 1705.39 1431.44 1714.52 1431.44 1723.98 1432.96 1731.77 1436 1737.91 1439.04 1744.04 1443.68 1748.15 1449.92 1750.23L1448.95 1753.35C1441.04 1751.27 1434.97 1746.79 1430.76 1739.91 1426.54 1733.04 1424.43 1724.71 1424.43 1714.93 1424.43 1705.17 1426.55 1696.84 1430.78 1689.94 1435 1683.04 1441.06 1678.55 1448.95 1676.47Z" fill-rule="evenodd"/><g clip-path="url(#clip35)" filter="url(#fx11)" transform="translate(1457 1683)"><g clip-path="url(#clip36)"><path d="M18.8182 4.28516C16.954 4.28516 15.3937 4.83903 14.1373 5.94678 12.881 7.05453 11.8678 8.6486 11.0978 10.729 10.3278 12.8094 9.78064 15.3424 9.45642 18.3279 9.1322 21.3134 8.97009 24.6839 8.97009 28.4395 8.97009 37.2474 9.78739 43.7115 11.422 47.8318 13.0566 51.9521 15.5896 54.0122 19.0209 54.0122 22.2901 54.0122 24.715 52.0737 26.2955 48.1965 27.8761 44.3194 28.6664 38.3146 28.6664 30.1821 28.6664 23.9679 28.2611 18.9358 27.4506 15.0857 26.64 11.2356 25.512 8.47299 24.0665 6.79786 22.621 5.12272 20.8716 4.28516 18.8182 4.28516ZM19.0209 0.840336C24.9379 0.840336 29.3418 3.12338 32.2328 7.68946 35.1237 12.2555 36.5692 19.1587 36.5692 28.3989 36.5692 37.9634 35.0224 45.1975 31.9288 50.1013 28.8352 55.0051 24.3164 57.457 18.3724 57.457 12.5365 57.457 8.19332 55.1605 5.3429 50.5674 2.49247 45.9743 1.06726 39.0036 1.06726 29.6553 1.06726 24.6839 1.50631 20.388 2.3844 16.7676 3.26249 13.1471 4.49182 10.1549 6.07239 7.79078 7.65295 5.42668 9.55099 3.67725 11.7665 2.54248 13.982 1.40772 16.4001 0.840336 19.0209 0.840336Z" fill-rule="evenodd"/></g></g><path d="M1474.35 1686.06C1472.49 1686.06 1470.93 1686.61 1469.67 1687.72 1468.42 1688.83 1467.4 1690.42 1466.63 1692.5 1465.86 1694.58 1465.32 1697.11 1464.99 1700.1 1464.67 1703.09 1464.51 1706.46 1464.51 1710.21 1464.51 1719.02 1465.32 1725.48 1466.96 1729.6 1468.59 1733.72 1471.13 1735.78 1474.56 1735.78 1477.83 1735.78 1480.25 1733.85 1481.83 1729.97 1483.41 1726.09 1484.2 1720.09 1484.2 1711.95 1484.2 1705.74 1483.8 1700.71 1482.99 1696.86 1482.18 1693.01 1481.05 1690.24 1479.6 1688.57 1478.16 1686.89 1476.41 1686.06 1474.35 1686.06ZM1474.56 1682.61C1480.47 1682.61 1484.88 1684.9 1487.77 1689.46 1490.66 1694.03 1492.11 1700.93 1492.11 1710.17 1492.11 1719.74 1490.56 1726.97 1487.47 1731.87 1484.37 1736.78 1479.85 1739.23 1473.91 1739.23 1468.07 1739.23 1463.73 1736.93 1460.88 1732.34 1458.03 1727.75 1456.6 1720.78 1456.6 1711.43 1456.6 1706.46 1457.04 1702.16 1457.92 1698.54 1458.8 1694.92 1460.03 1691.93 1461.61 1689.56 1463.19 1687.2 1465.09 1685.45 1467.3 1684.31 1469.52 1683.18 1471.94 1682.61 1474.56 1682.61Z" fill-rule="evenodd"/><text fill="#000000" fill-opacity="0" font-family="Arial,Arial_MSFontService,sans-serif" font-size="56.6167" x="1456.6" y="1732.15">0</text></g></svg>