<svg width="1020" height="223" xmlns="http://www.w3.org/2000/svg" xmlns:xlink="http://www.w3.org/1999/xlink" xml:space="preserve" overflow="hidden"><defs><filter id="fx0" x="-10%" y="-10%" width="120%" height="120%" filterUnits="userSpaceOnUse" primitiveUnits="userSpaceOnUse"><feComponentTransfer color-interpolation-filters="sRGB"><feFuncR type="discrete" tableValues="1 1"/><feFuncG type="discrete" tableValues="1 1"/><feFuncB type="discrete" tableValues="1 1"/><feFuncA type="linear" slope="0.4" intercept="0"/></feComponentTransfer><feGaussianBlur stdDeviation="0 0"/></filter><filter id="fx1" x="-10%" y="-10%" width="120%" height="120%" filterUnits="userSpaceOnUse" primitiveUnits="userSpaceOnUse"><feComponentTransfer color-interpolation-filters="sRGB"><feFuncR type="discrete" tableValues="1 1"/><feFuncG type="discrete" tableValues="1 1"/><feFuncB type="discrete" tableValues="1 1"/><feFuncA type="linear" slope="0.4" intercept="0"/></feComponentTransfer><feGaussianBlur stdDeviation="0 0"/></filter><filter id="fx2" x="-10%" y="-10%" width="120%" height="120%" filterUnits="userSpaceOnUse" primitiveUnits="userSpaceOnUse"><feComponentTransfer color-interpolation-filters="sRGB"><feFuncR type="discrete" tableValues="1 1"/><feFuncG type="discrete" tableValues="1 1"/><feFuncB type="discrete" tableValues="1 1"/><feFuncA type="linear" slope="0.4" intercept="0"/></feComponentTransfer><feGaussianBlur stdDeviation="0 0"/></filter><filter id="fx3" x="-10%" y="-10%" width="120%" height="120%" filterUnits="userSpaceOnUse" primitiveUnits="userSpaceOnUse"><feComponentTransfer color-interpolation-filters="sRGB"><feFuncR type="discrete" tableValues="1 1"/><feFuncG type="discrete" tableValues="1 1"/><feFuncB type="discrete" tableValues="1 1"/><feFuncA type="linear" slope="0.4" intercept="0"/></feComponentTransfer><feGaussianBlur stdDeviation="0 0"/></filter><filter id="fx4" x="-10%" y="-10%" width="120%" height="120%" filterUnits="userSpaceOnUse" primitiveUnits="userSpaceOnUse"><feComponentTransfer color-interpolation-filters="sRGB"><feFuncR type="discrete" tableValues="1 1"/><feFuncG type="discrete" tableValues="1 1"/><feFuncB type="discrete" tableValues="1 1"/><feFuncA type="linear" slope="0.4" intercept="0"/></feComponentTransfer><feGaussianBlur stdDeviation="0 0"/></filter><filter id="fx5" x="-10%" y="-10%" width="120%" height="120%" filterUnits="userSpaceOnUse" primitiveUnits="userSpaceOnUse"><feComponentTransfer color-interpolation-filters="sRGB"><feFuncR type="discrete" tableValues="1 1"/><feFuncG type="discrete" tableValues="1 1"/><feFuncB type="discrete" tableValues="1 1"/><feFuncA type="linear" slope="0.4" intercept="0"/></feComponentTransfer><feGaussianBlur stdDeviation="0 0"/></filter><filter id="fx6" x="-10%" y="-10%" width="120%" height="120%" filterUnits="userSpaceOnUse" primitiveUnits="userSpaceOnUse"><feComponentTransfer color-interpolation-filters="sRGB"><feFuncR type="discrete" tableValues="1 1"/><feFuncG type="discrete" tableValues="1 1"/><feFuncB type="discrete" tableValues="1 1"/><feFuncA type="linear" slope="0.4" intercept="0"/></feComponentTransfer><feGaussianBlur stdDeviation="0 0"/></filter><filter id="fx7" x="-10%" y="-10%" width="120%" height="120%" filterUnits="userSpaceOnUse" primitiveUnits="userSpaceOnUse"><feComponentTransfer color-interpolation-filters="sRGB"><feFuncR type="discrete" tableValues="1 1"/><feFuncG type="discrete" tableValues="1 1"/><feFuncB type="discrete" tableValues="1 1"/><feFuncA type="linear" slope="0.4" intercept="0"/></feComponentTransfer><feGaussianBlur stdDeviation="0 0"/></filter><filter id="fx8" x="-10%" y="-10%" width="120%" height="120%" filterUnits="userSpaceOnUse" primitiveUnits="userSpaceOnUse"><feComponentTransfer color-interpolation-filters="sRGB"><feFuncR type="discrete" tableValues="1 1"/><feFuncG type="discrete" tableValues="1 1"/><feFuncB type="discrete" tableValues="1 1"/><feFuncA type="linear" slope="0.4" intercept="0"/></feComponentTransfer><feGaussianBlur stdDeviation="0 0"/></filter><filter id="fx9" x="-10%" y="-10%" width="120%" height="120%" filterUnits="userSpaceOnUse" primitiveUnits="userSpaceOnUse"><feComponentTransfer color-interpolation-filters="sRGB"><feFuncR type="discrete" tableValues="1 1"/><feFuncG type="discrete" tableValues="1 1"/><feFuncB type="discrete" tableValues="1 1"/><feFuncA type="linear" slope="0.4" intercept="0"/></feComponentTransfer><feGaussianBlur stdDeviation="0 0"/></filter><filter id="fx10" x="-10%" y="-10%" width="120%" height="120%" filterUnits="userSpaceOnUse" primitiveUnits="userSpaceOnUse"><feComponentTransfer color-interpolation-filters="sRGB"><feFuncR type="discrete" tableValues="1 1"/><feFuncG type="discrete" tableValues="1 1"/><feFuncB type="discrete" tableValues="1 1"/><feFuncA type="linear" slope="0.4" intercept="0"/></feComponentTransfer><feGaussianBlur stdDeviation="0 0"/></filter><filter id="fx11" x="-10%" y="-10%" width="120%" height="120%" filterUnits="userSpaceOnUse" primitiveUnits="userSpaceOnUse"><feComponentTransfer color-interpolation-filters="sRGB"><feFuncR type="discrete" tableValues="1 1"/><feFuncG type="discrete" tableValues="1 1"/><feFuncB type="discrete" tableValues="1 1"/><feFuncA type="linear" slope="0.4" intercept="0"/></feComponentTransfer><feGaussianBlur stdDeviation="0 0"/></filter><filter id="fx12" x="-10%" y="-10%" width="120%" height="120%" filterUnits="userSpaceOnUse" primitiveUnits="userSpaceOnUse"><feComponentTransfer color-interpolation-filters="sRGB"><feFuncR type="discrete" tableValues="1 1"/><feFuncG type="discrete" tableValues="1 1"/><feFuncB type="discrete" tableValues="1 1"/><feFuncA type="linear" slope="0.4" intercept="0"/></feComponentTransfer><feGaussianBlur stdDeviation="0 0"/></filter><filter id="fx13" x="-10%" y="-10%" width="120%" height="120%" filterUnits="userSpaceOnUse" primitiveUnits="userSpaceOnUse"><feComponentTransfer color-interpolation-filters="sRGB"><feFuncR type="discrete" tableValues="1 1"/><feFuncG type="discrete" tableValues="1 1"/><feFuncB type="discrete" tableValues="1 1"/><feFuncA type="linear" slope="0.4" intercept="0"/></feComponentTransfer><feGaussianBlur stdDeviation="0 0"/></filter><filter id="fx14" x="-10%" y="-10%" width="120%" height="120%" filterUnits="userSpaceOnUse" primitiveUnits="userSpaceOnUse"><feComponentTransfer color-interpolation-filters="sRGB"><feFuncR type="discrete" tableValues="1 1"/><feFuncG type="discrete" tableValues="1 1"/><feFuncB type="discrete" tableValues="1 1"/><feFuncA type="linear" slope="0.4" intercept="0"/></feComponentTransfer><feGaussianBlur stdDeviation="0 0"/></filter><filter id="fx15" x="-10%" y="-10%" width="120%" height="120%" filterUnits="userSpaceOnUse" primitiveUnits="userSpaceOnUse"><feComponentTransfer color-interpolation-filters="sRGB"><feFuncR type="discrete" tableValues="1 1"/><feFuncG type="discrete" tableValues="1 1"/><feFuncB type="discrete" tableValues="1 1"/><feFuncA type="linear" slope="0.4" intercept="0"/></feComponentTransfer><feGaussianBlur stdDeviation="0 0"/></filter><filter id="fx16" x="-10%" y="-10%" width="120%" height="120%" filterUnits="userSpaceOnUse" primitiveUnits="userSpaceOnUse"><feComponentTransfer color-interpolation-filters="sRGB"><feFuncR type="discrete" tableValues="1 1"/><feFuncG type="discrete" tableValues="1 1"/><feFuncB type="discrete" tableValues="1 1"/><feFuncA type="linear" slope="0.4" intercept="0"/></feComponentTransfer><feGaussianBlur stdDeviation="0 0"/></filter><filter id="fx17" x="-10%" y="-10%" width="120%" height="120%" filterUnits="userSpaceOnUse" primitiveUnits="userSpaceOnUse"><feComponentTransfer color-interpolation-filters="sRGB"><feFuncR type="discrete" tableValues="1 1"/><feFuncG type="discrete" tableValues="1 1"/><feFuncB type="discrete" tableValues="1 1"/><feFuncA type="linear" slope="0.4" intercept="0"/></feComponentTransfer><feGaussianBlur stdDeviation="0 0"/></filter><filter id="fx18" x="-10%" y="-10%" width="120%" height="120%" filterUnits="userSpaceOnUse" primitiveUnits="userSpaceOnUse"><feComponentTransfer color-interpolation-filters="sRGB"><feFuncR type="discrete" tableValues="1 1"/><feFuncG type="discrete" tableValues="1 1"/><feFuncB type="discrete" tableValues="1 1"/><feFuncA type="linear" slope="0.4" intercept="0"/></feComponentTransfer><feGaussianBlur stdDeviation="0 0"/></filter><clipPath id="clip19"><rect x="127" y="48" width="1020" height="223"/></clipPath><clipPath id="clip20"><rect x="0" y="1" width="42" height="59"/></clipPath><clipPath id="clip21"><rect x="0" y="0" width="43" height="61"/></clipPath><clipPath id="clip22"><rect x="0" y="0" width="76" height="60"/></clipPath><clipPath id="clip23"><rect x="0" y="0" width="77" height="60"/></clipPath><clipPath id="clip24"><rect x="0" y="1" width="83" height="6"/></clipPath><clipPath id="clip25"><rect x="0" y="0" width="84" height="7"/></clipPath><clipPath id="clip26"><rect x="0" y="1" width="43" height="57"/></clipPath><clipPath id="clip27"><rect x="0" y="0" width="44" height="59"/></clipPath><clipPath id="clip28"><rect x="1" y="1" width="89" height="78"/></clipPath><clipPath id="clip29"><rect x="0" y="0" width="91" height="79"/></clipPath><clipPath id="clip30"><rect x="0" y="0" width="28" height="51"/></clipPath><clipPath id="clip31"><rect x="0" y="0" width="28" height="51"/></clipPath><clipPath id="clip32"><rect x="1" y="0" width="51" height="7"/></clipPath><clipPath id="clip33"><rect x="0" y="0" width="52" height="7"/></clipPath><clipPath id="clip34"><rect x="0" y="1" width="19" height="56"/></clipPath><clipPath id="clip35"><rect x="0" y="0" width="20" height="58"/></clipPath><clipPath id="clip36"><rect x="0" y="0" width="43" height="60"/></clipPath><clipPath id="clip37"><rect x="0" y="0" width="43" height="60"/></clipPath><clipPath id="clip38"><rect x="0" y="1" width="50" height="6"/></clipPath><clipPath id="clip39"><rect x="0" y="0" width="51" height="7"/></clipPath><clipPath id="clip40"><rect x="1" y="0" width="50" height="23"/></clipPath><clipPath id="clip41"><rect x="0" y="0" width="52" height="24"/></clipPath><clipPath id="clip42"><rect x="1" y="1" width="387" height="78"/></clipPath><clipPath id="clip43"><rect x="0" y="0" width="389" height="79"/></clipPath><clipPath id="clip44"><rect x="1" y="1" width="56" height="56"/></clipPath><clipPath id="clip45"><rect x="0" y="0" width="58" height="57"/></clipPath><clipPath id="clip46"><rect x="0" y="1" width="90" height="78"/></clipPath><clipPath id="clip47"><rect x="0" y="0" width="90" height="79"/></clipPath><clipPath id="clip48"><rect x="1" y="0" width="28" height="51"/></clipPath><clipPath id="clip49"><rect x="0" y="0" width="29" height="51"/></clipPath><clipPath id="clip50"><rect x="1" y="1" width="13" height="21"/></clipPath><clipPath id="clip51"><rect x="0" y="0" width="14" height="23"/></clipPath><clipPath id="clip52"><rect x="0" y="1" width="43" height="57"/></clipPath><clipPath id="clip53"><rect x="0" y="0" width="44" height="59"/></clipPath><clipPath id="clip54"><rect x="1" y="1" width="89" height="78"/></clipPath><clipPath id="clip55"><rect x="0" y="0" width="91" height="79"/></clipPath><clipPath id="clip56"><rect x="0" y="0" width="28" height="51"/></clipPath><clipPath id="clip57"><rect x="0" y="0" width="29" height="51"/></clipPath></defs><g clip-path="url(#clip19)" transform="translate(-127 -48)"><g clip-path="url(#clip20)" filter="url(#fx0)" transform="translate(206 77)"><g clip-path="url(#clip21)"><path d="M22.2508 22.7314C19.495 22.7314 17.0228 23.8459 14.8343 26.0749 12.6458 28.3039 10.9234 31.3096 9.66708 35.0922 8.41074 38.8747 7.78256 42.6438 7.78256 46.3993 7.78256 49.2092 8.16757 51.3099 8.93759 52.7013 9.70761 54.0928 10.9977 54.7885 12.808 54.7885 13.6455 54.7885 14.4966 54.6061 15.3612 54.2414 16.2258 53.8766 17.1241 53.289 18.0562 52.4784 18.9884 51.6679 19.907 50.6817 20.8121 49.5199 21.7172 48.3581 22.548 47.1896 23.3045 46.0143 24.061 44.839 24.7635 43.4476 25.412 41.84 26.0604 40.2324 26.6143 38.2939 27.0736 36.0243L27.4383 34.2816C27.8436 32.3363 28.0462 30.4991 28.0462 28.7699 28.0462 26.6625 27.6004 25.1292 26.7088 24.1701 25.8172 23.2109 24.3312 22.7314 22.2508 22.7314ZM39.2318 1.0087 41.6229 1.0087 31.5316 45.8725C30.9372 48.5203 30.64 50.5196 30.64 51.8705 30.64 52.9512 30.8156 53.7348 31.1668 54.2211 31.5181 54.7074 32.0719 54.9506 32.8285 54.9506 33.639 54.9506 34.5036 54.6196 35.4222 53.9577 36.3408 53.2957 37.6377 52.0326 39.3128 50.1684L41.6229 52.4379C39.1372 55.0587 37.0433 56.9094 35.3412 57.9901 33.639 59.0709 31.8018 59.6112 29.8294 59.6112 28.1543 59.6112 26.8169 59.0574 25.8172 57.9496 24.8176 56.8419 24.3177 55.3694 24.3177 53.5321 24.3177 52.0461 24.6284 50.4656 25.2498 48.7904L24.723 48.6283C22.1292 52.4109 19.6706 55.1802 17.347 56.9364 15.0234 58.6926 12.5648 59.5707 9.97104 59.5707 6.99903 59.5707 4.69573 58.4495 3.06113 56.2069 1.42652 53.9644 0.609222 50.8168 0.609222 46.7641 0.609222 42.1169 1.52109 37.6522 3.34482 33.3698 5.16855 29.0874 7.67449 25.7101 10.8626 23.2379 14.0508 20.7658 17.6037 19.5297 21.5213 19.5297 23.1694 19.5297 24.6892 19.6986 26.0807 20.0363 27.4721 20.374 28.8973 20.9617 30.3563 21.7992L32.4637 12.4374C32.6799 11.5458 32.869 10.5596 33.0311 9.47892 33.1932 8.39819 33.2743 7.45255 33.2743 6.642 33.2743 5.83146 33.1257 5.21679 32.8285 4.79801 32.5313 4.37922 32.1057 4.07527 31.5518 3.88614 30.998 3.69702 30.0051 3.56192 28.5731 3.48087L29.0594 1.37345Z" fill-rule="evenodd"/></g></g><path d="M225.783 97.6609C223.027 97.6609 220.555 98.7754 218.367 101.004 216.178 103.233 214.456 106.239 213.2 110.022 211.943 113.804 211.315 117.573 211.315 121.329 211.315 124.139 211.7 126.239 212.47 127.631 213.24 129.022 214.53 129.718 216.34 129.718 217.178 129.718 218.029 129.536 218.894 129.171 219.758 128.806 220.657 128.219 221.589 127.408 222.521 126.597 223.44 125.611 224.345 124.449 225.25 123.288 226.081 122.119 226.837 120.944 227.594 119.769 228.296 118.377 228.944 116.77 229.593 115.162 230.147 113.223 230.606 110.954L230.971 109.211C231.376 107.266 231.579 105.429 231.579 103.699 231.579 101.592 231.133 100.059 230.241 99.0996 229.35 98.1405 227.864 97.6609 225.783 97.6609ZM242.764 75.9382 245.155 75.9382 235.064 120.802C234.47 123.45 234.173 125.449 234.173 126.8 234.173 127.881 234.348 128.664 234.699 129.151 235.051 129.637 235.604 129.88 236.361 129.88 237.172 129.88 238.036 129.549 238.955 128.887 239.873 128.225 241.17 126.962 242.845 125.098L245.155 127.367C242.67 129.988 240.576 131.839 238.874 132.92 237.172 134 235.334 134.541 233.362 134.541 231.687 134.541 230.349 133.987 229.35 132.879 228.35 131.771 227.85 130.299 227.85 128.462 227.85 126.976 228.161 125.395 228.782 123.72L228.256 123.558C225.662 127.34 223.203 130.11 220.88 131.866 218.556 133.622 216.097 134.5 213.504 134.5 210.532 134.5 208.228 133.379 206.594 131.136 204.959 128.894 204.142 125.746 204.142 121.694 204.142 117.046 205.054 112.582 206.877 108.299 208.701 104.017 211.207 100.64 214.395 98.1675 217.583 95.6953 221.136 94.4592 225.054 94.4592 226.702 94.4592 228.222 94.6281 229.613 94.9658 231.005 95.3036 232.43 95.8912 233.889 96.7288L235.996 87.3669C236.212 86.4753 236.402 85.4892 236.564 84.4084 236.726 83.3277 236.807 82.3821 236.807 81.5715 236.807 80.761 236.658 80.1463 236.361 79.7275 236.064 79.3088 235.638 79.0048 235.084 78.8157 234.53 78.6266 233.538 78.4915 232.106 78.4104L232.592 76.303Z" fill-rule="evenodd"/><text fill="#000000" fill-opacity="0" font-family="Arial,Arial_MSFontService,sans-serif" font-size="58.6025" x="204.142" y="127.215">𝑑</text><g clip-path="url(#clip22)" filter="url(#fx1)" transform="translate(190 195)"><g clip-path="url(#clip23)"><path d="M22.2321 22.3626C19.4762 22.3626 17.004 23.4771 14.8156 25.7061 12.6271 27.9351 10.9047 30.9409 9.64833 34.7234 8.39198 38.506 7.76381 42.275 7.76381 46.0306 7.76381 48.8405 8.14882 50.9411 8.91884 52.3326 9.68886 53.724 10.979 54.4197 12.7892 54.4197 13.6268 54.4197 14.4778 54.2374 15.3424 53.8726 16.207 53.5079 17.1054 52.9202 18.0375 52.1097 18.9696 51.2991 19.8882 50.313 20.7933 49.1512 21.6985 47.9894 22.5293 46.8208 23.2858 45.6456 24.0423 44.4703 24.7448 43.0788 25.3932 41.4712 26.0416 39.8637 26.5955 37.9251 27.0548 35.6556L27.4196 33.9129C27.8248 31.9676 28.0275 30.1303 28.0275 28.4012 28.0275 26.2938 27.5817 24.7605 26.6901 23.8013 25.7985 22.8422 24.3125 22.3626 22.2321 22.3626ZM60.1813 9.83965 65.7741 9.83965 63.5451 19.8499 75.8654 19.8499 74.9738 23.9432 62.6535 23.9432 59.0465 39.6678C58.344 42.7208 57.8982 44.9161 57.7091 46.2535 57.52 47.5909 57.4254 48.6648 57.4254 49.4754 57.4254 52.8256 58.8169 54.5008 61.5997 54.5008 62.7885 54.5008 64.0516 54.0482 65.389 53.1431 66.7264 52.238 68.3138 50.6912 70.151 48.5027L72.5016 50.9344C70.151 53.7713 67.8882 55.8652 65.7133 57.2161 63.5383 58.567 61.262 59.2425 58.8844 59.2425 53.2376 59.2425 50.4142 56.3921 50.4142 50.6912 50.4142 48.881 50.6439 46.9762 51.1032 44.9769L55.8854 23.9432 49.0768 23.9432 49.6847 21.1468C51.2788 21.1198 52.4878 20.9982 53.3119 20.782 54.136 20.5659 54.8249 20.2687 55.3788 19.8904 55.9327 19.5122 56.4393 18.9718 56.8986 18.2693 57.3579 17.5669 57.8037 16.6685 58.236 15.5743 58.6683 14.48 59.3167 12.5685 60.1813 9.83965ZM39.213 0.639942 41.6041 0.639942 31.5128 45.5037C30.9184 48.1515 30.6212 50.1508 30.6212 51.5018 30.6212 52.5825 30.7968 53.366 31.1481 53.8523 31.4993 54.3387 32.0532 54.5818 32.8097 54.5818 33.6203 54.5818 34.4848 54.2509 35.4035 53.5889 36.3221 52.927 37.6189 51.6639 39.2941 49.7996L41.6041 52.0691C39.1185 54.6899 37.0245 56.5407 35.3224 57.6214 33.6203 58.7021 31.783 59.2425 29.8107 59.2425 28.1356 59.2425 26.7982 58.6886 25.7985 57.5809 24.7988 56.4731 24.299 55.0006 24.299 53.1634 24.299 51.6774 24.6097 50.0968 25.2311 48.4217L24.7042 48.2596C22.1105 52.0421 19.6518 54.8115 17.3283 56.5677 15.0047 58.3239 12.546 59.202 9.95229 59.202 6.98028 59.202 4.67698 58.0807 3.04237 55.8382 1.40777 53.5957 0.59047 50.448 0.59047 46.3953 0.59047 41.7482 1.50234 37.2834 3.32607 33.001 5.1498 28.7186 7.65574 25.3414 10.8439 22.8692 14.032 20.397 17.5849 19.1609 21.5026 19.1609 23.1507 19.1609 24.6705 19.3298 26.0619 19.6675 27.4533 20.0053 28.8786 20.5929 30.3375 21.4305L32.445 12.0687C32.6611 11.1771 32.8502 10.1909 33.0123 9.11016 33.1744 8.02943 33.2555 7.08379 33.2555 6.27324 33.2555 5.4627 33.1069 4.84803 32.8097 4.42925 32.5125 4.01046 32.087 3.70651 31.5331 3.51738 30.9792 3.32826 29.9863 3.19316 28.5543 3.11211L29.0407 1.00469Z" fill-rule="evenodd"/></g></g><path d="M209.765 215.292C207.009 215.292 204.537 216.407 202.348 218.636 200.16 220.865 198.437 223.87 197.181 227.653 195.925 231.436 195.296 235.205 195.296 238.96 195.296 241.77 195.681 243.871 196.451 245.262 197.221 246.654 198.512 247.349 200.322 247.349 201.159 247.349 202.01 247.167 202.875 246.802 203.74 246.437 204.638 245.85 205.57 245.039 206.502 244.229 207.421 243.242 208.326 242.081 209.231 240.919 210.062 239.75 210.818 238.575 211.575 237.4 212.277 236.008 212.926 234.401 213.574 232.793 214.128 230.855 214.587 228.585L214.952 226.842C215.357 224.897 215.56 223.06 215.56 221.331 215.56 219.223 215.114 217.69 214.223 216.731 213.331 215.772 211.845 215.292 209.765 215.292ZM247.714 202.769 253.307 202.769 251.078 212.779 263.398 212.779 262.506 216.873 250.186 216.873 246.579 232.597C245.877 235.65 245.431 237.846 245.242 239.183 245.053 240.52 244.958 241.594 244.958 242.405 244.958 245.755 246.349 247.43 249.132 247.43 250.321 247.43 251.584 246.978 252.922 246.073 254.259 245.168 255.846 243.621 257.684 241.432L260.034 243.864C257.684 246.701 255.421 248.795 253.246 250.146 251.071 251.497 248.795 252.172 246.417 252.172 240.77 252.172 237.947 249.322 237.947 243.621 237.947 241.811 238.176 239.906 238.636 237.906L243.418 216.873 236.609 216.873 237.217 214.076C238.811 214.049 240.02 213.928 240.844 213.712 241.668 213.495 242.357 213.198 242.911 212.82 243.465 212.442 243.972 211.901 244.431 211.199 244.89 210.496 245.336 209.598 245.769 208.504 246.201 207.41 246.849 205.498 247.714 202.769ZM226.746 193.569 229.137 193.569 219.045 238.433C218.451 241.081 218.154 243.08 218.154 244.431 218.154 245.512 218.329 246.296 218.681 246.782 219.032 247.268 219.586 247.511 220.342 247.511 221.153 247.511 222.017 247.18 222.936 246.518 223.855 245.857 225.151 244.593 226.827 242.729L229.137 244.999C226.651 247.619 224.557 249.47 222.855 250.551 221.153 251.632 219.316 252.172 217.343 252.172 215.668 252.172 214.331 251.618 213.331 250.51 212.331 249.403 211.831 247.93 211.831 246.093 211.831 244.607 212.142 243.026 212.764 241.351L212.237 241.189C209.643 244.972 207.184 247.741 204.861 249.497 202.537 251.253 200.079 252.131 197.485 252.131 194.513 252.131 192.21 251.01 190.575 248.768 188.94 246.525 188.123 243.378 188.123 239.325 188.123 234.678 189.035 230.213 190.859 225.931 192.682 221.648 195.188 218.271 198.376 215.799 201.565 213.327 205.117 212.09 209.035 212.09 210.683 212.09 212.203 212.259 213.594 212.597 214.986 212.935 216.411 213.522 217.87 214.36L219.977 204.998C220.194 204.107 220.383 203.12 220.545 202.04 220.707 200.959 220.788 200.013 220.788 199.203 220.788 198.392 220.639 197.778 220.342 197.359 220.045 196.94 219.62 196.636 219.066 196.447 218.512 196.258 217.519 196.123 216.087 196.042L216.573 193.934Z" fill-rule="evenodd"/><text fill="#000000" fill-opacity="0" font-family="Arial,Arial_MSFontService,sans-serif" font-size="58.6025" x="188.123" y="244.847">𝑑𝑡</text><g clip-path="url(#clip24)" filter="url(#fx2)" transform="translate(185 171)"><g clip-path="url(#clip25)"><path d="M0.891356 1.41071 82.8913 1.41071 82.8913 6.41071 0.891356 6.41071Z" fill-rule="evenodd"/></g></g><path d="M183.424 170.34 265.424 170.34 265.424 175.34 183.424 175.34Z" fill-rule="evenodd"/><g clip-path="url(#clip26)" filter="url(#fx3)" transform="translate(282 158)"><g clip-path="url(#clip27)"><path d="M28.8413 4.21979C27.8146 4.21979 26.8352 4.40216 25.9031 4.76691 24.971 5.13166 23.9983 5.75307 22.9851 6.63117 21.972 7.50926 21.0061 8.69131 20.0874 10.1773 19.1688 11.6633 18.3448 13.4127 17.6153 15.4256 16.8858 17.4385 16.1833 20.0119 15.5078 23.1461L14.0894 29.671C14.0353 29.9682 13.9746 30.3937 13.907 30.9476 13.8395 31.5014 13.8057 32.008 13.8057 32.4673 13.8057 34.1965 14.5149 35.5272 15.9334 36.4593 17.3518 37.3914 19.2364 37.8575 21.5869 37.8575 24.3698 37.8575 26.8352 36.7295 28.9832 34.4734 31.1311 32.2174 32.7995 29.1103 33.9883 25.1522 35.1771 21.194 35.7715 17.2561 35.7715 13.3384 35.7715 11.5823 35.5891 10.049 35.2244 8.73859 34.8596 7.42821 34.1639 6.34748 33.1372 5.4964 32.1105 4.64533 30.6786 4.21979 28.8413 4.21979ZM29.895 1.01813C32.5158 1.01813 34.8259 1.55174 36.8252 2.61896 38.8246 3.68618 40.3376 5.23298 41.3643 7.25934 42.391 9.28571 42.9043 11.7714 42.9043 14.7164 42.9043 19.3095 42.006 23.6662 40.2093 27.7864 38.4125 31.9067 35.9134 35.1489 32.7117 37.513 29.51 39.8771 25.9234 41.0591 21.9517 41.0591 20.1144 41.0591 18.3718 40.897 16.7237 40.5728 15.0756 40.2486 13.4274 39.6947 11.7793 38.9112L7.56448 57.9185 0.918 57.9185 9.14505 21.2413C10.1177 16.9184 11.5091 13.2979 13.3194 10.3799 15.1296 7.46198 17.4261 5.17218 20.209 3.51056 22.9919 1.84894 26.2206 1.01813 29.895 1.01813Z" fill-rule="evenodd"/></g></g><path d="M308.374 160.149C307.347 160.149 306.368 160.332 305.436 160.696 304.504 161.061 303.531 161.683 302.518 162.561 301.504 163.439 300.539 164.621 299.62 166.107 298.701 167.593 297.877 169.342 297.148 171.355 296.418 173.368 295.716 175.941 295.04 179.076L293.622 185.6C293.568 185.898 293.507 186.323 293.44 186.877 293.372 187.431 293.338 187.938 293.338 188.397 293.338 190.126 294.047 191.457 295.466 192.389 296.884 193.321 298.769 193.787 301.119 193.787 303.902 193.787 306.368 192.659 308.516 190.403 310.664 188.147 312.332 185.04 313.521 181.082 314.71 177.124 315.304 173.186 315.304 169.268 315.304 167.512 315.122 165.979 314.757 164.668 314.392 163.358 313.696 162.277 312.67 161.426 311.643 160.575 310.211 160.149 308.374 160.149ZM309.428 156.948C312.048 156.948 314.358 157.481 316.358 158.548 318.357 159.616 319.87 161.163 320.897 163.189 321.924 165.215 322.437 167.701 322.437 170.646 322.437 175.239 321.539 179.596 319.742 183.716 317.945 187.836 315.446 191.078 312.244 193.443 309.043 195.807 305.456 196.989 301.484 196.989 299.647 196.989 297.904 196.827 296.256 196.502 294.608 196.178 292.96 195.624 291.312 194.841L287.097 213.848 280.451 213.848 288.678 177.171C289.65 172.848 291.042 169.227 292.852 166.309 294.662 163.392 296.959 161.102 299.742 159.44 302.524 157.778 305.753 156.948 309.428 156.948Z" fill-rule="evenodd"/><text fill="#000000" fill-opacity="0" font-family="Arial,Arial_MSFontService,sans-serif" font-size="56.9004" x="280.451" y="206.736">𝜌</text><g clip-path="url(#clip28)" filter="url(#fx4)" transform="translate(336 135)"><g clip-path="url(#clip29)"><path d="M65.2694 1.29662C73.1587 3.37702 79.2175 7.8688 83.4459 14.772 87.6742 21.6751 89.7884 30.0035 89.7884 39.7571 89.7884 49.5377 87.681 57.866 83.4661 64.7422 79.2513 71.6183 73.1857 76.0966 65.2694 78.177L64.2967 75.0564C70.5379 72.976 75.1783 68.8692 78.2179 62.7361 81.2574 56.6029 82.7772 48.8082 82.7772 39.3518 82.7772 30.2196 81.2642 22.6343 78.2381 16.5957 75.2121 10.5571 70.5244 6.49763 64.1751 4.41722ZM25.5387 1.29662 26.6329 4.41722C20.3106 6.49763 15.6297 10.5571 12.5902 16.5957 9.55061 22.6343 8.03084 30.2196 8.03084 39.3518 8.03084 48.8082 9.55061 56.6029 12.5902 62.7361 15.6297 68.8692 20.2701 72.976 26.5113 75.0564L25.5387 78.177C17.6223 76.0966 11.5567 71.6183 7.34187 64.7422 3.12703 57.866 1.01961 49.5377 1.01961 39.7571 1.01961 30.0035 3.13377 21.6751 7.36214 14.772 11.5905 7.8688 17.6493 3.37702 25.5387 1.29662Z" fill-rule="evenodd"/></g></g><path d="M398.802 134.226C406.691 136.307 412.75 140.798 416.978 147.702 421.207 154.605 423.321 162.933 423.321 172.687 423.321 182.467 421.214 190.796 416.999 197.672 412.784 204.548 406.718 209.026 398.802 211.107L397.829 207.986C404.07 205.906 408.711 201.799 411.75 195.666 414.79 189.532 416.31 181.738 416.31 172.281 416.31 163.149 414.797 155.564 411.771 149.525 408.745 143.487 404.057 139.427 397.708 137.347ZM359.071 134.226 360.165 137.347C353.843 139.427 349.162 143.487 346.123 149.525 343.083 155.564 341.563 163.149 341.563 172.281 341.563 181.738 343.083 189.532 346.123 195.666 349.162 201.799 353.803 205.906 360.044 207.986L359.071 211.107C351.155 209.026 345.089 204.548 340.874 197.672 336.66 190.796 334.552 182.467 334.552 172.687 334.552 162.933 336.666 154.605 340.895 147.702 345.123 140.798 351.182 136.307 359.071 134.226Z" fill-rule="evenodd"/><g clip-path="url(#clip30)" filter="url(#fx5)" transform="translate(368 149)"><g clip-path="url(#clip31)"><path d="M11.8084 0.656315 17.4012 0.656315 15.1721 10.6666 27.4925 10.6666 26.6009 14.7598 14.2805 14.7598 10.6736 30.4844C9.97114 33.5375 9.52534 35.7327 9.33621 37.0701 9.14708 38.4075 9.05252 39.4815 9.05252 40.2921 9.05252 43.6423 10.444 45.3174 13.2268 45.3174 14.4156 45.3174 15.6787 44.8649 17.0161 43.9598 18.3535 43.0547 19.9409 41.5079 21.7781 39.3194L24.1287 41.751C21.7781 44.588 19.5153 46.6819 17.3404 48.0328 15.1654 49.3837 12.8891 50.0591 10.5115 50.0591 4.86469 50.0591 2.04129 47.2087 2.04129 41.5079 2.04129 39.6977 2.27095 37.7929 2.73026 35.7935L7.51248 14.7598 0.703888 14.7598 1.3118 11.9634C2.90587 11.9364 4.11494 11.8148 4.939 11.5987 5.76305 11.3826 6.45202 11.0854 7.00589 10.7071 7.55976 10.3288 8.06635 9.78848 8.52566 9.086 8.98497 8.38353 9.43078 7.48517 9.86307 6.39093 10.2954 5.2967 10.9438 3.38516 11.8084 0.656315Z" fill-rule="evenodd"/></g></g><path d="M377.341 147.586 382.934 147.586 380.705 157.596 393.025 157.596 392.133 161.689 379.813 161.689 376.206 177.414C375.504 180.467 375.058 182.662 374.869 184 374.68 185.337 374.585 186.411 374.585 187.222 374.585 190.572 375.976 192.247 378.759 192.247 379.948 192.247 381.211 191.794 382.549 190.889 383.886 189.984 385.473 188.437 387.311 186.249L389.661 188.681C387.311 191.517 385.048 193.611 382.873 194.962 380.698 196.313 378.422 196.989 376.044 196.989 370.397 196.989 367.574 194.138 367.574 188.437 367.574 186.627 367.803 184.722 368.263 182.723L373.045 161.689 366.236 161.689 366.844 158.893C368.438 158.866 369.647 158.744 370.471 158.528 371.296 158.312 371.985 158.015 372.538 157.637 373.092 157.258 373.599 156.718 374.058 156.016 374.517 155.313 374.963 154.415 375.396 153.32 375.828 152.226 376.476 150.315 377.341 147.586Z" fill-rule="evenodd"/><text fill="#000000" fill-opacity="0" font-family="Arial,Arial_MSFontService,sans-serif" font-size="49.4028" x="366.236" y="190.813">𝑡</text><g clip-path="url(#clip32)" filter="url(#fx6)" transform="translate(456 171)"><g clip-path="url(#clip33)"><path d="M1.24451 0.986879 51.1742 0.986879 51.1742 6.37702 1.24451 6.37702Z" fill-rule="evenodd"/></g></g><path d="M454.777 169.916 504.707 169.916 504.707 175.307 454.777 175.307Z" fill-rule="evenodd"/><text fill="#000000" fill-opacity="0" font-family="Arial,Arial_MSFontService,sans-serif" font-size="5.39014" x="454.777" y="174.633">−</text><g clip-path="url(#clip34)" filter="url(#fx7)" transform="translate(546 80)"><g clip-path="url(#clip35)"><path d="M12.0873 16.8539 14.4784 16.8539 8.64246 42.8725C8.04805 45.5203 7.75085 47.5196 7.75085 48.8705 7.75085 49.9512 7.92647 50.7348 8.27771 51.2211 8.62895 51.7074 9.18282 51.9506 9.93933 51.9506 10.7499 51.9506 11.6145 51.6196 12.5331 50.9577 13.4517 50.2957 14.7486 49.0326 16.4237 47.1684L18.7338 49.4379C16.086 52.2208 13.938 54.112 12.2899 55.1117 10.6418 56.1114 8.79105 56.6112 6.73767 56.6112 4.98149 56.6112 3.57654 55.9696 2.52283 54.6862 1.46912 53.4028 0.942261 51.7615 0.942261 49.7621 0.942261 47.7087 1.32052 45.088 2.07703 41.8998L5.11658 28.6474C5.738 25.9455 6.04871 23.9192 6.04871 22.5683 6.04871 21.3525 5.75826 20.5284 5.17737 20.0961 4.59648 19.6638 3.45496 19.4206 1.75281 19.3666L2.19861 17.2187ZM10.993 1.33194 18.1664 1.33194 16.3021 9.19425 9.12878 9.19425Z" fill-rule="evenodd"/></g></g><path d="M555.62 94.7834 558.011 94.7834 552.175 120.802C551.581 123.45 551.283 125.449 551.283 126.8 551.283 127.881 551.459 128.664 551.81 129.151 552.161 129.637 552.715 129.88 553.472 129.88 554.282 129.88 555.147 129.549 556.066 128.887 556.984 128.225 558.281 126.962 559.956 125.098L562.266 127.367C559.619 130.15 557.471 132.042 555.822 133.041 554.174 134.041 552.324 134.541 550.27 134.541 548.514 134.541 547.109 133.899 546.055 132.616 545.002 131.332 544.475 129.691 544.475 127.692 544.475 125.638 544.853 123.017 545.61 119.829L548.649 106.577C549.271 103.875 549.581 101.849 549.581 100.498 549.581 99.282 549.291 98.4579 548.71 98.0256 548.129 97.5933 546.987 97.3502 545.285 97.2961L545.731 95.1482ZM554.526 79.2615 561.699 79.2615 559.835 87.1238 552.661 87.1238Z" fill-rule="evenodd"/><text fill="#000000" fill-opacity="0" font-family="Arial,Arial_MSFontService,sans-serif" font-size="55.2793" x="544.475" y="127.631">𝑖</text><g clip-path="url(#clip36)" filter="url(#fx8)" transform="translate(536 195)"><g clip-path="url(#clip37)"><path d="M17.9474 0.639942 20.298 0.639942 17.7043 11.096 27.9577 6.67852 29.4167 9.96123 16.6506 15.3108 13.3273 28.7254 13.8137 28.8875C16.3534 25.5102 18.7715 23.0516 21.0681 21.5115 23.3646 19.9715 25.7017 19.2015 28.0793 19.2015 30.619 19.2015 32.5711 19.9174 33.9355 21.3494 35.2999 22.7814 35.9821 24.7942 35.9821 27.388 35.9821 29.0901 35.5903 31.5083 34.8068 34.6424L32.1725 45.2605C31.4431 48.2055 31.0783 50.2859 31.0783 51.5018 31.0783 52.5825 31.2539 53.366 31.6052 53.8523 31.9564 54.3387 32.5103 54.5818 33.2668 54.5818 34.0773 54.5818 34.9419 54.2509 35.8605 53.5889 36.7792 52.927 38.076 51.6639 39.7512 49.7996L42.0612 52.0691C39.8727 54.3387 38.1976 55.9192 37.0358 56.8108 35.874 57.7024 34.7595 58.3306 33.6923 58.6954 32.6251 59.0601 31.416 59.2425 30.0651 59.2425 28.3089 59.2425 26.904 58.6143 25.8503 57.358 24.7966 56.1016 24.2697 54.5008 24.2697 52.5555 24.2697 50.7993 24.7155 48.219 25.6071 44.8147L27.3903 37.8035C28.0388 35.2638 28.4643 33.386 28.6669 32.1702 28.8696 30.9544 28.9709 29.9682 28.9709 29.2117 28.9709 27.3204 28.6534 25.9695 28.0185 25.159 27.3836 24.3484 26.3501 23.9432 24.9181 23.9432 23.7834 23.9432 22.5338 24.4025 21.1694 25.3211 19.8049 26.2397 18.3797 27.6379 16.8937 29.5157 15.4077 31.3934 14.2257 33.1902 13.3476 34.9058 12.4695 36.6215 11.7738 38.6681 11.2604 41.0457L7.57245 58.594 0.561218 58.594 9.63934 18.2288 4.0871 20.6199 2.62811 17.3372 10.5715 14.095 11.2199 11.2176C11.7062 8.86699 11.9494 7.21888 11.9494 6.27324 11.9494 5.13848 11.6049 4.34144 10.916 3.88213 10.227 3.42282 8.99091 3.16615 7.2077 3.11211L7.69403 1.00469Z" fill-rule="evenodd"/></g></g><path d="M551.48 193.569 553.831 193.569 551.237 204.026 561.49 199.608 562.949 202.891 550.183 208.24 546.86 221.655 547.346 221.817C549.886 218.44 552.304 215.981 554.601 214.441 556.897 212.901 559.234 212.131 561.612 212.131 564.152 212.131 566.104 212.847 567.468 214.279 568.832 215.711 569.515 217.724 569.515 220.318 569.515 222.02 569.123 224.438 568.339 227.572L565.705 238.19C564.976 241.135 564.611 243.215 564.611 244.431 564.611 245.512 564.786 246.296 565.138 246.782 565.489 247.268 566.043 247.511 566.799 247.511 567.61 247.511 568.474 247.18 569.393 246.518 570.312 245.857 571.609 244.593 573.284 242.729L575.594 244.999C573.405 247.268 571.73 248.849 570.568 249.74 569.407 250.632 568.292 251.26 567.225 251.625 566.158 251.99 564.949 252.172 563.598 252.172 561.841 252.172 560.437 251.544 559.383 250.287 558.329 249.031 557.802 247.43 557.802 245.485 557.802 243.729 558.248 241.149 559.14 237.744L560.923 230.733C561.571 228.193 561.997 226.316 562.199 225.1 562.402 223.884 562.503 222.898 562.503 222.141 562.503 220.25 562.186 218.899 561.551 218.089 560.916 217.278 559.883 216.873 558.451 216.873 557.316 216.873 556.066 217.332 554.702 218.251 553.337 219.169 551.912 220.567 550.426 222.445 548.94 224.323 547.758 226.12 546.88 227.835 546.002 229.551 545.306 231.598 544.793 233.975L541.105 251.524 534.094 251.524 543.172 211.158 537.62 213.549 536.161 210.267 544.104 207.025 544.752 204.147C545.239 201.797 545.482 200.148 545.482 199.203 545.482 198.068 545.137 197.271 544.448 196.812 543.76 196.352 542.523 196.096 540.74 196.042L541.227 193.934Z" fill-rule="evenodd"/><text fill="#000000" fill-opacity="0" font-family="Arial,Arial_MSFontService,sans-serif" font-size="58.6025" x="534.094" y="244.847">ℏ</text><g clip-path="url(#clip38)" filter="url(#fx9)" transform="translate(531 171)"><g clip-path="url(#clip39)"><path d="M0.891327 1.41071 49.8913 1.41071 49.8913 6.41071 0.891327 6.41071Z" fill-rule="evenodd"/></g></g><path d="M529.424 170.34 578.424 170.34 578.424 175.34 529.424 175.34Z" fill-rule="evenodd"/><g clip-path="url(#clip40)" filter="url(#fx10)" transform="translate(608 163)"><g clip-path="url(#clip41)"><path d="M1.06738 17.4166 50.9971 17.4166 50.9971 22.8067 1.06738 22.8067ZM1.06738 0.597721 50.9971 0.597721 50.9971 5.98786 1.06738 5.98786Z" fill-rule="evenodd"/></g></g><path d="M606.6 178.346 656.53 178.346 656.53 183.736 606.6 183.736ZM606.6 161.527 656.53 161.527 656.53 166.917 606.6 166.917Z" fill-rule="evenodd"/><text fill="#000000" fill-opacity="0" font-family="Arial,Arial_MSFontService,sans-serif" font-size="22.209" x="606.6" y="180.96">=</text><g clip-path="url(#clip42)" filter="url(#fx11)" transform="translate(696 135)"><g clip-path="url(#clip43)"><path d="M369.649 1.08867 387.724 1.08867 387.724 78.3743 369.649 78.3743 369.649 75.2537 380.996 75.2537 380.996 4.20927 369.649 4.20927ZM1.06073 1.08867 19.1359 1.08867 19.1359 4.20927 7.78827 4.20927 7.78827 75.2537 19.1359 75.2537 19.1359 78.3743 1.06073 78.3743Z" fill-rule="evenodd"/></g></g><path d="M1063.18 134.018 1081.26 134.018 1081.26 211.304 1063.18 211.304 1063.18 208.183 1074.53 208.183 1074.53 137.139 1063.18 137.139ZM694.593 134.018 712.668 134.018 712.668 137.139 701.321 137.139 701.321 208.183 712.668 208.183 712.668 211.304 694.593 211.304Z" fill-rule="evenodd"/><g clip-path="url(#clip44)" filter="url(#fx12)" transform="translate(718 142)"><g clip-path="url(#clip45)"><path d="M11.6237 1.09089 27.8347 1.09089 27.3889 3.07673C26.3622 3.29287 25.6259 3.53604 25.1801 3.80622 24.7343 4.0764 24.3358 4.48167 23.9846 5.02204 23.6333 5.5624 23.2686 6.40672 22.8903 7.555 22.5121 8.70327 22.0392 10.5743 21.4719 13.168L18.716 25.5694 40.4792 25.5694 43.235 13.1275C43.4782 12.0198 43.6876 10.8377 43.8632 9.58136 44.0388 8.32502 44.1266 7.3321 44.1266 6.6026 44.1266 5.33274 43.8092 4.4479 43.1743 3.94806 42.5393 3.44822 41.5329 3.15778 40.155 3.07673L40.6008 1.09089 56.8117 1.09089 56.3659 3.07673C55.3392 3.29287 54.603 3.53604 54.1572 3.80622 53.7114 4.0764 53.3128 4.48167 52.9616 5.02204 52.6104 5.5624 52.2456 6.40672 51.8674 7.555 51.4891 8.70327 51.0163 10.5743 50.4489 13.168L43.5187 44.6172C43.1675 46.2113 42.9378 47.4744 42.8298 48.4066 42.7217 49.3387 42.6677 50.183 42.6677 50.9395 42.6677 52.1553 42.9716 53.0132 43.5795 53.513 44.1874 54.0128 45.2074 54.3168 46.6393 54.4249L46.1935 56.4107 29.9826 56.4107 30.4284 54.4249C31.4551 54.2628 32.2251 53.9993 32.7385 53.6346 33.2518 53.2698 33.6841 52.7632 34.0353 52.1148 34.3866 51.4664 34.7108 50.6761 35.008 49.744 35.3052 48.8118 35.751 47.0084 36.3454 44.3336L39.6686 29.2979 17.9055 29.2979 14.5417 44.6172C14.2445 45.9682 14.0283 47.0827 13.8932 47.9608 13.7582 48.8388 13.6906 49.8318 13.6906 50.9395 13.6906 52.1013 13.9608 52.9389 14.5012 53.4522 15.0415 53.9656 16.0952 54.2898 17.6623 54.4249L17.2165 56.4107 1.00555 56.4107 1.45136 54.4249C2.47805 54.2628 3.24807 53.9993 3.76141 53.6346 4.27476 53.2698 4.70705 52.7632 5.05829 52.1148 5.40953 51.4664 5.73374 50.6761 6.03095 49.744 6.32815 48.8118 6.77395 47.0084 7.36835 44.3336L14.258 13.1275C14.5012 12.0198 14.7105 10.8377 14.8862 9.58136 15.0618 8.32502 15.1496 7.3321 15.1496 6.6026 15.1496 5.33274 14.8321 4.4479 14.1972 3.94806 13.5623 3.44822 12.5558 3.15778 11.1779 3.07673Z" fill-rule="evenodd"/></g></g><path d="M727.156 141.02 743.367 141.02 742.921 143.006C741.895 143.222 741.158 143.466 740.713 143.736 740.267 144.006 739.868 144.411 739.517 144.952 739.166 145.492 738.801 146.336 738.423 147.485 738.045 148.633 737.572 150.504 737.004 153.098L734.249 165.499 756.012 165.499 758.768 153.057C759.011 151.949 759.22 150.767 759.396 149.511 759.571 148.255 759.659 147.262 759.659 146.532 759.659 145.262 759.342 144.377 758.707 143.878 758.072 143.378 757.065 143.087 755.688 143.006L756.133 141.02 772.344 141.02 771.898 143.006C770.872 143.222 770.135 143.466 769.69 143.736 769.244 144.006 768.845 144.411 768.494 144.952 768.143 145.492 767.778 146.336 767.4 147.485 767.022 148.633 766.549 150.504 765.981 153.098L759.051 184.547C758.7 186.141 758.47 187.404 758.362 188.336 758.254 189.268 758.2 190.113 758.2 190.869 758.2 192.085 758.504 192.943 759.112 193.443 759.72 193.942 760.74 194.246 762.172 194.354L761.726 196.34 745.515 196.34 745.961 194.354C746.988 194.192 747.758 193.929 748.271 193.564 748.784 193.199 749.217 192.693 749.568 192.044 749.919 191.396 750.243 190.606 750.541 189.673 750.838 188.741 751.284 186.938 751.878 184.263L755.201 169.227 733.438 169.227 730.074 184.547C729.777 185.898 729.561 187.012 729.426 187.89 729.291 188.768 729.223 189.761 729.223 190.869 729.223 192.031 729.493 192.868 730.034 193.382 730.574 193.895 731.628 194.219 733.195 194.354L732.749 196.34 716.538 196.34 716.984 194.354C718.011 194.192 718.781 193.929 719.294 193.564 719.807 193.199 720.24 192.693 720.591 192.044 720.942 191.396 721.266 190.606 721.563 189.673 721.861 188.741 722.306 186.938 722.901 184.263L729.791 153.057C730.034 151.949 730.243 150.767 730.419 149.511 730.594 148.255 730.682 147.262 730.682 146.532 730.682 145.262 730.365 144.377 729.73 143.878 729.095 143.378 728.088 143.087 726.71 143.006Z" fill-rule="evenodd"/><text fill="#000000" fill-opacity="0" font-family="Arial,Arial_MSFontService,sans-serif" font-size="55.3198" x="716.538" y="189.425">𝐻</text><g clip-path="url(#clip46)" filter="url(#fx13)" transform="translate(786 135)"><g clip-path="url(#clip47)"><path d="M64.8027 1.29662C72.692 3.37702 78.7509 7.8688 82.9792 14.772 87.2075 21.6751 89.3217 30.0035 89.3217 39.7571 89.3217 49.5377 87.2143 57.866 82.9995 64.7422 78.7846 71.6183 72.719 76.0966 64.8027 78.177L63.83 75.0564C70.0712 72.976 74.7116 68.8692 77.7512 62.7361 80.7907 56.6029 82.3105 48.8082 82.3105 39.3518 82.3105 30.2196 80.7975 22.6343 77.7714 16.5957 74.7454 10.5571 70.0577 6.49763 63.7084 4.41722ZM25.072 1.29662 26.1662 4.41722C19.8439 6.49763 15.163 10.5571 12.1235 16.5957 9.08392 22.6343 7.56415 30.2196 7.56415 39.3518 7.56415 48.8082 9.08392 56.6029 12.1235 62.7361 15.163 68.8692 19.8034 72.976 26.0446 75.0564L25.072 78.177C17.1556 76.0966 11.09 71.6183 6.87518 64.7422 2.66034 57.866 0.552917 49.5377 0.552917 39.7571 0.552917 30.0035 2.66705 21.6751 6.89545 14.772 11.1238 7.8688 17.1826 3.37702 25.072 1.29662Z" fill-rule="evenodd"/></g></g><path d="M848.335 134.226C856.225 136.307 862.283 140.798 866.512 147.702 870.74 154.605 872.854 162.933 872.854 172.687 872.854 182.467 870.747 190.796 866.532 197.672 862.317 204.548 856.252 209.026 848.335 211.107L847.363 207.986C853.604 205.906 858.244 201.799 861.284 195.666 864.323 189.532 865.843 181.738 865.843 172.281 865.843 163.149 864.33 155.564 861.304 149.525 858.278 143.487 853.59 139.427 847.241 137.347ZM808.604 134.226 809.699 137.347C803.376 139.427 798.696 143.487 795.656 149.525 792.616 155.564 791.097 163.149 791.097 172.281 791.097 181.738 792.616 189.532 795.656 195.666 798.696 201.799 803.336 205.906 809.577 207.986L808.604 211.107C800.688 209.026 794.623 204.548 790.408 197.672 786.193 190.796 784.085 182.467 784.085 172.687 784.085 162.933 786.2 154.605 790.428 147.702 794.656 140.798 800.715 136.307 808.604 134.226Z" fill-rule="evenodd"/><g clip-path="url(#clip48)" filter="url(#fx14)" transform="translate(817 149)"><g clip-path="url(#clip49)"><path d="M12.3417 0.656315 17.9344 0.656315 15.7054 10.6666 28.0258 10.6666 27.1342 14.7598 14.8138 14.7598 11.2069 30.4844C10.5044 33.5375 10.0586 35.7327 9.86951 37.0701 9.68038 38.4075 9.58581 39.4815 9.58581 40.2921 9.58581 43.6423 10.9773 45.3174 13.7601 45.3174 14.9489 45.3174 16.212 44.8649 17.5494 43.9598 18.8868 43.0547 20.4742 41.5079 22.3114 39.3194L24.662 41.751C22.3114 44.588 20.0486 46.6819 17.8737 48.0328 15.6987 49.3837 13.4224 50.0591 11.0448 50.0591 5.39799 50.0591 2.57458 47.2087 2.57458 41.5079 2.57458 39.6977 2.80424 37.7929 3.26355 35.7935L8.04578 14.7598 1.23718 14.7598 1.84509 11.9634C3.43917 11.9364 4.64823 11.8148 5.47229 11.5987 6.29634 11.3826 6.98531 11.0854 7.53918 10.7071 8.09306 10.3288 8.59965 9.78848 9.05896 9.086 9.51827 8.38353 9.96407 7.48517 10.3964 6.39093 10.8287 5.2967 11.4771 3.38516 12.3417 0.656315Z" fill-rule="evenodd"/></g></g><path d="M826.874 147.586 832.467 147.586 830.238 157.596 842.558 157.596 841.667 161.689 829.346 161.689 825.739 177.414C825.037 180.467 824.591 182.662 824.402 184 824.213 185.337 824.118 186.411 824.118 187.222 824.118 190.572 825.51 192.247 828.293 192.247 829.481 192.247 830.745 191.794 832.082 190.889 833.419 189.984 835.007 188.437 836.844 186.249L839.195 188.681C836.844 191.517 834.581 193.611 832.406 194.962 830.231 196.313 827.955 196.989 825.577 196.989 819.931 196.989 817.107 194.138 817.107 188.437 817.107 186.627 817.337 184.722 817.796 182.723L822.578 161.689 815.77 161.689 816.378 158.893C817.972 158.866 819.181 158.744 820.005 158.528 820.829 158.312 821.518 158.015 822.072 157.637 822.626 157.258 823.132 156.718 823.591 156.016 824.051 155.313 824.497 154.415 824.929 153.32 825.361 152.226 826.01 150.315 826.874 147.586Z" fill-rule="evenodd"/><text fill="#000000" fill-opacity="0" font-family="Arial,Arial_MSFontService,sans-serif" font-size="49.4028" x="815.77" y="190.813">𝑡</text><g clip-path="url(#clip50)" filter="url(#fx15)" transform="translate(882 188)"><g clip-path="url(#clip51)"><path d="M5.83655 1.00836 12.9288 1.00836C13.3071 2.89964 13.4962 4.7639 13.4962 6.60114 13.4962 8.49241 13.172 10.2216 12.5236 11.7886 11.8751 13.3557 10.8417 14.916 9.42322 16.4695 8.00476 18.0231 6.05269 19.732 3.56702 21.5963L1.37854 19.1241C2.75647 17.8272 3.75614 16.6587 4.37756 15.6185 4.99898 14.5783 5.44478 13.3962 5.71497 12.0723 5.98515 10.7484 6.12024 9.08681 6.12024 7.08746 6.12024 5.03408 6.02568 3.00771 5.83655 1.00836Z" fill-rule="evenodd"/></g></g><path d="M885.369 186.938 892.461 186.938C892.84 188.829 893.029 190.693 893.029 192.531 893.029 194.422 892.705 196.151 892.056 197.718 891.408 199.285 890.374 200.846 888.956 202.399 887.537 203.953 885.585 205.662 883.1 207.526L880.911 205.054C882.289 203.757 883.289 202.588 883.91 201.548 884.531 200.508 884.977 199.326 885.247 198.002 885.518 196.678 885.653 195.016 885.653 193.017 885.653 190.964 885.558 188.937 885.369 186.938Z" fill-rule="evenodd"/><text fill="#000000" fill-opacity="0" font-family="Arial,Arial_MSFontService,sans-serif" font-size="20.5879" x="880.911" y="204.952">,</text><g clip-path="url(#clip52)" filter="url(#fx16)" transform="translate(913 158)"><g clip-path="url(#clip53)"><path d="M28.8746 4.21979C27.8479 4.21979 26.8685 4.40216 25.9364 4.76691 25.0043 5.13166 24.0316 5.75307 23.0184 6.63117 22.0052 7.50926 21.0393 8.69131 20.1207 10.1773 19.2021 11.6633 18.378 13.4127 17.6486 15.4256 16.9191 17.4385 16.2166 20.0119 15.5411 23.1461L14.1227 29.671C14.0686 29.9682 14.0079 30.3937 13.9403 30.9476 13.8728 31.5014 13.839 32.008 13.839 32.4673 13.839 34.1965 14.5482 35.5272 15.9667 36.4593 17.3851 37.3914 19.2697 37.8575 21.6202 37.8575 24.4031 37.8575 26.8685 36.7295 29.0165 34.4734 31.1644 32.2174 32.8328 29.1103 34.0216 25.1522 35.2104 21.194 35.8048 17.2561 35.8048 13.3384 35.8048 11.5823 35.6224 10.049 35.2577 8.73859 34.8929 7.42821 34.1972 6.34748 33.1705 5.4964 32.1438 4.64533 30.7119 4.21979 28.8746 4.21979ZM29.9283 1.01813C32.5491 1.01813 34.8592 1.55174 36.8585 2.61896 38.8579 3.68618 40.3709 5.23298 41.3976 7.25934 42.4243 9.28571 42.9376 11.7714 42.9376 14.7164 42.9376 19.3095 42.0393 23.6662 40.2425 27.7864 38.4458 31.9067 35.9467 35.1489 32.745 37.513 29.5433 39.8771 25.9567 41.0591 21.985 41.0591 20.1477 41.0591 18.4051 40.897 16.757 40.5728 15.1088 40.2486 13.4607 39.6947 11.8126 38.9112L7.59778 57.9185 0.951294 57.9185 9.17834 21.2413C10.151 16.9184 11.5424 13.2979 13.3527 10.3799 15.1629 7.46198 17.4594 5.17218 20.2423 3.51056 23.0252 1.84894 26.2539 1.01813 29.9283 1.01813Z" fill-rule="evenodd"/></g></g><path d="M939.407 160.149C938.38 160.149 937.401 160.332 936.469 160.696 935.537 161.061 934.564 161.683 933.551 162.561 932.538 163.439 931.572 164.621 930.653 166.107 929.735 167.593 928.911 169.342 928.181 171.355 927.452 173.368 926.749 175.941 926.074 179.076L924.655 185.6C924.601 185.898 924.54 186.323 924.473 186.877 924.405 187.431 924.372 187.938 924.372 188.397 924.372 190.126 925.081 191.457 926.499 192.389 927.918 193.321 929.802 193.787 932.153 193.787 934.936 193.787 937.401 192.659 939.549 190.403 941.697 188.147 943.365 185.04 944.554 181.082 945.743 177.124 946.337 173.186 946.337 169.268 946.337 167.512 946.155 165.979 945.79 164.668 945.425 163.358 944.73 162.277 943.703 161.426 942.676 160.575 941.244 160.149 939.407 160.149ZM940.461 156.948C943.082 156.948 945.392 157.481 947.391 158.548 949.39 159.616 950.903 161.163 951.93 163.189 952.957 165.215 953.47 167.701 953.47 170.646 953.47 175.239 952.572 179.596 950.775 183.716 948.978 187.836 946.479 191.078 943.278 193.443 940.076 195.807 936.489 196.989 932.518 196.989 930.68 196.989 928.938 196.827 927.289 196.502 925.641 196.178 923.993 195.624 922.345 194.841L918.13 213.848 911.484 213.848 919.711 177.171C920.684 172.848 922.075 169.227 923.885 166.309 925.695 163.392 927.992 161.102 930.775 159.44 933.558 157.778 936.786 156.948 940.461 156.948Z" fill-rule="evenodd"/><text fill="#000000" fill-opacity="0" font-family="Arial,Arial_MSFontService,sans-serif" font-size="56.9004" x="911.484" y="206.736">𝜌</text><g clip-path="url(#clip54)" filter="url(#fx17)" transform="translate(967 135)"><g clip-path="url(#clip55)"><path d="M65.3027 1.29662C73.192 3.37702 79.2509 7.8688 83.4792 14.772 87.7075 21.6751 89.8217 30.0035 89.8217 39.7571 89.8217 49.5377 87.7143 57.866 83.4995 64.7422 79.2846 71.6183 73.219 76.0966 65.3027 78.177L64.33 75.0564C70.5712 72.976 75.2116 68.8692 78.2512 62.7361 81.2907 56.6029 82.8105 48.8082 82.8105 39.3518 82.8105 30.2196 81.2975 22.6343 78.2714 16.5957 75.2454 10.5571 70.5577 6.49763 64.2084 4.41722ZM25.572 1.29662 26.6662 4.41722C20.3439 6.49763 15.663 10.5571 12.6235 16.5957 9.58392 22.6343 8.06415 30.2196 8.06415 39.3518 8.06415 48.8082 9.58392 56.6029 12.6235 62.7361 15.663 68.8692 20.3034 72.976 26.5446 75.0564L25.572 78.177C17.6556 76.0966 11.59 71.6183 7.37518 64.7422 3.16034 57.866 1.05292 49.5377 1.05292 39.7571 1.05292 30.0035 3.16705 21.6751 7.39545 14.772 11.6238 7.8688 17.6826 3.37702 25.572 1.29662Z" fill-rule="evenodd"/></g></g><path d="M1029.84 134.226C1037.72 136.307 1043.78 140.798 1048.01 147.702 1052.24 154.605 1054.35 162.933 1054.35 172.687 1054.35 182.467 1052.25 190.796 1048.03 197.672 1043.82 204.548 1037.75 209.026 1029.84 211.107L1028.86 207.986C1035.1 205.906 1039.74 201.799 1042.78 195.666 1045.82 189.532 1047.34 181.738 1047.34 172.281 1047.34 163.149 1045.83 155.564 1042.8 149.525 1039.78 143.487 1035.09 139.427 1028.74 137.347ZM990.104 134.226 991.199 137.347C984.876 139.427 980.196 143.487 977.156 149.525 974.116 155.564 972.597 163.149 972.597 172.281 972.597 181.738 974.116 189.532 977.156 195.666 980.196 201.799 984.836 205.906 991.077 207.986L990.104 211.107C982.188 209.026 976.123 204.548 971.908 197.672 967.693 190.796 965.585 182.467 965.585 172.687 965.585 162.933 967.7 154.605 971.928 147.702 976.156 140.798 982.215 136.307 990.104 134.226Z" fill-rule="evenodd"/><g clip-path="url(#clip56)" filter="url(#fx18)" transform="translate(999 149)"><g clip-path="url(#clip57)"><path d="M11.8417 0.656315 17.4344 0.656315 15.2054 10.6666 27.5258 10.6666 26.6342 14.7598 14.3138 14.7598 10.7069 30.4844C10.0044 33.5375 9.55863 35.7327 9.36951 37.0701 9.18038 38.4075 9.08581 39.4815 9.08581 40.2921 9.08581 43.6423 10.4773 45.3174 13.2601 45.3174 14.4489 45.3174 15.712 44.8649 17.0494 43.9598 18.3868 43.0547 19.9742 41.5079 21.8114 39.3194L24.162 41.751C21.8114 44.588 19.5486 46.6819 17.3737 48.0328 15.1987 49.3837 12.9224 50.0591 10.5448 50.0591 4.89799 50.0591 2.07458 47.2087 2.07458 41.5079 2.07458 39.6977 2.30424 37.7929 2.76355 35.7935L7.54578 14.7598 0.737183 14.7598 1.34509 11.9634C2.93917 11.9364 4.14823 11.8148 4.97229 11.5987 5.79634 11.3826 6.48531 11.0854 7.03918 10.7071 7.59306 10.3288 8.09965 9.78848 8.55896 9.086 9.01827 8.38353 9.46407 7.48517 9.89636 6.39093 10.3287 5.2967 10.9771 3.38516 11.8417 0.656315Z" fill-rule="evenodd"/></g></g><path d="M1008.37 147.586 1013.97 147.586 1011.74 157.596 1024.06 157.596 1023.17 161.689 1010.85 161.689 1007.24 177.414C1006.54 180.467 1006.09 182.662 1005.9 184 1005.71 185.337 1005.62 186.411 1005.62 187.222 1005.62 190.572 1007.01 192.247 1009.79 192.247 1010.98 192.247 1012.24 191.794 1013.58 190.889 1014.92 189.984 1016.51 188.437 1018.34 186.249L1020.69 188.681C1018.34 191.517 1016.08 193.611 1013.91 194.962 1011.73 196.313 1009.45 196.989 1007.08 196.989 1001.43 196.989 998.607 194.138 998.607 188.437 998.607 186.627 998.837 184.722 999.296 182.723L1004.08 161.689 997.27 161.689 997.878 158.893C999.472 158.866 1000.68 158.744 1001.5 158.528 1002.33 158.312 1003.02 158.015 1003.57 157.637 1004.13 157.258 1004.63 156.718 1005.09 156.016 1005.55 155.313 1006 154.415 1006.43 153.32 1006.86 152.226 1007.51 150.315 1008.37 147.586Z" fill-rule="evenodd"/><text fill="#000000" fill-opacity="0" font-family="Arial,Arial_MSFontService,sans-serif" font-size="49.4028" x="997.27" y="190.813">𝑡</text></g></svg>