<svg width="992" height="223" xmlns="http://www.w3.org/2000/svg" xmlns:xlink="http://www.w3.org/1999/xlink" xml:space="preserve" overflow="hidden"><defs><filter id="fx0" x="-10%" y="-10%" width="120%" height="120%" filterUnits="userSpaceOnUse" primitiveUnits="userSpaceOnUse"><feComponentTransfer color-interpolation-filters="sRGB"><feFuncR type="discrete" tableValues="1 1"/><feFuncG type="discrete" tableValues="1 1"/><feFuncB type="discrete" tableValues="1 1"/><feFuncA type="linear" slope="0.4" intercept="0"/></feComponentTransfer><feGaussianBlur stdDeviation="0 0"/></filter><filter id="fx1" x="-10%" y="-10%" width="120%" height="120%" filterUnits="userSpaceOnUse" primitiveUnits="userSpaceOnUse"><feComponentTransfer color-interpolation-filters="sRGB"><feFuncR type="discrete" tableValues="1 1"/><feFuncG type="discrete" tableValues="1 1"/><feFuncB type="discrete" tableValues="1 1"/><feFuncA type="linear" slope="0.4" intercept="0"/></feComponentTransfer><feGaussianBlur stdDeviation="0 0"/></filter><filter id="fx2" x="-10%" y="-10%" width="120%" height="120%" filterUnits="userSpaceOnUse" primitiveUnits="userSpaceOnUse"><feComponentTransfer color-interpolation-filters="sRGB"><feFuncR type="discrete" tableValues="1 1"/><feFuncG type="discrete" tableValues="1 1"/><feFuncB type="discrete" tableValues="1 1"/><feFuncA type="linear" slope="0.4" intercept="0"/></feComponentTransfer><feGaussianBlur stdDeviation="0 0"/></filter><filter id="fx3" x="-10%" y="-10%" width="120%" height="120%" filterUnits="userSpaceOnUse" primitiveUnits="userSpaceOnUse"><feComponentTransfer color-interpolation-filters="sRGB"><feFuncR type="discrete" tableValues="1 1"/><feFuncG type="discrete" tableValues="1 1"/><feFuncB type="discrete" tableValues="1 1"/><feFuncA type="linear" slope="0.4" intercept="0"/></feComponentTransfer><feGaussianBlur stdDeviation="0 0"/></filter><filter id="fx4" x="-10%" y="-10%" width="120%" height="120%" filterUnits="userSpaceOnUse" primitiveUnits="userSpaceOnUse"><feComponentTransfer color-interpolation-filters="sRGB"><feFuncR type="discrete" tableValues="1 1"/><feFuncG type="discrete" tableValues="1 1"/><feFuncB type="discrete" tableValues="1 1"/><feFuncA type="linear" slope="0.4" intercept="0"/></feComponentTransfer><feGaussianBlur stdDeviation="0 0"/></filter><filter id="fx5" x="-10%" y="-10%" width="120%" height="120%" filterUnits="userSpaceOnUse" primitiveUnits="userSpaceOnUse"><feComponentTransfer color-interpolation-filters="sRGB"><feFuncR type="discrete" tableValues="1 1"/><feFuncG type="discrete" tableValues="1 1"/><feFuncB type="discrete" tableValues="1 1"/><feFuncA type="linear" slope="0.4" intercept="0"/></feComponentTransfer><feGaussianBlur stdDeviation="0 0"/></filter><filter id="fx6" x="-10%" y="-10%" width="120%" height="120%" filterUnits="userSpaceOnUse" primitiveUnits="userSpaceOnUse"><feComponentTransfer color-interpolation-filters="sRGB"><feFuncR type="discrete" tableValues="1 1"/><feFuncG type="discrete" tableValues="1 1"/><feFuncB type="discrete" tableValues="1 1"/><feFuncA type="linear" slope="0.4" intercept="0"/></feComponentTransfer><feGaussianBlur stdDeviation="0 0"/></filter><filter id="fx7" x="-10%" y="-10%" width="120%" height="120%" filterUnits="userSpaceOnUse" primitiveUnits="userSpaceOnUse"><feComponentTransfer color-interpolation-filters="sRGB"><feFuncR type="discrete" tableValues="1 1"/><feFuncG type="discrete" tableValues="1 1"/><feFuncB type="discrete" tableValues="1 1"/><feFuncA type="linear" slope="0.4" intercept="0"/></feComponentTransfer><feGaussianBlur stdDeviation="0 0"/></filter><filter id="fx8" x="-10%" y="-10%" width="120%" height="120%" filterUnits="userSpaceOnUse" primitiveUnits="userSpaceOnUse"><feComponentTransfer color-interpolation-filters="sRGB"><feFuncR type="discrete" tableValues="1 1"/><feFuncG type="discrete" tableValues="1 1"/><feFuncB type="discrete" tableValues="1 1"/><feFuncA type="linear" slope="0.4" intercept="0"/></feComponentTransfer><feGaussianBlur stdDeviation="0 0"/></filter><filter id="fx9" x="-10%" y="-10%" width="120%" height="120%" filterUnits="userSpaceOnUse" primitiveUnits="userSpaceOnUse"><feComponentTransfer color-interpolation-filters="sRGB"><feFuncR type="discrete" tableValues="1 1"/><feFuncG type="discrete" tableValues="1 1"/><feFuncB type="discrete" tableValues="1 1"/><feFuncA type="linear" slope="0.4" intercept="0"/></feComponentTransfer><feGaussianBlur stdDeviation="0 0"/></filter><filter id="fx10" x="-10%" y="-10%" width="120%" height="120%" filterUnits="userSpaceOnUse" primitiveUnits="userSpaceOnUse"><feComponentTransfer color-interpolation-filters="sRGB"><feFuncR type="discrete" tableValues="1 1"/><feFuncG type="discrete" tableValues="1 1"/><feFuncB type="discrete" tableValues="1 1"/><feFuncA type="linear" slope="0.4" intercept="0"/></feComponentTransfer><feGaussianBlur stdDeviation="0 0"/></filter><filter id="fx11" x="-10%" y="-10%" width="120%" height="120%" filterUnits="userSpaceOnUse" primitiveUnits="userSpaceOnUse"><feComponentTransfer color-interpolation-filters="sRGB"><feFuncR type="discrete" tableValues="1 1"/><feFuncG type="discrete" tableValues="1 1"/><feFuncB type="discrete" tableValues="1 1"/><feFuncA type="linear" slope="0.4" intercept="0"/></feComponentTransfer><feGaussianBlur stdDeviation="0 0"/></filter><filter id="fx12" x="-10%" y="-10%" width="120%" height="120%" filterUnits="userSpaceOnUse" primitiveUnits="userSpaceOnUse"><feComponentTransfer color-interpolation-filters="sRGB"><feFuncR type="discrete" tableValues="1 1"/><feFuncG type="discrete" tableValues="1 1"/><feFuncB type="discrete" tableValues="1 1"/><feFuncA type="linear" slope="0.4" intercept="0"/></feComponentTransfer><feGaussianBlur stdDeviation="0 0"/></filter><filter id="fx13" x="-10%" y="-10%" width="120%" height="120%" filterUnits="userSpaceOnUse" primitiveUnits="userSpaceOnUse"><feComponentTransfer color-interpolation-filters="sRGB"><feFuncR type="discrete" tableValues="1 1"/><feFuncG type="discrete" tableValues="1 1"/><feFuncB type="discrete" tableValues="1 1"/><feFuncA type="linear" slope="0.4" intercept="0"/></feComponentTransfer><feGaussianBlur stdDeviation="0 0"/></filter><filter id="fx14" x="-10%" y="-10%" width="120%" height="120%" filterUnits="userSpaceOnUse" primitiveUnits="userSpaceOnUse"><feComponentTransfer color-interpolation-filters="sRGB"><feFuncR type="discrete" tableValues="1 1"/><feFuncG type="discrete" tableValues="1 1"/><feFuncB type="discrete" tableValues="1 1"/><feFuncA type="linear" slope="0.4" intercept="0"/></feComponentTransfer><feGaussianBlur stdDeviation="0 0"/></filter><filter id="fx15" x="-10%" y="-10%" width="120%" height="120%" filterUnits="userSpaceOnUse" primitiveUnits="userSpaceOnUse"><feComponentTransfer color-interpolation-filters="sRGB"><feFuncR type="discrete" tableValues="1 1"/><feFuncG type="discrete" tableValues="1 1"/><feFuncB type="discrete" tableValues="1 1"/><feFuncA type="linear" slope="0.4" intercept="0"/></feComponentTransfer><feGaussianBlur stdDeviation="0 0"/></filter><filter id="fx16" x="-10%" y="-10%" width="120%" height="120%" filterUnits="userSpaceOnUse" primitiveUnits="userSpaceOnUse"><feComponentTransfer color-interpolation-filters="sRGB"><feFuncR type="discrete" tableValues="1 1"/><feFuncG type="discrete" tableValues="1 1"/><feFuncB type="discrete" tableValues="1 1"/><feFuncA type="linear" slope="0.4" intercept="0"/></feComponentTransfer><feGaussianBlur stdDeviation="0 0"/></filter><filter id="fx17" x="-10%" y="-10%" width="120%" height="120%" filterUnits="userSpaceOnUse" primitiveUnits="userSpaceOnUse"><feComponentTransfer color-interpolation-filters="sRGB"><feFuncR type="discrete" tableValues="1 1"/><feFuncG type="discrete" tableValues="1 1"/><feFuncB type="discrete" tableValues="1 1"/><feFuncA type="linear" slope="0.4" intercept="0"/></feComponentTransfer><feGaussianBlur stdDeviation="0 0"/></filter><filter id="fx18" x="-10%" y="-10%" width="120%" height="120%" filterUnits="userSpaceOnUse" primitiveUnits="userSpaceOnUse"><feComponentTransfer color-interpolation-filters="sRGB"><feFuncR type="discrete" tableValues="1 1"/><feFuncG type="discrete" tableValues="1 1"/><feFuncB type="discrete" tableValues="1 1"/><feFuncA type="linear" slope="0.4" intercept="0"/></feComponentTransfer><feGaussianBlur stdDeviation="0 0"/></filter><clipPath id="clip19"><rect x="1" y="1" width="42" height="59"/></clipPath><clipPath id="clip20"><rect x="1" y="0" width="76" height="60"/></clipPath><clipPath id="clip21"><rect x="0" y="1" width="83" height="6"/></clipPath><clipPath id="clip22"><rect x="1" y="1" width="43" height="57"/></clipPath><clipPath id="clip23"><rect x="0" y="1" width="90" height="78"/></clipPath><clipPath id="clip24"><rect x="1" y="0" width="28" height="51"/></clipPath><clipPath id="clip25"><rect x="1" y="0" width="51" height="23"/></clipPath><clipPath id="clip26"><rect x="1" y="0" width="51" height="7"/></clipPath><clipPath id="clip27"><rect x="1" y="1" width="19" height="56"/></clipPath><clipPath id="clip28"><rect x="0" y="1" width="50" height="6"/></clipPath><clipPath id="clip29"><rect x="1" y="1" width="388" height="78"/></clipPath><clipPath id="clip30"><rect x="1" y="1" width="57" height="56"/></clipPath><clipPath id="clip31"><rect x="0" y="1" width="90" height="78"/></clipPath><clipPath id="clip32"><rect x="0" y="1" width="13" height="21"/></clipPath><clipPath id="clip33"><rect x="1" y="1" width="43" height="57"/></clipPath><clipPath id="clip34"><rect x="1" y="1" width="90" height="78"/></clipPath><clipPath id="clip35"><rect x="1" y="0" width="27" height="51"/></clipPath></defs><g transform="translate(-127 -48)"><g clip-path="url(#clip19)" filter="url(#fx0)" transform="translate(196 77)"><g><path d="M22.7862 22.7314C20.0304 22.7314 17.5582 23.8459 15.3697 26.0749 13.1813 28.3039 11.4588 31.3096 10.2025 35.0922 8.94615 38.8747 8.31798 42.6438 8.31798 46.3993 8.31798 49.2092 8.70299 51.3099 9.47301 52.7013 10.243 54.0928 11.5331 54.7885 13.3434 54.7885 14.1809 54.7885 15.032 54.6061 15.8966 54.2414 16.7612 53.8766 17.6595 53.289 18.5917 52.4784 19.5238 51.6679 20.4424 50.6817 21.3475 49.5199 22.2526 48.3581 23.0834 47.1896 23.8399 46.0143 24.5965 44.839 25.2989 43.4476 25.9474 41.84 26.5958 40.2324 27.1497 38.2939 27.609 36.0243L27.9737 34.2816C28.379 32.3363 28.5816 30.4991 28.5816 28.7699 28.5816 26.6625 28.1358 25.1292 27.2442 24.1701 26.3526 23.2109 24.8666 22.7314 22.7862 22.7314ZM39.7672 1.0087 42.1583 1.0087 32.067 45.8725C31.4726 48.5203 31.1754 50.5196 31.1754 51.8705 31.1754 52.9512 31.351 53.7348 31.7023 54.2211 32.0535 54.7074 32.6074 54.9506 33.3639 54.9506 34.1744 54.9506 35.039 54.6196 35.9576 53.9577 36.8762 53.2957 38.1731 52.0326 39.8482 50.1684L42.1583 52.4379C39.6726 55.0587 37.5787 56.9094 35.8766 57.9901 34.1744 59.0709 32.3372 59.6112 30.3648 59.6112 28.6897 59.6112 27.3523 59.0574 26.3526 57.9496 25.353 56.8419 24.8531 55.3694 24.8531 53.5321 24.8531 52.0461 25.1638 50.4656 25.7853 48.7904L25.2584 48.6283C22.6647 52.4109 20.206 55.1802 17.8824 56.9364 15.5589 58.6926 13.1002 59.5707 10.5065 59.5707 7.53445 59.5707 5.23114 58.4495 3.59654 56.2069 1.96194 53.9644 1.14464 50.8168 1.14464 46.7641 1.14464 42.1169 2.0565 37.6522 3.88023 33.3698 5.70396 29.0874 8.20991 25.7101 11.3981 23.2379 14.5862 20.7658 18.1391 19.5297 22.0567 19.5297 23.7049 19.5297 25.2246 19.6986 26.6161 20.0363 28.0075 20.374 29.4327 20.9617 30.8917 21.7992L32.9991 12.4374C33.2153 11.5458 33.4044 10.5596 33.5665 9.47892 33.7286 8.39819 33.8097 7.45255 33.8097 6.642 33.8097 5.83146 33.6611 5.21679 33.3639 4.79801 33.0667 4.37922 32.6411 4.07527 32.0873 3.88614 31.5334 3.69702 30.5405 3.56192 29.1085 3.48087L29.5948 1.37345Z" fill-rule="evenodd"/></g></g><path d="M216.319 97.6609C213.563 97.6609 211.091 98.7754 208.902 101.004 206.714 103.233 204.991 106.239 203.735 110.022 202.479 113.804 201.851 117.573 201.851 121.329 201.851 124.139 202.236 126.239 203.006 127.631 203.776 129.022 205.066 129.718 206.876 129.718 207.713 129.718 208.565 129.536 209.429 129.171 210.294 128.806 211.192 128.219 212.124 127.408 213.056 126.597 213.975 125.611 214.88 124.449 215.785 123.288 216.616 122.119 217.372 120.944 218.129 119.769 218.831 118.377 219.48 116.77 220.128 115.162 220.682 113.223 221.142 110.954L221.506 109.211C221.912 107.266 222.114 105.429 222.114 103.699 222.114 101.592 221.668 100.059 220.777 99.0996 219.885 98.1405 218.399 97.6609 216.319 97.6609ZM233.3 75.9382 235.691 75.9382 225.6 120.802C225.005 123.45 224.708 125.449 224.708 126.8 224.708 127.881 224.884 128.664 225.235 129.151 225.586 129.637 226.14 129.88 226.896 129.88 227.707 129.88 228.572 129.549 229.49 128.887 230.409 128.225 231.706 126.962 233.381 125.098L235.691 127.367C233.205 129.988 231.111 131.839 229.409 132.92 227.707 134 225.87 134.541 223.897 134.541 222.222 134.541 220.885 133.987 219.885 132.879 218.885 131.771 218.386 130.299 218.386 128.462 218.386 126.976 218.696 125.395 219.318 123.72L218.791 123.558C216.197 127.34 213.739 130.11 211.415 131.866 209.091 133.622 206.633 134.5 204.039 134.5 201.067 134.5 198.764 133.379 197.129 131.136 195.494 128.894 194.677 125.746 194.677 121.694 194.677 117.046 195.589 112.582 197.413 108.299 199.236 104.017 201.742 100.64 204.931 98.1675 208.119 95.6953 211.672 94.4592 215.589 94.4592 217.237 94.4592 218.757 94.6281 220.149 94.9658 221.54 95.3036 222.965 95.8912 224.424 96.7288L226.532 87.3669C226.748 86.4753 226.937 85.4892 227.099 84.4084 227.261 83.3277 227.342 82.3821 227.342 81.5715 227.342 80.761 227.194 80.1463 226.896 79.7275 226.599 79.3088 226.174 79.0048 225.62 78.8157 225.066 78.6266 224.073 78.4915 222.641 78.4104L223.127 76.303Z" fill-rule="evenodd"/><text fill="#000000" fill-opacity="0" font-family="Arial,Arial_MSFontService,sans-serif" font-size="58.6025" x="194.677" y="127.215">𝑑</text><g clip-path="url(#clip20)" filter="url(#fx1)" transform="translate(180 195)"><g><path d="M22.7675 22.3626C20.0116 22.3626 17.5395 23.4771 15.351 25.7061 13.1625 27.9351 11.4401 30.9409 10.1837 34.7234 8.9274 38.506 8.29922 42.275 8.29922 46.0306 8.29922 48.8405 8.68423 50.9411 9.45425 52.3326 10.2243 53.724 11.5144 54.4197 13.3246 54.4197 14.1622 54.4197 15.0133 54.2374 15.8778 53.8726 16.7424 53.5079 17.6408 52.9202 18.5729 52.1097 19.505 51.2991 20.4237 50.313 21.3288 49.1512 22.2339 47.9894 23.0647 46.8208 23.8212 45.6456 24.5777 44.4703 25.2802 43.0788 25.9286 41.4712 26.5771 39.8637 27.1309 37.9251 27.5902 35.6556L27.955 33.9129C28.3603 31.9676 28.5629 30.1303 28.5629 28.4012 28.5629 26.2938 28.1171 24.7605 27.2255 23.8013 26.3339 22.8422 24.8479 22.3626 22.7675 22.3626ZM60.7167 9.83965 66.3095 9.83965 64.0805 19.8499 76.4008 19.8499 75.5092 23.9432 63.1889 23.9432 59.5819 39.6678C58.8795 42.7208 58.4337 44.9161 58.2445 46.2535 58.0554 47.5909 57.9608 48.6648 57.9608 49.4754 57.9608 52.8256 59.3523 54.5008 62.1352 54.5008 63.324 54.5008 64.5871 54.0482 65.9245 53.1431 67.2619 52.238 68.8492 50.6912 70.6864 48.5027L73.037 50.9344C70.6864 53.7713 68.4237 55.8652 66.2487 57.2161 64.0737 58.567 61.7974 59.2425 59.4198 59.2425 53.773 59.2425 50.9496 56.3921 50.9496 50.6912 50.9496 48.881 51.1793 46.9762 51.6386 44.9769L56.4208 23.9432 49.6122 23.9432 50.2201 21.1468C51.8142 21.1198 53.0233 20.9982 53.8473 20.782 54.6714 20.5659 55.3603 20.2687 55.9142 19.8904 56.4681 19.5122 56.9747 18.9718 57.434 18.2693 57.8933 17.5669 58.3391 16.6685 58.7714 15.5743 59.2037 14.48 59.8521 12.5685 60.7167 9.83965ZM39.7484 0.639942 42.1396 0.639942 32.0482 45.5037C31.4538 48.1515 31.1566 50.1508 31.1566 51.5018 31.1566 52.5825 31.3323 53.366 31.6835 53.8523 32.0347 54.3387 32.5886 54.5818 33.3451 54.5818 34.1557 54.5818 35.0202 54.2509 35.9389 53.5889 36.8575 52.927 38.1544 51.6639 39.8295 49.7996L42.1396 52.0691C39.6539 54.6899 37.56 56.5407 35.8578 57.6214 34.1557 58.7021 32.3184 59.2425 30.3461 59.2425 28.671 59.2425 27.3336 58.6886 26.3339 57.5809 25.3342 56.4731 24.8344 55.0006 24.8344 53.1634 24.8344 51.6774 25.1451 50.0968 25.7665 48.4217L25.2397 48.2596C22.6459 52.0421 20.1872 54.8115 17.8637 56.5677 15.5401 58.3239 13.0814 59.202 10.4877 59.202 7.5157 59.202 5.21239 58.0807 3.57779 55.8382 1.94319 53.5957 1.12589 50.448 1.12589 46.3953 1.12589 41.7482 2.03775 37.2834 3.86148 33.001 5.68521 28.7186 8.19115 25.3414 11.3793 22.8692 14.5675 20.397 18.1203 19.1609 22.038 19.1609 23.6861 19.1609 25.2059 19.3298 26.5973 19.6675 27.9888 20.0053 29.414 20.5929 30.873 21.4305L32.9804 12.0687C33.1965 11.1771 33.3856 10.1909 33.5478 9.11016 33.7099 8.02943 33.7909 7.08379 33.7909 6.27324 33.7909 5.4627 33.6423 4.84803 33.3451 4.42925 33.0479 4.01046 32.6224 3.70651 32.0685 3.51738 31.5146 3.32826 30.5217 3.19316 29.0897 3.11211L29.5761 1.00469Z" fill-rule="evenodd"/></g></g><path d="M200.3 215.292C197.544 215.292 195.072 216.407 192.884 218.636 190.695 220.865 188.973 223.87 187.716 227.653 186.46 231.436 185.832 235.205 185.832 238.96 185.832 241.77 186.217 243.871 186.987 245.262 187.757 246.654 189.047 247.349 190.857 247.349 191.695 247.349 192.546 247.167 193.41 246.802 194.275 246.437 195.173 245.85 196.105 245.039 197.038 244.229 197.956 243.242 198.861 242.081 199.766 240.919 200.597 239.75 201.354 238.575 202.11 237.4 202.813 236.008 203.461 234.401 204.11 232.793 204.663 230.855 205.123 228.585L205.488 226.842C205.893 224.897 206.095 223.06 206.095 221.331 206.095 219.223 205.65 217.69 204.758 216.731 203.866 215.772 202.38 215.292 200.3 215.292ZM238.249 202.769 243.842 202.769 241.613 212.779 253.933 212.779 253.042 216.873 240.721 216.873 237.114 232.597C236.412 235.65 235.966 237.846 235.777 239.183 235.588 240.52 235.493 241.594 235.493 242.405 235.493 245.755 236.885 247.43 239.668 247.43 240.856 247.43 242.12 246.978 243.457 246.073 244.794 245.168 246.382 243.621 248.219 241.432L250.57 243.864C248.219 246.701 245.956 248.795 243.781 250.146 241.606 251.497 239.33 252.172 236.952 252.172 231.306 252.172 228.482 249.322 228.482 243.621 228.482 241.811 228.712 239.906 229.171 237.906L233.953 216.873 227.145 216.873 227.753 214.076C229.347 214.049 230.556 213.928 231.38 213.712 232.204 213.495 232.893 213.198 233.447 212.82 234.001 212.442 234.507 211.901 234.967 211.199 235.426 210.496 235.872 209.598 236.304 208.504 236.736 207.41 237.385 205.498 238.249 202.769ZM217.281 193.569 219.672 193.569 209.581 238.433C208.986 241.081 208.689 243.08 208.689 244.431 208.689 245.512 208.865 246.296 209.216 246.782 209.567 247.268 210.121 247.511 210.878 247.511 211.688 247.511 212.553 247.18 213.471 246.518 214.39 245.857 215.687 244.593 217.362 242.729L219.672 244.999C217.186 247.619 215.092 249.47 213.39 250.551 211.688 251.632 209.851 252.172 207.879 252.172 206.204 252.172 204.866 251.618 203.866 250.51 202.867 249.403 202.367 247.93 202.367 246.093 202.367 244.607 202.678 243.026 203.299 241.351L202.772 241.189C200.178 244.972 197.72 247.741 195.396 249.497 193.073 251.253 190.614 252.131 188.02 252.131 185.048 252.131 182.745 251.01 181.11 248.768 179.476 246.525 178.658 243.378 178.658 239.325 178.658 234.678 179.57 230.213 181.394 225.931 183.218 221.648 185.724 218.271 188.912 215.799 192.1 213.327 195.653 212.09 199.571 212.09 201.219 212.09 202.738 212.259 204.13 212.597 205.521 212.935 206.947 213.522 208.405 214.36L210.513 204.998C210.729 204.107 210.918 203.12 211.08 202.04 211.242 200.959 211.323 200.013 211.323 199.203 211.323 198.392 211.175 197.778 210.878 197.359 210.58 196.94 210.155 196.636 209.601 196.447 209.047 196.258 208.054 196.123 206.622 196.042L207.109 193.934Z" fill-rule="evenodd"/><text fill="#000000" fill-opacity="0" font-family="Arial,Arial_MSFontService,sans-serif" font-size="58.6025" x="178.658" y="244.847">𝑑𝑡</text><g clip-path="url(#clip21)" filter="url(#fx2)" transform="translate(176 171)"><g><path d="M0.891356 1.41071 82.8913 1.41071 82.8913 6.41071 0.891356 6.41071Z" fill-rule="evenodd"/></g></g><path d="M174.424 170.34 256.424 170.34 256.424 175.34 174.424 175.34Z" fill-rule="evenodd"/><g clip-path="url(#clip22)" filter="url(#fx3)" transform="translate(272 158)"><g><path d="M29.3768 4.21979C28.3501 4.21979 27.3707 4.40216 26.4385 4.76691 25.5064 5.13166 24.5338 5.75307 23.5206 6.63117 22.5074 7.50926 21.5415 8.69131 20.6229 10.1773 19.7042 11.6633 18.8802 13.4127 18.1507 15.4256 17.4212 17.4385 16.7187 20.0119 16.0433 23.1461L14.6248 29.671C14.5708 29.9682 14.51 30.3937 14.4424 30.9476 14.3749 31.5014 14.3411 32.008 14.3411 32.4673 14.3411 34.1965 15.0504 35.5272 16.4688 36.4593 17.8873 37.3914 19.7718 37.8575 22.1224 37.8575 24.9053 37.8575 27.3707 36.7295 29.5186 34.4734 31.6666 32.2174 33.3349 29.1103 34.5237 25.1522 35.7125 21.194 36.3069 17.2561 36.3069 13.3384 36.3069 11.5823 36.1246 10.049 35.7598 8.73859 35.3951 7.42821 34.6994 6.34748 33.6727 5.4964 32.646 4.64533 31.214 4.21979 29.3768 4.21979ZM30.4305 1.01813C33.0512 1.01813 35.3613 1.55174 37.3607 2.61896 39.36 3.68618 40.873 5.23298 41.8997 7.25934 42.9264 9.28571 43.4398 11.7714 43.4398 14.7164 43.4398 19.3095 42.5414 23.6662 40.7447 27.7864 38.948 31.9067 36.4488 35.1489 33.2471 37.513 30.0455 39.8771 26.4588 41.0591 22.4871 41.0591 20.6499 41.0591 18.9072 40.897 17.2591 40.5728 15.611 40.2486 13.9629 39.6947 12.3148 38.9112L8.09991 57.9185 1.45343 57.9185 9.68048 21.2413C10.6531 16.9184 12.0446 13.2979 13.8548 10.3799 15.665 7.46198 17.9616 5.17218 20.7444 3.51056 23.5273 1.84894 26.756 1.01813 30.4305 1.01813Z" fill-rule="evenodd"/></g></g><path d="M298.909 160.149C297.883 160.149 296.903 160.332 295.971 160.696 295.039 161.061 294.066 161.683 293.053 162.561 292.04 163.439 291.074 164.621 290.155 166.107 289.237 167.593 288.413 169.342 287.683 171.355 286.954 173.368 286.251 175.941 285.576 179.076L284.157 185.6C284.103 185.898 284.043 186.323 283.975 186.877 283.907 187.431 283.874 187.938 283.874 188.397 283.874 190.126 284.583 191.457 286.001 192.389 287.42 193.321 289.304 193.787 291.655 193.787 294.438 193.787 296.903 192.659 299.051 190.403 301.199 188.147 302.867 185.04 304.056 181.082 305.245 177.124 305.839 173.186 305.839 169.268 305.839 167.512 305.657 165.979 305.292 164.668 304.928 163.358 304.232 162.277 303.205 161.426 302.178 160.575 300.747 160.149 298.909 160.149ZM299.963 156.948C302.584 156.948 304.894 157.481 306.893 158.548 308.893 159.616 310.406 161.163 311.432 163.189 312.459 165.215 312.972 167.701 312.972 170.646 312.972 175.239 312.074 179.596 310.277 183.716 308.48 187.836 305.981 191.078 302.78 193.443 299.578 195.807 295.991 196.989 292.02 196.989 290.182 196.989 288.44 196.827 286.792 196.502 285.144 196.178 283.495 195.624 281.847 194.841L277.632 213.848 270.986 213.848 279.213 177.171C280.186 172.848 281.577 169.227 283.387 166.309 285.198 163.392 287.494 161.102 290.277 159.44 293.06 157.778 296.289 156.948 299.963 156.948Z" fill-rule="evenodd"/><text fill="#000000" fill-opacity="0" font-family="Arial,Arial_MSFontService,sans-serif" font-size="56.9004" x="270.986" y="206.736">𝜌</text><g clip-path="url(#clip23)" filter="url(#fx4)" transform="translate(327 135)"><g><path d="M64.8048 1.29662C72.6941 3.37702 78.7529 7.8688 82.9813 14.772 87.2097 21.6751 89.3238 30.0035 89.3238 39.7571 89.3238 49.5377 87.2164 57.866 83.0016 64.7422 78.7867 71.6183 72.7211 76.0966 64.8048 78.177L63.8321 75.0564C70.0733 72.976 74.7137 68.8692 77.7533 62.7361 80.7928 56.6029 82.3126 48.8082 82.3126 39.3518 82.3126 30.2196 80.7996 22.6343 77.7735 16.5957 74.7475 10.5571 70.0598 6.49763 63.7106 4.41722ZM25.0741 1.29662 26.1683 4.41722C19.846 6.49763 15.1651 10.5571 12.1256 16.5957 9.08603 22.6343 7.56625 30.2196 7.56625 39.3518 7.56625 48.8082 9.08603 56.6029 12.1256 62.7361 15.1651 68.8692 19.8055 72.976 26.0467 75.0564L25.0741 78.177C17.1577 76.0966 11.0921 71.6183 6.87729 64.7422 2.66245 57.866 0.555023 49.5377 0.555023 39.7571 0.555023 30.0035 2.66919 21.6751 6.89755 14.772 11.1259 7.8688 17.1847 3.37702 25.0741 1.29662Z" fill-rule="evenodd"/></g></g><path d="M389.337 134.226C397.227 136.307 403.285 140.798 407.514 147.702 411.742 154.605 413.856 162.933 413.856 172.687 413.856 182.467 411.749 190.796 407.534 197.672 403.319 204.548 397.254 209.026 389.337 211.107L388.365 207.986C394.606 205.906 399.246 201.799 402.286 195.666 405.325 189.532 406.845 181.738 406.845 172.281 406.845 163.149 405.332 155.564 402.306 149.525 399.28 143.487 394.592 139.427 388.243 137.347ZM349.607 134.226 350.701 137.347C344.379 139.427 339.698 143.487 336.658 149.525 333.619 155.564 332.099 163.149 332.099 172.281 332.099 181.738 333.619 189.532 336.658 195.666 339.698 201.799 344.338 205.906 350.579 207.986L349.607 211.107C341.69 209.026 335.625 204.548 331.41 197.672 327.195 190.796 325.088 182.467 325.088 172.687 325.088 162.933 327.202 154.605 331.43 147.702 335.658 140.798 341.717 136.307 349.607 134.226Z" fill-rule="evenodd"/><g clip-path="url(#clip24)" filter="url(#fx5)" transform="translate(358 149)"><g><path d="M12.3438 0.656315 17.9366 0.656315 15.7075 10.6666 28.0279 10.6666 27.1363 14.7598 14.8159 14.7598 11.209 30.4844C10.5065 33.5375 10.0607 35.7327 9.87161 37.0701 9.68248 38.4075 9.58792 39.4815 9.58792 40.2921 9.58792 43.6423 10.9794 45.3174 13.7622 45.3174 14.951 45.3174 16.2141 44.8649 17.5515 43.9598 18.8889 43.0547 20.4763 41.5079 22.3135 39.3194L24.6641 41.751C22.3135 44.588 20.0507 46.6819 17.8758 48.0328 15.7008 49.3837 13.4245 50.0591 11.0469 50.0591 5.40009 50.0591 2.57669 47.2087 2.57669 41.5079 2.57669 39.6977 2.80635 37.7929 3.26566 35.7935L8.04788 14.7598 1.23929 14.7598 1.8472 11.9634C3.44127 11.9364 4.65034 11.8148 5.4744 11.5987 6.29845 11.3826 6.98742 11.0854 7.54129 10.7071 8.09516 10.3288 8.60175 9.78848 9.06106 9.086 9.52038 8.38353 9.96618 7.48517 10.3985 6.39093 10.8308 5.2967 11.4792 3.38516 12.3438 0.656315Z" fill-rule="evenodd"/></g></g><path d="M367.876 147.586 373.469 147.586 371.24 157.596 383.56 157.596 382.669 161.689 370.348 161.689 366.742 177.414C366.039 180.467 365.593 182.662 365.404 184 365.215 185.337 365.12 186.411 365.12 187.222 365.12 190.572 366.512 192.247 369.295 192.247 370.484 192.247 371.747 191.794 373.084 190.889 374.421 189.984 376.009 188.437 377.846 186.249L380.197 188.681C377.846 191.517 375.583 193.611 373.408 194.962 371.233 196.313 368.957 196.989 366.579 196.989 360.933 196.989 358.109 194.138 358.109 188.437 358.109 186.627 358.339 184.722 358.798 182.723L363.58 161.689 356.772 161.689 357.38 158.893C358.974 158.866 360.183 158.744 361.007 158.528 361.831 158.312 362.52 158.015 363.074 157.637 363.628 157.258 364.134 156.718 364.594 156.016 365.053 155.313 365.499 154.415 365.931 153.32 366.363 152.226 367.012 150.315 367.876 147.586Z" fill-rule="evenodd"/><text fill="#000000" fill-opacity="0" font-family="Arial,Arial_MSFontService,sans-serif" font-size="49.4028" x="356.772" y="190.813">𝑡</text><g clip-path="url(#clip25)" filter="url(#fx6)" transform="translate(451 163)"><g><path d="M1.36325 17.4166 51.2929 17.4166 51.2929 22.8067 1.36325 22.8067ZM1.36325 0.597721 51.2929 0.597721 51.2929 5.98786 1.36325 5.98786Z" fill-rule="evenodd"/></g></g><path d="M449.896 178.346 499.825 178.346 499.825 183.736 449.896 183.736ZM449.896 161.527 499.825 161.527 499.825 166.917 449.896 166.917Z" fill-rule="evenodd"/><text fill="#000000" fill-opacity="0" font-family="Arial,Arial_MSFontService,sans-serif" font-size="22.209" x="449.896" y="180.96">=</text><g clip-path="url(#clip26)" filter="url(#fx7)" transform="translate(536 171)"><g><path d="M1.15491 0.986879 51.0846 0.986879 51.0846 6.37702 1.15491 6.37702Z" fill-rule="evenodd"/></g></g><path d="M534.687 169.916 584.617 169.916 584.617 175.307 534.687 175.307Z" fill-rule="evenodd"/><text fill="#000000" fill-opacity="0" font-family="Arial,Arial_MSFontService,sans-serif" font-size="5.39014" x="534.687" y="174.633">−</text><g clip-path="url(#clip27)" filter="url(#fx8)" transform="translate(621 80)"><g><path d="M12.4144 16.8539 14.8055 16.8539 8.96954 42.8725C8.37514 45.5203 8.07794 47.5196 8.07794 48.8705 8.07794 49.9512 8.25356 50.7348 8.6048 51.2211 8.95603 51.7074 9.50991 51.9506 10.2664 51.9506 11.077 51.9506 11.9415 51.6196 12.8602 50.9577 13.7788 50.2957 15.0757 49.0326 16.7508 47.1684L19.0609 49.4379C16.4131 52.2208 14.2651 54.112 12.617 55.1117 10.9689 56.1114 9.11814 56.6112 7.06476 56.6112 5.30857 56.6112 3.90362 55.9696 2.84991 54.6862 1.7962 53.4028 1.26935 51.7615 1.26935 49.7621 1.26935 47.7087 1.6476 45.088 2.40411 41.8998L5.44366 28.6474C6.06508 25.9455 6.37579 23.9192 6.37579 22.5683 6.37579 21.3525 6.08535 20.5284 5.50445 20.0961 4.92356 19.6638 3.78204 19.4206 2.07989 19.3666L2.5257 17.2187ZM11.3201 1.33194 18.4935 1.33194 16.6292 9.19425 9.45587 9.19425Z" fill-rule="evenodd"/></g></g><path d="M630.947 94.7834 633.338 94.7834 627.502 120.802C626.908 123.45 626.61 125.449 626.61 126.8 626.61 127.881 626.786 128.664 627.137 129.151 627.489 129.637 628.042 129.88 628.799 129.88 629.609 129.88 630.474 129.549 631.393 128.887 632.311 128.225 633.608 126.962 635.283 125.098L637.593 127.367C634.946 130.15 632.798 132.042 631.15 133.041 629.501 134.041 627.651 134.541 625.597 134.541 623.841 134.541 622.436 133.899 621.382 132.616 620.329 131.332 619.802 129.691 619.802 127.692 619.802 125.638 620.18 123.017 620.937 119.829L623.976 106.577C624.598 103.875 624.908 101.849 624.908 100.498 624.908 99.282 624.618 98.4579 624.037 98.0256 623.456 97.5933 622.315 97.3502 620.612 97.2961L621.058 95.1482ZM629.853 79.2615 637.026 79.2615 635.162 87.1238 627.988 87.1238Z" fill-rule="evenodd"/><text fill="#000000" fill-opacity="0" font-family="Arial,Arial_MSFontService,sans-serif" font-size="55.2793" x="619.802" y="127.631">𝑖</text><g filter="url(#fx9)" transform="translate(611 195)"><g><path d="M18.2745 0.639942 20.6251 0.639942 18.0314 11.096 28.2848 6.67852 29.7438 9.96123 16.9777 15.3108 13.6544 28.7254 14.1407 28.8875C16.6805 25.5102 19.0986 23.0516 21.3951 21.5115 23.6917 19.9715 26.0288 19.2015 28.4064 19.2015 30.9461 19.2015 32.8981 19.9174 34.2626 21.3494 35.627 22.7814 36.3092 24.7942 36.3092 27.388 36.3092 29.0901 35.9174 31.5083 35.1339 34.6424L32.4996 45.2605C31.7701 48.2055 31.4054 50.2859 31.4054 51.5018 31.4054 52.5825 31.581 53.366 31.9322 53.8523 32.2835 54.3387 32.8374 54.5818 33.5939 54.5818 34.4044 54.5818 35.269 54.2509 36.1876 53.5889 37.1062 52.927 38.4031 51.6639 40.0782 49.7996L42.3883 52.0691C40.1998 54.3387 38.5247 55.9192 37.3629 56.8108 36.2011 57.7024 35.0866 58.3306 34.0194 58.6954 32.9522 59.0601 31.7431 59.2425 30.3922 59.2425 28.636 59.2425 27.2311 58.6143 26.1774 57.358 25.1237 56.1016 24.5968 54.5008 24.5968 52.5555 24.5968 50.7993 25.0426 48.219 25.9342 44.8147L27.7174 37.8035C28.3658 35.2638 28.7914 33.386 28.994 32.1702 29.1967 30.9544 29.298 29.9682 29.298 29.2117 29.298 27.3204 28.9805 25.9695 28.3456 25.159 27.7106 24.3484 26.6772 23.9432 25.2452 23.9432 24.1105 23.9432 22.8609 24.4025 21.4965 25.3211 20.132 26.2397 18.7068 27.6379 17.2208 29.5157 15.7348 31.3934 14.5528 33.1902 13.6747 34.9058 12.7966 36.6215 12.1009 38.6681 11.5875 41.0457L7.89954 58.594 0.888306 58.594 9.96643 18.2288 4.41418 20.6199 2.9552 17.3372 10.8986 14.095 11.547 11.2176C12.0333 8.86699 12.2765 7.21888 12.2765 6.27324 12.2765 5.13848 11.932 4.34144 11.243 3.88213 10.5541 3.42282 9.31799 3.16615 7.53479 3.11211L8.02112 1.00469Z" fill-rule="evenodd"/></g></g><path d="M626.807 193.569 629.158 193.569 626.564 204.026 636.817 199.608 638.276 202.891 625.51 208.24 622.187 221.655 622.673 221.817C625.213 218.44 627.631 215.981 629.928 214.441 632.224 212.901 634.561 212.131 636.939 212.131 639.479 212.131 641.431 212.847 642.795 214.279 644.16 215.711 644.842 217.724 644.842 220.318 644.842 222.02 644.45 224.438 643.666 227.572L641.032 238.19C640.303 241.135 639.938 243.215 639.938 244.431 639.938 245.512 640.114 246.296 640.465 246.782 640.816 247.268 641.37 247.511 642.126 247.511 642.937 247.511 643.802 247.18 644.72 246.518 645.639 245.857 646.936 244.593 648.611 242.729L650.921 244.999C648.732 247.268 647.057 248.849 645.895 249.74 644.734 250.632 643.619 251.26 642.552 251.625 641.485 251.99 640.276 252.172 638.925 252.172 637.169 252.172 635.764 251.544 634.71 250.287 633.656 249.031 633.129 247.43 633.129 245.485 633.129 243.729 633.575 241.149 634.467 237.744L636.25 230.733C636.898 228.193 637.324 226.316 637.527 225.1 637.729 223.884 637.831 222.898 637.831 222.141 637.831 220.25 637.513 218.899 636.878 218.089 636.243 217.278 635.21 216.873 633.778 216.873 632.643 216.873 631.393 217.332 630.029 218.251 628.665 219.169 627.239 220.567 625.753 222.445 624.267 224.323 623.085 226.12 622.207 227.835 621.329 229.551 620.633 231.598 620.12 233.975L616.432 251.524 609.421 251.524 618.499 211.158 612.947 213.549 611.488 210.267 619.431 207.025 620.08 204.147C620.566 201.797 620.809 200.148 620.809 199.203 620.809 198.068 620.465 197.271 619.776 196.812 619.087 196.352 617.851 196.096 616.067 196.042L616.554 193.934Z" fill-rule="evenodd"/><text fill="#000000" fill-opacity="0" font-family="Arial,Arial_MSFontService,sans-serif" font-size="58.6025" x="609.421" y="244.847">ℏ</text><g clip-path="url(#clip28)" filter="url(#fx10)" transform="translate(606 171)"><g><path d="M0.891327 1.41071 49.8913 1.41071 49.8913 6.41071 0.891327 6.41071Z" fill-rule="evenodd"/></g></g><path d="M604.424 170.34 653.424 170.34 653.424 175.34 604.424 175.34Z" fill-rule="evenodd"/><g clip-path="url(#clip29)" filter="url(#fx11)" transform="translate(677 135)"><g><path d="M370.017 1.08867 388.093 1.08867 388.093 78.3743 370.017 78.3743 370.017 75.2537 381.365 75.2537 381.365 4.20927 370.017 4.20927ZM1.42944 1.08867 19.5046 1.08867 19.5046 4.20927 8.15698 4.20927 8.15698 75.2537 19.5046 75.2537 19.5046 78.3743 1.42944 78.3743Z" fill-rule="evenodd"/></g></g><path d="M1044.55 134.018 1062.62 134.018 1062.62 211.304 1044.55 211.304 1044.55 208.183 1055.9 208.183 1055.9 137.139 1044.55 137.139ZM675.962 134.018 694.037 134.018 694.037 137.139 682.69 137.139 682.69 208.183 694.037 208.183 694.037 211.304 675.962 211.304Z" fill-rule="evenodd"/><g clip-path="url(#clip30)" filter="url(#fx12)" transform="translate(699 142)"><g><path d="M11.9925 1.09089 28.2034 1.09089 27.7576 3.07673C26.7309 3.29287 25.9947 3.53604 25.5489 3.80622 25.1031 4.0764 24.7046 4.48167 24.3533 5.02204 24.0021 5.5624 23.6373 6.40672 23.2591 7.555 22.8808 8.70327 22.408 10.5743 21.8406 13.168L19.0848 25.5694 40.848 25.5694 43.6038 13.1275C43.847 12.0198 44.0564 10.8377 44.232 9.58136 44.4076 8.32502 44.4954 7.3321 44.4954 6.6026 44.4954 5.33274 44.178 4.4479 43.543 3.94806 42.9081 3.44822 41.9017 3.15778 40.5237 3.07673L40.9695 1.09089 57.1805 1.09089 56.7347 3.07673C55.708 3.29287 54.9717 3.53604 54.5259 3.80622 54.0801 4.0764 53.6816 4.48167 53.3304 5.02204 52.9791 5.5624 52.6144 6.40672 52.2361 7.555 51.8579 8.70327 51.3851 10.5743 50.8177 13.168L43.8875 44.6172C43.5363 46.2113 43.3066 47.4744 43.1985 48.4066 43.0905 49.3387 43.0364 50.183 43.0364 50.9395 43.0364 52.1553 43.3404 53.0132 43.9483 53.513 44.5562 54.0128 45.5761 54.3168 47.0081 54.4249L46.5623 56.4107 30.3514 56.4107 30.7972 54.4249C31.8239 54.2628 32.5939 53.9993 33.1072 53.6346 33.6206 53.2698 34.0529 52.7632 34.4041 52.1148 34.7553 51.4664 35.0796 50.6761 35.3768 49.744 35.674 48.8118 36.1198 47.0084 36.7142 44.3336L40.0374 29.2979 18.2742 29.2979 14.9105 44.6172C14.6133 45.9682 14.3971 47.0827 14.262 47.9608 14.1269 48.8388 14.0594 49.8318 14.0594 50.9395 14.0594 52.1013 14.3296 52.9389 14.8699 53.4522 15.4103 53.9656 16.464 54.2898 18.0311 54.4249L17.5853 56.4107 1.37433 56.4107 1.82013 54.4249C2.84682 54.2628 3.61684 53.9993 4.13019 53.6346 4.64353 53.2698 5.07583 52.7632 5.42706 52.1148 5.7783 51.4664 6.10252 50.6761 6.39972 49.744 6.69692 48.8118 7.14272 47.0084 7.73712 44.3336L14.6268 13.1275C14.8699 12.0198 15.0793 10.8377 15.2549 9.58136 15.4306 8.32502 15.5184 7.3321 15.5184 6.6026 15.5184 5.33274 15.2009 4.4479 14.566 3.94806 13.9311 3.44822 12.9246 3.15778 11.5467 3.07673Z" fill-rule="evenodd"/></g></g><path d="M708.525 141.02 724.736 141.02 724.29 143.006C723.263 143.222 722.527 143.466 722.081 143.736 721.636 144.006 721.237 144.411 720.886 144.952 720.535 145.492 720.17 146.336 719.792 147.485 719.413 148.633 718.941 150.504 718.373 153.098L715.617 165.499 737.38 165.499 740.136 153.057C740.38 151.949 740.589 150.767 740.765 149.511 740.94 148.255 741.028 147.262 741.028 146.532 741.028 145.262 740.711 144.377 740.076 143.878 739.441 143.378 738.434 143.087 737.056 143.006L737.502 141.02 753.713 141.02 753.267 143.006C752.241 143.222 751.504 143.466 751.058 143.736 750.613 144.006 750.214 144.411 749.863 144.952 749.512 145.492 749.147 146.336 748.769 147.485 748.39 148.633 747.918 150.504 747.35 153.098L740.42 184.547C740.069 186.141 739.839 187.404 739.731 188.336 739.623 189.268 739.569 190.113 739.569 190.869 739.569 192.085 739.873 192.943 740.481 193.443 741.089 193.942 742.109 194.246 743.541 194.354L743.095 196.34 726.884 196.34 727.33 194.354C728.356 194.192 729.126 193.929 729.64 193.564 730.153 193.199 730.585 192.693 730.937 192.044 731.288 191.396 731.612 190.606 731.909 189.673 732.206 188.741 732.652 186.938 733.247 184.263L736.57 169.227 714.807 169.227 711.443 184.547C711.146 185.898 710.93 187.012 710.795 187.89 710.659 188.768 710.592 189.761 710.592 190.869 710.592 192.031 710.862 192.868 711.402 193.382 711.943 193.895 712.997 194.219 714.564 194.354L714.118 196.34 697.907 196.34 698.353 194.354C699.379 194.192 700.149 193.929 700.663 193.564 701.176 193.199 701.608 192.693 701.96 192.044 702.311 191.396 702.635 190.606 702.932 189.673 703.229 188.741 703.675 186.938 704.27 184.263L711.159 153.057C711.402 151.949 711.612 150.767 711.787 149.511 711.963 148.255 712.051 147.262 712.051 146.532 712.051 145.262 711.733 144.377 711.099 143.878 710.464 143.378 709.457 143.087 708.079 143.006Z" fill-rule="evenodd"/><text fill="#000000" fill-opacity="0" font-family="Arial,Arial_MSFontService,sans-serif" font-size="55.3198" x="697.907" y="189.425">𝐻</text><g clip-path="url(#clip31)" filter="url(#fx13)" transform="translate(767 135)"><g><path d="M65.1714 1.29662C73.0607 3.37702 79.1196 7.8688 83.348 14.772 87.5763 21.6751 89.6905 30.0035 89.6905 39.7571 89.6905 49.5377 87.5831 57.866 83.3682 64.7422 79.1534 71.6183 73.0878 76.0966 65.1714 78.177L64.1988 75.0564C70.44 72.976 75.0804 68.8692 78.1199 62.7361 81.1595 56.6029 82.6793 48.8082 82.6793 39.3518 82.6793 30.2196 81.1662 22.6343 78.1402 16.5957 75.1141 10.5571 70.4265 6.49763 64.0772 4.41722ZM25.4407 1.29662 26.5349 4.41722C20.2126 6.49763 15.5317 10.5571 12.4922 16.5957 9.45264 22.6343 7.93286 30.2196 7.93286 39.3518 7.93286 48.8082 9.45264 56.6029 12.4922 62.7361 15.5317 68.8692 20.1721 72.976 26.4133 75.0564L25.4407 78.177C17.5244 76.0966 11.4587 71.6183 7.2439 64.7422 3.02905 57.866 0.921631 49.5377 0.921631 39.7571 0.921631 30.0035 3.03583 21.6751 7.26416 14.772 11.4926 7.8688 17.5514 3.37702 25.4407 1.29662Z" fill-rule="evenodd"/></g></g><path d="M829.704 134.226C837.593 136.307 843.652 140.798 847.88 147.702 852.109 154.605 854.223 162.933 854.223 172.687 854.223 182.467 852.116 190.796 847.901 197.672 843.686 204.548 837.62 209.026 829.704 211.107L828.731 207.986C834.973 205.906 839.613 201.799 842.652 195.666 845.692 189.532 847.212 181.738 847.212 172.281 847.212 163.149 845.699 155.564 842.673 149.525 839.647 143.487 834.959 139.427 828.61 137.347ZM789.973 134.226 791.067 137.347C784.745 139.427 780.064 143.487 777.025 149.525 773.985 155.564 772.465 163.149 772.465 172.281 772.465 181.738 773.985 189.532 777.025 195.666 780.064 201.799 784.705 205.906 790.946 207.986L789.973 211.107C782.057 209.026 775.991 204.548 771.776 197.672 767.562 190.796 765.454 182.467 765.454 172.687 765.454 162.933 767.568 154.605 771.797 147.702 776.025 140.798 782.084 136.307 789.973 134.226Z" fill-rule="evenodd"/><g filter="url(#fx14)" transform="translate(799 149)"><g><path d="M11.7104 0.656315 17.3032 0.656315 15.0742 10.6666 27.3945 10.6666 26.5029 14.7598 14.1826 14.7598 10.5757 30.4844C9.87321 33.5375 9.42741 35.7327 9.23828 37.0701 9.04915 38.4075 8.95459 39.4815 8.95459 40.2921 8.95459 43.6423 10.346 45.3174 13.1289 45.3174 14.3177 45.3174 15.5808 44.8649 16.9182 43.9598 18.2556 43.0547 19.8429 41.5079 21.6802 39.3194L24.0308 41.751C21.6802 44.588 19.4174 46.6819 17.2424 48.0328 15.0675 49.3837 12.7912 50.0591 10.4136 50.0591 4.76676 50.0591 1.94336 47.2087 1.94336 41.5079 1.94336 39.6977 2.17301 37.7929 2.63232 35.7935L7.41455 14.7598 0.605957 14.7598 1.21387 11.9634C2.80794 11.9364 4.01701 11.8148 4.84106 11.5987 5.66512 11.3826 6.35408 11.0854 6.90796 10.7071 7.46183 10.3288 7.96842 9.78848 8.42773 9.086 8.88704 8.38353 9.33284 7.48517 9.76514 6.39093 10.1974 5.2967 10.8459 3.38516 11.7104 0.656315Z" fill-rule="evenodd"/></g></g><path d="M808.243 147.586 813.836 147.586 811.607 157.596 823.927 157.596 823.035 161.689 810.715 161.689 807.108 177.414C806.406 180.467 805.96 182.662 805.771 184 805.582 185.337 805.487 186.411 805.487 187.222 805.487 190.572 806.879 192.247 809.661 192.247 810.85 192.247 812.113 191.794 813.451 190.889 814.788 189.984 816.375 188.437 818.213 186.249L820.563 188.681C818.213 191.517 815.95 193.611 813.775 194.962 811.6 196.313 809.324 196.989 806.946 196.989 801.299 196.989 798.476 194.138 798.476 188.437 798.476 186.627 798.706 184.722 799.165 182.723L803.947 161.689 797.138 161.689 797.746 158.893C799.34 158.866 800.55 158.744 801.374 158.528 802.198 158.312 802.887 158.015 803.44 157.637 803.994 157.258 804.501 156.718 804.96 156.016 805.42 155.313 805.865 154.415 806.298 153.32 806.73 152.226 807.378 150.315 808.243 147.586Z" fill-rule="evenodd"/><text fill="#000000" fill-opacity="0" font-family="Arial,Arial_MSFontService,sans-serif" font-size="49.4028" x="797.138" y="190.813">𝑡</text><g clip-path="url(#clip32)" filter="url(#fx15)" transform="translate(864 188)"><g><path d="M5.20532 1.00836 12.2976 1.00836C12.6759 2.89964 12.865 4.7639 12.865 6.60114 12.865 8.49241 12.5408 10.2216 11.8923 11.7886 11.2439 13.3557 10.2104 14.916 8.79199 16.4695 7.37353 18.0231 5.42147 19.732 2.93579 21.5963L0.747315 19.1241C2.12524 17.8272 3.12492 16.6587 3.74634 15.6185 4.36776 14.5783 4.81356 13.3962 5.08374 12.0723 5.35392 10.7484 5.48901 9.08681 5.48901 7.08746 5.48901 5.03408 5.39445 3.00771 5.20532 1.00836Z" fill-rule="evenodd"/></g></g><path d="M866.738 186.938 873.83 186.938C874.208 188.829 874.398 190.693 874.398 192.531 874.398 194.422 874.073 196.151 873.425 197.718 872.776 199.285 871.743 200.846 870.325 202.399 868.906 203.953 866.954 205.662 864.468 207.526L862.28 205.054C863.658 203.757 864.657 202.588 865.279 201.548 865.9 200.508 866.346 199.326 866.616 198.002 866.886 196.678 867.022 195.016 867.022 193.017 867.022 190.964 866.927 188.937 866.738 186.938Z" fill-rule="evenodd"/><text fill="#000000" fill-opacity="0" font-family="Arial,Arial_MSFontService,sans-serif" font-size="20.5879" x="862.28" y="204.952">,</text><g clip-path="url(#clip33)" filter="url(#fx16)" transform="translate(894 158)"><g><path d="M29.2434 4.21979C28.2167 4.21979 27.2373 4.40216 26.3052 4.76691 25.373 5.13166 24.4004 5.75307 23.3872 6.63117 22.374 7.50926 21.4081 8.69131 20.4895 10.1773 19.5709 11.6633 18.7468 13.4127 18.0173 15.4256 17.2878 17.4385 16.5854 20.0119 15.9099 23.1461L14.4915 29.671C14.4374 29.9682 14.3766 30.3937 14.3091 30.9476 14.2415 31.5014 14.2078 32.008 14.2078 32.4673 14.2078 34.1965 14.917 35.5272 16.3354 36.4593 17.7539 37.3914 19.6384 37.8575 21.989 37.8575 24.7719 37.8575 27.2373 36.7295 29.3853 34.4734 31.5332 32.2174 33.2016 29.1103 34.3904 25.1522 35.5792 21.194 36.1736 17.2561 36.1736 13.3384 36.1736 11.5823 35.9912 10.049 35.6265 8.73859 35.2617 7.42821 34.566 6.34748 33.5393 5.4964 32.5126 4.64533 31.0806 4.21979 29.2434 4.21979ZM30.2971 1.01813C32.9179 1.01813 35.2279 1.55174 37.2273 2.61896 39.2266 3.68618 40.7397 5.23298 41.7664 7.25934 42.793 9.28571 43.3064 11.7714 43.3064 14.7164 43.3064 19.3095 42.408 23.6662 40.6113 27.7864 38.8146 31.9067 36.3154 35.1489 33.1138 37.513 29.9121 39.8771 26.3254 41.0591 22.3538 41.0591 20.5165 41.0591 18.7738 40.897 17.1257 40.5728 15.4776 40.2486 13.8295 39.6947 12.1814 38.9112L7.96655 57.9185 1.32007 57.9185 9.54712 21.2413C10.5198 16.9184 11.9112 13.2979 13.7214 10.3799 15.5317 7.46198 17.8282 5.17218 20.6111 3.51056 23.394 1.84894 26.6226 1.01813 30.2971 1.01813Z" fill-rule="evenodd"/></g></g><path d="M920.776 160.149C919.749 160.149 918.77 160.332 917.838 160.696 916.906 161.061 915.933 161.683 914.92 162.561 913.907 163.439 912.941 164.621 912.022 166.107 911.103 167.593 910.279 169.342 909.55 171.355 908.82 173.368 908.118 175.941 907.442 179.076L906.024 185.6C905.97 185.898 905.909 186.323 905.842 186.877 905.774 187.431 905.74 187.938 905.74 188.397 905.74 190.126 906.45 191.457 907.868 192.389 909.286 193.321 911.171 193.787 913.522 193.787 916.304 193.787 918.77 192.659 920.918 190.403 923.066 188.147 924.734 185.04 925.923 181.082 927.112 177.124 927.706 173.186 927.706 169.268 927.706 167.512 927.524 165.979 927.159 164.668 926.794 163.358 926.099 162.277 925.072 161.426 924.045 160.575 922.613 160.149 920.776 160.149ZM921.83 156.948C924.45 156.948 926.76 157.481 928.76 158.548 930.759 159.616 932.272 161.163 933.299 163.189 934.326 165.215 934.839 167.701 934.839 170.646 934.839 175.239 933.941 179.596 932.144 183.716 930.347 187.836 927.848 191.078 924.646 193.443 921.445 195.807 917.858 196.989 913.886 196.989 912.049 196.989 910.306 196.827 908.658 196.502 907.01 196.178 905.362 195.624 903.714 194.841L899.499 213.848 892.853 213.848 901.08 177.171C902.052 172.848 903.444 169.227 905.254 166.309 907.064 163.392 909.361 161.102 912.144 159.44 914.927 157.778 918.155 156.948 921.83 156.948Z" fill-rule="evenodd"/><text fill="#000000" fill-opacity="0" font-family="Arial,Arial_MSFontService,sans-serif" font-size="56.9004" x="892.853" y="206.736">𝜌</text><g clip-path="url(#clip34)" filter="url(#fx17)" transform="translate(948 135)"><g><path d="M65.6714 1.29662C73.5607 3.37702 79.6196 7.8688 83.848 14.772 88.0763 21.6751 90.1905 30.0035 90.1905 39.7571 90.1905 49.5377 88.0831 57.866 83.8682 64.7422 79.6534 71.6183 73.5878 76.0966 65.6714 78.177L64.6988 75.0564C70.94 72.976 75.5804 68.8692 78.6199 62.7361 81.6595 56.6029 83.1793 48.8082 83.1793 39.3518 83.1793 30.2196 81.6662 22.6343 78.6402 16.5957 75.6141 10.5571 70.9265 6.49763 64.5772 4.41722ZM25.9407 1.29662 27.0349 4.41722C20.7126 6.49763 16.0317 10.5571 12.9922 16.5957 9.95264 22.6343 8.43286 30.2196 8.43286 39.3518 8.43286 48.8082 9.95264 56.6029 12.9922 62.7361 16.0317 68.8692 20.6721 72.976 26.9133 75.0564L25.9407 78.177C18.0244 76.0966 11.9587 71.6183 7.7439 64.7422 3.52905 57.866 1.42163 49.5377 1.42163 39.7571 1.42163 30.0035 3.53583 21.6751 7.76416 14.772 11.9926 7.8688 18.0514 3.37702 25.9407 1.29662Z" fill-rule="evenodd"/></g></g><path d="M1011.2 134.226C1019.09 136.307 1025.15 140.798 1029.38 147.702 1033.61 154.605 1035.72 162.933 1035.72 172.687 1035.72 182.467 1033.62 190.796 1029.4 197.672 1025.19 204.548 1019.12 209.026 1011.2 211.107L1010.23 207.986C1016.47 205.906 1021.11 201.799 1024.15 195.666 1027.19 189.532 1028.71 181.738 1028.71 172.281 1028.71 163.149 1027.2 155.564 1024.17 149.525 1021.15 143.487 1016.46 139.427 1010.11 137.347ZM971.473 134.226 972.567 137.347C966.245 139.427 961.564 143.487 958.525 149.525 955.485 155.564 953.965 163.149 953.965 172.281 953.965 181.738 955.485 189.532 958.525 195.666 961.564 201.799 966.205 205.906 972.446 207.986L971.473 211.107C963.557 209.026 957.491 204.548 953.276 197.672 949.062 190.796 946.954 182.467 946.954 172.687 946.954 162.933 949.068 154.605 953.297 147.702 957.525 140.798 963.584 136.307 971.473 134.226Z" fill-rule="evenodd"/><g clip-path="url(#clip35)" filter="url(#fx18)" transform="translate(980 149)"><g><path d="M12.2104 0.656315 17.8032 0.656315 15.5742 10.6666 27.8945 10.6666 27.0029 14.7598 14.6826 14.7598 11.0757 30.4844C10.3732 33.5375 9.92741 35.7327 9.73828 37.0701 9.54915 38.4075 9.45459 39.4815 9.45459 40.2921 9.45459 43.6423 10.846 45.3174 13.6289 45.3174 14.8177 45.3174 16.0808 44.8649 17.4182 43.9598 18.7556 43.0547 20.3429 41.5079 22.1802 39.3194L24.5308 41.751C22.1802 44.588 19.9174 46.6819 17.7424 48.0328 15.5675 49.3837 13.2912 50.0591 10.9136 50.0591 5.26676 50.0591 2.44336 47.2087 2.44336 41.5079 2.44336 39.6977 2.67301 37.7929 3.13232 35.7935L7.91455 14.7598 1.10596 14.7598 1.71387 11.9634C3.30794 11.9364 4.51701 11.8148 5.34106 11.5987 6.16512 11.3826 6.85408 11.0854 7.40796 10.7071 7.96183 10.3288 8.46842 9.78848 8.92773 9.086 9.38704 8.38353 9.83284 7.48517 10.2651 6.39093 10.6974 5.2967 11.3459 3.38516 12.2104 0.656315Z" fill-rule="evenodd"/></g></g><path d="M989.743 147.586 995.336 147.586 993.107 157.596 1005.43 157.596 1004.54 161.689 992.215 161.689 988.608 177.414C987.906 180.467 987.46 182.662 987.271 184 987.082 185.337 986.987 186.411 986.987 187.222 986.987 190.572 988.379 192.247 991.161 192.247 992.35 192.247 993.613 191.794 994.951 190.889 996.288 189.984 997.875 188.437 999.713 186.249L1002.06 188.681C999.713 191.517 997.45 193.611 995.275 194.962 993.1 196.313 990.824 196.989 988.446 196.989 982.799 196.989 979.976 194.138 979.976 188.437 979.976 186.627 980.206 184.722 980.665 182.723L985.447 161.689 978.638 161.689 979.246 158.893C980.84 158.866 982.05 158.744 982.874 158.528 983.698 158.312 984.387 158.015 984.94 157.637 985.494 157.258 986.001 156.718 986.46 156.016 986.92 155.313 987.365 154.415 987.798 153.32 988.23 152.226 988.878 150.315 989.743 147.586Z" fill-rule="evenodd"/><text fill="#000000" fill-opacity="0" font-family="Arial,Arial_MSFontService,sans-serif" font-size="49.4028" x="978.638" y="190.813">𝑡</text></g></svg>